<?xml version="1.0" encoding="UTF-8" standalone="no"?>
<!-- Generator: Adobe Illustrator 16.0.0, SVG Export Plug-In . SVG Version: 6.00 Build 0)  -->

<svg
   version="1.1"
   id="Layer_1"
   x="0px"
   y="0px"
   width="1000px"
   height="300px"
   viewBox="0 0 1000 300"
   enable-background="new 0 0 1000 300"
   xml:space="preserve"
   sodipodi:docname="arcadia.svg"
   inkscape:version="1.2.1 (9c6d41e410, 2022-07-14)"
   xmlns:inkscape="http://www.inkscape.org/namespaces/inkscape"
   xmlns:sodipodi="http://sodipodi.sourceforge.net/DTD/sodipodi-0.dtd"
   xmlns="http://www.w3.org/2000/svg"
   xmlns:svg="http://www.w3.org/2000/svg"><defs
   id="defs1205" /><sodipodi:namedview
   id="namedview1203"
   pagecolor="#ffffff"
   bordercolor="#666666"
   borderopacity="1.0"
   inkscape:showpageshadow="2"
   inkscape:pageopacity="0.0"
   inkscape:pagecheckerboard="0"
   inkscape:deskcolor="#d1d1d1"
   showgrid="false"
   inkscape:zoom="2.612"
   inkscape:cx="208.26953"
   inkscape:cy="150.07657"
   inkscape:window-width="1728"
   inkscape:window-height="833"
   inkscape:window-x="-8"
   inkscape:window-y="-8"
   inkscape:window-maximized="1"
   inkscape:current-layer="Layer_1" />
<g
   id="g1166">
	<path
   d="M635.153,46.499c7.146-7.551,17.843-10.568,27.982-10.68c9.703-0.056,19.961,1.611,27.918,7.535   c12.563,9.274,13.65,29.618,3.327,40.956c-6.249,7.179-14.857,11.554-22.717,16.66c9.369,0.04,18.748,0,28.124,0.024   c0,7.535,0,15.07,0,22.606c-19.89,0-39.789,0.016-59.68-0.007c-4.875,0.007-10.085-1.874-12.832-6.098   c-3.86-5.749-2.009-14.143,3.398-18.256c10.743-8.083,21.574-16.063,32.356-24.099c3.525-2.676,6.98-6.996,5.543-11.697   c-1.198-4.089-6.972-4.907-9.83-2.088c-2.247,2.136-2.708,5.423-2.7,8.377c-9.687,0-19.373,0.008-29.069-0.008   C626.769,61.355,629.229,52.628,635.153,46.499z"
   id="path1128" />
	<g
   id="g1132">
		<path
   d="M71.533,38.78c6.606-3.804,15.126-3.922,21.956-0.619c5.335,2.581,8.957,7.766,10.664,13.332    c7.543,24.028,15.046,48.072,22.558,72.107c-10.37,0-20.749,0.008-31.126-0.007c-0.92-4.399-1.85-8.798-2.787-13.197    c-6.479-0.017-12.958-0.017-19.446,0c-0.913,4.399-1.866,8.798-2.771,13.204c-10.426-0.007-20.844,0.032-31.27-0.023    c7.575-24.004,15.086-48.032,22.67-72.036C63.617,46.396,66.785,41.543,71.533,38.78z M77.56,90.576    c3.676,0,7.361,0.007,11.037-0.008c-1.85-8.496-3.708-16.992-5.582-25.489C81.181,73.576,79.371,82.072,77.56,90.576z"
   id="path1130" />
	</g>
	<g
   id="g1136">
		<path
   d="M296.645,38.559c6.741-3.677,15.364-3.652,22.153-0.088c5.051,2.676,8.441,7.71,10.092,13.078    c7.527,24.012,15.031,48.032,22.535,72.051c-10.379,0-20.757,0.016-31.126-0.007c-0.921-4.399-1.85-8.798-2.788-13.197    c-6.479-0.008-12.966-0.017-19.446,0c-0.905,4.406-1.866,8.798-2.771,13.197c-10.426-0.008-20.852,0.063-31.277-0.032    c7.606-24.003,15.095-48.048,22.686-72.051C288.386,46.228,291.697,41.265,296.645,38.559z M307.729,65.087    c-1.851,8.489-3.646,16.992-5.455,25.489c3.676,0,7.36,0.007,11.037-0.008C311.461,82.072,309.603,73.583,307.729,65.087z"
   id="path1134" />
	</g>
	<g
   id="g1140">
		<path
   d="M498.331,38.559c6.758-3.685,15.396-3.652,22.186-0.072c5.034,2.675,8.416,7.71,10.061,13.07    c7.527,24.012,15.038,48.031,22.534,72.051c-10.378-0.015-20.756,0.008-31.135-0.015c-0.912-4.408-1.842-8.806-2.779-13.205    c-6.479,0-12.966-0.009-19.445,0.008c-0.913,4.399-1.866,8.798-2.771,13.204c-10.425,0-20.843,0.024-31.27-0.016    c7.576-24.012,15.088-48.032,22.671-72.044C490.058,46.253,493.376,41.265,498.331,38.559z M503.961,90.576    c3.676,0,7.353,0.007,11.036-0.008c-1.842-8.489-3.715-16.977-5.573-25.465C507.55,73.583,505.777,82.079,503.961,90.576z"
   id="path1138" />
	</g>
	<g
   id="g1144">
		<path
   d="M733.479,36.978c10.49-2.263,22.13-0.96,31.134,5.162c9.934,6.63,15.223,18.351,16.676,29.904    c1.509,12.427,0.311,25.702-6.019,36.725c-4.623,8.154-12.626,14.301-21.75,16.491c-11.821,2.867-25.328,1.025-34.801-6.995    c-8.704-7.257-13.056-18.501-14.191-29.546c-1.206-12.244,0.224-25.298,6.798-35.946C716.17,44.776,724.341,38.939,733.479,36.978    z M741.15,60.315c-4.034,1.016-6.13,5.13-7.154,8.822c-1.683,6.384-1.676,13.117-0.913,19.645    c0.651,4.359,1.803,9.203,5.47,12.038c3.384,2.556,8.632,1.524,10.982-1.954c3.344-4.731,3.803-10.791,4.011-16.396    c0.008-6.067-0.255-12.522-3.318-17.93C748.512,61.378,744.731,59.322,741.15,60.315z"
   id="path1142" />
	</g>
	<g
   id="g1148">
		<path
   d="M816.701,36.971c10.49-2.256,22.131-0.946,31.143,5.184c9.902,6.631,15.184,18.319,16.636,29.848    c1.524,12.459,0.325,25.783-6.042,36.828c-4.614,8.115-12.594,14.229-21.678,16.42c-11.848,2.883-25.387,1.033-34.875-7.019    c-8.67-7.25-13.023-18.47-14.149-29.483c-1.223-12.261,0.206-25.33,6.789-35.986C799.375,44.768,807.556,38.931,816.701,36.971z     M824.324,60.323c-2.929,0.699-4.947,3.271-6.099,5.916c-1.969,4.573-2.366,9.639-2.421,14.57    c0.023,5.233,0.35,10.64,2.493,15.492c1.199,2.755,3.469,5.375,6.591,5.836c3.382,0.667,6.82-1.262,8.474-4.193    c2.992-5.129,3.317-11.283,3.389-17.08c-0.119-5.725-0.516-11.839-3.637-16.817C831.327,61.133,827.69,59.386,824.324,60.323z"
   id="path1146" />
	</g>
	<g
   id="g1152">
		<path
   d="M127.299,51.397c-0.325-7.512,6.948-13.355,14.158-12.911c10.037,0.007,20.074-0.04,30.11,0.024    c8.313,0.143,16.929,3.12,22.455,9.56c7.091,8.313,9.275,21.296,3.629,30.944c-2.827,4.828-7.218,8.561-12.029,11.323    c6.813,11.093,13.634,22.178,20.438,33.27c-11.315-0.102-22.646,0.183-33.946-0.143c-3.986-7.933-8.234-15.722-12.323-23.591    c-1.341-2.335-2.493-4.789-3.057-7.44c0.055,10.394,0.008,20.78,0.023,31.166c-9.822,0.008-19.644,0.008-29.467,0    C127.307,99.532,127.275,75.465,127.299,51.397z M156.75,61.109c-0.023,8.163,0.08,16.326-0.047,24.488    c0.777-2.755,2.088-5.447,4.311-7.322c2.295-2.183,5.686-2.62,7.925-4.875c3.073-2.954,2.351-8.679-1.271-10.878    C164.405,60.497,160.394,61.228,156.75,61.109z"
   id="path1150" />
	</g>
	<path
   d="M219.344,46.832c8.353-5.638,18.525-8.044,28.514-8.313c5.122-0.08,10.243-0.024,15.372-0.032   c0.009,8.424,0,16.85,0,25.274c-7.694,0.262-16.119-1.215-23.003,3.144c-9.807,5.773-9.877,22.217-0.175,28.125   c6.876,4.526,15.42,3.033,23.178,3.295c0,8.425,0.009,16.85-0.008,25.282c-9.091-0.15-18.326,0.612-27.267-1.445   c-10.41-2.191-20.422-7.733-26.561-16.603c-6.924-9.886-8.44-22.757-6.177-34.415C205.115,61.331,210.967,52.334,219.344,46.832z"
   id="path1154" />
	<g
   id="g1158">
		<path
   d="M361.509,38.931c8.091-0.977,16.318-0.199,24.464-0.453c9.592-0.413,19.28,2.446,27.038,8.115    c9.821,7.036,16.611,18.294,17.778,30.372c1.152,10.91-2.406,22.123-9.346,30.57c-7.941,9.862-20.351,16.104-33.063,16.063    c-8.171-0.04-16.333,0.088-24.496-0.063c-6.575-0.222-12.752-5.742-12.657-12.521c-0.008-20.105-0.048-40.211,0.024-60.316    C351.361,44.966,355.975,40.003,361.509,38.931z M380.67,98.31c6.178,0.366,13.006-1.557,16.707-6.837    c4.812-7.019,4.216-17.897-2.461-23.559c-3.899-3.343-9.211-4.296-14.206-4.177C380.63,75.259,380.709,86.789,380.67,98.31z"
   id="path1156" />
	</g>
	<path
   d="M435.387,38.487c9.814-0.008,19.637-0.008,29.458,0c0,28.371,0,56.742,0,85.113c-9.821,0.008-19.645,0-29.467,0   C435.387,95.229,435.379,66.857,435.387,38.487z"
   id="path1160" />
	<path
   d="M868.519,38.487c7.703,0.024,15.412-0.08,23.115,0.047c5.534,0.199,11.648,2.089,14.722,7.051   c2.778,4.32,2.627,9.656,2.572,14.587c0,21.146-0.008,42.283,0,63.428c-9.742,0.008-19.485,0-29.229,0   c-0.008-19.017,0-38.043,0-57.06c0.016-1.04-0.166-2.509-1.43-2.724c-3.256-0.143-6.512,0.008-9.759-0.079   C868.527,55.32,868.511,46.903,868.519,38.487z"
   id="path1162" />
	<path
   d="M567.474,75.76c12.998,0,26.005-0.031,39.003,0.016c-0.04,6.979,0.009,13.967-0.024,20.954   c-12.997-0.031-25.996,0.009-38.986-0.024C567.481,89.727,567.466,82.74,567.474,75.76z"
   id="path1164" />
</g>
<polygon
   fill="#ED1C24"
   points="133.333,149 79.311,149 39.311,256.332 93.333,256.332 "
   id="polygon1168" />
<polygon
   fill="#8DC63F"
   points="209.354,149 155.333,149 115.333,256.332 169.354,256.332 "
   id="polygon1170" />
<polygon
   fill="#1C75BC"
   points="287.021,149 233,149 193,256.332 247.021,256.332 "
   id="polygon1172" />
<g
   id="g1176">
	<path
   id="path1174"
   d="m 609.79102,183.89258 -7.26758,0.11719 h -7.15235 v 0.004 h -7.15429 l -3.51758,0.23242 -3.28125,0.58789 -3.04883,1.05469 -2.58008,1.29102 -2.10937,1.52148 -1.52344,1.75781 -0.58594,0.93946 -0.46875,0.9375 -0.23437,1.05273 -0.11524,0.9375 0.11524,1.99219 0.35156,1.52734 0.58789,1.16992 0.81836,0.9375 0.9375,0.70313 0.93945,0.4668 1.05664,0.23633 1.16993,0.11523 1.05468,-0.11523 1.17188,-0.35157 1.05664,-0.58789 1.05664,-0.81836 0.9375,-0.93945 0.70312,-1.16992 0.46875,-1.17383 0.23633,-1.28906 -0.23633,-1.17188 -0.58593,-1.05469 -0.82032,-0.82031 -0.82226,-0.70508 -1.64063,-0.82031 -0.82031,-0.23242 0.46875,-0.82227 0.82227,-0.58203 0.82031,-0.58789 1.05469,-0.35351 2.34375,-0.46875 2.46289,-0.11719 h 9.61133 l 1.75976,0.11719 1.52149,0.11914 0.58789,0.34961 0.35351,0.35351 0.23242,0.70117 v 0.9375 l -0.4707,1.52539 -0.58398,1.875 -1.40821,3.39844 -17.46484,42.31641 -1.05469,2.46094 -1.76172,3.40039 -1.75781,3.16406 -0.9375,1.29101 -0.81836,0.93555 -1.40625,0.93945 -1.99414,0.9375 -2.10742,0.70313 -1.52734,0.35156 -3.63282,-0.11523 -0.9375,0.11523 -0.70312,0.23242 -0.58789,0.35547 -0.23438,0.58399 0.11914,1.05468 0.4668,0.58594 0.82227,0.35156 h 0.93554 l 19.9336,-0.23242 h 17.46484 17.58594 l 2.10937,-0.11914 0.70117,-0.23242 0.58789,-0.23242 0.47071,-0.58789 0.34961,-0.70313 0.9375,-2.34375 2.81445,-7.0332 0.9375,-2.11133 0.58789,-1.99414 -0.11719,-1.05273 -0.58593,-1.05664 -0.58789,-0.70313 h -0.35157 l -0.23633,0.23633 -1.16992,2.10742 -1.29101,2.3457 -1.64063,2.46094 -1.05664,1.17383 -1.16992,1.28906 -1.40625,1.17188 -1.75781,1.05664 -1.99414,0.9375 -2.34571,0.81836 -2.69531,0.70508 -3.04883,0.58593 -3.51562,0.23633 -3.98828,0.11524 h -1.875 l -0.82032,-0.11524 -0.58593,-0.35547 -0.58399,-0.46679 -0.23633,-0.70508 -0.11914,-1.05469 v -1.52344 l 0.70703,-2.22851 1.17188,-3.04493 2.22851,-5.39453 1.99024,-4.21875 3.63476,-8.32226 0.70313,-1.52344 0.82227,-1.17383 0.70312,-0.81836 0.70313,-0.4707 1.05468,-0.4707 0.35157,-0.11328 h 1.87695 l 1.99023,0.11328 1.75977,0.4707 0.82226,0.35352 0.70313,0.58593 0.93555,1.28907 0.35547,1.28906 v 1.40625 l -0.1211,1.64258 -0.23242,1.52343 v 1.40625 l 0.23242,0.58594 0.23633,0.46875 0.58594,0.23242 0.70312,0.11914 0.70313,-0.11914 0.58593,-0.23242 0.35547,-0.46875 0.23242,-0.4707 0.81836,-2.57813 5.62696,-15.11914 0.70312,-1.87695 0.58789,-1.87305 v -0.82422 l -0.12109,-0.46679 -0.34766,-0.23438 -0.70312,-0.11719 -0.58594,0.11719 -0.58789,0.23438 -0.93945,0.82031 -1.40625,2.34375 -1.63867,2.46094 -1.75977,1.64062 -1.64063,1.05469 -1.64257,0.58789 -1.64063,0.23437 h -1.52344 l -2.46093,-0.11914 -1.40821,-0.23242 -0.58398,-0.23242 -0.4707,-0.35156 -0.35157,-0.47071 -0.11914,-0.70312 0.11914,-0.70313 0.35157,-1.05468 4.92382,-11.72461 3.75196,-9.72852 1.05468,-2.58008 0.46875,-0.81836 0.58594,-0.70312 0.70508,-0.46875 0.81836,-0.35156 1.05469,-0.23438 h 1.52343 5.62696 2.34765 l 2.10743,0.11719 1.75781,0.58398 0.82031,0.46875 0.82227,0.58789 -0.58789,-0.58789 v -0.11523 h 0.12109 l 1.28516,1.05469 0.82226,0.93945 0.81836,1.16992 0.70313,1.29102 0.23632,1.40625 -0.23632,1.40429 -0.35157,1.52344 -0.11523,0.82227 v 0.58398 l 0.35156,0.35352 0.4668,0.11523 0.58789,-0.11523 0.4707,-0.58789 0.70117,-1.28907 0.47071,-1.05468 0.34961,-1.05664 2.22851,-4.80664 1.29102,-3.04493 0.70117,-1.75976 -0.11328,-0.70313 -0.35352,-0.35351 -0.58789,-0.11524 -0.58789,-0.11718 h -18.05078 z m -135.86914,0.11719 v 72.08984 h 72.09765 v -72.08984 z m 36.10742,3.40039 3.28125,0.11718 3.28125,0.58594 3.16406,0.70508 2.93359,1.16992 2.92969,1.40625 2.58008,1.64258 2.58008,1.87305 2.3457,2.10937 2.10742,2.22852 1.875,2.57617 1.64258,2.69726 1.40625,2.8125 1.05469,3.04883 0.82031,3.16602 0.4707,3.16406 0.11719,3.39649 -0.11719,3.28515 -0.4707,3.28125 -0.82031,3.16602 -1.05469,2.93164 -1.40625,2.92773 -1.64258,2.69727 -1.875,2.46094 -2.10742,2.34374 -2.3457,2.11329 -2.58008,1.87304 -2.58008,1.64258 -2.92969,1.4043 -2.93359,1.05664 -3.16406,0.82031 -3.28125,0.46875 -3.28125,0.23438 -3.39844,-0.23438 -3.2832,-0.46875 -3.04883,-0.82031 -3.04688,-1.05664 -2.81445,-1.4043 -2.69531,-1.64258 -2.58008,-1.87304 -2.34375,-2.11329 -2.10938,-2.34374 -1.87695,-2.46094 -1.64062,-2.69727 -1.28907,-2.92773 -1.17187,-2.93164 -0.82031,-3.16602 -0.46875,-3.28125 -0.11719,-3.28515 0.11719,-3.39649 0.46875,-3.16406 0.82031,-3.16602 1.17187,-3.04883 1.28907,-2.8125 1.64062,-2.69726 1.87695,-2.57617 2.10938,-2.22852 2.34375,-2.10937 2.58008,-1.87305 2.69531,-1.64258 2.81445,-1.40625 3.04688,-1.16992 3.04883,-0.70508 3.2832,-0.58594 z m 1.05664,2.45507 -0.58789,0.1211 -0.58203,0.35156 -0.70313,0.4668 -0.58789,0.82226 -0.58789,0.93555 -0.34961,1.17578 -0.35352,1.40625 -0.11523,1.64258 0.23242,3.2793 0.47071,2.46093 0.8164,2.22852 -1.28711,0.81836 -1.99023,1.05469 -2.46485,1.29101 -2.57812,1.75781 -1.40625,1.05469 -1.17383,1.17578 -1.17187,1.28516 -1.05274,1.52734 -0.82031,1.63868 -0.70313,1.87695 -0.4707,2.10937 -0.11719,2.34375 0.11719,2.22657 0.4707,2.11132 0.58399,1.75782 0.93945,1.52343 0.9375,1.40625 1.17188,1.05664 1.40625,1.05274 1.28906,0.70508 3.04883,1.05664 2.92968,0.46875 h 2.69922 l 2.3418,-0.35352 0.58789,1.29102 0.35352,1.17187 0.23242,1.52344 v 3.16406 l -0.11914,1.29102 -0.23242,0.4668 -0.35157,0.35351 -0.4707,0.11719 -0.35156,-0.11719 -0.70313,-0.70312 -0.46679,-0.4668 -0.70313,-0.4707 -0.93945,-0.35157 -1.17383,-0.11914 -1.16992,0.11914 -0.93946,0.23242 -0.82031,0.35157 -0.58594,0.4707 -0.35156,0.58399 -0.35351,0.70703 -0.11524,1.75781 v 0.9375 l 0.23242,0.70312 0.46875,0.70313 0.47071,0.46875 1.40429,0.70312 1.52539,0.23438 1.05665,-0.23438 1.29101,-0.4707 1.51953,-0.81836 1.52539,-1.05664 1.28907,-1.28906 1.17382,-1.52344 0.81641,-1.75781 0.23633,-1.75977 v -7.38281 l 1.75781,-0.58789 1.99414,-0.82031 1.87305,-1.17188 1.75781,-1.40625 1.52734,-1.75976 1.28907,-1.99219 0.82031,-2.34375 0.23437,-2.57813 v -1.40625 l -0.35156,-1.28906 -0.35547,-1.28906 -0.58398,-1.17383 -1.52344,-2.11133 -1.87695,-1.75781 -2.10938,-1.40625 -2.34375,-0.93555 -2.46093,-0.4707 h -2.23047 l -0.58399,-1.87305 -0.82226,-3.75195 0.4707,-0.47266 0.9375,-1.52148 0.4707,-1.16992 0.46875,-1.40821 0.35157,-1.64062 0.11523,-1.87695 -0.11328,-1.75977 -0.23242,-1.52344 -0.47071,-1.05468 -0.46875,-0.9375 -0.58593,-0.5879 -0.46875,-0.35156 z m -0.11719,2.69922 0.4668,0.23633 0.46875,0.58399 0.35351,1.17382 0.11719,1.64063 h -0.002 v 1.64453 l -0.23438,1.40625 -0.58789,1.75781 -0.58203,0.81836 -0.23633,0.23633 -0.58789,-1.40625 -0.4668,-1.64258 -0.23632,-2.3457 0.23632,-1.75781 0.23438,-1.17188 0.46875,-0.82226 z m 328.35352,7.15039 -2.46094,0.23633 -2.57813,0.4668 -2.46289,0.70312 -2.46093,1.05469 -2.34571,1.17578 -2.3457,1.51953 -2.10938,1.64453 -2.10937,1.75782 -1.87695,1.99414 -1.75782,2.10937 -1.52539,2.34375 -1.28711,2.22461 -1.05859,2.46485 -0.81641,2.46093 -0.4707,2.46094 -0.11914,2.46094 0.23633,4.33789 0.35351,2.10937 0.46875,1.99219 0.58594,1.99219 0.82031,1.75977 1.05469,1.64453 1.16992,1.40429 1.40625,1.05274 1.29102,0.9375 1.40625,0.70312 1.40625,0.58789 3.04687,0.70313 3.28321,0.23437 2.3457,-0.23437 2.3457,-0.35352 2.3418,-0.70312 2.3457,-0.9375 2.22852,-1.05469 2.22656,-1.40625 2.10938,-1.52344 1.99414,-1.75976 1.875,-1.99219 1.75781,-1.99219 1.64258,-2.22656 1.40625,-2.3457 1.17383,-2.46289 1.05468,-2.57813 0.82032,-2.57617 0.46874,-2.69727 0.23438,-2.3457 v -2.10938 l -0.23438,-1.99023 -0.46874,-1.87695 -0.58594,-1.75977 -0.82032,-1.64258 -0.9375,-1.40625 -1.17382,-1.40625 -1.28711,-1.17187 -1.29102,-0.93555 -1.52148,-0.93945 -1.64258,-0.70313 -1.64258,-0.58593 -1.87695,-0.46875 -1.75781,-0.23438 z m -38.92188,1.05469 -2.11133,0.11914 -1.99218,0.23242 -1.75977,0.47071 -1.75781,0.58398 -1.52149,0.70313 -1.41015,0.93945 -1.28711,0.82031 -1.17188,1.05469 -1.87695,2.22852 -1.40625,2.3457 -0.82031,2.3418 -0.23243,2.22851 0.11524,2.22656 0.35351,1.87696 0.58399,1.63867 0.70312,1.4082 0.82227,1.28906 0.93555,1.05469 1.99414,1.875 2.10937,1.75977 1.75977,1.87695 0.70117,1.05469 0.58789,1.17383 0.35156,1.40625 0.11719,1.63867 -0.23633,2.22851 -0.69922,1.75782 -1.05859,1.29101 -1.40625,1.05469 -1.4043,0.70312 -1.64453,0.35157 -1.4043,0.23242 -1.40625,0.11914 -1.99414,-0.11914 -1.29101,-0.23242 -0.9375,-0.4668 -0.4668,-0.35352 -0.23437,-0.46875 v -0.35351 -0.4668 l 0.81836,-0.23437 1.64453,-1.17188 0.9375,-0.82031 0.70312,-1.05469 0.58594,-1.41016 0.23437,-1.52148 -0.23437,-1.64258 -0.46875,-1.28711 -0.70313,-1.05664 -0.93945,-0.82226 -1.05469,-0.70117 -1.17187,-0.35157 -1.29102,-0.23437 -1.16797,-0.1211 -1.05664,0.11719 -1.16992,0.35352 -1.17383,0.46875 -1.05468,0.70312 -1.05469,0.9375 -0.70313,1.05469 -0.4707,1.4082 -0.23242,1.52344 0.11523,1.75781 0.4668,1.87696 0.93945,1.875 1.4043,1.87304 0.93945,0.82032 1.16992,0.70703 1.29102,0.70312 1.4082,0.58399 1.75782,0.58789 1.87695,0.34961 2.10742,0.23632 h 2.3457 l 2.58008,-0.11718 2.34375,-0.35352 2.10938,-0.58398 1.99414,-0.82227 1.75976,-0.9375 1.63868,-1.05273 1.4082,-1.17578 1.17187,-1.16993 2.10938,-2.57812 1.28711,-2.58008 0.82226,-2.22656 0.35352,-1.75977 -0.11719,-1.40625 -0.35156,-1.52344 -0.58789,-1.4082 -0.70313,-1.28906 -1.75781,-2.81055 -2.10937,-2.69726 -1.99219,-2.57813 -1.76172,-2.69531 -0.70312,-1.29102 -0.58399,-1.28906 -0.35351,-1.40625 -0.11524,-1.28711 0.23438,-1.41016 0.46679,-1.17187 0.82031,-0.9375 0.9375,-0.70313 0.93946,-0.58593 0.9375,-0.35352 1.29101,-0.23242 0.23243,0.11523 0.23437,0.23633 v 0.9375 l -0.11719,3.40039 0.11719,1.05469 0.35156,1.05469 0.46875,0.9375 0.70313,0.93554 0.9375,0.82422 1.05859,0.58399 1.28711,0.4707 1.52539,0.11524 1.4043,-0.11524 1.17187,-0.4707 1.05664,-0.70508 0.70313,-0.81836 0.70117,-0.9375 0.35352,-1.05664 0.23633,-0.9375 0.11328,-0.93555 -0.11328,-1.05664 -0.35547,-1.05468 -0.58399,-1.28907 -1.16992,-1.17578 -1.64258,-1.05469 -2.22851,-0.93554 -3.04883,-0.58594 z m 97.6543,0.82227 -1.52539,0.11914 -1.51953,0.35156 -2.81446,1.05469 -2.58008,1.52343 -2.22851,1.75782 -1.99219,1.75976 -1.40625,1.52149 -1.28906,1.52539 0.35156,-1.41016 0.11719,-1.52148 v -1.75782 l -0.46875,-1.75781 -0.46875,-0.70508 -0.58789,-0.81835 -0.81836,-0.5879 -1.0586,-0.46875 -1.17187,-0.23437 -1.52148,-0.11719 -1.52344,0.11719 -1.52344,0.23437 -3.04883,0.9375 -2.81445,1.29102 -2.57617,1.52148 -1.99414,1.52344 -1.64258,1.28711 -1.40625,1.29102 v 0.35351 0.35157 l 0.23242,0.4707 0.35547,0.23242 0.4668,0.23633 h 0.46875 l 2.81445,-2.10938 2.11133,-1.40625 0.82031,-0.35351 0.70117,-0.23438 0.58789,0.11524 0.58399,0.35351 0.23633,0.58594 -0.11719,1.05469 -0.70313,2.93164 -1.28906,3.75 -1.4082,3.63476 -10.08203,23.67969 -0.11524,0.58399 0.23242,0.58789 0.58594,0.35156 0.82031,0.11914 h 8.91211 l 1.17188,-0.11914 0.70117,-0.35156 0.35352,-0.58789 0.23242,-0.58594 9.02539,-18.40235 4.68945,-8.79101 2.11133,-2.93164 2.69336,-3.04688 1.40625,-1.28906 1.4082,-1.05469 1.17188,-0.47265 0.58593,-0.11524 0.4668,0.11524 0.58789,0.47265 0.35156,0.70313 v 0.58398 l -0.11523,0.82227 -0.70508,1.64062 -0.70117,1.75977 -5.16016,11.95312 -3.16406,7.97071 -0.9375,3.16797 -0.46875,2.10742 0.11719,1.52343 0.23242,1.40626 0.4707,1.40624 0.70313,1.17383 0.9375,1.05469 1.05664,0.70313 1.40625,0.58398 1.75781,0.11914 1.75781,-0.11914 1.875,-0.4668 1.9961,-0.70312 1.87304,-0.93945 1.87696,-1.16993 1.875,-1.52539 1.75781,-1.75586 1.64258,-1.8789 0.11914,-0.58399 v -0.4707 l -0.23438,-0.4668 -0.46875,-0.35351 -0.58789,-0.11524 h -0.58593 l -1.40625,1.40625 -1.17188,0.9375 -1.17383,0.70508 -0.9375,0.23242 -0.58594,-0.11719 -0.35156,-0.58593 -0.11718,-1.05469 0.46874,-1.52344 1.99415,-5.27539 2.8125,-7.26758 2.69726,-7.0332 1.63867,-4.45312 0.35547,-1.41016 0.11524,-1.63672 v -1.76172 l -0.47071,-1.75781 -0.35156,-0.82031 -0.58398,-0.82032 -0.70313,-0.58398 -0.82226,-0.70313 -1.05469,-0.4707 -1.28906,-0.35156 -1.4043,-0.23242 z m -165.41016,0.35156 -1.99219,0.11914 -2.11132,0.35156 -2.22852,0.70313 -2.10938,0.81836 -2.22656,1.05468 -2.22851,1.17383 -2.10938,1.52149 -2.10937,1.64257 -1.99414,1.87891 -1.875,1.98828 -1.64063,2.23047 -1.52344,2.46094 -1.29101,2.46094 -1.16992,2.8125 -0.82032,2.81445 -0.4707,3.04687 -0.11719,1.87696 v 1.75781 l 0.11719,1.64063 0.35352,1.64257 0.46875,1.52149 0.58593,1.29101 0.70313,1.28907 0.93945,1.17187 0.93555,1.05664 1.05664,0.81836 1.17187,0.82031 1.28907,0.58399 2.81445,0.93945 3.04883,0.23242 h 1.64062 l 1.64063,-0.23242 1.52539,-0.46875 1.52344,-0.58594 3.04687,-1.52343 3.04688,-2.11133 1.29101,-1.16992 1.40625,-1.75782 1.4082,-1.87695 1.16993,-1.875 -0.23438,-0.35156 -0.58398,-0.47071 -0.70313,-0.23242 -0.4707,0.11524 -1.64063,1.99218 -1.28906,1.52539 -1.75976,1.75782 -1.99219,1.64062 -2.22852,1.28906 -2.58008,1.05469 -1.28906,0.23633 -1.40429,0.11524 -1.75782,-0.35157 -1.29101,-0.70312 -0.9375,-1.17188 -0.46875,-1.52343 -0.23438,-1.75977 0.23438,-1.875 0.46875,-2.10938 0.81836,-2.10937 0.70117,-1.4043 h 2.34375 l 2.46289,-0.35547 2.34375,-0.46679 2.34375,-0.58594 2.34766,-0.70313 2.22656,-0.9375 2.10937,-1.05468 1.875,-1.29102 1.87696,-1.28906 1.64257,-1.4043 1.52344,-1.52734 1.28906,-1.75781 1.05274,-1.63868 0.70703,-1.87695 0.58203,-1.87305 0.12109,-1.99218 -0.12109,-2.34571 -0.70117,-1.87695 -1.17188,-1.52344 -1.52343,-1.17187 -1.75782,-0.9375 -1.87695,-0.70313 -2.10937,-0.35156 z m -37.04883,0.002 -2.10742,0.11914 -1.8789,0.35157 -1.87305,0.58593 -1.64258,0.70117 -1.64258,0.82227 -1.40429,0.9375 -2.46485,1.99023 -1.99023,1.99415 -1.40625,1.75976 -1.17578,1.75977 0.58789,-3.98828 -0.35157,-1.875 -0.58789,-1.5254 -0.81836,-1.16992 -0.93945,-0.9375 -1.05469,-0.58789 -1.17187,-0.46679 -1.17188,-0.23633 -1.17187,-0.11524 -2.9336,0.23438 -2.46093,0.70312 -2.22657,1.05469 -1.99218,1.17188 -1.64258,1.52343 -1.52539,1.52344 -2.46094,2.93359 0.58789,-2.22851 -0.82031,-3.2832 -0.58594,-0.93555 -1.05469,-1.17578 -1.52734,-1.05469 -0.93555,-0.35156 -1.05664,-0.11524 h -1.4082 l -1.51953,0.35157 -1.52539,0.35156 -1.52344,0.58789 -2.93164,1.63672 -2.92969,2.23047 -2.81445,2.69726 -2.69531,2.92774 0.11718,0.58789 0.35157,0.70312 0.58789,0.58594 0.23242,0.11523 h 0.23437 l 1.17188,-1.16992 1.64258,-1.75781 0.9375,-0.82227 1.05468,-0.58593 1.17579,-0.35157 1.16992,-0.11914 0.46875,0.23633 0.35156,0.4668 0.35352,0.58789 0.11523,0.46875 -0.58398,2.10937 -1.05469,2.93164 -1.99414,5.2754 -6.80078,19.10351 -0.58399,1.52344 -0.4707,1.52344 0.11719,0.4707 0.35351,0.35156 0.70117,0.23633 0.70508,0.11523 1.52344,0.11719 1.05469,-0.11719 h 2.93359 2.10742 l 1.05664,-0.23437 0.4668,-0.23438 0.35352,-0.23437 1.17187,-2.22656 0.9375,-2.34375 11.13672,-25.08594 1.64258,-2.34375 2.22851,-2.3457 1.17188,-1.05665 1.17383,-0.82031 1.28711,-0.58398 1.17382,-0.23633 0.58399,0.11719 0.4707,0.35351 0.35352,0.46875 0.11523,0.58789 -0.9375,3.75 -1.875,5.27344 -3.51758,9.49414 -5.15625,14.65039 -0.23437,2.22852 0.11523,0.35156 0.35352,0.23633 1.17187,0.23242 h 2.34571 3.39648 1.76172 l 1.28711,-0.23242 0.58789,-0.35156 0.4668,-0.47071 0.93945,-1.75781 2.10742,-5.39453 3.05078,-7.14844 3.04688,-7.03515 1.52343,-2.93164 1.29102,-2.3418 1.875,-2.93164 2.93164,-3.98633 1.52344,-1.75781 1.52148,-1.52149 1.52539,-1.05469 0.58594,-0.23632 0.70508,-0.11524 0.34766,0.11524 0.35546,0.23632 0.34961,0.70313 v 0.82031 0.69922 l -0.70507,2.69727 -1.28516,4.10351 -1.52734,4.10352 -1.28711,2.93164 -3.28125,7.50195 -1.40625,4.10156 -0.58789,1.87891 -0.23438,1.75781 -0.11719,1.52344 0.23633,1.40234 0.4668,1.29297 0.58789,1.16992 0.81836,1.05665 0.9375,0.70312 1.05664,0.46875 1.17187,0.23242 1.75977,-0.11328 1.52344,-0.23437 1.40429,-0.35352 1.29102,-0.4707 1.29101,-0.69922 1.28907,-0.82031 2.69531,-2.23047 2.57812,-2.57422 0.82227,-1.05664 -0.11914,-0.46875 -0.35156,-0.4707 -0.47071,-0.35157 -0.46679,-0.11914 -0.46875,0.58789 -1.0586,1.17188 -1.63867,1.17187 -0.93945,0.35352 -0.93945,0.11719 h -0.4668 l -0.23633,-0.35157 -0.23047,-0.35351 v -0.46875 l 0.35352,-1.16992 0.46679,-1.41016 1.17188,-2.46094 5.38867,-14.17773 1.99219,-4.92578 0.70508,-2.46094 0.46875,-2.58203 v -1.51953 l -0.35352,-1.29102 -0.82031,-1.16992 -0.9375,-1.0586 -1.17188,-0.70117 -1.28906,-0.58593 -1.29101,-0.35157 z m 64.24414,0.11719 -1.29101,0.23242 -2.57617,0.9375 -2.58008,1.40625 -2.58008,1.87695 -2.46094,1.875 -1.28906,1.05469 -1.17383,1.17383 v 0.23047 0.23633 l 0.47071,0.58789 0.70312,0.35156 h 0.46875 l 2.69727,-2.23047 1.52343,-0.81836 0.70313,-0.23633 0.70312,-0.11328 0.47071,0.11328 0.35156,0.23633 0.11523,0.47071 v 0.4707 l -0.58593,1.99219 -1.05469,2.6914 -1.99414,4.69141 -8.79102,22.50586 -0.70312,2.3457 0.11914,0.4668 0.11523,0.35156 0.82031,0.23633 1.63868,0.11719 h 2.34765 3.51758 l 1.87305,-0.11719 0.82422,-0.23633 0.46679,-0.70312 0.58789,-0.81836 8.79102,-19.92969 1.4082,-2.93164 1.75782,-4.21875 1.05468,-1.99219 1.05469,-1.87695 1.05469,-1.16992 0.4707,-0.47266 0.58594,-0.23047 0.23437,0.11524 0.11524,0.23632 0.11914,1.05469 0.23437,0.93945 0.46875,0.70313 0.46875,0.58203 0.70313,0.47266 1.64258,0.58203 1.87304,0.12109 1.64258,-0.23633 1.52344,-0.70312 1.17187,-0.9375 0.9375,-1.17188 0.82032,-1.29101 0.4707,-1.40625 0.35156,-1.40625 0.11914,-1.17188 -0.11914,-1.28906 -0.35156,-1.05469 -0.4707,-0.82226 -0.70313,-0.70117 -0.93555,-0.5879 -0.93945,-0.35156 -2.34375,-0.23242 -1.05469,0.11719 -1.05664,0.23437 -1.99023,1.05664 -1.75977,1.4043 -1.64257,1.75781 -2.4629,3.16407 -0.82031,1.41015 0.23633,-2.34375 v -1.8789 l -0.35156,-1.64063 -0.58985,-1.17187 -0.8164,-0.9375 -0.93946,-0.70508 -1.05468,-0.35157 -1.05469,-0.11523 z m 81.12696,0.70312 1.52343,0.23243 1.28711,0.4707 0.82227,0.81836 0.46875,1.17383 0.11523,1.28711 v 1.41015 l -0.35156,1.63672 -0.4707,1.76172 -2.92969,8.4375 -2.10937,5.1582 -2.34375,5.15821 -2.58008,4.80468 -1.28906,2.10938 -1.4043,1.87695 -1.4082,1.52539 -1.40626,1.16993 -1.29101,0.70312 -1.40625,0.23242 -1.52148,-0.23242 -1.29102,-0.58789 -0.9375,-0.9375 -0.70313,-1.17188 -0.35156,-1.52343 -0.11719,-1.75782 0.23438,-1.87304 0.46875,-2.11328 1.17383,-3.04688 2.10937,-4.57226 2.46094,-5.1543 2.46289,-4.57422 1.99219,-3.98242 1.05469,-1.99219 1.17187,-1.99414 1.40625,-1.75781 1.4082,-1.40821 1.75782,-0.9375 0.9375,-0.23437 z m -107.73633,1.64063 0.58594,0.11719 0.70312,0.23437 0.4707,0.34961 0.47071,0.46875 0.58398,1.29102 v 1.40625 l -0.23633,1.52148 -0.58398,1.52735 -1.64063,3.16211 -1.99218,2.93164 -1.99414,2.46289 -2.34571,2.57812 -2.22851,1.875 -1.87696,1.17188 -1.52343,0.70312 -1.28711,0.35156 -0.82227,0.11914 -0.81836,-0.11914 1.87305,-5.03906 1.52539,-3.63281 1.875,-3.75195 2.11133,-3.63282 1.05469,-1.64062 1.17382,-1.52735 1.16993,-1.16992 1.17382,-0.93945 1.28907,-0.58399 z m -223.79102,3.75195 0.82422,2.10938 -1.8789,0.70312 -1.64063,1.05469 -1.52148,1.16992 -1.29102,1.52735 -1.05469,1.63867 -0.70312,1.75781 -0.46875,1.99219 -0.23438,2.11133 0.11719,1.875 0.35352,1.75781 0.46679,1.52539 0.82032,1.52344 0.9375,1.28711 1.05664,1.05664 1.40625,1.05664 1.64257,0.81836 1.51954,1.17187 -2.57618,-0.23242 -2.34765,-0.58594 -2.10742,-1.05664 -1.875,-1.40625 -1.52344,-1.75781 -1.05664,-2.10938 -0.70313,-2.22851 -0.23437,-2.57617 0.23437,-2.23047 0.70313,-2.22461 1.17383,-2.22852 1.52148,-1.99023 1.87695,-1.87891 2.10938,-1.63867 2.22851,-1.28906 z m 4.81055,4.80664 1.75781,0.23047 1.75781,0.47266 1.64258,0.93359 1.28907,1.05664 1.17382,1.40625 0.81836,1.52539 0.46875,1.75782 0.23438,1.875 -0.23438,1.75781 -0.46875,1.75976 -0.81836,1.52149 -1.17382,1.40625 -1.28907,1.17578 -1.64258,0.81836 -1.75781,0.46875 -1.75781,0.23437 -1.875,-0.23437 -1.76172,-0.46875 -1.51953,-0.81836 -1.40625,-1.17578 -1.05664,-1.40625 -0.93945,-1.52149 -0.46875,-1.75976 -0.23438,-1.75781 0.23438,-1.875 0.46875,-1.75782 0.93945,-1.52539 1.05664,-1.40625 1.40625,-1.05664 1.51953,-0.93359 1.76172,-0.47266 z m 0.002,3.27735 -1.17383,0.11914 -1.05468,0.35156 -1.05469,0.58594 -0.82422,0.70312 -0.70312,0.82032 -0.4668,1.05664 -0.35156,1.05468 -0.11719,1.28907 0.11719,1.17187 0.35156,1.05469 0.4668,1.05664 0.70312,0.82031 0.82422,0.82031 1.05469,0.46875 1.05468,0.35157 1.17383,0.11718 1.17188,-0.11718 1.05469,-0.35157 0.9375,-0.46875 0.82031,-0.82031 0.70312,-0.82031 0.58789,-1.05664 0.35157,-1.05469 0.11523,-1.17187 -0.11523,-1.28907 -0.35157,-1.05468 -0.58789,-1.05664 -0.70312,-0.82032 -0.82031,-0.70312 -0.9375,-0.58594 -1.05469,-0.35156 z" />
</g>
<g
   id="g1182">
	<path
   d="M425.506,249.65c0,0.86-0.119,1.641-0.356,2.339c-0.237,0.699-0.564,1.317-0.982,1.854   c-0.418,0.536-0.917,0.998-1.498,1.385c-0.58,0.387-1.22,0.705-1.918,0.955c-0.699,0.249-1.444,0.434-2.236,0.552   c-0.792,0.119-1.675,0.178-2.648,0.178h-6.438c-0.412,0-0.758-0.122-1.039-0.365s-0.421-0.639-0.421-1.188v-21.112   c0-0.549,0.14-0.945,0.421-1.188s0.627-0.365,1.039-0.365h6.083c1.485,0,2.742,0.125,3.771,0.375   c1.03,0.249,1.896,0.627,2.602,1.132c0.705,0.506,1.245,1.146,1.619,1.919s0.562,1.685,0.562,2.732   c0,0.587-0.075,1.139-0.225,1.656s-0.368,0.989-0.655,1.413c-0.287,0.425-0.639,0.799-1.057,1.123   c-0.418,0.325-0.896,0.587-1.432,0.786c0.686,0.125,1.32,0.344,1.9,0.655s1.085,0.714,1.516,1.207s0.77,1.07,1.02,1.731   C425.381,248.084,425.506,248.826,425.506,249.65z M419.142,239.449c0-0.486-0.075-0.923-0.225-1.31   c-0.15-0.387-0.375-0.708-0.674-0.964s-0.677-0.452-1.132-0.59c-0.456-0.138-1.064-0.206-1.825-0.206h-2.489v6.289h2.751   c0.711,0,1.279-0.084,1.703-0.253c0.424-0.168,0.777-0.399,1.058-0.692s0.49-0.637,0.627-1.029   C419.073,240.301,419.142,239.887,419.142,239.449z M420.396,249.818c0-0.562-0.094-1.063-0.281-1.507   c-0.187-0.442-0.462-0.813-0.824-1.113s-0.823-0.53-1.385-0.692s-1.292-0.243-2.19-0.243h-2.92v6.888h3.556   c0.686,0,1.264-0.072,1.731-0.216c0.468-0.143,0.873-0.355,1.217-0.636c0.343-0.281,0.611-0.63,0.805-1.049   C420.299,250.832,420.396,250.355,420.396,249.818z"
   id="path1178" />
	<path
   d="M437.934,247.723v8.516c0,0.125-0.041,0.237-0.122,0.337s-0.215,0.181-0.402,0.243s-0.44,0.112-0.758,0.149   c-0.318,0.038-0.715,0.057-1.189,0.057c-0.486,0-0.886-0.019-1.198-0.057c-0.312-0.037-0.564-0.087-0.758-0.149   c-0.194-0.063-0.328-0.144-0.402-0.243c-0.075-0.1-0.112-0.212-0.112-0.337v-8.516l-6.626-13.195   c-0.237-0.462-0.39-0.82-0.458-1.076c-0.069-0.256-0.031-0.449,0.112-0.581c0.144-0.131,0.409-0.212,0.795-0.243   c0.387-0.03,0.923-0.047,1.61-0.047c0.574,0,1.032,0.013,1.375,0.038c0.343,0.024,0.614,0.071,0.814,0.14   c0.199,0.069,0.346,0.159,0.439,0.271c0.094,0.112,0.184,0.256,0.271,0.431l2.695,5.952c0.262,0.574,0.521,1.179,0.777,1.815   c0.255,0.637,0.515,1.304,0.776,2.003h0.038c0.237-0.674,0.48-1.329,0.73-1.966c0.25-0.636,0.493-1.241,0.73-1.815l2.658-5.914   c0.063-0.199,0.141-0.358,0.234-0.478c0.094-0.118,0.234-0.215,0.421-0.29c0.187-0.075,0.443-0.125,0.767-0.149   c0.325-0.025,0.755-0.038,1.292-0.038c0.711,0,1.264,0.017,1.657,0.047c0.393,0.031,0.661,0.112,0.805,0.243   c0.143,0.132,0.178,0.328,0.103,0.59c-0.075,0.262-0.225,0.618-0.449,1.067L437.934,247.723z"
   id="path1180" />
</g>
<g
   id="g1188">
	<path
   d="M951.928,97.056c0,0.436-0.019,0.808-0.056,1.116c-0.038,0.309-0.095,0.557-0.169,0.744   c-0.076,0.188-0.17,0.327-0.282,0.417c-0.113,0.09-0.237,0.135-0.372,0.135h-7.308v23.525c0,0.15-0.05,0.286-0.147,0.406   c-0.098,0.12-0.259,0.218-0.484,0.293s-0.53,0.135-0.914,0.181c-0.383,0.045-0.86,0.067-1.432,0.067   c-0.572,0-1.049-0.022-1.433-0.067c-0.383-0.045-0.688-0.105-0.913-0.181s-0.388-0.173-0.485-0.293   c-0.098-0.121-0.146-0.256-0.146-0.406V99.469h-7.308c-0.15,0-0.278-0.045-0.384-0.135s-0.195-0.229-0.271-0.417   c-0.075-0.188-0.132-0.436-0.169-0.744c-0.038-0.308-0.057-0.68-0.057-1.116c0-0.451,0.019-0.835,0.057-1.15   c0.037-0.316,0.094-0.567,0.169-0.756c0.075-0.188,0.165-0.323,0.271-0.406s0.233-0.124,0.384-0.124h20.57   c0.135,0,0.259,0.042,0.372,0.124c0.112,0.083,0.206,0.218,0.282,0.406c0.074,0.188,0.131,0.44,0.169,0.756   C951.909,96.221,951.928,96.605,951.928,97.056z"
   id="path1184" />
	<path
   d="M989.393,122.994c0,0.15-0.042,0.286-0.124,0.406c-0.083,0.12-0.233,0.218-0.451,0.293   c-0.219,0.075-0.508,0.135-0.868,0.181c-0.361,0.045-0.82,0.067-1.376,0.067c-0.542,0-0.992-0.022-1.354-0.067   c-0.361-0.045-0.646-0.105-0.857-0.181c-0.21-0.075-0.36-0.173-0.451-0.293c-0.09-0.121-0.135-0.256-0.135-0.406v-23.75h-0.045   l-8.458,23.728c-0.061,0.195-0.158,0.357-0.294,0.485c-0.135,0.128-0.319,0.229-0.553,0.305c-0.233,0.075-0.529,0.124-0.891,0.146   c-0.36,0.022-0.797,0.034-1.308,0.034c-0.512,0-0.948-0.019-1.309-0.056c-0.361-0.038-0.658-0.098-0.891-0.181   c-0.233-0.083-0.418-0.184-0.553-0.304c-0.136-0.121-0.226-0.263-0.271-0.429l-8.165-23.728h-0.045v23.75   c0,0.15-0.042,0.286-0.124,0.406c-0.083,0.12-0.237,0.218-0.463,0.293s-0.516,0.135-0.868,0.181   c-0.354,0.045-0.809,0.067-1.364,0.067c-0.542,0-0.993-0.022-1.354-0.067c-0.361-0.045-0.65-0.105-0.868-0.181   c-0.219-0.075-0.369-0.173-0.451-0.293c-0.083-0.121-0.124-0.256-0.124-0.406V96.988c0-0.767,0.202-1.354,0.608-1.759   s0.947-0.609,1.624-0.609h3.88c0.691,0,1.285,0.056,1.781,0.169s0.925,0.301,1.286,0.564c0.36,0.263,0.661,0.609,0.902,1.038   c0.24,0.429,0.451,0.958,0.631,1.59l6.315,17.39h0.091l6.541-17.345c0.195-0.632,0.409-1.165,0.643-1.602   c0.232-0.436,0.504-0.79,0.812-1.06c0.309-0.271,0.673-0.462,1.094-0.575s0.91-0.169,1.467-0.169h3.992   c0.406,0,0.755,0.053,1.049,0.158c0.293,0.105,0.533,0.259,0.722,0.462c0.188,0.203,0.33,0.451,0.429,0.744   c0.098,0.293,0.146,0.628,0.146,1.004V122.994z"
   id="path1186" />
</g>
<g
   id="g1190">
</g>
<g
   id="g1192">
</g>
<g
   id="g1194">
</g>
<g
   id="g1196">
</g>
<g
   id="g1198">
</g>
<g
   id="g1200">
</g>
<path
   style="fill:#ed1c24;fill-opacity:1;fill-rule:evenodd;stroke-width:0.765697"
   d="m 41.362611,118.49158 c 0.795278,-2.42152 5.974617,-18.874428 11.509642,-36.562024 5.535026,-17.687596 10.878441,-33.576403 11.874258,-35.30846 4.111305,-7.150931 11.245144,-10.717681 20.156832,-10.077935 7.768883,0.557706 13.825881,4.476993 17.203457,11.131799 1.11762,2.202038 23.46747,73.09888 23.46747,74.4421 0,0.49921 -5.31871,0.77727 -14.86764,0.77727 H 95.838995 l -0.769218,-3.63706 c -0.423069,-2.00038 -1.006814,-4.92917 -1.297209,-6.50842 l -0.527991,-2.87136 H 83.078101 72.911625 l -0.527991,2.87136 c -0.290395,1.57925 -0.874139,4.50804 -1.297209,6.50842 l -0.769218,3.63706 H 55.116929 39.91665 Z M 88.820827,90.134433 c 0,-1.156237 -5.372736,-24.935448 -5.710234,-25.272947 -0.187446,-0.187445 -0.529359,0.475116 -0.759809,1.472359 -1.266568,5.480941 -5.015409,23.259163 -5.015409,23.784701 0,0.339088 2.584227,0.616523 5.742726,0.616523 3.158499,0 5.742726,-0.270286 5.742726,-0.600636 z"
   id="path1950" /><path
   style="fill:#ed1c24;fill-opacity:1;fill-rule:evenodd;stroke-width:0.765697"
   d="m 127.87136,85.807887 c 0,-20.397547 0.30625,-37.891943 0.68056,-38.876437 1.11007,-2.919713 5.33524,-6.502612 8.81828,-7.477801 5.0999,-1.427884 38.7222,-0.679979 43.75173,0.973226 8.191,2.692379 14.13475,8.286692 17.51255,16.48298 2.10185,5.100171 2.032,14.580722 -0.14309,19.422133 -1.60077,3.563048 -6.94443,9.534811 -11.19512,12.51101 l -2.21369,1.549953 10.02005,16.265509 10.02005,16.26551 -16.50452,-0.20624 -16.50452,-0.20624 -7.76432,-15.09941 -7.76433,-15.099408 -0.20728,15.290828 -0.20727,15.29083 H 142.0209 127.87136 Z m 30.64919,-3.156667 c 1.2819,-2.648046 2.65748,-4.036065 5.70367,-5.755228 5.50274,-3.105552 6.87421,-4.80251 6.87421,-8.505647 0,-2.506938 -0.46201,-3.492794 -2.4832,-5.298719 -2.19857,-1.964422 -3.05227,-2.218732 -7.44814,-2.218732 h -4.96495 v 12.633997 c 0,6.948699 0.14155,12.633997 0.31455,12.633997 0.173,0 1.07473,-1.57035 2.00386,-3.489668 z"
   id="path1952" /><path
   style="fill:#ed1c24;fill-opacity:1;fill-rule:evenodd;stroke-width:0.765697"
   d="m 235.88975,121.70521 c -15.70486,-3.40583 -28.04687,-14.73744 -31.76709,-29.166424 -1.52734,-5.923824 -1.56281,-16.984334 -0.0728,-22.704794 2.92945,-11.246902 10.14541,-20.195618 20.3418,-25.226447 7.94089,-3.917975 13.88329,-5.175992 26.94833,-5.705007 L 262.634,38.445232 v 12.253943 12.253943 l -8.28029,0.392469 c -8.7555,0.414994 -13.36388,1.819408 -16.79563,5.118505 -6.11302,5.876741 -6.48317,18.272763 -0.7298,24.44071 3.63159,3.893278 7.17766,5.020981 16.80878,5.345439 l 8.99694,0.303094 v 12.170495 12.1705 l -10.91118,-0.0609 c -6.22248,-0.0347 -13.02619,-0.51954 -15.83307,-1.12825 z"
   id="path1954" /><path
   style="fill:#ed1c24;fill-opacity:1;fill-rule:evenodd;stroke-width:0.765697"
   d="m 264.93109,122.46593 c 0,-0.84608 22.20885,-70.839315 23.32468,-73.509856 1.99211,-4.767801 5.03761,-7.910849 10.06211,-10.384402 4.45994,-2.19562 5.3674,-2.372343 10.49284,-2.043412 9.44082,0.605875 15.74812,5.110552 18.93564,13.52384 0.73905,1.950671 6.07691,18.707471 11.86191,37.237333 5.785,18.529867 10.6845,34.128787 10.88776,34.664257 0.2929,0.77159 -2.77415,0.93047 -14.78117,0.7657 l -15.15076,-0.2079 -1.01266,-4.59419 c -0.55697,-2.52679 -1.19352,-5.36944 -1.41456,-6.31699 -0.39125,-1.67719 -0.6644,-1.72282 -10.31185,-1.72282 h -9.90995 l -0.74226,2.87136 c -0.40824,1.57925 -1.03516,4.4219 -1.39315,6.317 l -0.6509,3.44564 -15.09884,0.20761 c -8.30436,0.11418 -15.09884,2.6e-4 -15.09884,-0.25317 z m 48.63704,-32.687982 c -0.17571,-0.526417 -1.40894,-6.125574 -2.74049,-12.442573 -1.33156,-6.316998 -2.66727,-11.75254 -2.96824,-12.078983 -0.30098,-0.326443 -1.68436,4.840263 -3.0742,11.481566 -1.38983,6.641303 -2.69291,12.50755 -2.89574,13.036104 -0.27705,0.721987 1.16917,0.961007 5.81469,0.961007 4.6067,0 6.102,-0.244063 5.86398,-0.957121 z"
   id="path1956" /><path
   style="fill:#ed1c24;fill-opacity:1;fill-rule:evenodd;stroke-width:0.765697"
   d="m 357.96325,121.15577 c -2.02075,-1.13044 -3.65686,-2.8846 -4.80888,-5.15586 l -1.7461,-3.44248 0.2147,-32.602724 0.2147,-32.602721 2.14525,-2.811561 c 3.81868,-5.004759 5.30785,-5.399071 21.59135,-5.717081 16.39683,-0.320223 22.58084,0.551151 30.55585,4.305551 9.6851,4.559462 18.36672,14.126262 22.00843,24.252423 2.01036,5.590009 2.70702,15.992858 1.47006,21.951288 -3.0597,14.738465 -15.45676,27.823205 -30.62814,32.327085 -3.28379,0.97486 -7.71442,1.23199 -21.05666,1.22205 -16.06069,-0.012 -17.0495,-0.0975 -19.96056,-1.72597 z m 35.31226,-25.495076 c 4.93837,-3.053159 7.36771,-7.746272 7.39745,-14.290706 0.0475,-10.457226 -5.34669,-16.442259 -16.10175,-17.865377 l -4.01991,-0.531917 v 17.801701 17.801701 l 4.5349,-0.328024 c 3.28909,-0.237912 5.53881,-0.948701 8.18931,-2.587378 z"
   id="path1958" /><path
   style="fill:#ed1c24;fill-opacity:1;fill-rule:evenodd;stroke-width:0.765697"
   d="M 435.68147,80.781011 V 38.667688 h 14.54824 14.54824 v 42.113323 42.113319 h -14.54824 -14.54824 z"
   id="path1960" /><path
   style="fill:#ed1c24;fill-opacity:1;fill-rule:evenodd;stroke-width:0.765697"
   d="m 467.07801,120.78867 c 0.37896,-1.15812 5.55507,-17.58877 11.50249,-36.512566 5.94741,-18.923794 11.44682,-35.635126 12.22091,-37.136294 3.21581,-6.236348 9.31446,-10.051922 16.93845,-10.597416 9.00542,-0.644334 17.03738,3.566313 20.48967,10.74143 1.41218,2.935015 23.83785,73.472856 23.83785,74.979706 0,0.34694 -6.69137,0.6308 -14.86971,0.6308 h -14.86972 l -1.20991,-5.31961 c -0.66546,-2.92578 -1.20992,-5.85457 -1.20992,-6.50841 0,-1.01536 -1.49401,-1.18882 -10.2393,-1.18882 h -10.23929 l -1.36583,6.50842 -1.36583,6.50842 H 481.54344 466.389 Z m 48.23593,-30.382191 c 0,-0.810913 -5.48923,-25.323984 -5.72321,-25.557968 -0.1444,-0.144397 -0.45617,0.366413 -0.69284,1.135133 -0.60393,1.961672 -5.06941,23.113505 -5.06941,24.012488 0,0.409102 2.56335,0.738937 5.74273,0.738937 3.1585,0 5.74273,-0.147865 5.74273,-0.32859 z"
   id="path1962" /><path
   style="fill:#ed1c24;fill-opacity:1;fill-rule:evenodd;stroke-width:0.765697"
   d="M 568.14701,86.140888 V 76.18683 h 19.14242 19.14242 v 9.954058 9.954058 h -19.14242 -19.14242 z"
   id="path1964" /><path
   style="fill:#ed1c24;fill-opacity:1;fill-rule:evenodd;stroke-width:0.765697"
   d="m 632.39455,121.13802 c -3.77309,-1.96369 -6.82028,-6.82367 -6.82028,-10.87768 0,-1.2955 0.77527,-3.87754 1.72282,-5.73787 1.44124,-2.8296 4.72436,-5.640568 20.08783,-17.198996 10.11205,-7.607623 19.14448,-14.985768 20.09954,-16.418331 2.32171,-3.482506 2.26497,-7.274321 -0.14491,-9.684205 -3.86274,-3.862737 -9.69156,-1.430183 -11.23201,4.687472 l -0.85289,3.387149 h -14.07449 c -16.0696,0 -14.77967,0.772508 -12.96963,-7.767214 2.67939,-12.641307 10.81563,-20.502116 24.92883,-24.084924 5.9952,-1.521957 20.43802,-1.101005 26.271,0.765697 9.61981,3.078587 16.70916,9.203192 19.63129,16.959779 2.46775,6.55049 2.03342,16.577785 -0.98533,22.74788 -2.70143,5.521544 -10.25771,12.549819 -19.54379,18.178169 -3.8215,2.316233 -6.95905,4.469754 -6.97232,4.785604 -0.0133,0.31585 6.17801,0.57427 13.75841,0.57427 h 13.78254 v 10.71976 10.71975 h -31.65598 c -31.51606,0 -31.6709,-0.008 -35.03063,-1.75631 z"
   id="path1966" /><path
   style="fill:#ed1c24;fill-opacity:1;fill-rule:evenodd;stroke-width:0.765697"
   d="M 732.62856,124.83173 C 719.54922,121.2294 710.296,111.13681 706.20273,96.008783 c -1.82686,-6.751767 -1.82686,-22.938081 0,-29.689848 5.15271,-19.043564 18.64362,-29.948338 37.05078,-29.948338 10.18193,0 20.61918,4.374153 26.80589,11.234095 15.51983,17.208686 15.07727,52.121146 -0.86276,68.061178 -6.93008,6.93008 -15.88873,10.34439 -26.82306,10.22278 -3.38586,-0.0377 -7.77113,-0.51327 -9.74502,-1.05692 z m 15.29708,-23.81035 c 7.92741,-5.552581 7.89367,-34.517981 -0.0463,-39.720432 -2.52539,-1.654701 -6.90373,-1.728177 -9.303,-0.156119 -8.28743,5.430133 -8.4922,34.127678 -0.28454,39.876551 0.94161,0.65953 3.10922,1.19914 4.81691,1.19914 1.70769,0 3.8753,-0.53961 4.81691,-1.19914 z"
   id="path1968" /><path
   style="fill:#ed1c24;fill-opacity:1;fill-rule:evenodd;stroke-width:0.765697"
   d="m 815.54719,124.74539 c -13.05238,-3.50998 -23.24565,-15.28057 -26.48789,-30.586653 -1.44901,-6.840497 -1.44901,-19.149258 0,-25.989756 4.12922,-19.493381 18.59692,-31.798384 37.38719,-31.798384 17.44629,0 30.57909,10.445428 36.26271,28.842245 1.06925,3.460931 1.37962,7.04949 1.37962,15.951017 0,9.89282 -0.24833,12.281768 -1.79088,17.228178 -4.37411,14.026273 -13.27226,23.128023 -25.80097,26.391343 -5.58397,1.45444 -15.46662,1.43651 -20.94978,-0.038 z M 829.804,101.85314 c 4.70127,-1.34967 7.38133,-10.020573 6.95268,-22.494277 -0.4771,-13.884024 -3.50125,-19.251665 -10.84644,-19.251665 -2.90311,0 -3.72481,0.377621 -5.68861,2.614264 -3.6318,4.13639 -4.37171,7.322554 -4.37171,18.825246 0,9.715432 0.12603,10.593525 2.0962,14.605209 1.90246,3.873813 3.3566,5.245163 6.70932,6.327353 1.15844,0.37392 2.0375,0.26702 5.14856,-0.62613 z"
   id="path1970" /><path
   style="fill:#ed1c24;fill-opacity:1;fill-rule:evenodd;stroke-width:0.765697"
   d="m 879.60317,93.223583 -0.20041,-29.67075 -5.16846,-0.226409 -5.16845,-0.226409 V 50.883851 38.667688 l 11.67688,0.01872 c 6.42228,0.01029 13.22741,0.371781 15.12251,0.803302 5.1783,1.179118 9.06748,4.094741 10.97885,8.230563 1.60967,3.483019 1.66172,4.564868 1.89442,39.377738 l 0.23927,35.796319 h -14.5871 -14.58709 z"
   id="path1972" /><path
   style="fill:#ed1c24;fill-opacity:1;fill-rule:evenodd;stroke-width:0.765697"
   d="m 938.52418,123.18472 c -0.30009,-0.30009 -0.54562,-5.82893 -0.54562,-12.2863 V 99.157734 h -3.82848 c -3.57326,0 -3.82849,-0.127617 -3.82849,-1.914242 V 95.32925 h 10.77301 c 10.73405,0 10.77213,0.0062 10.52833,1.722817 -0.21297,1.499605 -0.76301,1.752718 -4.24534,1.95359 l -4.00067,0.230772 -0.21066,12.020381 -0.21067,12.02037 -1.9429,0.22658 c -1.06859,0.12462 -2.18842,-0.019 -2.48851,-0.31904 z"
   id="path1974" /><path
   style="fill:#8dc63f;fill-opacity:1;fill-rule:evenodd;stroke-width:0.765697"
   d="m 955.94883,122.72607 c -0.21876,-0.57008 -0.30295,-6.88144 -0.18707,-14.02524 l 0.21067,-12.988732 3.69655,-0.235807 c 2.03311,-0.129694 4.11628,0.112534 4.62928,0.538284 0.513,0.425751 2.46747,5.095645 4.34326,10.377545 1.8758,5.2819 3.58283,9.60313 3.7934,9.60274 0.21056,-3.9e-4 1.72764,-3.70277 3.37129,-8.2275 4.69092,-12.913497 4.42589,-12.556127 9.11092,-12.285326 l 3.98027,0.230064 v 13.782542 13.78254 h -2.29709 -2.29709 l -0.38285,-12.25115 -0.38285,-12.251145 -4.12779,11.485455 c -2.27028,6.317 -4.48045,11.93357 -4.91149,12.48128 -0.43103,0.54771 -1.6746,0.89227 -2.76348,0.7657 -1.82931,-0.21265 -2.29986,-1.16128 -6.19112,-12.48129 l -4.21133,-12.251145 -0.38285,12.251145 -0.38284,12.25115 -2.11002,0.24271 c -1.25613,0.14448 -2.27099,-0.17676 -2.50777,-0.79382 z"
   id="path1976" /><path
   style="fill:#8dc63f;fill-opacity:1;fill-rule:evenodd;stroke-width:0.765697"
   d="m 409.05167,256.3002 c -0.7358,-0.50722 -0.92598,-3.4179 -0.76569,-11.71876 l 0.21325,-11.04392 5.40905,-0.2221 c 4.55457,-0.18701 5.73391,0.0335 7.46554,1.39555 2.66696,2.09782 2.86356,6.21425 0.37988,7.95388 -0.92214,0.64589 -1.52513,1.26842 -1.33997,1.38339 0.18516,0.11497 1.02578,0.58929 1.86805,1.05405 3.63649,2.00658 3.38788,7.92482 -0.41553,9.89164 -2.7031,1.39782 -11.39628,2.28398 -12.81458,1.30627 z m 10.73859,-3.88526 c 1.12505,-1.12504 0.93809,-4.7789 -0.28413,-5.55308 -0.57906,-0.36679 -2.34495,-0.67217 -3.9242,-0.67862 l -2.87136,-0.0117 v 3.9293 3.9293 l 3.1555,-0.42324 c 1.73552,-0.23278 3.50141,-0.76915 3.92419,-1.19194 z m -1.39166,-10.50945 c 2.62199,-2.62199 0.91798,-5.68803 -3.16123,-5.68803 -2.48426,0 -2.5268,0.058 -2.5268,3.44563 0,3.29935 0.0952,3.44564 2.24239,3.44564 1.23332,0 2.78386,-0.54146 3.44564,-1.20324 z"
   id="path2185" /><path
   style="fill:#8dc63f;fill-opacity:1;fill-rule:evenodd;stroke-width:0.765697"
   d="m 433.89484,256.38081 c -0.28075,-0.28076 -0.51046,-2.35503 -0.51046,-4.60948 0,-3.33124 -0.6454,-5.38409 -3.44564,-10.95969 -1.8951,-3.77337 -3.44563,-7.03984 -3.44563,-7.25882 0,-0.21898 0.98558,-0.39815 2.19019,-0.39815 1.99315,0 2.40078,0.49942 4.53094,5.5513 l 2.34076,5.5513 1.66822,-3.82848 c 0.91753,-2.10567 1.97115,-4.60375 2.34138,-5.5513 0.45088,-1.15397 1.31146,-1.72282 2.60634,-1.72282 1.06326,0 1.93319,0.35145 1.93319,0.781 0,0.42955 -1.55053,3.8683 -3.44563,7.64167 -2.83899,5.65276 -3.44564,7.60482 -3.44564,11.0873 0,3.58809 -0.21207,4.22663 -1.40377,4.22663 -0.77208,0 -1.63349,-0.22971 -1.91425,-0.51046 z"
   id="path2187" /><path
   style="fill:#8dc63f;fill-opacity:1;fill-rule:evenodd;stroke-width:0.765697"
   d="m 473.96631,219.75498 v -35.6049 h 35.98775 35.98775 v 35.6049 35.6049 h -35.98775 -35.98775 z m 48.02389,31.1828 c 12.5175,-4.81875 20.88882,-17.16701 20.88882,-30.81239 0,-17.76712 -13.06311,-31.67683 -30.73163,-32.72331 -8.60445,-0.50963 -15.37099,1.42495 -21.96656,6.28033 -21.71054,15.9824 -15.31953,50.92506 10.64717,58.21308 5.55831,1.56004 15.82939,1.09522 21.1622,-0.95771 z"
   id="path2189" /><path
   style="fill:#8dc63f;fill-opacity:1;fill-rule:evenodd;stroke-width:0.765697"
   d="m 511.20586,226.20783 c -3.85932,-3.03575 -1.88205,-9.32422 2.9318,-9.32422 3.55784,0 6.54115,4.21193 5.00988,7.07313 -2.17634,4.06654 -4.71786,4.78694 -7.94168,2.25109 z"
   id="path2191" /><path
   style="fill:#1c75bc;fill-opacity:1;fill-rule:evenodd;stroke-width:0.765697"
   d="m 503.83674,248.8614 c -0.53939,-0.64992 -0.73894,-1.95944 -0.46495,-3.05113 0.63163,-2.51662 3.64882,-3.29462 6.22663,-1.60558 2.516,1.64855 3.42081,0.98982 3.40797,-2.48112 -0.0211,-5.71174 -0.47481,-6.27181 -5.08047,-6.27181 -5.30259,0 -8.73712,-1.45504 -11.26857,-4.77394 -5.89548,-7.72938 -1.76293,-18.44886 9.15781,-23.75456 2.83804,-1.37883 3.37387,-1.96017 2.97743,-3.23036 -0.26588,-0.85192 -0.66853,-3.12857 -0.89476,-5.05921 -0.45386,-3.87322 1.26187,-8.35804 3.1975,-8.35804 2.90388,0 3.88725,8.06911 1.48001,12.14425 -1.04663,1.77181 -1.18887,2.83131 -0.63797,4.75217 0.60707,2.11673 1.25828,2.62992 4.53128,3.57087 7.18003,2.06418 11.51192,8.47281 9.61411,14.22322 -1.02264,3.09865 -5.94518,7.90957 -8.83528,8.63493 -1.81986,0.45676 -1.93354,0.77833 -1.93354,5.4694 0,4.76868 -0.12849,5.11258 -2.97271,7.9568 -3.20818,3.20819 -6.73319,3.9684 -8.50449,1.83411 z m 6.08782,-14.74961 c -0.0162,-0.31585 -1.10725,-1.2634 -2.42452,-2.10566 -3.90833,-2.49901 -5.37965,-5.09985 -5.37965,-9.50956 0,-4.70245 2.63123,-9.27918 6.25757,-10.88436 2.55364,-1.13035 2.64602,-1.29367 1.63509,-2.8906 -1.54912,-2.44709 -9.85606,3.66101 -12.01896,8.83757 -2.61821,6.26627 0.1213,13.33663 6.21724,16.04599 2.52575,1.12258 5.7596,1.40934 5.71323,0.50662 z m 9.27877,-3.79484 c 5.09893,-3.01201 5.93057,-11.01075 1.55162,-14.92368 -6.66226,-5.95325 -16.79772,-1.07072 -15.90857,7.66359 0.70774,6.95225 8.34239,10.81298 14.35695,7.26009 z m -6.69613,-31.11748 c 0.87888,-3.71625 0.10448,-6.8072 -1.62338,-6.47963 -1.50893,0.28606 -2.06977,3.36031 -1.33122,7.29712 0.61985,3.30406 2.0751,2.90141 2.9546,-0.81749 z"
   id="path2193" /><path
   style="fill:#1c75bc;fill-opacity:1;fill-rule:evenodd;stroke-width:0.765697"
   d="m 561.67129,255.41279 c -0.65633,-1.06196 0.76986,-1.67552 4.38897,-1.88816 5.57046,-0.32731 8.69865,-2.38697 11.60218,-7.63909 3.6565,-6.61418 23.56597,-55.37938 23.26048,-56.97299 -0.21977,-1.14641 -1.47774,-1.34476 -9.72014,-1.53261 -7.54385,-0.17193 -9.83692,0.0262 -11.28471,0.97477 -1.99653,1.30818 -2.40039,2.68664 -0.78713,2.68664 1.53399,0 3.56431,2.5631 3.56431,4.49961 0,2.27636 -3.5565,5.45445 -6.10391,5.45445 -2.73329,0 -5.38154,-2.91557 -5.38154,-5.92476 0,-3.13526 3.20042,-6.88076 7.63167,-8.93145 3.3186,-1.53578 4.86179,-1.61673 35.16233,-1.84444 18.62257,-0.13995 31.98192,0.0524 32.39592,0.46637 0.72102,0.72102 -3.37863,11.07375 -5.17133,13.05898 -0.74796,0.82829 -0.86697,0.36768 -0.59353,-2.29709 0.27888,-2.71766 -0.006,-3.75729 -1.54314,-5.63022 -1.82158,-2.2196 -2.13409,-2.30607 -9.26461,-2.56351 -4.05869,-0.14654 -8.17642,-0.0664 -9.1505,0.17808 -1.47507,0.37022 -2.6977,2.75413 -7.3153,14.26343 -3.04933,7.6004 -5.34987,14.32539 -5.11233,14.94442 0.3199,0.83365 1.74861,1.12552 5.50953,1.12552 4.73064,0 5.24245,-0.17087 7.48958,-2.50033 1.32657,-1.37518 3.14712,-3.5287 4.04566,-4.7856 3.20803,-4.48746 2.74153,-0.99304 -1.35411,10.14323 -2.77212,7.53755 -4.53334,11.30809 -5.28201,11.30809 -0.86155,0 -1.06973,-0.84643 -0.89374,-3.63386 0.31098,-4.92543 -2.06156,-7.46875 -6.96723,-7.46875 -4.29572,0 -4.9575,0.75625 -9.40616,10.74894 -7.61721,17.10993 -8.43228,20.88514 -4.70962,21.81393 0.94114,0.23481 4.79253,0.0757 8.55864,-0.35357 9.83099,-1.12055 14.03146,-3.35232 18.17699,-9.65768 3.70445,-5.63447 5.16241,-5.2447 2.78355,0.74414 -0.84906,2.13756 -2.1573,5.43701 -2.90717,7.33211 -1.06373,2.68826 -1.84645,3.55196 -3.56093,3.92932 -3.58796,0.78972 -57.57051,0.74517 -58.06067,-0.0479 z"
   id="path2333" /><path
   style="fill:#1c75bc;fill-opacity:1;fill-rule:evenodd;stroke-width:0.765697"
   d="m 633.35496,244.73279 c -0.81108,-0.5141 0.18954,-4.04569 4.79749,-16.93225 4.55312,-12.73322 5.62925,-16.51531 4.93663,-17.34986 -1.14153,-1.37546 -3.50748,-0.66373 -6.21279,1.86895 -3.56291,3.33556 -3.37052,1.1025 0.22023,-2.55621 3.73963,-3.8104 9.91032,-7.24999 12.93897,-7.21227 3.56649,0.0444 6.68006,3.95141 5.83433,7.32109 -0.64104,2.55408 -0.10168,2.3287 3.20568,-1.33954 5.29342,-5.87102 12.6832,-7.69981 16.80064,-4.15776 1.82472,1.56973 2.12839,2.37576 2.01577,5.35052 l -0.13259,3.50237 3.74616,-3.84604 c 6.33623,-6.50517 14.21465,-8.73404 18.62097,-5.26802 3.04187,2.39274 2.62076,5.19307 -2.95953,19.68044 -2.73736,7.10667 -4.97703,13.49829 -4.97703,14.20362 0,1.7718 2.42692,1.62014 4.87377,-0.30455 3.29329,-2.59051 2.29214,-0.29884 -1.16055,2.65654 -3.86109,3.30494 -9.06216,5.41694 -11.7059,4.7534 -2.68686,-0.67436 -4.53285,-4.48699 -3.88392,-8.02166 0.28055,-1.52809 2.19956,-6.80849 4.26447,-11.73423 6.77298,-16.15654 7.52314,-21.60804 2.61172,-18.97953 -4.66056,2.49426 -10.92539,13.14088 -18.31288,31.12145 -3.03559,7.38837 -3.57474,7.88449 -8.59192,7.90611 -3.05377,0.0132 -4.84823,-0.65949 -4.84823,-1.81734 0,-0.49405 2.58422,-8.05637 5.74272,-16.80517 3.1585,-8.74879 5.74273,-16.58805 5.74273,-17.42057 0,-3.68633 -5.50743,-1.84053 -9.01203,3.02035 -1.14982,1.59479 -4.98662,9.48117 -8.52622,17.52528 -4.91371,11.1669 -6.81502,14.72751 -8.03982,15.05633 -2.38856,0.64125 -6.82168,0.51837 -7.98887,-0.22145 z"
   id="path2335" /><path
   style="fill:#1c75bc;fill-opacity:1;fill-rule:evenodd;stroke-width:0.765697"
   d="m 712.07198,243.683 c -5.0718,-2.55992 -6.99221,-6.35783 -6.67875,-13.20827 0.47288,-10.33442 7.28341,-20.09016 17.64315,-25.27293 11.18111,-5.59368 21.28214,-2.11907 20.25785,6.9684 -0.92435,8.20077 -10.53493,15.20469 -23.38582,17.04293 -3.46968,0.49632 -3.57526,0.59303 -4.59717,4.21118 -1.66504,5.89523 0.10993,9.68442 4.53645,9.68442 3.18546,0 6.57422,-1.87319 10.80082,-5.97033 1.99068,-1.92971 3.79521,-3.33276 4.01007,-3.1179 1.09828,1.09828 -4.62443,6.89177 -8.93557,9.04608 -5.58913,2.79292 -9.03096,2.94834 -13.65103,0.61642 z m 13.58593,-19.40413 c 3.67076,-2.79982 8.27362,-8.85933 9.83476,-12.94712 2.46642,-6.45822 -1.34624,-9.61993 -6.436,-5.33718 -2.10009,1.76711 -9.17717,14.88335 -10.48104,19.42493 -0.49742,1.73262 -0.38562,1.80774 1.98499,1.33361 1.38166,-0.27633 3.67544,-1.38974 5.09729,-2.47424 z"
   id="path2337" /><path
   style="fill:#1c75bc;fill-opacity:1;fill-rule:evenodd;stroke-width:0.765697"
   d="m 743.42514,238.70597 c 1.20568,-3.26378 4.1258,-10.77797 6.48917,-16.6982 2.36336,-5.92023 4.29702,-11.34711 4.29702,-12.05973 0,-1.79134 -2.74017,-1.66058 -5.16457,0.24645 -1.07827,0.84816 -2.16631,1.33412 -2.41786,1.07991 -0.60106,-0.60739 3.17643,-3.68555 7.96528,-6.49066 6.55082,-3.8372 10.21385,-2.7205 10.89486,3.32138 l 0.4025,3.57096 2.13162,-2.94263 c 4.2538,-5.87219 9.68826,-7.89789 12.58903,-4.69258 1.01959,1.12663 1.25366,2.23237 0.9147,4.32113 -0.64258,3.95975 -3.17769,6.41595 -6.62208,6.41595 -3.07494,0 -4.61385,-1.09393 -4.61385,-3.27974 0,-0.81079 -0.41898,-1.30449 -0.95712,-1.1278 -1.72714,0.56709 -3.9482,4.65917 -10.0971,18.60284 -3.33557,7.56395 -6.38987,14.18333 -6.78734,14.70975 -0.45474,0.60227 -2.66793,0.95712 -5.96953,0.95712 h -5.24686 z"
   id="path2339" /><path
   style="fill:#1c75bc;fill-opacity:1;fill-rule:evenodd;stroke-width:0.765697"
   d="m 777.96358,243.683 c -4.23083,-2.16185 -6.26377,-4.91009 -6.36863,-8.60949 -0.19325,-6.81762 10.08149,-9.23164 12.29284,-2.88816 0.93253,2.67506 0.12926,4.89446 -2.52794,6.98462 -1.7864,1.40518 -1.93293,1.80446 -1.05184,2.86611 1.58781,1.91319 9.28613,1.14221 11.75511,-1.17728 4.14643,-3.89537 3.145,-9.83596 -2.42755,-14.40041 -5.6891,-4.65991 -7.63963,-10.6914 -5.08965,-15.73837 3.2789,-6.48965 8.25799,-9.31837 16.38669,-9.30961 6.54113,0.007 10.94814,1.98899 11.77841,5.29704 1.08103,4.3072 -3.60716,8.45624 -7.31996,6.47815 -2.75585,-1.46825 -3.65562,-3.09052 -3.68218,-6.63889 -0.0207,-2.75992 -0.26224,-3.25421 -1.59055,-3.25421 -1.99893,0 -5.32507,3.295 -5.32507,5.27522 0,2.60041 1.46953,5.55662 5.3932,10.84936 5.55481,7.49303 6.35121,9.7483 4.89743,13.86875 -3.51461,9.96149 -17.48862,15.31873 -27.12031,10.39717 z"
   id="path2341" /><path
   style="fill:#1c75bc;fill-opacity:1;fill-rule:evenodd;stroke-width:0.765697"
   d="m 823.9951,245.3064 c -3.86443,-0.71244 -8.04044,-3.62793 -9.64732,-6.7353 -1.51953,-2.93844 -2.81853,-11.53671 -2.22115,-14.70216 0.84575,-4.48153 4.26418,-10.57506 8.14329,-14.51584 11.74738,-11.93415 28.18558,-11.98153 34.00435,-0.098 2.70495,5.52426 2.2232,11.19436 -1.6101,18.95052 -5.86731,11.8717 -17.9475,19.0774 -28.66907,17.1008 z m 7.39199,-5.55883 c 3.45257,-3.7456 7.97173,-12.70359 11.56525,-22.92497 2.48993,-7.08233 3.00719,-11.82785 1.45807,-13.37696 -1.4227,-1.42271 -5.55301,-1.08631 -7.73491,0.62997 -2.15561,1.69561 -10.6451,17.26608 -13.83858,25.38117 -2.42419,6.16023 -2.52602,8.96089 -0.423,11.63445 2.45455,3.12044 5.24322,2.70286 8.97317,-1.34366 z"
   id="path2343" /><path
   id="path2345"
   style="fill:#ed1c24;fill-opacity:1;fill-rule:evenodd;stroke-width:0.765697"
   d="m 898.47461,202.13477 c -3.54536,-0.006 -7.70074,1.95741 -12.00195,5.79101 l -4.30078,3.83203 0.43554,-2.68554 c 0.29535,-1.82002 0.0282,-3.31033 -0.82812,-4.61719 -1.05922,-1.61658 -1.84972,-1.92621 -4.88282,-1.91211 -4.07919,0.0189 -8.13663,1.67684 -13.17578,5.38281 -4.07037,2.99351 -3.01847,3.97674 1.19532,1.11719 7.13553,-4.84232 6.80858,-0.9975 -1.64844,19.33008 -3.54865,8.52965 -6.45313,15.67787 -6.45313,15.88672 0,0.20885 2.58176,0.38085 5.73633,0.38085 h 5.73438 l 6.58398,-13.4121 c 6.80013,-13.85523 10.90771,-20.22292 14.63086,-22.67774 5.68659,-3.74944 5.67096,-0.72759 -0.0664,12.76367 -7.38948,17.37622 -7.83104,19.78418 -4.26953,23.34571 3.14509,3.14507 10.879,1.11489 16.04102,-4.21094 3.07168,-3.16916 2.63373,-4.34139 -0.72852,-1.94727 -2.40077,1.7095 -4.61237,1.63598 -4.60937,-0.15429 10e-4,-0.53964 2.24024,-6.83157 4.97656,-13.98047 5.43348,-14.19556 5.98387,-17.59354 3.25195,-20.07422 -1.58697,-1.44102 -3.49387,-2.15468 -5.62109,-2.1582 z" /><path
   style="fill:#1c75bc;fill-opacity:1;fill-rule:evenodd;stroke-width:0.382848"
   d="m 956.64242,123.05509 c -0.61778,-0.35982 -0.66998,-1.42894 -0.66998,-13.72143 V 96.002458 l 2.65954,-0.262065 c 1.46276,-0.144136 3.27925,-0.145811 4.03665,-0.0037 1.7201,0.322695 2.2241,1.257544 5.68613,10.547087 3.36721,9.03513 3.72879,9.91073 4.09269,9.91073 0.31255,0 2.21816,-4.65521 4.70158,-11.48545 3.28933,-9.046771 3.63443,-9.412667 8.49585,-9.007713 l 3.25252,0.270933 v 13.55675 13.55675 h -2.25149 -2.25148 l -0.28016,-11.96401 c -0.15409,-6.58021 -0.36963,-12.113568 -0.47899,-12.296355 -0.10935,-0.182787 -1.79027,4.038115 -3.73537,9.379785 -4.93655,13.55682 -5.22413,14.22019 -6.41486,14.79683 -1.52904,0.74049 -2.73692,0.23758 -3.74735,-1.56024 -0.49105,-0.8737 -2.55944,-6.39615 -4.59642,-12.27211 -2.03698,-5.87596 -3.79404,-10.532443 -3.90458,-10.347743 -0.11054,0.1847 -0.32663,5.702103 -0.48021,12.260913 l -0.27923,11.92509 -1.15172,0.23034 c -1.52419,0.30484 -1.88789,0.28001 -2.68312,-0.18317 z"
   id="path2347" /><path
   id="path2556"
   style="fill:#1c75bc;fill-opacity:1;fill-rule:evenodd;stroke-width:0.382848"
   d="m 898.70312,202.40039 c -3.2998,-0.0277 -7.39954,1.79108 -11.40039,5.17578 -1.44584,1.22319 -3.21044,2.71384 -3.92187,3.3125 l -1.29492,1.08985 0.21875,-2.8125 c 0.24459,-3.155 -0.45768,-5.07712 -2.17774,-5.96485 -2.24761,-1.16001 -7.6648,-0.21634 -11.80078,2.05469 -3.08888,1.69608 -7.20045,4.83423 -6.59765,5.03516 0.24941,0.0831 1.78133,-0.63961 3.40429,-1.60547 3.0902,-1.83902 3.86406,-2.05586 4.62305,-1.29688 0.61334,0.61334 0.57835,1.49958 -0.17188,4.49219 -0.80225,3.20019 -2.43952,7.53183 -7.94921,21.02734 -2.43774,5.97102 -4.33693,11.00937 -4.22071,11.19727 0.11623,0.18806 2.57026,0.34184 5.45313,0.33984 l 5.24219,-0.002 6.39648,-12.72656 c 6.65752,-13.24407 9.79605,-18.52262 12.79102,-21.51758 2.01134,-2.01136 4.40602,-3.3717 5.63085,-3.19727 1.97636,0.28146 1.06211,3.80635 -4.4707,17.23243 -5.09507,12.36386 -5.96879,15.76005 -4.6875,18.22265 0.67128,1.29016 2.03851,2.58501 3.28906,3.11524 0.52631,0.22277 1.95615,0.3357 3.17579,0.25 3.39533,-0.23854 7.40641,-2.31376 10.54296,-5.45313 2.71969,-2.72165 2.71924,-3.53263 -0.002,-1.81055 -1.0513,0.66533 -2.21484,1.05848 -3.1875,1.07618 -1.43834,0.0262 -1.53811,-0.0435 -1.64648,-1.1543 -0.0755,-0.77363 1.21755,-4.78382 3.74023,-11.59375 4.81027,-12.98524 5.90708,-16.70713 5.66406,-19.23633 -0.21312,-2.21802 -1.13555,-3.38207 -3.64258,-4.5957 -0.88879,-0.43026 -1.90006,-0.64505 -3,-0.6543 z" /><path
   style="fill:#ed1c24;fill-opacity:1;fill-rule:evenodd;stroke-width:0.382848"
   d="m 956.58139,122.75902 c -0.11106,-0.1797 -0.32049,-6.18241 -0.46539,-13.33936 l -0.26346,-13.012631 0.92136,-0.246526 c 0.50674,-0.135589 2.14036,-0.248878 3.63027,-0.251753 3.93942,-0.0076 3.49783,-0.648463 8.43357,12.23935 1.57114,4.10243 3.02324,7.62559 3.2269,7.82925 0.23847,0.23847 0.50319,0.23736 0.74367,-0.003 0.20537,-0.20537 1.58616,-3.55625 3.06844,-7.4464 3.30823,-8.682282 4.55388,-11.401477 5.53909,-12.09154 0.77638,-0.543799 5.68306,-0.758166 6.87597,-0.300403 0.53621,0.205761 0.60559,1.762874 0.60559,13.591113 v 13.35874 h -2.05031 -2.0503 l -0.24407,-2.58423 c -0.13423,-1.42132 -0.26552,-5.25459 -0.29175,-8.51838 -0.0262,-3.26378 -0.16453,-7.65696 -0.30734,-9.76263 l -0.25965,-3.828483 -0.81582,1.722813 c -0.44869,0.94755 -2.37115,5.89405 -4.27213,10.99221 -4.45931,11.95925 -4.46989,11.9787 -6.51854,11.9787 -1.60552,0 -2.23778,-1.35079 -7.52628,-16.07963 -3.40941,-9.495448 -3.36516,-9.435349 -3.66461,-4.97703 -0.13435,2.00038 -0.26356,6.23836 -0.28713,9.41773 -0.0236,3.17937 -0.15427,7.09878 -0.29046,8.7098 l -0.2476,2.92913 h -1.64404 c -0.90423,0 -1.73492,-0.14703 -1.84598,-0.32674 z"
   id="path2692" /><path
   style="fill:#8dc63f;fill-opacity:1;fill-rule:evenodd;stroke-width:0.382848"
   d="m 504.38535,248.86886 c -1.96863,-1.96863 -0.5499,-5.18586 2.28685,-5.18586 0.74092,0 2.13405,0.38231 3.09583,0.84958 2.66138,1.293 3.03209,0.87066 3.16626,-3.6072 0.1525,-5.08968 -0.0518,-5.30893 -5.31079,-5.69941 -2.19254,-0.1628 -4.58943,-0.50741 -5.32641,-0.76581 -2.26606,-0.79451 -4.56298,-2.60941 -5.92843,-4.68432 -4.82082,-7.32563 -1.14771,-16.69457 8.70084,-22.19311 1.80802,-1.00944 3.4706,-2.05619 3.69461,-2.32611 0.2905,-0.35003 0.23257,-1.41563 -0.20201,-3.71596 -0.75206,-3.98083 -0.52334,-7.03601 0.69164,-9.23852 1.17974,-2.13865 2.41044,-2.24392 3.55022,-0.30367 0.63097,1.07408 0.78483,1.98569 0.77543,4.59418 -0.01,2.74925 -0.18116,3.625 -1.10367,5.6438 -0.85497,1.87099 -1.04546,2.73621 -0.87772,3.98676 0.32162,2.39786 1.32529,3.44227 4.39977,4.5784 5.03406,1.86024 7.48659,3.7855 9.34629,7.33691 1.18305,2.25924 1.16033,5.61029 -0.0538,7.9325 -1.25097,2.39272 -4.8002,5.74718 -7.51048,7.09833 l -2.27444,1.13387 -0.31119,4.59418 c -0.3456,5.10228 -0.90203,6.40021 -3.679,8.58173 -3.21942,2.52909 -5.53843,2.98111 -7.12982,1.38973 z m 5.48354,-14.77806 c 0.0664,-0.351 -0.6393,-1.12206 -1.71968,-1.87907 -4.15264,-2.90971 -5.45512,-4.86497 -5.75851,-8.64466 -0.39101,-4.87116 1.91986,-9.36083 5.95888,-11.57719 2.38723,-1.30996 2.70057,-1.81338 1.97386,-3.17125 -1.05077,-1.96338 -5.24592,-0.075 -9.24048,4.15944 -3.03543,3.21772 -4.14575,5.75045 -4.14575,9.45685 0,5.79231 3.81077,10.70618 9.37979,12.09497 1.77128,0.44171 3.42401,0.2374 3.55189,-0.43909 z m 7.78829,-2.86665 c 6.11833,-2.15868 8.11586,-11.0867 3.48785,-15.58903 -3.92357,-3.81703 -9.50635,-3.98152 -13.49259,-0.39754 -6.34492,5.70462 -2.10482,16.39896 6.56053,16.5469 0.97372,0.0166 2.52361,-0.23553 3.44421,-0.56033 z m -5.53298,-30.32401 c 1.28966,-3.08659 1.0205,-7.71117 -0.48238,-8.28787 -0.84228,-0.32322 -1.71309,0.16866 -2.09994,1.18615 -0.47359,1.24564 -0.44521,5.32005 0.0495,7.10127 0.54667,1.96845 1.71049,1.96866 2.53286,4.6e-4 z"
   id="path2694" /></svg>
