<?xml version="1.0" encoding="UTF-8" standalone="no"?>
<!-- Generator: Adobe Illustrator 13.0.0, SVG Export Plug-In . SVG Version: 6.00 Build 14948)  -->

<svg
   version="1.1"
   id="Ebene_1"
   x="0px"
   y="0px"
   width="566.929px"
   height="129.21px"
   viewBox="0 0 566.929 129.21"
   enable-background="new 0 0 566.929 129.21"
   xml:space="preserve"
   sodipodi:docname="arcade-post.svg"
   inkscape:version="1.3 (0e150ed6c4, 2023-07-21)"
   xmlns:inkscape="http://www.inkscape.org/namespaces/inkscape"
   xmlns:sodipodi="http://sodipodi.sourceforge.net/DTD/sodipodi-0.dtd"
   xmlns="http://www.w3.org/2000/svg"
   xmlns:svg="http://www.w3.org/2000/svg"><defs
   id="defs12" /><sodipodi:namedview
   id="namedview12"
   pagecolor="#ffffff"
   bordercolor="#000000"
   borderopacity="0.25"
   inkscape:showpageshadow="2"
   inkscape:pageopacity="0.0"
   inkscape:pagecheckerboard="0"
   inkscape:deskcolor="#d1d1d1"
   inkscape:zoom="0.82630847"
   inkscape:cx="467.74299"
   inkscape:cy="63.535594"
   inkscape:window-width="1920"
   inkscape:window-height="1129"
   inkscape:window-x="-8"
   inkscape:window-y="-8"
   inkscape:window-maximized="1"
   inkscape:current-layer="Ebene_1" />&#10;<g
   id="Ebene_2">&#10;</g>&#10;<g
   id="g6">&#10;	<path
   fill="#F4B20C"
   d="M2.794,113.106L55.462,21.59c6.676,11.93,14.773,27.044,24.295,45.341l23.829,45.896L2.794,113.106z    M55.458,27.549 M7.606,110.324 M57.964,77.501c0.186,1.484-0.062,2.813-0.742,3.986c-0.804,1.362-1.947,2.04-3.431,2.04   c-1.854,0-3.277-0.987-4.265-2.967c-0.185-1.174-0.092-2.317,0.278-3.431c0.494-1.359,1.328-2.193,2.503-2.504   c0.371-0.061,0.742-0.093,1.113-0.093C55.336,74.534,56.851,75.524,57.964,77.501z"
   id="path1" />&#10;	<path
   fill="#F4B20C"
   d="M192.707,111.79c-14.467,0.252-28.935,0.473-43.403,0.663c-17.313,0.25-31.935,0.313-43.867,0.189V20.755   c3.461,0.434,14.372,0.371,32.731-0.185c14.464-0.371,25.374,0.866,32.73,3.709c10.508,4.019,17.214,11.869,20.121,23.552   c0.06,0.804,0.093,1.639,0.093,2.505c0,8.593-4.142,16.104-12.426,22.533c-2.227,1.731-5.101,3.153-8.625,4.265   c-3.091,0.867-6.184,1.701-9.273,2.504L192.707,111.79z M154.301,48.943c0.123,0.433,0.186,0.897,0.186,1.391   c0,1.36-0.434,2.488-1.298,3.384c-0.866,0.896-1.947,1.344-3.245,1.344c-1.855,0-3.308-0.987-4.358-2.966   c-0.433-2.782,0.371-4.759,2.411-5.934c0.557-0.247,1.113-0.371,1.669-0.371C152.013,45.791,153.559,46.842,154.301,48.943z    M175.425,105.241c-4.508,0.061-11.148-0.126-19.919-0.561v-0.842c1.73-0.249,4.326-0.344,7.789-0.279   c3.461,0.061,6.057-0.064,7.788-0.373l-15.577-15.949l1.945,0.003L175.425,105.241z M183.044,52.56   c-0.185,3.029-1.298,5.98-3.337,8.854c-2.041,2.875-4.513,4.96-7.418,6.259l-8.344,3.709v-2.041   c11.126-3.584,17.091-9.18,17.895-16.782H183.044z"
   id="path2" />&#10;	<path
   fill="#F4B20C"
   d="M280.586,82.507c-3.029,8.655-8.576,15.732-16.643,21.234c-8.066,5.5-16.675,8.22-25.823,8.158   c-8.284,0-16.01-2.21-23.181-6.629c-7.171-4.42-12.765-10.4-16.783-17.941c-3.152-5.935-4.729-12.825-4.729-20.677   c0-7.356,1.421-13.783,4.266-19.286c4.017-7.913,9.689-14.141,17.014-18.684c7.326-4.544,15.314-6.815,23.969-6.815   c2.472,0,4.945,0.186,7.418,0.556c6.675,1.052,12.918,3.679,18.729,7.88c6.058,4.39,10.538,9.676,13.444,15.856   c-7.85,4.761-19.626,11.868-35.326,21.326C256.541,73.484,269.09,78.491,280.586,82.507z M267.05,87.33   c0,1.608-1.02,3.37-3.06,5.285c-1.608,1.483-3.462,2.75-5.563,3.802l-0.835-0.649c1.298-1.051,2.596-2.133,3.895-3.245   c1.607-1.359,2.688-2.72,3.245-4.08c-2.906-1.421-6.894-3.09-11.961-5.007c-6.119-2.348-10.168-3.955-12.146-4.82V77.13   L267.05,87.33z"
   id="path3" />&#10;	<path
   fill="#F4B20C"
   d="M267.049,113.106l52.667-91.516c6.676,11.93,14.773,27.044,24.295,45.341l23.829,45.896L267.049,113.106z    M322.219,77.501c0.185,1.484-0.063,2.813-0.742,3.986c-0.805,1.362-1.947,2.04-3.432,2.04c-1.854,0-3.276-0.987-4.266-2.967   c-0.186-1.174-0.093-2.317,0.278-3.431c0.494-1.359,1.329-2.193,2.504-2.504c0.371-0.061,0.742-0.093,1.112-0.093   C319.59,74.534,321.106,75.524,322.219,77.501z M355.414,105.689l-19.01,0.371v-1.206l15.857-0.463   c-0.682-2.226-2.195-5.472-4.545-9.736c-2.473-4.512-4.079-7.882-4.821-10.106l1.112-0.649L355.414,105.689z"
   id="path4" />&#10;	<path
   fill="#F4B20C"
   d="M462.414,89.046c-4.636,9.501-11.623,16.133-20.955,19.896c-7.109,2.837-16.69,4.256-28.745,4.256   c-3.276,0-8.283-0.125-15.02-0.371c-6.738-0.247-11.746-0.371-15.022-0.371c-5.067,0-9.518,0.247-13.351,0.742l0.278-92.443   c3.709,0.371,7.941,0.557,12.701,0.557c3.276,0,8.314-0.093,15.115-0.278c6.799-0.186,11.869-0.278,15.205-0.278   c10.323,0,18.762,1.111,25.313,3.331c8.406,2.838,15.083,7.834,20.028,14.992c6.306,7.094,9.457,16.317,9.457,27.667   C467.419,74.828,465.751,82.262,462.414,89.046z M424.768,77.13c0.124,0.434,0.186,0.896,0.186,1.392   c0,1.112-0.356,2.117-1.066,3.013c-0.711,0.896-1.622,1.407-2.735,1.529c-2.597-0.492-4.204-1.451-4.821-2.873   c-0.063-0.433-0.093-0.834-0.093-1.205c0-2.164,0.988-3.74,2.967-4.73c0.371-0.061,0.742-0.092,1.113-0.092   C422.172,74.164,423.656,75.153,424.768,77.13z M460.467,68.043c-0.928,7.543-3.093,14.157-6.491,19.842   c-3.957,6.677-9.212,11.282-15.764,13.816c-3.648,1.421-6.338,2.379-8.065,2.874c-3.029,0.866-5.874,1.328-8.531,1.392   l-0.464-1.113c14.525-2.535,24.603-7.82,30.228-15.855c3.832-5.501,6.306-12.485,7.418-20.955H460.467z"
   id="path5" />&#10;	<path
   fill="#F4B20C"
   d="M561.625,63.129h-50.44c-0.557,1.498-0.835,3.246-0.835,5.241c0,1.997,0.278,3.68,0.835,5.053h17.895   v11.589l-17.895,0.835v9.087l50.162,0.371v17.802h-89.662V20.755h89.662L561.625,63.129z M516.84,29.563l-36.439,0.278   l-0.278,30.228h-1.297V27.895c8.529-0.122,21.2,0.033,38.015,0.464V29.563z"
   id="path6" />&#10;</g>&#10;<g
   id="g12">&#10;	<path
   d="M2.794,113.106L55.462,21.59c6.676,11.93,14.773,27.044,24.295,45.341l23.829,45.896L2.794,113.106z M98.812,110.138   L55.458,27.549L7.606,110.324L98.812,110.138z M57.964,77.501c0.186,1.484-0.062,2.813-0.742,3.986   c-0.804,1.362-1.947,2.04-3.431,2.04c-1.854,0-3.277-0.987-4.265-2.967c-0.185-1.174-0.092-2.317,0.278-3.431   c0.494-1.359,1.328-2.193,2.503-2.504c0.371-0.061,0.742-0.093,1.113-0.093C55.336,74.534,56.851,75.524,57.964,77.501z    M91.159,105.689L72.15,106.06v-1.206l15.855-0.463c-0.681-2.226-2.195-5.472-4.543-9.736c-2.473-4.512-4.08-7.882-4.822-10.106   l1.113-0.649L91.159,105.689z"
   id="path7" />&#10;	<path
   d="M192.707,111.79c-14.467,0.252-28.935,0.473-43.403,0.663c-17.313,0.25-31.935,0.313-43.867,0.189V20.755   c3.461,0.434,14.372,0.371,32.731-0.185c14.464-0.371,25.374,0.866,32.73,3.709c10.508,4.019,17.214,11.869,20.121,23.552   c0.06,0.804,0.093,1.639,0.093,2.505c0,8.593-4.142,16.104-12.426,22.533c-2.227,1.731-5.101,3.153-8.625,4.265   c-3.091,0.867-6.184,1.701-9.273,2.504L192.707,111.79z M188.145,47.802c-2.536-9.446-7.728-16.053-15.578-19.819   c-6.059-2.839-14.557-4.26-25.499-4.26c-3.029,0-7.603,0.138-13.723,0.417s-10.632,0.418-13.538,0.418   c-4.45,0-8.314-0.216-11.59-0.649v85.581h77.979L156.87,79.94c-0.354-0.432-0.529-0.957-0.529-1.575   c-0.062-0.803,0.217-1.327,0.835-1.573c6.551,0,12.888-2.007,19.008-6.022C184.713,65.277,188.701,57.619,188.145,47.802z    M154.301,48.943c0.123,0.433,0.186,0.897,0.186,1.391c0,1.36-0.434,2.488-1.298,3.384c-0.866,0.896-1.947,1.344-3.245,1.344   c-1.855,0-3.308-0.987-4.358-2.966c-0.433-2.782,0.371-4.759,2.411-5.934c0.557-0.247,1.113-0.371,1.669-0.371   C152.013,45.791,153.559,46.842,154.301,48.943z M175.425,105.241c-4.508,0.061-11.148-0.126-19.919-0.561v-0.842   c1.73-0.249,4.326-0.344,7.789-0.279c3.461,0.061,6.057-0.064,7.788-0.373l-15.577-15.949l1.945,0.003L175.425,105.241z    M183.044,52.56c-0.185,3.029-1.298,5.98-3.337,8.854c-2.041,2.875-4.513,4.96-7.418,6.259l-8.344,3.709v-2.041   c11.126-3.584,17.091-9.18,17.895-16.782H183.044z"
   id="path8" />&#10;	<path
   d="M280.586,82.507c-3.029,8.655-8.576,15.732-16.643,21.234c-8.066,5.5-16.675,8.22-25.823,8.158   c-8.284,0-16.01-2.21-23.181-6.629c-7.171-4.42-12.765-10.4-16.783-17.941c-3.152-5.935-4.729-12.825-4.729-20.677   c0-7.356,1.421-13.783,4.266-19.286c4.017-7.913,9.689-14.141,17.014-18.684c7.326-4.544,15.314-6.815,23.969-6.815   c2.472,0,4.945,0.186,7.418,0.556c6.675,1.052,12.918,3.679,18.729,7.88c6.058,4.39,10.538,9.676,13.444,15.856   c-7.85,4.761-19.626,11.868-35.326,21.326C256.541,73.484,269.09,78.491,280.586,82.507z M275.731,84.263   c-14.334-5.404-27.371-10.81-39.108-16.213c4.824-2.779,11.164-6.61,19.021-11.493c9.401-5.931,15.618-9.824,18.649-11.679   c-2.906-5.319-7.11-9.742-12.612-13.269c-5.008-3.217-10.604-5.413-16.785-6.59c-1.669-0.122-3.308-0.185-4.915-0.185   c-8.161,0-15.58,1.793-22.256,5.377c-7.048,3.834-12.521,9.273-16.415,16.32c-3.337,5.997-5.006,12.765-5.006,20.306   c0,10.262,2.873,18.792,8.618,25.591c4.388,5.193,9.5,9.256,15.339,12.193c5.838,2.936,11.94,4.404,18.306,4.404   c4.448,0,8.804-0.74,13.067-2.219c5.623-1.908,10.628-4.773,15.015-8.593C271.653,93.904,274.678,89.252,275.731,84.263z    M267.05,87.33c0,1.608-1.02,3.37-3.06,5.285c-1.608,1.483-3.462,2.75-5.563,3.802l-0.835-0.649   c1.298-1.051,2.596-2.133,3.895-3.245c1.607-1.359,2.688-2.72,3.245-4.08c-2.906-1.421-6.894-3.09-11.961-5.007   c-6.119-2.348-10.168-3.955-12.146-4.82V77.13L267.05,87.33z"
   id="path9" />&#10;	<path
   d="M267.049,113.106l52.667-91.516c6.676,11.93,14.773,27.044,24.295,45.341l23.829,45.896L267.049,113.106z M363.067,110.138   l-43.355-82.589l-47.852,82.775L363.067,110.138z M322.219,77.501c0.185,1.484-0.063,2.813-0.742,3.986   c-0.805,1.362-1.947,2.04-3.432,2.04c-1.854,0-3.276-0.987-4.266-2.967c-0.186-1.174-0.093-2.317,0.278-3.431   c0.494-1.359,1.329-2.193,2.504-2.504c0.371-0.061,0.742-0.093,1.112-0.093C319.59,74.534,321.106,75.524,322.219,77.501z    M355.414,105.689l-19.01,0.371v-1.206l15.857-0.463c-0.682-2.226-2.195-5.472-4.545-9.736c-2.473-4.512-4.079-7.882-4.821-10.106   l1.112-0.649L355.414,105.689z"
   id="path10" />&#10;	<path
   d="M462.414,89.046c-4.636,9.501-11.623,16.133-20.955,19.896c-7.109,2.837-16.69,4.256-28.745,4.256   c-3.276,0-8.283-0.125-15.02-0.371c-6.738-0.247-11.746-0.371-15.022-0.371c-5.067,0-9.518,0.247-13.351,0.742l0.278-92.443   c5.184,0.078,8.987,0.264,13.748,0.264c3.275,0,7.342-0.016,14.429,0c6.801,0.014,11.509-0.264,14.845-0.264   c10.323,0,18.762,1.111,25.313,3.331c8.406,2.838,15.083,7.834,20.028,14.992c6.306,7.094,9.457,16.317,9.457,27.667   C467.419,74.828,465.751,82.262,462.414,89.046z M463.249,54.905c-2.165-7.463-6.538-14.048-13.12-19.753   c-6.584-5.705-13.709-9.238-21.373-10.595l-17.76-0.747l-38.894,0.098v86.415c3.214-0.37,6.862-0.556,10.94-0.556   c3.462,0,8.747,0.186,15.856,0.556c7.107,0.371,12.425,0.557,15.948,0.557c16.504,0,28.682-3.978,36.532-11.935   c9.088-9.313,13.631-19.954,13.631-31.921C465.01,62.954,464.421,58.915,463.249,54.905z M424.768,77.13   c0.124,0.434,0.186,0.896,0.186,1.392c0,1.112-0.356,2.117-1.066,3.013c-0.711,0.896-1.622,1.407-2.735,1.529   c-2.597-0.492-4.204-1.451-4.821-2.873c-0.063-0.433-0.093-0.834-0.093-1.205c0-2.164,0.988-3.74,2.967-4.73   c0.371-0.061,0.742-0.092,1.113-0.092C422.172,74.164,423.656,75.153,424.768,77.13z M460.467,68.043   c-0.928,7.543-3.093,14.157-6.491,19.842c-3.957,6.677-9.212,11.282-15.764,13.816c-3.648,1.421-6.338,2.379-8.065,2.874   c-3.029,0.866-5.874,1.328-8.531,1.392l-0.464-1.113c14.525-2.535,24.603-7.82,30.228-15.855   c3.832-5.501,6.306-12.485,7.418-20.955H460.467z"
   id="path11" />&#10;	<path
   d="M561.625,63.129h-50.44c-0.557,1.498-0.835,3.246-0.835,5.241c0,1.997,0.278,3.68,0.835,5.053h17.895v11.589l-17.895,0.835   v9.087l50.162,0.371v17.802h-89.662V20.755h89.662L561.625,63.129z M558.751,110.417V98.365h-49.514   c-0.927-3.339-1.053-8.624-0.37-15.857h17.616v-6.211h-17.891c-0.435-1.359-0.714-2.967-0.839-4.822   c-0.126-1.174-0.154-2.875-0.093-5.1c0.061-2.472,0.093-4.172,0.093-5.1l0.835-0.835h50.162V23.909h-84.471v86.508H558.751z    M516.84,29.563l-36.439,0.278l-0.278,30.228h-1.297V27.895c8.529-0.122,21.2,0.033,38.015,0.464V29.563z"
   id="path12" />&#10;</g>&#10;<path
   style="fill:#999999;stroke-width:0.941316"
   d="m 11.347378,104.33698 c 1.887167,-3.25966 12.524985,-21.665192 23.639594,-40.901171 11.11461,-19.235981 20.315263,-34.976284 20.445901,-34.978451 0.397312,-0.0066 42.772655,80.997142 42.509561,81.260312 -0.134813,0.13484 -20.445873,0.31285 -45.135692,0.39557 l -44.8905774,0.1504 z m 79.914793,1.34284 c 0.124758,-0.10364 -9.764653,-19.237145 -10.88235,-21.054582 -0.614286,-0.99887 -1.865501,-0.916243 -1.865501,0.123184 0,0.319127 2.021691,4.592933 4.492645,9.497348 2.470955,4.904416 4.492645,9.11786 4.492645,9.36321 0,0.4313 -7.368357,1.00547 -12.903304,1.00547 -2.239121,0 -2.50005,0.092 -2.50005,0.88146 0,0.87251 0.09667,0.87845 9.520129,0.58488 5.236071,-0.16313 9.576676,-0.34356 9.645786,-0.40097 z M 56.477862,82.686062 c 1.513423,-1.305203 2.160107,-4.190405 1.308395,-5.837435 -0.700193,-1.354032 -2.974772,-2.613016 -4.720867,-2.613016 -0.694918,0 -1.636461,0.491564 -2.395594,1.250701 -1.058789,1.058788 -1.250701,1.58907 -1.250701,3.455879 0,1.86681 0.191912,2.397092 1.250701,3.45588 1.606818,1.606822 4.133563,1.732111 5.808066,0.287991 z"
   id="path13" /><path
   style="fill:#999999;stroke-width:0.941316"
   d="m 108.46504,66.854837 -2.5e-4,-42.466193 11.87367,-5.84e-4 c 6.53051,-3.22e-4 17.0723,-0.06885 23.42618,-0.15228 9.23845,-0.12131 12.49528,-0.0081 16.2591,0.564943 8.35743,1.272531 14.49997,3.814546 19.20961,7.949663 3.96252,3.479135 8.28713,11.551784 8.68948,16.220447 0.45699,5.302653 -2.03978,12.227951 -5.95169,16.508198 -5.44985,5.96301 -15.62679,10.895935 -22.47902,10.895935 -2.10848,0 -3.53316,0.713787 -3.53316,1.770174 0,1.16799 2.02803,3.38063 15.33893,16.735244 l 14.39339,14.440646 h -38.613 -38.61299 z m 58.1907,29.416128 c -6.54693,-6.552249 -9.46985,-9.199226 -10.15821,-9.199226 -0.53154,0 -0.96644,0.128875 -0.96644,0.286392 0,0.157516 3.27322,3.60729 7.27381,7.666164 4.00059,4.058873 7.2738,7.588295 7.2738,7.843155 0,0.31209 -2.13046,0.46529 -6.52503,0.46923 -6.84908,0.006 -8.58908,0.21747 -8.32665,1.01134 0.17108,0.51754 5.63906,0.89421 15.06189,1.03759 l 5.55859,0.0846 z m 2.15747,-26.787589 c 5.76197,-2.57942 7.96783,-4.018006 9.93816,-6.481318 2.23958,-2.799933 3.21692,-4.635197 3.9335,-7.38634 0.82435,-3.16487 0.82289,-3.201526 -0.12776,-3.201526 -0.59153,0 -0.95515,0.607724 -1.47203,2.460258 -0.89145,3.194998 -2.91044,6.193492 -5.60383,8.322491 -2.24888,1.777643 -7.45323,4.55411 -10.21609,5.450192 -1.36938,0.44413 -1.60452,0.703642 -1.60452,1.770821 0,0.687738 0.0611,1.250431 0.13583,1.250431 0.0747,0 2.33224,-0.983252 5.01674,-2.185009 z m -16.9337,-14.682187 c 2.87025,-1.199265 3.7184,-5.191812 1.60532,-7.556764 -0.90668,-1.014751 -1.65717,-1.385027 -3.14774,-1.553036 -1.71789,-0.19363 -2.12681,-0.06907 -3.34419,1.018656 -1.08194,0.966717 -1.4368,1.681341 -1.61354,3.249388 -0.27139,2.407706 0.55001,3.93848 2.58932,4.825536 1.73396,0.754234 2.14048,0.75592 3.91083,0.01622 z"
   id="path14" /><path
   style="fill:#999999;stroke-width:0.941316"
   d="m 233.324,108.46122 c -6.37113,-1.01134 -12.95709,-3.62864 -18.35538,-7.29455 -6.62428,-4.498465 -13.05251,-12.165695 -15.58222,-18.585586 -2.14674,-5.448012 -2.89304,-10.323166 -2.65303,-17.330763 0.2417,-7.056829 1.28954,-11.470346 4.06335,-17.114838 7.34982,-14.956347 23.66657,-23.990389 41.51035,-22.982896 6.2839,0.3548 14.19826,3.212237 20.19176,7.290129 4.075,2.77257 11.12465,10.415465 11.12465,12.06082 0,0.502744 -19.06948,12.606476 -32.00245,20.312515 -2.89329,1.723947 -5.10752,3.263036 -4.92052,3.420197 0.99051,0.832462 21.27954,9.419652 31.45953,13.315028 5.1994,1.989548 7.16098,2.930685 7.16684,3.438529 0.004,0.384579 -0.77993,2.273629 -1.74306,4.197898 -4.06717,8.125971 -14.72289,15.750407 -25.78868,18.452457 -4.03342,0.98489 -10.96243,1.37802 -14.47114,0.82106 z m 28.31481,-13.752904 c 1.46325,-0.977125 3.22355,-2.553915 3.91178,-3.503981 1.25517,-1.732727 1.95471,-3.547456 1.53085,-3.971322 -0.19388,-0.193877 -26.4205,-10.430176 -26.72336,-10.430176 -0.0597,0 -0.10854,0.438221 -0.10854,0.973825 0,0.870243 0.96712,1.354896 9.09226,4.556381 11.63621,4.58492 14.86803,6.022438 14.87055,6.614436 10e-4,0.262653 -1.54303,1.933839 -3.43146,3.713744 -3.17423,2.991828 -3.67988,3.823677 -2.32428,3.823677 0.28696,0 1.71895,-0.799464 3.1822,-1.776584 z"
   id="path15" /><path
   style="fill:#999999;stroke-width:0.941316"
   d="m 273.30937,108.35832 c 17.03353,-29.476754 45.63814,-79.033034 45.94891,-79.604542 0.33771,-0.621042 4.5442,7.089547 21.82515,40.005935 l 21.40682,40.775247 -6.45984,0.26428 c -3.55291,0.14535 -23.85504,0.28976 -45.11585,0.3209 l -38.65601,0.0566 z m 82.32311,-2.62364 c 0.0394,-0.0282 -2.50987,-4.96101 -5.66514,-10.96167 -5.4049,-10.278949 -6.12161,-11.310024 -7.15954,-10.299709 -0.18958,0.184545 1.41518,3.780954 3.56613,7.992021 2.15097,4.211064 4.26547,8.542228 4.69889,9.624808 l 0.78805,1.96833 -5.17013,0.27799 c -2.84358,0.1529 -6.39143,0.278 -7.88412,0.278 -2.45929,0 -2.71398,0.0831 -2.71398,0.88565 0,0.87846 0.0791,0.88321 9.73406,0.5858 5.35374,-0.16492 9.76634,-0.32297 9.80578,-0.35122 z M 320.63481,82.751941 c 1.98506,-1.849365 2.39176,-5.229939 0.80325,-6.676793 -2.84692,-2.593039 -5.98522,-2.366738 -7.36016,0.530735 -1.09046,2.29798 -0.85795,3.937842 0.79234,5.588128 1.77777,1.777773 4.20325,2.012529 5.76457,0.55793 z"
   id="path16" /><path
   style="fill:#999999;stroke-width:0.941316"
   d="m 398.34786,110.10359 c -3.76526,-0.20563 -11.13018,-0.32142 -16.36648,-0.25732 l -9.52055,0.11657 4.2e-4,-42.944522 4.2e-4,-42.94452 27.91858,0.210717 c 27.10004,0.204539 28.01893,0.238315 31.34154,1.152003 12.32996,3.39063 23.46187,12.531588 28.87369,23.709612 2.38987,4.936242 3.18037,7.69809 3.91525,13.679236 2.05441,16.72041 -8.02323,35.454132 -22.9479,42.658764 -9.66093,4.66366 -20.73319,5.84723 -43.21497,4.61946 z m 29.30916,-4.71209 c 2.99978,-0.56204 11.02637,-3.47459 14.23068,-5.16378 4.71553,-2.485854 9.80998,-7.74607 12.96381,-13.385645 2.0199,-3.611919 4.23758,-9.854325 5.08169,-14.304111 0.87041,-4.588411 0.86059,-4.720418 -0.35121,-4.720418 -0.89261,0 -1.05723,0.255752 -1.30822,2.032387 -1.01853,7.209643 -4.4785,15.784986 -8.23924,20.420471 -5.23425,6.451721 -14.37089,11.344866 -25.63754,13.730216 -2.97445,0.62975 -3.44463,0.84772 -3.26989,1.5159 0.22128,0.84618 1.4744,0.82219 6.52992,-0.12502 z m -4.76863,-22.780315 c 3.33687,-1.725565 2.70666,-7.14975 -0.97175,-8.363731 -2.94197,-0.970942 -5.33067,0.719388 -5.70458,4.036774 -0.25035,2.221096 0.4483,3.354303 2.67361,4.33658 1.67063,0.737435 2.56221,0.735292 4.00272,-0.0096 z"
   id="path17" /><path
   style="fill:#999999;stroke-width:0.941316"
   d="M 474.29495,67.17574 V 24.174709 h 42.14529 42.14529 v 17.97058 17.97058 h -24.97806 c -21.71563,0 -25.04785,0.08409 -25.51239,0.643831 -0.63624,0.766627 -0.72578,12.087384 -0.11165,14.117717 l 0.38825,1.283613 8.84783,0.115649 8.84783,0.11565 v 2.986415 2.986415 h -8.71631 -8.71631 l -0.30207,4.660734 c -0.27468,4.238049 -0.1953,6.062521 0.44413,10.207782 l 0.2145,1.39058 h 24.79712 24.79713 v 5.776255 5.77626 h -42.14529 -42.14529 z m 6.15367,-21.910171 c 0.1646,-8.167666 0.36034,-14.911356 0.43496,-14.98598 0.0746,-0.07462 8.24981,-0.258453 18.16707,-0.40851 16.4788,-0.24934 18.0314,-0.334606 18.0314,-0.990249 0,-0.648529 -1.20175,-0.744504 -12.51523,-0.999497 -6.88337,-0.155143 -15.54776,-0.282434 -19.25419,-0.282868 l -6.73897,-7.88e-4 v 16.259096 c 0,15.506691 0.0365,16.259096 0.78784,16.259096 0.74431,0 0.80436,-0.820288 1.08712,-14.8503 z"
   id="path18" /><path
   style="fill:#999999;stroke-width:0.0588323"
   d="m 264.45233,99.629856 c 0.014,-0.01318 0.23599,-0.189693 0.49338,-0.392251 3.64793,-2.870804 6.50603,-6.104532 8.31823,-9.411447 0.75134,-1.371063 1.84219,-3.839729 2.02977,-4.593519 0.0724,-0.290801 0.0558,-0.355622 -0.13951,-0.546488 -0.56387,-0.550988 -2.43758,-1.394331 -7.0262,-3.162443 -4.85969,-1.872566 -11.31836,-4.495791 -17.91041,-7.274413 l -0.96939,-0.408611 v -0.089 -0.089 l 0.22062,0.09508 c 6.85788,2.955575 17.43026,7.193987 25.85277,10.364234 0.19855,0.07474 0.36907,0.143241 0.37892,0.15223 0.024,0.02191 -0.28802,1.252041 -0.44506,1.75457 -1.47903,4.732911 -4.72779,9.077252 -9.91753,13.262024 l -0.45016,0.362991 h -0.23042 c -0.13687,0 -0.2201,-0.0097 -0.20501,-0.02396 z"
   id="path19" /><path
   style="fill:#999999;stroke-width:0.0588323"
   d="m 258.6881,94.760067 c 0.41477,-0.450678 1.10591,-1.139453 2.0725,-2.065406 2.16057,-2.069731 3.46346,-3.480029 3.46298,-3.748448 -8.2e-4,-0.463486 -1.9639,-1.425097 -7.59461,-3.720222 -1.16956,-0.476722 -5.44752,-2.184729 -6.70488,-2.67697 l -0.67458,-0.264089 -6.5e-4,-0.09841 -6.6e-4,-0.09841 0.16714,0.06795 c 0.0919,0.03737 1.41264,0.546837 2.93492,1.132142 4.71585,1.813199 6.40368,2.490387 8.7981,3.529954 1.36297,0.59175 3.47293,1.563087 3.53909,1.629246 0.0333,0.0333 -0.32263,0.750254 -0.55744,1.122849 -0.49655,0.787914 -1.18764,1.604818 -1.97982,2.340256 -0.53207,0.49396 -3.59508,3.082879 -3.68494,3.114588 -0.0172,0.0061 0.0831,-0.113211 0.22285,-0.265034 z"
   id="path20" /><path
   style="fill:#999999;stroke-width:0.0588323"
   d="m 258.66141,94.821792 c 8e-5,-0.03926 1.19723,-1.23713 2.40672,-2.408173 2.07072,-2.004878 3.15555,-3.195186 3.15555,-3.462344 0,-0.115972 -0.0824,-0.234472 -0.26023,-0.37417 -0.64574,-0.507309 -2.32778,-1.297011 -6.02412,-2.828268 -1.03098,-0.427096 -7.43001,-2.991335 -8.28094,-3.318363 -0.35126,-0.134994 -0.37986,-0.151181 -0.39463,-0.223354 -0.009,-0.0428 -0.012,-0.08175 -0.007,-0.08656 0.005,-0.0048 0.17638,0.05624 0.38126,0.135654 0.20488,0.07942 1.58794,0.613747 3.07345,1.187395 4.97684,1.921863 6.55549,2.559297 8.85158,3.574144 1.43168,0.632787 3.04674,1.378542 3.09931,1.431105 0.0321,0.03209 -0.35036,0.806464 -0.56135,1.136617 -0.59754,0.934968 -1.38629,1.821368 -2.41762,2.716895 -0.87535,0.76009 -2.90052,2.468555 -2.98841,2.521077 -0.0184,0.01099 -0.0334,0.01024 -0.0334,-0.0017 z"
   id="path21" /><path
   style="fill:#999999;stroke-width:0.0588323"
   d="m 258.66185,94.820214 c 9.2e-4,-0.03742 1.15798,-1.197848 2.29932,-2.306013 2.24648,-2.1812 3.26251,-3.294597 3.26251,-3.575174 0,-0.475684 -2.02307,-1.462053 -7.86364,-3.833994 -1.08656,-0.441268 -6.01553,-2.407279 -6.67593,-2.662821 -0.37178,-0.143857 -0.40794,-0.163719 -0.42374,-0.232733 -0.009,-0.0415 -0.0121,-0.08062 -0.006,-0.08695 0.0169,-0.01692 6.18035,2.364399 8.06966,3.117821 1.45218,0.579099 2.84791,1.163237 4.18822,1.752841 1.2598,0.554187 3.0978,1.403779 3.15013,1.45611 0.042,0.04202 -0.40267,0.902867 -0.68045,1.317253 -0.56725,0.846212 -1.31859,1.682144 -2.21874,2.468559 -0.76223,0.665926 -3.06188,2.605154 -3.08933,2.605154 -0.007,0 -0.0125,-0.009 -0.0122,-0.02006 z"
   id="path22" /><path
   style="fill:#999999;stroke-width:0.0588323"
   d=""
   id="path23" /><path
   style="fill:#999999;stroke-width:0.0588323"
   d=""
   id="path24" /><path
   style="fill:#999999;stroke-width:0.0588323"
   d="m 258.10851,96.443599 c -0.14819,-0.0293 -0.26758,-0.09329 -0.3052,-0.16357 -0.035,-0.06548 -0.0387,-0.259587 -0.005,-0.29279 0.0122,-0.01223 0.1535,0.0797 0.31395,0.204288 0.16045,0.124585 0.30182,0.226517 0.31416,0.226517 0.0393,0 0.55379,-0.265408 1.05102,-0.542176 2.27771,-1.26782 4.36191,-2.908405 5.74909,-4.52542 1.12174,-1.307587 1.76344,-2.634596 1.82336,-3.770613 l 0.0141,-0.267419 -2.60326,-1.001597 c -1.43179,-0.550879 -3.27716,-1.261715 -4.10081,-1.579638 -0.82365,-0.317923 -3.66063,-1.412892 -6.30441,-2.433264 l -4.80686,-1.855223 v -0.115131 c 0,-0.06332 0.005,-0.115131 0.0101,-0.115131 0.062,0 12.09175,4.716824 15.24619,5.977969 2.38763,0.954574 2.55566,1.027121 2.61523,1.129104 0.23548,0.403208 -0.15145,1.59031 -0.95215,2.921152 -0.23717,0.394206 -0.59776,0.924286 -0.79039,1.161923 -0.6741,0.831558 -1.98209,2.019839 -3.21261,2.918573 -1.02179,0.746291 -2.97349,1.910048 -3.51671,2.096942 -0.1603,0.05515 -0.34517,0.0639 -0.53933,0.0255 z"
   id="path25" /><path
   style="fill:#999999;stroke-width:0.0832014;fill-opacity:1"
   d="m 273.42165,107.6796 c 0.0103,-0.026 3.53119,-6.12287 7.82425,-13.548591 4.29306,-7.425723 11.44699,-19.801968 15.89762,-27.502769 7.66259,-13.258339 8.09758,-14.001505 8.19607,-14.002413 0.0572,-5.27e-4 0.104,0.0089 0.104,0.02087 0,0.02648 -0.77329,1.366559 -25.34001,43.91306 l -6.4467,11.164893 -0.12696,0.001 c -0.0866,7.6e-4 -0.12102,-0.0139 -0.10827,-0.0462 z"
   id="path26" /><path
   style="fill:#999999;fill-opacity:1;stroke-width:0.0832014"
   d="m 313.61969,80.260962 c -0.28171,-0.851207 -0.25072,-1.644032 0.10629,-2.719664 0.57304,-1.726487 1.54031,-2.788797 2.85525,-3.135797 0.42788,-0.112914 1.10482,-0.137202 1.56948,-0.05631 0.92902,0.161728 1.92631,0.64414 2.84408,1.375736 0.55264,0.44054 0.86179,0.806028 1.07004,1.265053 0.1851,0.407994 0.14855,0.433709 -0.0936,0.06584 -0.96489,-1.465918 -2.06522,-2.243372 -3.51208,-2.481525 -0.4425,-0.07283 -1.50337,-0.05077 -1.9127,0.03978 -0.54974,0.121611 -1.30691,0.58669 -1.67036,1.025991 -0.69689,0.842316 -1.09088,1.927567 -1.18432,3.262208 -0.0315,0.44959 -0.003,1.263819 0.0549,1.572663 0.044,0.234692 -0.007,0.148902 -0.12697,-0.213974 z"
   id="path27" /><path
   style="fill:#999999;fill-opacity:1;stroke-width:0.0832014"
   d="m 317.42402,83.601538 c -0.36041,-0.07846 -0.72449,-0.190703 -0.69953,-0.215668 0.009,-0.0087 0.1313,0.01098 0.27246,0.04372 0.63339,0.146893 1.49455,0.138749 2.11937,-0.02004 0.36364,-0.09242 0.85617,-0.322305 1.16844,-0.545377 0.12629,-0.09022 0.3662,-0.306529 0.53314,-0.480696 1.01045,-1.054244 1.54249,-2.615662 1.47329,-4.323835 -0.0132,-0.324875 -0.008,-0.388232 0.0218,-0.285265 0.0638,0.217939 0.0877,1.156732 0.0388,1.523686 -0.23012,1.727611 -1.27892,3.368728 -2.56402,4.012086 -0.49226,0.246439 -0.86378,0.333801 -1.48584,0.349392 -0.43621,0.01093 -0.61578,-9.31e-4 -0.87796,-0.058 z"
   id="path28" /><path
   style="fill:#999999;fill-opacity:1;stroke-width:0.0832014"
   d=""
   id="path29" /><path
   style="fill:#999999;fill-opacity:1;stroke-width:0.0588323"
   d="m 314.10355,81.250857 c -0.15589,-0.231341 -0.36133,-0.611941 -0.34119,-0.632083 0.0186,-0.01858 0.0147,-0.02438 0.14862,0.222094 0.0639,0.117664 0.16887,0.296434 0.23319,0.397266 0.15814,0.247917 0.12489,0.258331 -0.0406,0.01272 z"
   id="path30" /><path
   style="fill:#999999;fill-opacity:1;stroke-width:0.0588323"
   d="m 322.25637,77.748831 c -10e-4,-0.06802 -0.009,-0.164295 -0.0158,-0.213935 -0.0113,-0.07845 -0.008,-0.07505 0.0258,0.02597 0.0272,0.08154 0.0319,0.145388 0.0157,0.213935 l -0.0231,0.09771 z"
   id="path31" /><path
   style="fill:#999999;fill-opacity:1;stroke-width:0.0588323"
   d=""
   id="path32" /><path
   style="fill:#999999;fill-opacity:1;stroke-width:0.0588323"
   d="m 349.45082,98.590826 c -0.65233,-1.339691 -1.45917,-2.957719 -2.79036,-5.595749 -1.52461,-3.02134 -2.17398,-4.355045 -2.83087,-5.814154 -0.63232,-1.404522 -1.01136,-2.381905 -1.01136,-2.607825 0,-0.09181 0.0143,-0.113119 0.14039,-0.20967 0.1775,-0.135881 0.47467,-0.241913 0.47467,-0.169366 0,0.0131 -0.1257,0.09715 -0.27934,0.186774 l -0.27933,0.162949 0.10321,0.287896 c 0.86326,2.408045 2.31119,5.413656 4.8151,9.995218 0.30545,0.558907 0.74365,1.371193 0.97377,1.805081 0.45,0.848454 1.51253,2.95296 1.51253,2.995799 0,0.01432 -0.0699,0.02604 -0.15541,0.02604 h -0.15541 z"
   id="path33" /><path
   style="fill:#999999;fill-opacity:1;stroke-width:0.0588323"
   d="m 348.74834,92.923585 c -1.93774,-3.701525 -3.51815,-6.735057 -3.51203,-6.741182 0.0163,-0.0163 0.61009,0.987735 1.10322,1.865416 0.97937,1.743107 2.1839,3.999518 4.77516,8.945177 0.63962,1.220769 1.21284,2.31886 1.27383,2.440201 l 0.11088,0.220621 -0.11395,-9.4e-5 -0.11395,-9.4e-5 z"
   id="path34" /><path
   style="fill:#999999;fill-opacity:1;stroke-width:0.0588323"
   d="m 348.64662,83.133988 c -9.7519,-18.575277 -11.56935,-22.03556 -11.70083,-22.277509 l -0.0916,-0.168614 0.12312,0.0082 0.12311,0.0082 5.87474,11.1915 c 3.2311,6.155324 7.82029,14.897931 10.19819,19.428015 2.3779,4.530084 4.33138,8.257575 4.34107,8.283314 0.0149,0.03968 0.001,0.0468 -0.0887,0.0468 h -0.1063 z"
   id="path35" /><path
   style="fill:#999999;fill-opacity:1;stroke-width:0.0588323"
   d="m 336.866,60.670354 c -0.0159,-0.01081 -0.23124,-0.404731 -0.47858,-0.875389 -3.84626,-7.319199 -8.37393,-15.863456 -10.52886,-19.869257 l -0.33088,-0.615064 0.15868,-0.0081 c 0.0873,-0.0044 0.16773,0.0016 0.17879,0.01337 0.0111,0.01179 2.48928,4.726679 5.50715,10.477532 3.01788,5.750853 5.54023,10.555376 5.60524,10.676717 l 0.11819,0.220621 -0.10042,-4.09e-4 c -0.0552,-2.26e-4 -0.11342,-0.0093 -0.12931,-0.02006 z"
   id="path36" /><path
   style="fill:#999999;fill-opacity:1;stroke-width:0.0588323"
   d="m 305.09312,52.87549 c 0.034,-0.08436 14.59571,-25.251864 14.61403,-25.25797 0.0157,-0.0052 3.395,6.405755 5.96201,11.310826 l 0.19307,0.368927 h -0.1699 -0.1699 l -0.5023,-0.929283 c -3.68474,-6.816959 -5.36183,-9.660523 -5.69766,-9.660523 -0.0446,0 -0.20038,0.253031 -0.81931,1.330411 -0.81607,1.420545 -3.37323,5.855852 -9.32629,16.176103 l -3.70375,6.420859 -0.0846,-0.01316 c -0.0782,-0.01217 -0.0921,-0.0018 -0.1843,0.137039 -0.0942,0.141866 -0.14116,0.191214 -0.11113,0.116772 z"
   id="path37" /><path
   style="fill:#999999;fill-opacity:1;stroke-width:0.0588323"
   d="m 197.39559,56.847477 c 0,-0.06926 0.40036,-1.622829 0.57048,-2.213705 0.8624,-2.995407 2.01346,-5.722529 3.59226,-8.510896 2.60657,-4.603561 5.93533,-8.542226 9.93026,-11.749704 5.14199,-4.128441 11.22035,-6.984068 17.97659,-8.445437 2.58413,-0.558946 5.58225,-0.932291 8.30591,-1.034305 l 0.4899,-0.01835 -0.009,0.104427 -0.009,0.104427 -0.17382,0.0058 c -7.6325,0.253563 -14.92727,2.321243 -21.30333,6.038368 -5.20656,3.035326 -9.62133,7.086826 -12.98858,11.919803 -1.13308,1.626298 -2.01423,3.126241 -2.97304,5.06086 -1.46604,2.958083 -2.4144,5.519417 -3.03479,8.196403 l -0.12705,0.548209 -0.12384,0.0082 c -0.0681,0.0045 -0.12385,-0.0018 -0.12385,-0.01403 z"
   id="path38" /><path
   style="fill:#999999;fill-opacity:1;stroke-width:0.0588323"
   d="m 196.73099,73.319699 c -0.20224,-1.564355 -0.31331,-2.892721 -0.37844,-4.526073 -0.0339,-0.850899 -0.0337,-3.014833 4.8e-4,-3.850838 0.11336,-2.775677 0.45397,-5.462165 1.01035,-7.969097 0.0198,-0.08913 0.0268,-0.09399 0.14683,-0.101747 0.0711,-0.0046 0.12606,0.0034 0.12606,0.0184 0,0.0146 -0.018,0.104245 -0.0401,0.199209 -0.022,0.09496 -0.0934,0.465752 -0.15868,0.823974 -0.46377,2.545971 -0.70277,5.405586 -0.75401,9.021538 -0.0329,2.321016 0.0894,4.714693 0.33878,6.631999 0.0287,0.220621 0.0522,0.404138 0.0523,0.407815 5e-5,0.0037 -0.058,0.0067 -0.12897,0.0067 h -0.12906 z"
   id="path39" /><path
   style="fill:#999999;fill-opacity:1;stroke-width:0.0588323"
   d="m 203.54371,90.661843 c -3.1712,-4.279203 -5.2966,-9.180916 -6.38616,-14.72812 -0.11106,-0.565455 -0.32354,-1.814968 -0.32354,-1.902627 0,-0.04081 0.021,-0.04954 0.11912,-0.04954 0.11356,0 0.11982,0.0041 0.13382,0.08691 0.008,0.0478 0.045,0.28547 0.082,0.528153 0.30908,2.025538 0.8589,4.229223 1.55128,6.2175 0.56537,1.623551 0.94234,2.539964 1.55105,3.770612 0.97869,1.97868 2.23597,3.981593 3.81056,6.070419 0.15522,0.205913 0.29145,0.38943 0.30274,0.407815 0.0159,0.02589 -0.0403,0.03343 -0.24916,0.03343 h -0.26969 z"
   id="path40" /><path
   style="fill:#999999;fill-opacity:1;stroke-width:0.0588323"
   d="m 222.96088,105.8481 c -4.57187,-1.93497 -8.81606,-4.6027 -12.66231,-7.959028 -2.06054,-1.798072 -4.30006,-4.129233 -5.98614,-6.231092 -0.23007,-0.286807 -0.41837,-0.530493 -0.41843,-0.541524 -7e-5,-0.01103 0.11756,-0.02006 0.2614,-0.02006 h 0.26152 l 0.33251,0.421186 c 2.4226,3.068621 5.3407,5.975043 8.31339,8.280138 3.03302,2.35188 6.81845,4.4794 10.71428,6.02175 0.32325,0.12798 0.59274,0.23712 0.59887,0.24255 0.006,0.005 -0.19243,0.009 -0.44124,0.008 l -0.45238,-0.002 z"
   id="path41" /><path
   style="fill:#999999;fill-opacity:1;stroke-width:0.0588323"
   d="m 237.05388,108.98437 c -4.38947,-0.15894 -8.74165,-1.05669 -12.92176,-2.66547 l -0.60709,-0.23365 0.44456,-0.007 0.44457,-0.007 0.57703,0.21243 c 2.54198,0.93581 5.2583,1.66559 7.8642,2.11283 1.32658,0.22767 2.18281,0.29443 4.04472,0.31539 l 1.35715,0.0153 v 0.14351 0.14352 l -0.31421,-0.004 c -0.17282,-0.002 -0.57295,-0.0135 -0.88917,-0.025 z"
   id="path42" /><path
   style="fill:#999999;fill-opacity:1;stroke-width:0.0588323"
   d="m 238.25726,108.87075 v -0.15142 l 0.18051,-1.7e-4 c 0.0993,-1e-4 0.47534,-0.0122 0.83569,-0.0268 3.36403,-0.13662 6.45012,-0.52168 8.7045,-1.08611 5.60209,-1.40258 11.20743,-4.06791 15.91881,-7.56936 l 0.51545,-0.383082 0.23332,5.95e-4 0.23332,5.95e-4 -0.0669,0.05327 c -0.0368,0.0293 -0.31956,0.243892 -0.62843,0.476872 -3.18658,2.40366 -6.67887,4.35176 -10.4809,5.84655 -3.77266,1.48325 -7.32469,2.37292 -11.04636,2.76679 -1.12992,0.11957 -2.16797,0.18139 -3.45639,0.20581 l -0.94266,0.0179 z"
   id="path43" /><path
   style="fill:#999999;fill-opacity:1;stroke-width:0.0588323"
   d="m 246.56063,79.407263 c -1.44139,-0.557979 -3.3668,-1.302161 -4.2787,-1.65374 l -1.658,-0.639234 -0.0134,0.670592 -0.0134,0.670591 -0.0991,-0.109767 c -0.20017,-0.221657 -0.22178,-0.292528 -0.22178,-0.727241 0,-0.392902 0.0262,-0.709727 0.0637,-0.770407 0.0156,-0.02528 0.0876,-0.0099 0.29934,0.06374 0.43784,0.1524 2.15545,0.801808 4.00927,1.515852 0.93396,0.35974 2.35069,0.905474 3.14828,1.212744 l 1.45018,0.558671 5.7e-4,0.113653 c 3.8e-4,0.0746 -0.0109,0.112863 -0.0329,0.111354 -0.0184,-0.0013 -1.21274,-0.458827 -2.65414,-1.016805 z"
   id="path44" /><path
   style="fill:#999999;fill-opacity:1;stroke-width:0.0588323"
   d=""
   id="path45" /><path
   style="fill:#999999;fill-opacity:1;stroke-width:0.0588323"
   d=""
   id="path46" /><path
   style="fill:#999999;fill-opacity:1;stroke-width:0.0588323"
   d="m 247.89773,81.747194 c -3.50963,-1.396972 -4.85296,-1.958788 -5.9597,-2.492501 -0.26268,-0.126676 -0.4667,-0.233955 -0.45337,-0.238399 0.0133,-0.0044 0.22825,0.07733 0.47761,0.181715 1.12142,0.469459 4.09539,1.652772 6.78452,2.699495 l 0.50141,0.19517 v 0.08944 c 0,0.04919 -0.009,0.08881 -0.0201,0.08805 -0.011,-7.69e-4 -0.60971,-0.236105 -1.33041,-0.52297 z"
   id="path47" /><path
   style="fill:#999999;fill-opacity:1;stroke-width:0.0588323"
   d="m 248.94067,73.711698 c -0.16179,-0.06918 -1.03425,-0.441229 -1.93879,-0.826774 -3.08752,-1.315993 -6.40155,-2.768558 -8.02258,-3.51636 -1.2888,-0.594538 -2.27395,-1.096171 -2.27266,-1.157228 0.002,-0.09973 0.0698,-0.07573 1.04454,0.370227 3.33991,1.528068 8.30892,3.726442 11.02904,4.879427 0.23532,0.09975 0.43777,0.189968 0.44987,0.200486 0.0121,0.01052 0.0181,0.05442 0.0134,0.09756 l -0.009,0.07844 z"
   id="path48" /><path
   style="fill:#999999;fill-opacity:1;stroke-width:0.0588323"
   d="m 237.54994,67.459447 c 0.0527,-0.0494 0.60454,-0.432885 1.06834,-0.742379 0.94604,-0.631291 1.93685,-1.248024 3.58342,-2.230499 6.58596,-3.929716 15.24685,-9.29749 23.17612,-14.363908 l 0.2048,-0.130857 0.22142,0.0078 0.22142,0.0078 -1.83017,1.148365 c -1.0066,0.6316 -3.32839,2.092438 -5.15954,3.246306 -7.64933,4.820085 -15.50306,9.610705 -21.02175,12.822853 -0.40201,0.23399 -0.53537,0.301384 -0.46406,0.234506 z"
   id="path49" /><path
   style="fill:#999999;fill-opacity:1;stroke-width:0.0588323"
   d="m 265.64196,49.958244 c 0.0215,-0.01969 0.26178,-0.177945 0.53388,-0.351674 1.80444,-1.152095 5.12855,-3.346983 6.09716,-4.025913 0.63195,-0.442951 1.14135,-0.827951 1.26692,-0.957518 0.0998,-0.102979 0.10292,-0.111716 0.0843,-0.235627 -0.25664,-1.711342 -6.26067,-8.31977 -10.37666,-11.421213 -0.73935,-0.557113 -1.97974,-1.366315 -3.08869,-2.014999 l -0.36102,-0.211178 0.22731,6.6e-5 0.22731,6.6e-5 0.65008,0.400598 c 5.71715,3.523038 10.0167,7.857703 13.03993,13.146407 l 0.33261,0.581854 -0.13863,0.08569 c -2.32912,1.439573 -3.40679,2.109303 -5.53337,3.438769 l -2.56008,1.600477 h -0.22012 c -0.18556,0 -0.21398,-0.0056 -0.18097,-0.0358 z"
   id="path50" /><path
   style="fill:#999999;fill-opacity:1;stroke-width:0.0588323"
   d="m 259.5171,30.587372 c -0.78305,-0.454078 -2.35206,-1.251555 -3.40959,-1.732988 -4.18134,-1.903522 -8.57481,-3.177602 -12.39489,-3.594447 -1.20648,-0.13165 -2.49897,-0.189063 -4.26035,-0.189248 l -1.19839,-1.26e-4 0.008,-0.08537 c 0.007,-0.07241 0.0226,-0.08909 0.10197,-0.109872 0.12132,-0.03176 3.76747,-0.0054 4.47928,0.0324 2.10416,0.111692 2.08422,0.109186 3.66364,0.460617 4.73669,1.053945 9.10204,2.727383 13.19046,5.056505 0.28313,0.161296 0.51478,0.298159 0.51478,0.30414 0,0.006 -0.0993,0.0097 -0.22062,0.0083 -0.21702,-0.0025 -0.22477,-0.005 -0.47467,-0.1499 z"
   id="path51" /><path
   style="fill:#999999;fill-opacity:1;stroke-width:0.0588323"
   d="M 80.858645,76.461876 C 80.770845,76.29641 79.926092,74.680863 78.981417,72.871771 72.941713,61.305492 64.929165,46.064784 61.259888,39.163563 l -0.718024,-1.350468 0.13178,-0.0082 c 0.07248,-0.0045 0.14075,0.0015 0.151712,0.01337 0.02342,0.02536 20.391912,38.828679 20.418023,38.897673 0.01525,0.0403 8.49e-4,0.0468 -0.103694,0.0468 h -0.121404 z"
   id="path52" /><path
   style="fill:#999999;fill-opacity:1;stroke-width:0.0588323"
   d="M 38.067144,57.872504 V 57.662882 L 46.762835,42.62097 c 8.667971,-14.993961 8.695818,-15.041671 8.735135,-14.965749 0.186565,0.360255 5.119057,9.755249 5.210165,9.923882 l 0.119196,0.220621 h -0.146465 -0.146464 l -0.18027,-0.340959 c -2.38393,-4.508911 -4.796406,-8.938398 -4.904643,-9.005292 -0.05285,-0.03266 -0.795353,1.188668 -3.080785,5.067542 -2.732992,4.638479 -10.051252,17.205056 -14.070181,24.160658 l -0.231379,0.400453 z"
   id="path53" /><path
   style="fill:#999999;fill-opacity:1;stroke-width:0.0588323"
   d="m 25.837451,78.816778 c 0.02862,-0.04869 2.781767,-4.811817 6.1181,-10.584732 3.336333,-5.772916 6.077179,-10.508244 6.090769,-10.522952 0.01523,-0.01649 0.0214,0.0553 0.01608,0.187194 l -0.0086,0.213935 -2.050804,3.543307 c -1.127941,1.948818 -3.830945,6.623977 -6.006674,10.389241 l -3.955871,6.845935 -0.127507,0.0083 -0.127506,0.0083 z"
   id="path54" /><path
   style="fill:#999999;fill-opacity:1;stroke-width:0.0588323"
   d="m 53.397738,83.662361 c -0.502107,-0.0439 -1.101288,-0.212136 -1.54287,-0.433216 -0.486281,-0.243459 -0.895464,-0.55349 -1.340102,-1.015373 -0.357344,-0.371203 -0.582676,-0.676133 -0.737869,-0.998517 -0.198045,-0.411402 -0.188566,-0.470091 0.02045,-0.126636 0.81699,1.342459 1.779418,2.084589 3.067503,2.365356 0.236007,0.05144 0.353265,0.05928 0.899806,0.06012 0.562988,8.66e-4 0.657452,-0.0055 0.907054,-0.0614 1.005896,-0.225183 1.771368,-0.766074 2.386933,-1.686633 0.720942,-1.078147 1.057243,-2.415372 0.95822,-3.810149 l -0.03205,-0.451444 -0.12041,-0.203733 c -0.858957,-1.453344 -2.006341,-2.364082 -3.350972,-2.65984 -0.613169,-0.13487 -1.304158,-0.155749 -1.98326,-0.05993 -1.209469,0.170657 -2.197883,1.080434 -2.725349,2.508523 -0.137652,0.372684 -0.304084,1.136421 -0.354205,1.625397 -0.02305,0.224868 -0.01544,-0.368906 0.0089,-0.695291 0.08208,-1.100247 0.321747,-1.60581 1.161589,-2.450353 0.466793,-0.469406 0.847334,-0.754972 1.327092,-0.995877 0.512601,-0.257398 0.716835,-0.310671 1.188013,-0.309887 0.420618,6.99e-4 0.617656,0.02887 1.132329,0.161921 1.031017,0.266525 2.091321,0.852893 2.821698,1.560453 0.574001,0.556068 0.844701,1.053412 0.997785,1.833179 0.06484,0.33029 0.06525,1.244966 7.33e-4,1.641985 -0.108381,0.666936 -0.278783,1.19685 -0.5813,1.807725 -0.423066,0.854299 -0.959888,1.445416 -1.697052,1.868689 -0.692923,0.397872 -1.602466,0.595763 -2.412679,0.524933 z"
   id="path55" /><path
   style="fill:#999999;fill-opacity:1;stroke-width:0.0588323"
   d="m 7.6348168,110.30786 c 7.06e-5,-0.0337 18.1418012,-31.369568 18.1705182,-31.385638 0.02292,-0.01283 0.08175,-0.0196 0.13073,-0.01505 l 0.08906,0.0083 -2.124955,3.677016 C 18.033457,92.744215 8.7637919,108.77668 7.9606776,110.16081 l -0.068324,0.11776 5.0123714,-0.0181 c 2.756804,-0.01 12.280829,-0.0413 21.164499,-0.0695 8.883671,-0.0283 17.196067,-0.0577 18.471992,-0.0654 2.228803,-0.0134 2.319862,-0.0121 2.319862,0.0346 0,0.0467 -0.242661,0.0492 -6.464862,0.0662 -3.555675,0.01 -13.059424,0.0299 -21.119443,0.0449 -8.060019,0.015 -15.776741,0.0299 -17.148271,0.0333 -1.3715302,0.003 -2.4936886,0.005 -2.4936855,0.003 z"
   id="path56" /><path
   style="fill:#999999;fill-opacity:1;stroke-width:0.0588323"
   d="m 54.749654,110.1992 c 0.0796,-0.008 0.111783,-0.023 0.102786,-0.0465 -0.01057,-0.0276 0.866409,-0.0376 4.550585,-0.0523 10.523151,-0.0419 27.02009,-0.15098 28.918899,-0.19121 l 0.688605,-0.0146 v 0.11777 0.11778 l -2.226267,0.0162 c -1.224446,0.009 -6.414052,0.0224 -11.532459,0.03 -5.118406,0.008 -11.851356,0.0186 -14.962112,0.0245 -3.110756,0.006 -5.603772,0.005 -5.540037,-0.002 z"
   id="path57" /><path
   style="fill:#999999;fill-opacity:1;stroke-width:0.0588323"
   d="m 89.010529,110.02046 v -0.1162 l 1.637943,-0.0181 c 3.591446,-0.0397 6.834702,-0.10351 7.156127,-0.14084 0.139787,-0.0162 0.142712,-0.0183 0.128024,-0.0918 -0.07334,-0.36669 -4.305691,-8.64607 -11.195043,-21.899882 -0.760705,-1.463453 -1.409436,-2.712584 -1.441625,-2.775848 l -0.05853,-0.115025 0.149582,0.0081 0.149581,0.0081 0.462714,0.882483 c 2.1983,4.192578 12.612935,24.030572 12.694851,24.181392 l 0.105302,0.19388 H 93.90499 89.010525 Z"
   id="path58" /><path
   style="fill:#999999;fill-opacity:1;stroke-width:0.0588323"
   d="m 85.232595,84.827646 c -0.02084,-0.02084 -0.08968,-0.138166 -0.152983,-0.260734 -0.284809,-0.551435 -3.766521,-7.234572 -3.909014,-7.503343 l -0.159499,-0.300846 h 0.132452 0.132452 l 1.645413,3.135491 c 0.904978,1.724521 1.861761,3.547652 2.126184,4.051403 l 0.480769,0.915912 h -0.128946 c -0.07559,0 -0.144621,-0.01568 -0.166828,-0.03788 z"
   id="path59" /><path
   style="fill:#999999;fill-opacity:1;stroke-width:0.0588323"
   d="m 72.377045,104.83064 c 0,-0.006 0.06201,-0.0319 0.137808,-0.0571 0.319472,-0.10611 0.54508,-0.11952 2.442789,-0.14511 1.014856,-0.0137 2.248328,-0.0377 2.741048,-0.0533 4.83075,-0.15312 9.350426,-0.57235 9.761824,-0.90548 0.05553,-0.045 0.05739,-0.0559 0.02608,-0.15351 -0.189412,-0.59053 -1.832365,-4.015817 -4.007504,-8.354977 -2.30874,-4.605678 -3.874541,-7.839892 -4.589621,-9.480015 -0.320103,-0.734195 -0.369564,-0.880673 -0.353195,-1.045986 0.04425,-0.44693 0.395433,-0.740879 0.830767,-0.695378 0.08862,0.0093 0.169664,0.02579 0.180097,0.03673 0.01043,0.01094 -0.190538,0.140229 -0.446601,0.287309 -0.256062,0.147081 -0.465639,0.27959 -0.465725,0.294466 -1.95e-4,0.03374 0.249099,0.725339 0.409564,1.136228 0.832584,2.13193 2.300958,5.11807 4.457786,9.065515 2.237449,4.094999 3.592485,6.960818 4.331921,9.161728 l 0.153615,0.45723 -0.591691,0.0178 c -0.325429,0.01 -3.684395,0.10711 -7.464367,0.21631 -3.779973,0.1092 -7.026109,0.20538 -7.213637,0.21372 -0.187528,0.008 -0.34096,0.0101 -0.34096,0.004 z"
   id="path60" /><path
   style="fill:#999999;fill-opacity:1;stroke-width:0.0588323"
   d="m 85.541785,94.927777 c -3.091808,-5.907965 -5.615584,-10.747641 -5.60839,-10.754835 0.0072,-0.0072 0.08937,0.06253 0.182607,0.15494 0.195316,0.19358 0.377571,0.495933 1.065597,1.767776 2.560109,4.732466 9.549422,18.301502 10.031334,19.474812 0.03808,0.0927 0.03776,0.10024 -0.0042,0.0997 -0.03315,-4.4e-4 -1.56514,-2.90453 -5.666903,-10.742363 z"
   id="path61" /><path
   style="fill:#999999;fill-opacity:1;stroke-width:0.0588323"
   d="m 73.339755,106.21437 c -0.294183,-0.0211 -0.64918,-0.0679 -0.754461,-0.0995 -0.108712,-0.0326 -0.09318,-0.0353 0.299848,-0.052 0.62674,-0.0266 17.319624,-0.34409 17.38889,-0.33075 0.03312,0.006 5.3e-5,0.0132 -0.07349,0.0153 -0.07354,0.002 -0.518794,0.0214 -0.989452,0.0432 -2.389083,0.11027 -8.246057,0.30831 -12.260863,0.41456 -0.929593,0.0246 -3.311082,0.0307 -3.610475,0.009 z"
   id="path62" /><path
   style="fill:#999999;fill-opacity:1;stroke-width:0.0832014"
   d="M 108.21851,88.817466 V 68.168398 h 0.11346 0.11346 v 20.59234 20.592342 h 24.7335 c 21.96012,0 24.7335,0.006 24.7335,0.0567 0,0.0504 -2.78599,0.0567 -24.84696,0.0567 h -24.84696 z"
   id="path63" /><path
   style="fill:#999999;fill-opacity:1;stroke-width:0.0832014"
   d="M 108.21851,53.040876 V 37.913353 h 0.11346 0.11346 v 15.127523 15.127522 h -0.11346 -0.11346 z"
   id="path64" /><path
   style="fill:#999999;fill-opacity:1;stroke-width:0.0832014"
   d="m 108.21851,30.916154 v -6.9972 l 0.0851,0.01978 c 0.16843,0.03915 2.14707,0.245531 3.07277,0.320503 0.52001,0.04211 1.01355,0.08235 1.09675,0.08942 0.0832,0.0071 -0.789,0.01571 -1.93821,0.01921 l -2.08949,0.0064 v 6.769566 6.769566 h -0.11346 -0.11346 z"
   id="path65" /><path
   style="fill:#999999;fill-opacity:1;stroke-width:0.0832014"
   d="m 157.30732,24.448955 c -0.36691,-0.04296 -1.87738,-0.146913 -2.77968,-0.191305 -1.4964,-0.07362 -7.08669,-0.08265 -12.82057,-0.02071 -5.6074,0.06058 -12.3107,0.103317 -11.8562,0.07559 1.03181,-0.06293 8.85313,-0.381341 11.4591,-0.466501 6.24902,-0.20421 10.96798,-0.101037 15.60026,0.341077 1.0111,0.0965 1.0022,0.09464 1.0022,0.209021 0,0.08469 -0.0134,0.09117 -0.17964,0.08657 -0.0988,-0.0027 -0.29026,-0.01792 -0.42547,-0.03375 z"
   id="path66" /><path
   style="fill:#999999;fill-opacity:1;stroke-width:0.0832014"
   d="m 185.74707,59.720772 c 0,-0.0077 0.0784,-0.190666 0.17412,-0.406552 0.84094,-1.895749 1.49738,-4.076422 1.80874,-6.008613 0.16908,-1.049198 0.21651,-1.581506 0.23771,-2.667361 0.0302,-1.548796 -0.0552,-2.35299 -0.39356,-3.705107 -1.17086,-4.678618 -4.86139,-11.050329 -8.10462,-13.992655 -4.48909,-4.072585 -10.56145,-6.693534 -18.56935,-8.014895 -1.0503,-0.173306 -2.22513,-0.340083 -2.71902,-0.385985 -0.26447,-0.02458 -0.26866,-0.02665 -0.26866,-0.132995 0,-0.07127 0.0195,-0.108026 0.0573,-0.108026 0.32142,0 3.25597,0.428846 4.54841,0.664693 5.18362,0.945913 9.20949,2.364277 12.63969,4.453118 4.83276,2.942938 8.54541,7.255395 10.99414,12.770305 0.68823,1.550014 1.2857,3.215621 1.85179,5.162446 l 0.14297,0.491645 9.3e-4,1.664027 c 5.9e-4,1.063685 -0.0171,1.875512 -0.0489,2.250219 -0.23726,2.789501 -0.81879,5.228928 -1.80085,7.554307 l -0.17969,0.425461 h -0.18554 c -0.10206,0 -0.18555,-0.0063 -0.18555,-0.01403 z"
   id="path67" /><path
   style="fill:#999999;fill-opacity:1;stroke-width:0.0832014"
   d="m 149.57485,55.307716 c -0.66704,-0.102981 -1.95439,-0.648331 -2.59029,-1.097306 -0.91284,-0.644501 -1.43713,-1.536553 -1.59379,-2.711782 -0.0619,-0.464695 -0.0232,-1.463097 0.0796,-2.050539 0.19741,-1.128058 0.50112,-1.709718 1.29646,-2.482955 0.7477,-0.726934 1.26896,-1.093093 1.76266,-1.238186 0.43354,-0.127412 1.16047,-0.115208 2.19017,0.03677 0.7826,0.115506 1.47156,0.382282 1.97373,0.76426 0.33892,0.257798 0.89186,0.839644 1.12181,1.180445 0.56204,0.832977 0.8131,1.669571 0.81148,2.704045 -0.002,1.010502 -0.25299,1.882751 -0.77156,2.67686 -0.58694,0.898804 -1.20736,1.385013 -2.33928,1.833242 -0.9034,0.357738 -1.43514,0.463248 -1.94103,0.385145 z m 1.34002,-0.318698 c 0.41504,-0.08315 0.73187,-0.195317 1.13564,-0.402053 0.45739,-0.23419 0.77332,-0.473129 1.16497,-0.881077 0.69509,-0.724023 1.09886,-1.57929 1.23757,-2.621457 0.13711,-1.030098 0.0168,-1.902277 -0.37483,-2.716664 -0.36009,-0.748849 -0.76469,-1.26561 -1.31642,-1.681352 -0.76816,-0.578824 -1.63217,-0.851561 -2.82914,-0.893055 -0.54398,-0.01886 -0.67366,-0.01134 -1.01114,0.05859 -0.55862,0.115753 -0.88539,0.249491 -1.32105,0.540679 -1.05843,0.707433 -1.74352,1.73248 -2.02248,3.02607 -0.10146,0.470492 -0.13568,1.537718 -0.0704,2.196492 l 0.0481,0.486156 0.23136,0.384733 c 0.43012,0.715288 0.96201,1.327935 1.51719,1.747568 0.49558,0.374581 1.35531,0.721802 2.0044,0.809521 0.34989,0.04729 1.25167,0.01689 1.60622,-0.05415 z"
   id="path68" /><path
   style="fill:#999999;fill-opacity:1;stroke-width:0.0832014"
   d="m 164.11459,69.184078 c 0.16312,-0.135683 0.49166,-0.282361 1.16695,-0.520984 1.52374,-0.538439 2.96307,-1.178462 4.77556,-2.123538 2.54957,-1.329411 4.50997,-2.556172 5.807,-3.63385 0.58499,-0.486058 1.68328,-1.594252 2.15604,-2.175468 1.31057,-1.611251 2.29251,-3.393284 2.88247,-5.23114 0.56649,-1.764738 0.65738,-2.035115 0.74377,-2.2124 l 0.0921,-0.189094 -0.0213,0.205676 c -0.0302,0.291757 -0.15049,0.882536 -0.30081,1.477261 -0.56728,2.244314 -1.6668,4.32189 -3.29524,6.226415 -0.4735,0.553783 -1.62419,1.686794 -2.20701,2.173101 -2.49054,2.078119 -5.58861,3.797578 -9.50838,5.277247 -0.79377,0.299638 -2.27361,0.80875 -2.34451,0.806581 -0.0226,-6.92e-4 0.001,-0.03661 0.0533,-0.07981 z"
   id="path69" /><path
   style="fill:#999999;fill-opacity:1;stroke-width:0.0832014"
   d="m 163.75498,71.544882 c -0.0484,-0.180742 -0.0812,-1.148571 -0.0506,-1.492232 0.019,-0.21309 0.0596,-0.392106 0.11578,-0.510554 l 0.0866,-0.182405 0.0101,1.0159 c 0.009,0.942765 0.0148,1.014608 0.0756,0.997947 0.12725,-0.03485 8.61814,-3.821904 9.01314,-4.019983 1.10978,-0.556521 2.25135,-1.309484 3.28681,-2.167927 0.5763,-0.477787 1.85522,-1.759879 2.33927,-2.345078 2.65739,-3.212731 4.08631,-6.456376 4.41283,-10.017132 l 0.0251,-0.274187 -0.44821,-0.0031 c -0.4339,-0.003 -0.44402,-0.0049 -0.3169,-0.06026 0.0924,-0.04022 0.22327,-0.05333 0.44135,-0.04419 0.26593,0.01114 0.32391,0.02603 0.4076,0.104675 0.19645,0.184597 0.12211,0.716264 -0.3574,2.556065 -0.56205,2.156448 -0.98355,3.245224 -1.81985,4.700861 -0.68021,1.183928 -1.98166,2.945304 -3.01224,4.076738 -1.3463,1.478045 -3.33725,2.816054 -6.39895,4.300381 -1.41227,0.684675 -4.47482,2.065651 -6.78847,3.061077 -1.05337,0.453202 -0.98676,0.433421 -1.02156,0.303391 z"
   id="path70" /><path
   style="fill:#999999;fill-opacity:1;stroke-width:0.0832014"
   d="m 167.95332,74.603139 c 6.26257,-2.369168 12.15697,-6.459789 15.23939,-10.5759 0.43437,-0.580045 1.00885,-1.447703 1.40222,-2.117853 0.29027,-0.494499 1.07682,-1.990715 1.11951,-2.129586 0.0106,-0.03459 0.0742,-0.04601 0.21065,-0.03782 l 0.19541,0.01173 -0.36803,0.737467 c -1.45349,2.912462 -3.42635,5.393124 -6.12565,7.702363 -2.76753,2.367606 -6.79317,4.771853 -10.40657,6.215146 -1.11568,0.445632 -1.14371,0.453731 -1.56727,0.452807 l -0.3804,-8.3e-4 z"
   id="path71" /><path
   style="fill:#999999;fill-opacity:1;stroke-width:0.0832014"
   d="m 157.3061,76.731407 c 0.46444,-0.202037 1.2056,-0.305837 2.53508,-0.355041 0.57201,-0.02117 1.26126,-0.06454 1.53167,-0.09638 1.65376,-0.194725 3.42451,-0.602564 5.27316,-1.214517 0.60099,-0.198945 0.63335,-0.205362 0.98328,-0.194975 l 0.36185,0.01074 -0.69965,0.234025 c -2.87837,0.96278 -6.03332,1.541389 -8.83069,1.619522 -0.39521,0.01104 -0.8462,0.02763 -1.0022,0.03687 -0.27958,0.01656 -0.28176,0.01598 -0.1525,-0.04025 z"
   id="path72" /><path
   style="fill:#999999;fill-opacity:1;stroke-width:0.0832014"
   d="m 156.27974,79.011829 c -0.22419,-0.391361 -0.30936,-0.671526 -0.28738,-0.945343 0.0256,-0.318857 0.15945,-0.569925 0.4446,-0.833921 0.23491,-0.21749 0.40041,-0.301524 0.21775,-0.110564 -0.0547,0.0572 -0.14691,0.206112 -0.20488,0.330914 -0.0933,0.200853 -0.10701,0.279888 -0.11943,0.688179 -0.01,0.328249 0.004,0.55033 0.0486,0.770115 0.0344,0.169867 0.0565,0.314929 0.0491,0.322362 -0.007,0.0074 -0.0742,-0.09235 -0.14828,-0.221742 z"
   id="path73" /><path
   style="fill:#999999;fill-opacity:1;stroke-width:0.0832014"
   d="m 171.29733,94.839269 c -7.64532,-7.691434 -8.62324,-8.68254 -10.51406,-10.655839 -1.68418,-1.757637 -3.20356,-3.405635 -3.16891,-3.437163 0.0161,-0.01469 20.46621,20.572573 20.90474,21.044983 l 0.27906,0.30062 -0.1467,-8.4e-4 c -0.14452,-8.3e-4 -0.25376,-0.10856 -7.35413,-7.251761 z"
   id="path74" /><path
   style="fill:#999999;fill-opacity:1;stroke-width:0.0832014"
   d="m 155.87021,87.167414 c 0.25187,-0.08019 0.70798,-0.084 0.86983,-0.0073 0.12957,0.06143 0.12,0.06274 -0.45382,0.0621 -0.56327,-6.28e-4 -0.57954,-0.0028 -0.41601,-0.05484 z"
   id="path75" /><path
   style="fill:#999999;fill-opacity:1;stroke-width:0.0832014"
   d="m 168.89991,101.39065 c -1.527,-1.69366 -2.71901,-2.94134 -6.79125,-7.108366 -4.30554,-4.405766 -6.61058,-6.845386 -6.53689,-6.918543 0.0117,-0.0116 6.53301,6.651743 13.54775,13.842769 l 0.86365,0.88536 h -0.22553 -0.22552 z"
   id="path76" /><path
   style="fill:#999999;fill-opacity:1;stroke-width:0.0832014"
   d="m 155.83239,103.73444 c 0.0936,-0.0318 0.39143,-0.0903 0.66183,-0.12999 1.11563,-0.16386 2.5059,-0.21695 6.44811,-0.24624 4.70942,-0.035 6.45673,-0.11973 6.98033,-0.3385 0.23733,-0.0992 0.22251,-0.15888 -0.15567,-0.62732 l -0.24263,-0.30052 0.23559,1.7e-4 0.23558,1.7e-4 0.52284,0.5482 c 0.28756,0.30151 0.50833,0.5482 0.49061,0.5482 -0.0177,0 -0.27002,0.0333 -0.56065,0.0739 -1.66319,0.23259 -2.84211,0.27596 -7.6951,0.28304 -2.83282,0.004 -4.44022,0.0212 -4.89753,0.0519 -0.62924,0.0423 -1.75002,0.13916 -2.06113,0.17819 -0.12182,0.0153 -0.11881,0.012 0.0378,-0.0412 z"
   id="path77" /><path
   style="fill:#999999;fill-opacity:1;stroke-width:0.0832014"
   d="m 174.60943,105.43238 c -0.24961,-0.005 -1.69618,-0.0273 -3.2146,-0.0496 -4.21088,-0.0618 -6.81399,-0.13039 -9.43579,-0.24873 -1.96842,-0.0889 -3.96579,-0.2268 -4.61963,-0.31906 -0.20225,-0.0285 -0.17453,-0.0311 0.17592,-0.0163 0.2288,0.01 1.19885,0.0511 2.15567,0.0921 3.16183,0.13544 5.6135,0.22295 8.50923,0.30371 1.80162,0.0503 7.2423,0.0939 7.2423,0.0581 0,-0.0155 -2.92641,-2.96598 -6.50314,-6.556691 -3.57673,-3.590714 -6.49578,-6.535939 -6.48678,-6.544944 0.0263,-0.0263 3.41703,3.331797 8.58398,8.501375 l 4.80293,4.80538 -0.37813,-0.008 c -0.20798,-0.004 -0.58236,-0.0122 -0.83196,-0.0172 z"
   id="path78" /><path
   style="fill:#999999;fill-opacity:1;stroke-width:0.0832014"
   d="m 155.31006,104.39734 c -0.1413,-0.13164 -0.0848,-0.38787 0.10826,-0.49121 0.0702,-0.0376 0.0737,-0.0251 0.0737,0.26444 0,0.33078 -0.0301,0.36827 -0.18196,0.22677 z"
   id="path79" /><path
   style="fill:#999999;fill-opacity:1;stroke-width:0.0832014"
   d="m 157.76115,109.43004 0.17018,-0.0251 -0.17018,-0.0193 c -0.0936,-0.0106 6.15643,-0.0223 13.88896,-0.0259 7.73252,-0.004 14.05914,-0.0193 14.05914,-0.0349 0,-0.0156 -1.62827,-1.65663 -3.61838,-3.64681 -3.61531,-3.61546 -3.61823,-3.61851 -3.45096,-3.59809 0.15995,0.0195 0.2109,0.0636 1.14374,0.99004 0.53698,0.53328 2.18561,2.19068 3.66362,3.68311 l 2.68729,2.71349 -14.2718,-0.006 c -7.84949,-0.003 -14.19521,-0.017 -14.10161,-0.0308 z"
   id="path80" /><path
   style="fill:#999999;fill-opacity:1;stroke-width:0.0832014"
   d="m 162.81942,109.3626 c 0.338,-0.006 0.8911,-0.006 1.22911,0 0.338,0.006 0.0615,0.0114 -0.61456,0.0114 -0.67601,0 -0.95256,-0.005 -0.61455,-0.0114 z"
   id="path81" /><path
   style="fill:#999999;fill-opacity:1;stroke-width:0.0588323"
   d="m 323.7178,110.22373 c 0.12134,-0.005 0.3199,-0.005 0.44124,0 0.12134,0.005 0.0221,0.009 -0.22062,0.009 -0.24268,0 -0.34196,-0.004 -0.22062,-0.009 z"
   id="path82" /><path
   style="fill:#999999;fill-opacity:1;stroke-width:0.0588323"
   d="m 324.01286,110.09017 c 0.0777,-0.005 0.19805,-0.005 0.26742,1.2e-4 0.0694,0.005 0.006,0.01 -0.14129,0.01 -0.14708,-7e-5 -0.20384,-0.005 -0.12613,-0.01 z"
   id="path83" /><path
   style="fill:#999999;fill-opacity:1;stroke-width:0.0588323"
   d="m 286.79388,110.21688 c 0,-0.0532 0.0179,-0.0535 3.53662,-0.0539 16.95893,-0.002 48.91168,-0.10779 52.9624,-0.17557 l 1.02288,-0.0171 v 0.0932 0.0932 l -6.39801,0.0179 c -9.75194,0.0273 -43.78765,0.0955 -47.68087,0.0956 -3.42522,7e-5 -3.44302,-2.1e-4 -3.44302,-0.0534 z"
   id="path84" /><path
   style="fill:#999999;fill-opacity:1;stroke-width:0.0588323"
   d="m 271.89923,110.29711 c 3.4e-4,-0.007 0.33462,-0.59074 0.74285,-1.29641 l 0.74223,-1.28303 0.11958,0.009 c 0.0658,0.005 0.1239,0.0128 0.12917,0.0179 0.005,0.005 -0.3046,0.55258 -0.6886,1.21647 -0.38401,0.6639 -0.6982,1.21402 -0.6982,1.22249 0,0.008 3.27665,0.007 7.28145,-0.004 7.21871,-0.0193 7.28145,-0.019 7.28145,0.0329 0,0.0507 -0.0304,0.0529 -0.93693,0.0698 -1.10815,0.0207 -13.9739,0.0347 -13.973,0.0153 z"
   id="path85" /><path
   style="fill:#999999;fill-opacity:1;stroke-width:0.0588323"
   d="m 344.31578,110.07049 v -0.0943 l 0.55489,-1e-4 c 1.54547,-2.8e-4 8.47663,-0.0928 10.07502,-0.13454 1.10213,-0.0288 7.53113,-0.28759 7.5474,-0.30386 0.005,-0.005 -1.14528,-2.21052 -2.55721,-4.90012 -1.41193,-2.6896 -2.5751,-4.911234 -2.58483,-4.936973 -0.015,-0.0397 -0.002,-0.0468 0.0889,-0.0468 h 0.10658 l 2.74606,5.230743 c 1.51034,2.87691 2.74227,5.23388 2.73762,5.23772 -0.005,0.004 -4.2173,0.015 -9.36144,0.0247 l -9.35299,0.0178 z"
   id="path86" /><path
   style="fill:#999999;fill-opacity:1;stroke-width:0.0588323"
   d="m 337.63029,106.23287 c -0.54426,-0.0222 -0.87655,-0.0585 -1.07359,-0.11725 -0.10606,-0.0316 -0.0593,-0.0364 0.52538,-0.0532 0.353,-0.0102 4.42646,-0.0903 9.05215,-0.17816 8.58469,-0.16299 9.27945,-0.17877 9.27945,-0.2108 0,-0.0101 -0.69928,-1.35359 -1.55396,-2.98556 -0.85468,-1.63198 -1.55995,-2.982279 -1.56726,-3.000664 -0.009,-0.0237 0.0206,-0.0333 0.1032,-0.03298 l 0.11652,4.52e-4 0.34068,0.661402 c 0.18737,0.36378 0.61233,1.18489 0.94434,1.82469 0.76408,1.47238 1.76627,3.44515 1.78871,3.521 0.016,0.054 0.006,0.059 -0.15109,0.074 -0.48745,0.0465 -10.10898,0.36526 -14.14088,0.46855 -1.57598,0.0404 -3.08611,0.0521 -3.66365,0.0285 z"
   id="path87" /><path
   style="fill:#999999;fill-opacity:1;stroke-width:0.0588323"
   d="m 336.45423,104.80524 c 0.20462,-0.11841 0.91462,-0.17702 2.15214,-0.17766 1.81081,-9.4e-4 4.98932,-0.11613 8.87833,-0.32178 1.1031,-0.0583 2.46894,-0.13019 3.0352,-0.1597 0.56627,-0.0295 1.10346,-0.0604 1.19378,-0.0686 l 0.16421,-0.0149 -0.44753,-1.11466 c -0.47426,-1.18122 -0.62124,-1.51795 -1.12808,-2.58434 -0.17447,-0.367076 -0.31721,-0.676948 -0.31721,-0.688602 0,-0.01165 0.0707,-0.02119 0.15703,-0.02119 h 0.15703 l 0.24795,0.528152 c 0.4864,1.03607 0.87528,1.94113 1.21508,2.82796 0.20443,0.53352 0.48249,1.34675 0.4657,1.36201 -0.005,0.005 -3.38534,0.10671 -7.51096,0.2262 -4.12561,0.11949 -7.68763,0.22375 -7.91561,0.23169 -0.37202,0.013 -0.40759,0.0104 -0.34706,-0.0246 z"
   id="path88" /><path
   style="fill:#999999;fill-opacity:1;stroke-width:0.0588323"
   d="m 336.289,106.0061 c -0.14945,-0.10159 -0.19287,-0.24421 -0.17776,-0.58392 0.01,-0.22575 0.0238,-0.29635 0.0754,-0.3883 0.0586,-0.10431 0.17631,-0.21149 0.20295,-0.18484 0.006,0.006 0.008,0.28426 0.004,0.61755 l -0.007,0.60598 z"
   id="path89" /><path
   style="fill:#999999;fill-opacity:1;stroke-width:0.0588323"
   d="m 372.12739,97.718838 v -12.58589 h 0.16045 0.16045 v 12.424242 12.42424 l 1.14322,-0.0161 c 2.64226,-0.0373 2.89406,-0.0387 2.56054,-0.0138 -1.9395,0.14455 -2.66933,0.208 -3.85753,0.33536 l -0.16713,0.0179 z"
   id="path90" /><path
   style="fill:#999999;fill-opacity:1;stroke-width:0.0588323"
   d="M 372.12739,74.436174 V 63.739401 h 0.16045 0.16045 v 10.696773 10.696774 h -0.16045 -0.16045 z"
   id="path91" /><path
   style="fill:#999999;fill-opacity:1;stroke-width:0.0588323"
   d="M 372.12739,53.042627 V 42.345853 h 0.16045 0.16045 v 10.696774 10.696774 h -0.16045 -0.16045 z"
   id="path92" /><path
   style="fill:#999999;fill-opacity:1;stroke-width:0.0588323"
   d="M 372.12739,33.136557 V 23.92726 l 5.22136,-0.01722 c 8.83058,-0.02912 25.57095,-0.06977 28.6941,-0.06969 l 2.96167,8e-5 v 0.252376 0.252375 l -0.86243,-0.0123 c -0.47434,-0.0068 -2.50505,-0.02421 -4.5127,-0.03876 -14.92085,-0.108151 -28.73561,-0.211926 -29.85069,-0.224235 l -1.33041,-0.01469 v 9.145327 9.145326 h -0.16045 -0.16045 z"
   id="path93" /><path
   style="fill:#999999;fill-opacity:1;stroke-width:0.0588323"
   d="m 437.59164,27.50634 c -2.52902,-1.117318 -5.82597,-2.188404 -7.7819,-2.528127 -1.85804,-0.322719 -4.74982,-0.453599 -12.14084,-0.549486 -3.06874,-0.03981 -7.04049,-0.08005 -7.90893,-0.08013 l -0.75545,-6.7e-5 v -0.249873 -0.249873 l 0.40538,-0.01755 c 0.22296,-0.0097 0.6267,-0.01755 0.89722,-0.01755 0.27051,0 4.3571,0.16238 9.08132,0.360846 4.72421,0.198465 8.75795,0.367889 8.96386,0.376498 0.28247,0.01181 0.5287,0.0451 1.00283,0.135575 2.78956,0.532319 5.50812,1.362048 8.20309,2.503657 l 0.51478,0.218066 v 0.15484 c 0,0.08516 -0.003,0.153733 -0.007,0.15238 -0.004,-0.0014 -0.21728,-0.0955 -0.47467,-0.209215 z"
   id="path94" /><path
   style="fill:#999999;fill-opacity:1;stroke-width:0.0588323"
   d="m 456.45538,42.365099 c -3.35229,-4.49326 -7.82484,-8.565658 -12.84682,-11.69744 -1.5328,-0.955875 -3.54988,-2.043525 -5.16118,-2.782998 l -0.36101,-0.165681 -0.008,-0.147563 c -0.004,-0.08116 -6.3e-4,-0.147563 0.008,-0.147563 0.0515,0 1.11622,0.501185 1.91166,0.899841 3.94725,1.978276 7.57383,4.50703 11.22993,7.830457 0.92882,0.844306 2.53847,2.472516 3.38487,3.423911 0.85261,0.958371 2.0527,2.43014 2.50217,3.068637 l 0.10825,0.153766 -0.22233,-8.1e-4 -0.22233,-8.11e-4 z"
   id="path95" /><path
   style="fill:#999999;fill-opacity:1;stroke-width:0.0588323"
   d="m 463.66744,57.501844 c -0.57996,-2.65323 -1.39066,-4.88145 -2.98456,-8.203088 -0.99052,-2.064204 -2.19994,-4.110853 -3.54831,-6.004678 -0.16799,-0.235941 -0.31442,-0.443525 -0.3254,-0.461298 -0.015,-0.02427 0.0353,-0.03225 0.20222,-0.03205 l 0.2222,2.64e-4 0.27148,0.380809 c 2.86584,4.019954 4.79816,8.132236 6.04088,12.85592 0.17901,0.680464 0.41321,1.646653 0.41323,1.704799 10e-6,0.0216 -0.041,0.03343 -0.11591,0.03343 h -0.11592 z"
   id="path96" /><path
   style="fill:#999999;fill-opacity:1;stroke-width:0.0588323"
   d="m 463.56686,76.992291 c 0.008,-0.02082 0.0806,-0.324673 0.1614,-0.675233 0.99733,-4.328245 1.29445,-8.687597 0.87181,-12.791593 -0.15841,-1.5383 -0.50712,-3.906497 -0.77079,-5.234734 l -0.10219,-0.514782 h 0.125 0.12499 l 0.12433,0.608379 c 0.30763,1.505299 0.5291,2.930999 0.67196,4.325508 0.4645,4.534377 0.19623,9.265231 -0.77907,13.738669 l -0.12681,0.581637 h -0.15758 c -0.12489,0 -0.15456,-0.0079 -0.14305,-0.03785 z"
   id="path97" /><path
   style="fill:#999999;fill-opacity:1;stroke-width:0.0588323"
   d="m 458.83835,68.017728 c 0.0314,-0.05086 0.21468,-0.1282 0.38153,-0.161025 0.10409,-0.02048 0.3,-0.02823 0.52254,-0.02069 0.29753,0.01009 0.37625,0.02187 0.47915,0.07168 0.27531,0.133273 0.25815,0.137155 -0.60625,0.137155 -0.5298,0 -0.78816,-0.009 -0.77697,-0.02712 z"
   id="path98" /><path
   style="fill:#999999;fill-opacity:1;stroke-width:0.0588323"
   d="m 453.28154,85.206488 c 1.21408,-2.320148 2.43958,-5.30632 3.30063,-8.042636 0.81567,-2.592085 1.33378,-4.818594 1.70817,-7.340661 0.1015,-0.683684 0.19587,-1.141969 0.28264,-1.372504 0.068,-0.180607 0.16905,-0.363745 0.18947,-0.343323 0.0152,0.01514 -0.0969,0.82643 -0.23512,1.702456 -0.9062,5.743275 -2.51191,10.885006 -4.7247,15.129249 l -0.3381,0.648492 h -0.1912 -0.19119 z"
   id="path99" /><path
   style="fill:#999999;fill-opacity:1;stroke-width:0.0588323"
   d="m 455.56046,85.019295 c 2.11552,-4.222827 3.65156,-9.061299 4.51858,-14.233395 0.1192,-0.711085 0.31317,-2.015616 0.36572,-2.459663 0.0155,-0.130835 0.0231,-0.148603 0.0419,-0.09787 0.0497,0.134261 0.0542,0.506554 0.0111,0.912908 -0.0672,0.633873 -0.40311,2.55179 -0.70015,3.997817 -0.54651,2.660387 -1.69895,6.341937 -2.93826,9.386521 -0.37224,0.914447 -0.70344,1.66529 -1.22975,2.787847 l -0.12852,0.274105 h -0.11263 -0.11263 z"
   id="path100" /><path
   style="fill:#999999;fill-opacity:1;stroke-width:0.0588323"
   d="m 456.83598,91.972198 c 0.011,-0.01839 0.1725,-0.262071 0.35882,-0.541524 1.53544,-2.302869 2.90792,-4.843282 4.0278,-7.4553 0.94066,-2.194013 1.703,-4.450982 2.31201,-6.84495 l 0.0255,-0.100282 h 0.14605 c 0.0878,0 0.14605,0.01165 0.14605,0.02923 0,0.01608 -0.0653,0.289849 -0.14502,0.608379 -1.01765,4.063961 -2.62331,7.921852 -4.83775,11.623565 -0.45269,0.756728 -0.70418,1.153858 -1.25744,1.985588 l -0.48473,0.728718 h -0.15567 c -0.1174,0 -0.15074,-0.0082 -0.13563,-0.03343 z"
   id="path101" /><path
   style="fill:#999999;fill-opacity:1;stroke-width:0.0588323"
   d="m 438.86192,106.69051 c 3.23356,-1.30147 5.85212,-2.75685 8.45042,-4.69669 2.33724,-1.74494 4.58829,-3.863134 6.5997,-6.210173 0.85799,-1.001158 1.94174,-2.39889 2.61289,-3.369892 l 0.28079,-0.406241 0.15505,-9.44e-4 0.15505,-9.45e-4 -0.0867,0.127024 c -0.20471,0.299726 -0.80777,1.127159 -1.15481,1.58446 -1.88531,2.484312 -4.17991,5.015151 -6.07492,6.700361 -2.88467,2.56529 -6.46381,4.74873 -10.41369,6.3528 l -0.51917,0.21084 h -0.36328 -0.36327 z"
   id="path102" /><path
   style="fill:#999999;fill-opacity:1;stroke-width:0.0588323"
   d="m 427.34948,105.35558 c 0,-0.0726 0.006,-0.0758 0.24736,-0.12422 0.40415,-0.0812 1.89241,-0.45454 2.45358,-0.61542 1.65905,-0.47562 3.95045,-1.27978 7.16684,-2.51518 1.88932,-0.72568 2.57183,-1.0194 3.7305,-1.60543 2.50071,-1.264792 4.78809,-2.863279 6.81919,-4.765431 1.90997,-1.788718 3.57152,-3.763447 5.11371,-6.077564 0.76195,-1.143339 1.80016,-2.899804 2.30381,-3.897637 0.0823,-0.162954 0.087,-0.167137 0.19094,-0.167137 0.0586,0 0.10659,0.008 0.10659,0.0177 0,0.03406 -0.48405,0.946922 -0.74554,1.406 -1.6225,2.848496 -3.65916,5.52641 -6.03271,7.93216 -2.24302,2.273454 -4.48203,4.008973 -6.74753,5.230219 -2.67561,1.44231 -9.73037,4.07886 -13.34987,4.98919 -0.38766,0.0975 -1.17164,0.26725 -1.2343,0.26725 -0.0124,0 -0.0226,-0.0335 -0.0226,-0.0745 z"
   id="path103" /><path
   style="fill:#999999;fill-opacity:1;stroke-width:0.0588323"
   d="m 427.34948,103.42402 c 0,-0.10046 0.004,-0.10564 0.11366,-0.13415 7.15526,-1.86669 13.43616,-4.849575 18.0976,-8.594808 1.74236,-1.399899 3.35562,-2.999316 4.59637,-4.556919 0.90545,-1.136676 1.98758,-2.803659 2.76742,-4.263106 l 0.1536,-0.287476 h 0.18574 c 0.10216,0 0.18574,0.0063 0.18574,0.014 0,0.02721 -0.49185,0.888705 -0.80367,1.407679 -1.41193,2.349893 -2.78299,4.101231 -4.6551,5.946238 -1.32825,1.309012 -2.5981,2.360511 -4.22442,3.498017 -4.10952,2.874344 -9.51115,5.248325 -15.58794,6.850785 -0.31622,0.0834 -0.63211,0.16796 -0.70197,0.18793 l -0.12703,0.0363 z"
   id="path104" /><path
   style="fill:#999999;fill-opacity:1;stroke-width:0.0588323"
   d=""
   id="path105" /><path
   style="fill:#999999;fill-opacity:1;stroke-width:0.0588323"
   d="m 411.73219,110.83162 c -1.74474,-0.0411 -4.55661,-0.13716 -6.65874,-0.22746 -1.62806,-0.0699 -3.80012,-0.17143 -4.04472,-0.18897 l -0.23399,-0.0168 v -0.0774 c 0,-0.0916 -0.0502,-0.0876 0.64181,-0.0508 1.35768,0.0723 4.31065,0.17917 6.80582,0.24625 1.64459,0.0442 7.41305,0.0446 8.7045,5.7e-4 3.09124,-0.10537 5.18118,-0.2339 7.30055,-0.44899 5.14868,-0.52251 9.27534,-1.41055 13.24122,-2.84946 l 0.65913,-0.23915 0.34369,0.007 0.34368,0.008 -0.66855,0.25031 c -4.56938,1.71084 -9.80584,2.81304 -15.76437,3.31816 -1.10718,0.0939 -2.39661,0.1721 -4.03803,0.24503 -0.8033,0.0357 -5.42182,0.0521 -6.632,0.0236 z"
   id="path106" /><path
   style="fill:#999999;fill-opacity:1;stroke-width:0.0588323"
   d="m 421.77985,104.68077 c 0.29454,-0.1309 1.08675,-0.33472 2.44083,-0.62799 1.31446,-0.28469 2.92341,-0.66222 3.08262,-0.72332 0.039,-0.015 0.0462,-10e-4 0.0462,0.0899 v 0.10759 l -0.62175,0.15093 c -0.8841,0.21461 -2.00227,0.46649 -2.84133,0.64005 -0.8953,0.18519 -2.11222,0.41753 -2.17367,0.415 -0.0253,-10e-4 0.005,-0.0245 0.0671,-0.0521 z"
   id="path107" /><path
   style="fill:#999999;fill-opacity:1;stroke-width:0.0588323"
   d="m 422.10806,106.09799 c -0.24961,-0.0214 -0.48748,-0.0748 -0.46871,-0.10516 0.007,-0.0107 0.2381,-0.0271 0.51445,-0.0364 1.38029,-0.0468 3.20947,-0.27098 4.74107,-0.58107 0.21327,-0.0432 0.4028,-0.0786 0.42118,-0.0787 0.0522,-3.6e-4 0.0403,0.12777 -0.0134,0.14417 -0.0257,0.008 -0.28146,0.0563 -0.56826,0.10758 -1.8781,0.33594 -2.98147,0.49408 -3.83747,0.54999 -0.43568,0.0285 -0.45316,0.0285 -0.78889,-3.5e-4 z"
   id="path108" /><path
   style="fill:#999999;fill-opacity:1;stroke-width:0.0588323"
   d="m 421.4327,105.91286 c -0.13407,-0.085 -0.2358,-0.22134 -0.28756,-0.38534 -0.0404,-0.12798 -0.0229,-0.40677 0.0287,-0.45805 0.0333,-0.033 0.0622,0.0194 0.21776,0.39525 0.22414,0.54139 0.21894,0.52694 0.1897,0.52694 -0.0134,0 -0.0803,-0.0355 -0.14862,-0.0788 z"
   id="path109" /><path
   style="fill:#999999;fill-opacity:1;stroke-width:0.0588323"
   d="m 398.81584,110.30853 c -2.7891,-0.1458 -5.66616,-0.27935 -8.31674,-0.38607 l -1.2435,-0.0501 1.06967,0.0127 c 2.07772,0.0248 4.68945,0.0895 6.41807,0.159 0.96635,0.0389 3.3111,0.15463 3.80404,0.18782 l 0.24736,0.0166 v 0.0777 c 0,0.0951 0.21905,0.0971 -1.9789,-0.0178 z"
   id="path110" /><path
   style="fill:#999999;fill-opacity:1;stroke-width:0.0588323"
   d="m 420.44654,83.1142 c -0.87586,-0.14747 -2.28983,-0.776779 -3.00494,-1.337396 -0.41986,-0.329145 -0.72496,-0.690285 -0.93382,-1.105335 -0.12134,-0.24113 -0.11531,-0.302322 0.009,-0.09181 0.63276,1.071175 1.96542,1.870779 3.88875,2.333275 0.71188,0.171183 0.7264,0.17295 1.01577,0.123626 0.91946,-0.156727 1.73181,-0.619069 2.34871,-1.336742 0.4031,-0.468942 0.77988,-1.124729 0.95481,-1.661827 0.2226,-0.683494 0.28244,-1.324933 0.20577,-2.205596 l -0.0128,-0.147081 0.0376,0.173823 c 0.12097,0.560061 0.12203,1.343099 0.003,1.915055 -0.1714,0.820742 -0.51975,1.497111 -1.05705,2.052452 -0.35932,0.37138 -0.63475,0.569677 -1.15104,0.828714 -0.87555,0.439284 -1.58275,0.580162 -2.30333,0.458837 z"
   id="path111" /><path
   style="fill:#999999;fill-opacity:1;stroke-width:0.0588323"
   d="m 416.22236,79.744448 c -0.0226,-0.145874 -0.0364,-0.430284 -0.035,-0.722032 0.004,-0.738823 0.10554,-1.387111 0.3213,-2.044925 0.45719,-1.393874 1.31283,-2.342056 2.49701,-2.767064 0.79912,-0.286806 1.70541,-0.291852 2.68528,-0.01495 1.04578,0.295527 1.9025,0.916138 2.50696,1.816057 0.18113,0.269669 0.4506,0.769855 0.4506,0.8364 0,0.01798 -0.10153,-0.117179 -0.22562,-0.300361 -0.29888,-0.44123 -0.51561,-0.706385 -0.8345,-1.020998 -0.76502,-0.754753 -1.54149,-1.158346 -2.54056,-1.320538 -0.34997,-0.05682 -1.05154,-0.0617 -1.50703,-0.0105 -0.28265,0.03177 -0.32754,0.04495 -0.55468,0.162752 -0.33053,0.17143 -0.71533,0.43035 -1.03039,0.693328 -1.27821,1.066905 -1.86481,2.62856 -1.70218,4.53159 0.035,0.408974 0.0196,0.488446 -0.0312,0.16124 z"
   id="path112" /><path
   style="fill:#999999;fill-opacity:1;stroke-width:0.0588323"
   d="m 508.63189,96.170681 c -0.0249,-0.106295 -0.19605,-1.460404 -0.25267,-1.998959 -0.15945,-1.516568 -0.21031,-2.855538 -0.16597,-4.36912 0.0362,-1.234858 0.0555,-1.584837 0.272,-4.923702 0.0877,-1.353142 0.15957,-2.469284 0.15962,-2.480315 5e-5,-0.01103 3.92313,-0.02006 8.71796,-0.02006 h 8.71787 v -2.995097 c 0,-1.647303 -0.003,-2.996432 -0.007,-2.998065 -0.004,-0.0016 -0.99948,-0.01773 -2.2129,-0.03578 l -2.20621,-0.03281 2.41346,-0.0043 2.41346,-0.0043 v 3.088693 3.088694 h -8.80983 -8.80982 l -0.0146,0.113653 c -0.0736,0.574417 -0.26428,3.175404 -0.33581,4.579556 -0.11552,2.267424 -0.11013,4.898503 0.0137,6.672113 0.0558,0.799372 0.18223,1.99182 0.24384,2.299913 0.0145,0.0726 0.009,0.08012 -0.0537,0.08012 -0.0503,0 -0.0736,-0.01677 -0.0838,-0.06017 z"
   id="path113" /><path
   style="fill:#999999;fill-opacity:1;stroke-width:0.0588323"
   d="m 508.36701,76.10086 c -0.43383,-1.435819 -0.44109,-1.463317 -0.5101,-1.931093 -0.095,-0.643791 -0.17556,-1.739922 -0.23205,-3.15656 -0.0668,-1.675823 -0.0346,-5.664302 0.0573,-7.086613 0.0247,-0.382553 0.0145,0.365504 -0.0276,2.032387 -0.0333,1.317247 -0.0323,3.701677 0.002,4.358935 0.0575,1.10549 0.20109,2.581402 0.33419,3.434057 0.11329,0.725791 0.33264,1.723868 0.48978,2.228548 l 0.052,0.167137 h -0.0756 c -0.0488,0 -0.0806,-0.0166 -0.0898,-0.0468 z"
   id="path114" /><path
   style="fill:#999999;fill-opacity:1;stroke-width:0.0588323"
   d="m 508.0299,60.936082 c 0,-0.07969 0.089,-0.194671 0.20192,-0.260842 0.0668,-0.03913 0.12654,-0.066 0.13283,-0.05971 0.006,0.0063 -0.0665,0.08863 -0.16166,0.182984 -0.0952,0.09436 -0.17309,0.156261 -0.17309,0.13757 z"
   id="path115" /><path
   style="fill:#999999;fill-opacity:1;stroke-width:0.0588323"
   d="m 509.63441,60.396103 c 0.50561,-0.05896 1.85915,-0.120342 3.52994,-0.160089 2.76163,-0.0657 5.70718,-0.08354 16.23904,-0.09836 l 11.11796,-0.01565 v 0.150696 0.150696 l -15.53038,-0.0035 c -8.54171,-0.0019 -15.45216,-0.01263 -15.35656,-0.02378 z"
   id="path116" /><path
   style="fill:#999999;fill-opacity:1;stroke-width:0.0588323"
   d="m 540.52135,60.27632 v -0.147081 h 9.03877 9.03878 v -7.848757 -7.848758 h 0.0669 0.0669 v 7.995838 7.995839 h -9.10563 -9.10563 z"
   id="path117" /><path
   style="fill:#999999;fill-opacity:1;stroke-width:0.0588323"
   d="m 558.5989,35.874305 v -8.557419 h 0.0669 0.0669 v 8.557419 8.557419 h -0.0669 -0.0669 z"
   id="path118" /><path
   style="fill:#999999;fill-opacity:1;stroke-width:0.0588323"
   d="M 558.5989,25.739112 V 24.161338 H 541.67125 524.74361 V 24.040999 23.92066 h 16.9945 16.9945 v 1.698113 1.698113 h -0.0669 -0.0669 z"
   id="path119" /><path
   style="fill:#999999;fill-opacity:1;stroke-width:0.0588323"
   d="M 474.28158,24.040999 V 23.92066 h 25.23101 25.23102 v 0.120339 0.120339 h -25.23102 -25.23101 z"
   id="path120" /><path
   style="fill:#999999;fill-opacity:1;stroke-width:0.0588323"
   d="m 478.58703,37.314858 v -9.710833 l 5.63586,0.01508 c 3.09973,0.0083 6.4662,0.02783 7.48106,0.04341 14.14004,0.217123 22.20842,0.427288 23.69335,0.617164 0.21496,0.02749 -0.36008,0.01944 -2.87476,-0.04023 -7.72148,-0.183211 -13.99568,-0.294085 -20.44421,-0.361278 -2.84123,-0.02961 -10.52774,-0.0351 -12.17426,-0.0087 l -1.10311,0.01769 v 9.569262 9.569262 h -0.10696 -0.10697 z"
   id="path121" /><path
   style="fill:#999999;fill-opacity:1;stroke-width:0.0588323"
   d="m 480.26494,46.216748 c 0.0216,-1.970115 0.14061,-15.380887 0.14058,-15.841432 l -4e-5,-0.511618 1.23681,-0.01676 c 0.68025,-0.0092 6.97697,-0.05846 13.99272,-0.10942 7.01575,-0.05096 13.39972,-0.09784 14.1866,-0.104169 0.78688,-0.0063 1.39459,-0.0073 1.35047,-0.0021 -0.0809,0.0095 -1.59998,0.0447 -4.01129,0.09284 -0.7207,0.01439 -2.82061,0.05009 -4.66647,0.07934 -7.25117,0.114886 -8.60029,0.137617 -11.98039,0.201852 -6.41756,0.121959 -9.65384,0.214866 -9.65384,0.277142 0,0.0094 -0.0118,0.203379 -0.0263,0.431103 -0.051,0.802685 -0.15126,3.948818 -0.24082,7.55414 -0.0706,2.842532 -0.18742,8.178504 -0.18747,8.564105 l -3e-5,0.193879 h -0.0747 -0.0747 z"
   id="path122" /><path
   style="fill:#999999;fill-opacity:1;stroke-width:0.0588323"
   d="m 516.85474,28.868859 c 0,-0.162306 0.01,-0.295102 0.0217,-0.295102 0.0612,0 0.17241,0.163949 0.18448,0.272072 0.0137,0.122673 -0.0442,0.231437 -0.15481,0.290618 -0.0493,0.02637 -0.0514,0.01526 -0.0514,-0.267588 z"
   id="path123" /><path
   style="fill:#999999;fill-opacity:1;stroke-width:0.0588323"
   d="m 478.76487,58.785457 c -0.0391,-0.453165 -0.0722,-1.074724 -0.0978,-1.838508 -0.0381,-1.135731 -0.0789,-5.095653 -0.0795,-7.721733 l -5e-4,-2.199524 h 0.10697 0.10696 v 5.976822 c 0,3.287252 -0.004,5.976822 -0.01,5.976822 -0.005,0 -0.0172,-0.08725 -0.0264,-0.193879 z"
   id="path124" /><path
   style="fill:#999999;fill-opacity:1;stroke-width:0.0588323"
   d="m 480.38085,47.357737 c 10e-4,-0.03115 0.008,-0.03749 0.0162,-0.01616 0.008,0.0193 0.007,0.04237 -0.002,0.05126 -0.009,0.0089 -0.0152,-0.0069 -0.014,-0.0351 z"
   id="path125" /><path
   style="fill:#999999;fill-opacity:1;stroke-width:0.0588323"
   d="m 480.20652,53.109482 c 0.006,-1.058981 0.0197,-2.861053 0.0294,-4.004605 l 0.0178,-2.079185 h 0.0776 0.0776 l -0.0148,0.340959 c -0.008,0.187528 -0.0212,0.707993 -0.0291,1.156589 -0.0259,1.471217 -0.0973,4.378201 -0.13409,5.455355 l -0.0361,1.056306 z"
   id="path126" /><path
   style="fill:#999999;fill-opacity:1;stroke-width:0.0588323"
   d="m 474.28158,110.29711 v -0.10697 h 12.26117 12.26118 v 0.10697 0.10697 h -12.26118 -12.26117 z"
   id="path127" /><path
   style="fill:#999999;fill-opacity:1;stroke-width:0.0588323"
   d="m 487.04416,110.41076 c 7.02678,-0.004 18.52515,-0.004 25.55192,0 7.02678,0.004 1.2776,0.007 -12.77596,0.007 -14.05355,0 -19.80273,-0.003 -12.77596,-0.007 z"
   id="path128" /><path
   style="fill:#999999;fill-opacity:1;stroke-width:0.0588323"
   d="m 498.80393,110.29711 v -0.10697 h 13.27737 13.27737 v 0.10697 0.10697 H 512.0813 498.80393 Z"
   id="path129" /><path
   style="fill:#999999;fill-opacity:1;stroke-width:0.0588323"
   d="m 508.82331,97.440923 c -0.0986,-0.643477 -0.17906,-1.178985 -0.17881,-1.190016 2.6e-4,-0.01103 0.0296,-0.02006 0.0652,-0.02006 0.0731,0 0.0645,-0.02776 0.14948,0.481355 0.0643,0.385323 0.213,1.086567 0.30056,1.417322 l 0.0602,0.227307 8.06938,0.0067 8.06938,0.0067 v 0.120295 0.120295 h -8.17805 -8.17804 z"
   id="path130" /><path
   style="fill:#999999;fill-opacity:1;stroke-width:0.0588323"
   d="m 525.35867,110.29711 v -0.10697 h 16.62011 16.62012 v -5.78963 -5.789627 h -16.62012 -16.62011 v -0.120339 -0.120338 h 16.68697 16.68697 v 6.016934 6.01694 h -16.68697 -16.68697 z"
   id="path131" /></svg>
