<?xml version="1.0" encoding="UTF-8" standalone="no"?>
<!-- Generator: Adobe Illustrator 13.0.0, SVG Export Plug-In . SVG Version: 6.00 Build 14948)  -->

<svg
   version="1.1"
   id="Ebene_1"
   x="0px"
   y="0px"
   width="566.929px"
   height="129.21px"
   viewBox="0 0 566.929 129.21"
   enable-background="new 0 0 566.929 129.21"
   xml:space="preserve"
   sodipodi:docname="arcade-post.svg"
   inkscape:version="1.3 (0e150ed6c4, 2023-07-21)"
   xmlns:inkscape="http://www.inkscape.org/namespaces/inkscape"
   xmlns:sodipodi="http://sodipodi.sourceforge.net/DTD/sodipodi-0.dtd"
   xmlns="http://www.w3.org/2000/svg"
   xmlns:svg="http://www.w3.org/2000/svg"><defs
   id="defs12" /><sodipodi:namedview
   id="namedview12"
   pagecolor="#ffffff"
   bordercolor="#000000"
   borderopacity="0.25"
   inkscape:showpageshadow="2"
   inkscape:pageopacity="0.0"
   inkscape:pagecheckerboard="0"
   inkscape:deskcolor="#d1d1d1"
   inkscape:zoom="2.3371533"
   inkscape:cx="283.46451"
   inkscape:cy="64.394579"
   inkscape:window-width="1920"
   inkscape:window-height="1129"
   inkscape:window-x="-8"
   inkscape:window-y="-8"
   inkscape:window-maximized="1"
   inkscape:current-layer="Ebene_1" />&#10;<g
   id="Ebene_2">&#10;</g>&#10;<g
   id="g6">&#10;	<path
   fill="#F4B20C"
   d="M2.794,113.106L55.462,21.59c6.676,11.93,14.773,27.044,24.295,45.341l23.829,45.896L2.794,113.106z    M55.458,27.549 M7.606,110.324 M57.964,77.501c0.186,1.484-0.062,2.813-0.742,3.986c-0.804,1.362-1.947,2.04-3.431,2.04   c-1.854,0-3.277-0.987-4.265-2.967c-0.185-1.174-0.092-2.317,0.278-3.431c0.494-1.359,1.328-2.193,2.503-2.504   c0.371-0.061,0.742-0.093,1.113-0.093C55.336,74.534,56.851,75.524,57.964,77.501z"
   id="path1" />&#10;	<path
   fill="#F4B20C"
   d="M192.707,111.79c-14.467,0.252-28.935,0.473-43.403,0.663c-17.313,0.25-31.935,0.313-43.867,0.189V20.755   c3.461,0.434,14.372,0.371,32.731-0.185c14.464-0.371,25.374,0.866,32.73,3.709c10.508,4.019,17.214,11.869,20.121,23.552   c0.06,0.804,0.093,1.639,0.093,2.505c0,8.593-4.142,16.104-12.426,22.533c-2.227,1.731-5.101,3.153-8.625,4.265   c-3.091,0.867-6.184,1.701-9.273,2.504L192.707,111.79z M154.301,48.943c0.123,0.433,0.186,0.897,0.186,1.391   c0,1.36-0.434,2.488-1.298,3.384c-0.866,0.896-1.947,1.344-3.245,1.344c-1.855,0-3.308-0.987-4.358-2.966   c-0.433-2.782,0.371-4.759,2.411-5.934c0.557-0.247,1.113-0.371,1.669-0.371C152.013,45.791,153.559,46.842,154.301,48.943z    M175.425,105.241c-4.508,0.061-11.148-0.126-19.919-0.561v-0.842c1.73-0.249,4.326-0.344,7.789-0.279   c3.461,0.061,6.057-0.064,7.788-0.373l-15.577-15.949l1.945,0.003L175.425,105.241z M183.044,52.56   c-0.185,3.029-1.298,5.98-3.337,8.854c-2.041,2.875-4.513,4.96-7.418,6.259l-8.344,3.709v-2.041   c11.126-3.584,17.091-9.18,17.895-16.782H183.044z"
   id="path2" />&#10;	<path
   fill="#F4B20C"
   d="M280.586,82.507c-3.029,8.655-8.576,15.732-16.643,21.234c-8.066,5.5-16.675,8.22-25.823,8.158   c-8.284,0-16.01-2.21-23.181-6.629c-7.171-4.42-12.765-10.4-16.783-17.941c-3.152-5.935-4.729-12.825-4.729-20.677   c0-7.356,1.421-13.783,4.266-19.286c4.017-7.913,9.689-14.141,17.014-18.684c7.326-4.544,15.314-6.815,23.969-6.815   c2.472,0,4.945,0.186,7.418,0.556c6.675,1.052,12.918,3.679,18.729,7.88c6.058,4.39,10.538,9.676,13.444,15.856   c-7.85,4.761-19.626,11.868-35.326,21.326C256.541,73.484,269.09,78.491,280.586,82.507z M267.05,87.33   c0,1.608-1.02,3.37-3.06,5.285c-1.608,1.483-3.462,2.75-5.563,3.802l-0.835-0.649c1.298-1.051,2.596-2.133,3.895-3.245   c1.607-1.359,2.688-2.72,3.245-4.08c-2.906-1.421-6.894-3.09-11.961-5.007c-6.119-2.348-10.168-3.955-12.146-4.82V77.13   L267.05,87.33z"
   id="path3" />&#10;	<path
   fill="#F4B20C"
   d="M267.049,113.106l52.667-91.516c6.676,11.93,14.773,27.044,24.295,45.341l23.829,45.896L267.049,113.106z    M322.219,77.501c0.185,1.484-0.063,2.813-0.742,3.986c-0.805,1.362-1.947,2.04-3.432,2.04c-1.854,0-3.276-0.987-4.266-2.967   c-0.186-1.174-0.093-2.317,0.278-3.431c0.494-1.359,1.329-2.193,2.504-2.504c0.371-0.061,0.742-0.093,1.112-0.093   C319.59,74.534,321.106,75.524,322.219,77.501z M355.414,105.689l-19.01,0.371v-1.206l15.857-0.463   c-0.682-2.226-2.195-5.472-4.545-9.736c-2.473-4.512-4.079-7.882-4.821-10.106l1.112-0.649L355.414,105.689z"
   id="path4" />&#10;	<path
   fill="#F4B20C"
   d="M462.414,89.046c-4.636,9.501-11.623,16.133-20.955,19.896c-7.109,2.837-16.69,4.256-28.745,4.256   c-3.276,0-8.283-0.125-15.02-0.371c-6.738-0.247-11.746-0.371-15.022-0.371c-5.067,0-9.518,0.247-13.351,0.742l0.278-92.443   c3.709,0.371,7.941,0.557,12.701,0.557c3.276,0,8.314-0.093,15.115-0.278c6.799-0.186,11.869-0.278,15.205-0.278   c10.323,0,18.762,1.111,25.313,3.331c8.406,2.838,15.083,7.834,20.028,14.992c6.306,7.094,9.457,16.317,9.457,27.667   C467.419,74.828,465.751,82.262,462.414,89.046z M424.768,77.13c0.124,0.434,0.186,0.896,0.186,1.392   c0,1.112-0.356,2.117-1.066,3.013c-0.711,0.896-1.622,1.407-2.735,1.529c-2.597-0.492-4.204-1.451-4.821-2.873   c-0.063-0.433-0.093-0.834-0.093-1.205c0-2.164,0.988-3.74,2.967-4.73c0.371-0.061,0.742-0.092,1.113-0.092   C422.172,74.164,423.656,75.153,424.768,77.13z M460.467,68.043c-0.928,7.543-3.093,14.157-6.491,19.842   c-3.957,6.677-9.212,11.282-15.764,13.816c-3.648,1.421-6.338,2.379-8.065,2.874c-3.029,0.866-5.874,1.328-8.531,1.392   l-0.464-1.113c14.525-2.535,24.603-7.82,30.228-15.855c3.832-5.501,6.306-12.485,7.418-20.955H460.467z"
   id="path5" />&#10;	<path
   fill="#F4B20C"
   d="M561.625,63.129h-50.44c-0.557,1.498-0.835,3.246-0.835,5.241c0,1.997,0.278,3.68,0.835,5.053h17.895   v11.589l-17.895,0.835v9.087l50.162,0.371v17.802h-89.662V20.755h89.662L561.625,63.129z M516.84,29.563l-36.439,0.278   l-0.278,30.228h-1.297V27.895c8.529-0.122,21.2,0.033,38.015,0.464V29.563z"
   id="path6" />&#10;</g>&#10;<g
   id="g12">&#10;	<path
   d="M2.794,113.106L55.462,21.59c6.676,11.93,14.773,27.044,24.295,45.341l23.829,45.896L2.794,113.106z M98.812,110.138   L55.458,27.549L7.606,110.324L98.812,110.138z M57.964,77.501c0.186,1.484-0.062,2.813-0.742,3.986   c-0.804,1.362-1.947,2.04-3.431,2.04c-1.854,0-3.277-0.987-4.265-2.967c-0.185-1.174-0.092-2.317,0.278-3.431   c0.494-1.359,1.328-2.193,2.503-2.504c0.371-0.061,0.742-0.093,1.113-0.093C55.336,74.534,56.851,75.524,57.964,77.501z    M91.159,105.689L72.15,106.06v-1.206l15.855-0.463c-0.681-2.226-2.195-5.472-4.543-9.736c-2.473-4.512-4.08-7.882-4.822-10.106   l1.113-0.649L91.159,105.689z"
   id="path7" />&#10;	<path
   d="M192.707,111.79c-14.467,0.252-28.935,0.473-43.403,0.663c-17.313,0.25-31.935,0.313-43.867,0.189V20.755   c3.461,0.434,14.372,0.371,32.731-0.185c14.464-0.371,25.374,0.866,32.73,3.709c10.508,4.019,17.214,11.869,20.121,23.552   c0.06,0.804,0.093,1.639,0.093,2.505c0,8.593-4.142,16.104-12.426,22.533c-2.227,1.731-5.101,3.153-8.625,4.265   c-3.091,0.867-6.184,1.701-9.273,2.504L192.707,111.79z M188.145,47.802c-2.536-9.446-7.728-16.053-15.578-19.819   c-6.059-2.839-14.557-4.26-25.499-4.26c-3.029,0-7.603,0.138-13.723,0.417s-10.632,0.418-13.538,0.418   c-4.45,0-8.314-0.216-11.59-0.649v85.581h77.979L156.87,79.94c-0.354-0.432-0.529-0.957-0.529-1.575   c-0.062-0.803,0.217-1.327,0.835-1.573c6.551,0,12.888-2.007,19.008-6.022C184.713,65.277,188.701,57.619,188.145,47.802z    M154.301,48.943c0.123,0.433,0.186,0.897,0.186,1.391c0,1.36-0.434,2.488-1.298,3.384c-0.866,0.896-1.947,1.344-3.245,1.344   c-1.855,0-3.308-0.987-4.358-2.966c-0.433-2.782,0.371-4.759,2.411-5.934c0.557-0.247,1.113-0.371,1.669-0.371   C152.013,45.791,153.559,46.842,154.301,48.943z M175.425,105.241c-4.508,0.061-11.148-0.126-19.919-0.561v-0.842   c1.73-0.249,4.326-0.344,7.789-0.279c3.461,0.061,6.057-0.064,7.788-0.373l-15.577-15.949l1.945,0.003L175.425,105.241z    M183.044,52.56c-0.185,3.029-1.298,5.98-3.337,8.854c-2.041,2.875-4.513,4.96-7.418,6.259l-8.344,3.709v-2.041   c11.126-3.584,17.091-9.18,17.895-16.782H183.044z"
   id="path8" />&#10;	<path
   d="M280.586,82.507c-3.029,8.655-8.576,15.732-16.643,21.234c-8.066,5.5-16.675,8.22-25.823,8.158   c-8.284,0-16.01-2.21-23.181-6.629c-7.171-4.42-12.765-10.4-16.783-17.941c-3.152-5.935-4.729-12.825-4.729-20.677   c0-7.356,1.421-13.783,4.266-19.286c4.017-7.913,9.689-14.141,17.014-18.684c7.326-4.544,15.314-6.815,23.969-6.815   c2.472,0,4.945,0.186,7.418,0.556c6.675,1.052,12.918,3.679,18.729,7.88c6.058,4.39,10.538,9.676,13.444,15.856   c-7.85,4.761-19.626,11.868-35.326,21.326C256.541,73.484,269.09,78.491,280.586,82.507z M275.731,84.263   c-14.334-5.404-27.371-10.81-39.108-16.213c4.824-2.779,11.164-6.61,19.021-11.493c9.401-5.931,15.618-9.824,18.649-11.679   c-2.906-5.319-7.11-9.742-12.612-13.269c-5.008-3.217-10.604-5.413-16.785-6.59c-1.669-0.122-3.308-0.185-4.915-0.185   c-8.161,0-15.58,1.793-22.256,5.377c-7.048,3.834-12.521,9.273-16.415,16.32c-3.337,5.997-5.006,12.765-5.006,20.306   c0,10.262,2.873,18.792,8.618,25.591c4.388,5.193,9.5,9.256,15.339,12.193c5.838,2.936,11.94,4.404,18.306,4.404   c4.448,0,8.804-0.74,13.067-2.219c5.623-1.908,10.628-4.773,15.015-8.593C271.653,93.904,274.678,89.252,275.731,84.263z    M267.05,87.33c0,1.608-1.02,3.37-3.06,5.285c-1.608,1.483-3.462,2.75-5.563,3.802l-0.835-0.649   c1.298-1.051,2.596-2.133,3.895-3.245c1.607-1.359,2.688-2.72,3.245-4.08c-2.906-1.421-6.894-3.09-11.961-5.007   c-6.119-2.348-10.168-3.955-12.146-4.82V77.13L267.05,87.33z"
   id="path9" />&#10;	<path
   d="M267.049,113.106l52.667-91.516c6.676,11.93,14.773,27.044,24.295,45.341l23.829,45.896L267.049,113.106z M363.067,110.138   l-43.355-82.589l-47.852,82.775L363.067,110.138z M322.219,77.501c0.185,1.484-0.063,2.813-0.742,3.986   c-0.805,1.362-1.947,2.04-3.432,2.04c-1.854,0-3.276-0.987-4.266-2.967c-0.186-1.174-0.093-2.317,0.278-3.431   c0.494-1.359,1.329-2.193,2.504-2.504c0.371-0.061,0.742-0.093,1.112-0.093C319.59,74.534,321.106,75.524,322.219,77.501z    M355.414,105.689l-19.01,0.371v-1.206l15.857-0.463c-0.682-2.226-2.195-5.472-4.545-9.736c-2.473-4.512-4.079-7.882-4.821-10.106   l1.112-0.649L355.414,105.689z"
   id="path10" />&#10;	<path
   d="M462.414,89.046c-4.636,9.501-11.623,16.133-20.955,19.896c-7.109,2.837-16.69,4.256-28.745,4.256   c-3.276,0-8.283-0.125-15.02-0.371c-6.738-0.247-11.746-0.371-15.022-0.371c-5.067,0-9.518,0.247-13.351,0.742l0.278-92.443   c5.184,0.078,8.987,0.264,13.748,0.264c3.275,0,7.342-0.016,14.429,0c6.801,0.014,11.509-0.264,14.845-0.264   c10.323,0,18.762,1.111,25.313,3.331c8.406,2.838,15.083,7.834,20.028,14.992c6.306,7.094,9.457,16.317,9.457,27.667   C467.419,74.828,465.751,82.262,462.414,89.046z M463.249,54.905c-2.165-7.463-6.538-14.048-13.12-19.753   c-6.584-5.705-13.709-9.238-21.373-10.595l-17.76-0.747l-38.894,0.098v86.415c3.214-0.37,6.862-0.556,10.94-0.556   c3.462,0,8.747,0.186,15.856,0.556c7.107,0.371,12.425,0.557,15.948,0.557c16.504,0,28.682-3.978,36.532-11.935   c9.088-9.313,13.631-19.954,13.631-31.921C465.01,62.954,464.421,58.915,463.249,54.905z M424.768,77.13   c0.124,0.434,0.186,0.896,0.186,1.392c0,1.112-0.356,2.117-1.066,3.013c-0.711,0.896-1.622,1.407-2.735,1.529   c-2.597-0.492-4.204-1.451-4.821-2.873c-0.063-0.433-0.093-0.834-0.093-1.205c0-2.164,0.988-3.74,2.967-4.73   c0.371-0.061,0.742-0.092,1.113-0.092C422.172,74.164,423.656,75.153,424.768,77.13z M460.467,68.043   c-0.928,7.543-3.093,14.157-6.491,19.842c-3.957,6.677-9.212,11.282-15.764,13.816c-3.648,1.421-6.338,2.379-8.065,2.874   c-3.029,0.866-5.874,1.328-8.531,1.392l-0.464-1.113c14.525-2.535,24.603-7.82,30.228-15.855   c3.832-5.501,6.306-12.485,7.418-20.955H460.467z"
   id="path11" />&#10;	<path
   d="M561.625,63.129h-50.44c-0.557,1.498-0.835,3.246-0.835,5.241c0,1.997,0.278,3.68,0.835,5.053h17.895v11.589l-17.895,0.835   v9.087l50.162,0.371v17.802h-89.662V20.755h89.662L561.625,63.129z M558.751,110.417V98.365h-49.514   c-0.927-3.339-1.053-8.624-0.37-15.857h17.616v-6.211h-17.891c-0.435-1.359-0.714-2.967-0.839-4.822   c-0.126-1.174-0.154-2.875-0.093-5.1c0.061-2.472,0.093-4.172,0.093-5.1l0.835-0.835h50.162V23.909h-84.471v86.508H558.751z    M516.84,29.563l-36.439,0.278l-0.278,30.228h-1.297V27.895c8.529-0.122,21.2,0.033,38.015,0.464V29.563z"
   id="path12" />&#10;</g>&#10;<path
   style="fill:#999999;stroke-width:0.941316"
   d="m 11.347378,104.33698 c 1.887167,-3.25966 12.524985,-21.665192 23.639594,-40.901171 11.11461,-19.235981 20.315263,-34.976284 20.445901,-34.978451 0.397312,-0.0066 42.772655,80.997142 42.509561,81.260312 -0.134813,0.13484 -20.445873,0.31285 -45.135692,0.39557 l -44.8905774,0.1504 z m 79.914793,1.34284 c 0.124758,-0.10364 -9.764653,-19.237145 -10.88235,-21.054582 -0.614286,-0.99887 -1.865501,-0.916243 -1.865501,0.123184 0,0.319127 2.021691,4.592933 4.492645,9.497348 2.470955,4.904416 4.492645,9.11786 4.492645,9.36321 0,0.4313 -7.368357,1.00547 -12.903304,1.00547 -2.239121,0 -2.50005,0.092 -2.50005,0.88146 0,0.87251 0.09667,0.87845 9.520129,0.58488 5.236071,-0.16313 9.576676,-0.34356 9.645786,-0.40097 z M 56.477862,82.686062 c 1.513423,-1.305203 2.160107,-4.190405 1.308395,-5.837435 -0.700193,-1.354032 -2.974772,-2.613016 -4.720867,-2.613016 -0.694918,0 -1.636461,0.491564 -2.395594,1.250701 -1.058789,1.058788 -1.250701,1.58907 -1.250701,3.455879 0,1.86681 0.191912,2.397092 1.250701,3.45588 1.606818,1.606822 4.133563,1.732111 5.808066,0.287991 z"
   id="path13" /><path
   style="fill:#999999;stroke-width:0.941316"
   d="m 108.46504,66.854837 -2.5e-4,-42.466193 11.87367,-5.84e-4 c 6.53051,-3.22e-4 17.0723,-0.06885 23.42618,-0.15228 9.23845,-0.12131 12.49528,-0.0081 16.2591,0.564943 8.35743,1.272531 14.49997,3.814546 19.20961,7.949663 3.96252,3.479135 8.28713,11.551784 8.68948,16.220447 0.45699,5.302653 -2.03978,12.227951 -5.95169,16.508198 -5.44985,5.96301 -15.62679,10.895935 -22.47902,10.895935 -2.10848,0 -3.53316,0.713787 -3.53316,1.770174 0,1.16799 2.02803,3.38063 15.33893,16.735244 l 14.39339,14.440646 h -38.613 -38.61299 z m 58.1907,29.416128 c -6.54693,-6.552249 -9.46985,-9.199226 -10.15821,-9.199226 -0.53154,0 -0.96644,0.128875 -0.96644,0.286392 0,0.157516 3.27322,3.60729 7.27381,7.666164 4.00059,4.058873 7.2738,7.588295 7.2738,7.843155 0,0.31209 -2.13046,0.46529 -6.52503,0.46923 -6.84908,0.006 -8.58908,0.21747 -8.32665,1.01134 0.17108,0.51754 5.63906,0.89421 15.06189,1.03759 l 5.55859,0.0846 z m 2.15747,-26.787589 c 5.76197,-2.57942 7.96783,-4.018006 9.93816,-6.481318 2.23958,-2.799933 3.21692,-4.635197 3.9335,-7.38634 0.82435,-3.16487 0.82289,-3.201526 -0.12776,-3.201526 -0.59153,0 -0.95515,0.607724 -1.47203,2.460258 -0.89145,3.194998 -2.91044,6.193492 -5.60383,8.322491 -2.24888,1.777643 -7.45323,4.55411 -10.21609,5.450192 -1.36938,0.44413 -1.60452,0.703642 -1.60452,1.770821 0,0.687738 0.0611,1.250431 0.13583,1.250431 0.0747,0 2.33224,-0.983252 5.01674,-2.185009 z m -16.9337,-14.682187 c 2.87025,-1.199265 3.7184,-5.191812 1.60532,-7.556764 -0.90668,-1.014751 -1.65717,-1.385027 -3.14774,-1.553036 -1.71789,-0.19363 -2.12681,-0.06907 -3.34419,1.018656 -1.08194,0.966717 -1.4368,1.681341 -1.61354,3.249388 -0.27139,2.407706 0.55001,3.93848 2.58932,4.825536 1.73396,0.754234 2.14048,0.75592 3.91083,0.01622 z"
   id="path14" /><path
   style="fill:#999999;stroke-width:0.941316"
   d="m 233.324,108.46122 c -6.37113,-1.01134 -12.95709,-3.62864 -18.35538,-7.29455 -6.62428,-4.498465 -13.05251,-12.165695 -15.58222,-18.585586 -2.14674,-5.448012 -2.89304,-10.323166 -2.65303,-17.330763 0.2417,-7.056829 1.28954,-11.470346 4.06335,-17.114838 7.34982,-14.956347 23.66657,-23.990389 41.51035,-22.982896 6.2839,0.3548 14.19826,3.212237 20.19176,7.290129 4.075,2.77257 11.12465,10.415465 11.12465,12.06082 0,0.502744 -19.06948,12.606476 -32.00245,20.312515 -2.89329,1.723947 -5.10752,3.263036 -4.92052,3.420197 0.99051,0.832462 21.27954,9.419652 31.45953,13.315028 5.1994,1.989548 7.16098,2.930685 7.16684,3.438529 0.004,0.384579 -0.77993,2.273629 -1.74306,4.197898 -4.06717,8.125971 -14.72289,15.750407 -25.78868,18.452457 -4.03342,0.98489 -10.96243,1.37802 -14.47114,0.82106 z m 28.31481,-13.752904 c 1.46325,-0.977125 3.22355,-2.553915 3.91178,-3.503981 1.25517,-1.732727 1.95471,-3.547456 1.53085,-3.971322 -0.19388,-0.193877 -26.4205,-10.430176 -26.72336,-10.430176 -0.0597,0 -0.10854,0.438221 -0.10854,0.973825 0,0.870243 0.96712,1.354896 9.09226,4.556381 11.63621,4.58492 14.86803,6.022438 14.87055,6.614436 10e-4,0.262653 -1.54303,1.933839 -3.43146,3.713744 -3.17423,2.991828 -3.67988,3.823677 -2.32428,3.823677 0.28696,0 1.71895,-0.799464 3.1822,-1.776584 z"
   id="path15" /><path
   style="fill:#999999;stroke-width:0.941316"
   d="m 273.30937,108.35832 c 17.03353,-29.476754 45.63814,-79.033034 45.94891,-79.604542 0.33771,-0.621042 4.5442,7.089547 21.82515,40.005935 l 21.40682,40.775247 -6.45984,0.26428 c -3.55291,0.14535 -23.85504,0.28976 -45.11585,0.3209 l -38.65601,0.0566 z m 82.32311,-2.62364 c 0.0394,-0.0282 -2.50987,-4.96101 -5.66514,-10.96167 -5.4049,-10.278949 -6.12161,-11.310024 -7.15954,-10.299709 -0.18958,0.184545 1.41518,3.780954 3.56613,7.992021 2.15097,4.211064 4.26547,8.542228 4.69889,9.624808 l 0.78805,1.96833 -5.17013,0.27799 c -2.84358,0.1529 -6.39143,0.278 -7.88412,0.278 -2.45929,0 -2.71398,0.0831 -2.71398,0.88565 0,0.87846 0.0791,0.88321 9.73406,0.5858 5.35374,-0.16492 9.76634,-0.32297 9.80578,-0.35122 z M 320.63481,82.751941 c 1.98506,-1.849365 2.39176,-5.229939 0.80325,-6.676793 -2.84692,-2.593039 -5.98522,-2.366738 -7.36016,0.530735 -1.09046,2.29798 -0.85795,3.937842 0.79234,5.588128 1.77777,1.777773 4.20325,2.012529 5.76457,0.55793 z"
   id="path16" /><path
   style="fill:#999999;stroke-width:0.941316"
   d="m 398.34786,110.10359 c -3.76526,-0.20563 -11.13018,-0.32142 -16.36648,-0.25732 l -9.52055,0.11657 4.2e-4,-42.944522 4.2e-4,-42.94452 27.91858,0.210717 c 27.10004,0.204539 28.01893,0.238315 31.34154,1.152003 12.32996,3.39063 23.46187,12.531588 28.87369,23.709612 2.38987,4.936242 3.18037,7.69809 3.91525,13.679236 2.05441,16.72041 -8.02323,35.454132 -22.9479,42.658764 -9.66093,4.66366 -20.73319,5.84723 -43.21497,4.61946 z m 29.30916,-4.71209 c 2.99978,-0.56204 11.02637,-3.47459 14.23068,-5.16378 4.71553,-2.485854 9.80998,-7.74607 12.96381,-13.385645 2.0199,-3.611919 4.23758,-9.854325 5.08169,-14.304111 0.87041,-4.588411 0.86059,-4.720418 -0.35121,-4.720418 -0.89261,0 -1.05723,0.255752 -1.30822,2.032387 -1.01853,7.209643 -4.4785,15.784986 -8.23924,20.420471 -5.23425,6.451721 -14.37089,11.344866 -25.63754,13.730216 -2.97445,0.62975 -3.44463,0.84772 -3.26989,1.5159 0.22128,0.84618 1.4744,0.82219 6.52992,-0.12502 z m -4.76863,-22.780315 c 3.33687,-1.725565 2.70666,-7.14975 -0.97175,-8.363731 -2.94197,-0.970942 -5.33067,0.719388 -5.70458,4.036774 -0.25035,2.221096 0.4483,3.354303 2.67361,4.33658 1.67063,0.737435 2.56221,0.735292 4.00272,-0.0096 z"
   id="path17" /><path
   style="fill:#999999;stroke-width:0.941316"
   d="M 474.29495,67.17574 V 24.174709 h 42.14529 42.14529 v 17.97058 17.97058 h -24.97806 c -21.71563,0 -25.04785,0.08409 -25.51239,0.643831 -0.63624,0.766627 -0.72578,12.087384 -0.11165,14.117717 l 0.38825,1.283613 8.84783,0.115649 8.84783,0.11565 v 2.986415 2.986415 h -8.71631 -8.71631 l -0.30207,4.660734 c -0.27468,4.238049 -0.1953,6.062521 0.44413,10.207782 l 0.2145,1.39058 h 24.79712 24.79713 v 5.776255 5.77626 h -42.14529 -42.14529 z m 6.15367,-21.910171 c 0.1646,-8.167666 0.36034,-14.911356 0.43496,-14.98598 0.0746,-0.07462 8.24981,-0.258453 18.16707,-0.40851 16.4788,-0.24934 18.0314,-0.334606 18.0314,-0.990249 0,-0.648529 -1.20175,-0.744504 -12.51523,-0.999497 -6.88337,-0.155143 -15.54776,-0.282434 -19.25419,-0.282868 l -6.73897,-7.88e-4 v 16.259096 c 0,15.506691 0.0365,16.259096 0.78784,16.259096 0.74431,0 0.80436,-0.820288 1.08712,-14.8503 z"
   id="path18" /></svg>
