<?xml version="1.0" encoding="UTF-8" standalone="no"?>
<svg
   width="2600pt"
   height="540pt"
   viewBox="0 0 2600 540"
   version="1.1"
   id="svg1493"
   sodipodi:docname="crvision.svg"
   inkscape:version="1.2.1 (9c6d41e410, 2022-07-14)"
   xmlns:inkscape="http://www.inkscape.org/namespaces/inkscape"
   xmlns:sodipodi="http://sodipodi.sourceforge.net/DTD/sodipodi-0.dtd"
   xmlns="http://www.w3.org/2000/svg"
   xmlns:svg="http://www.w3.org/2000/svg">
  <defs
     id="defs1497" />
  <sodipodi:namedview
     id="namedview1495"
     pagecolor="#ffffff"
     bordercolor="#666666"
     borderopacity="1.0"
     inkscape:showpageshadow="2"
     inkscape:pageopacity="0.0"
     inkscape:pagecheckerboard="0"
     inkscape:deskcolor="#d1d1d1"
     inkscape:document-units="pt"
     showgrid="false"
     inkscape:zoom="0.32777778"
     inkscape:cx="1723.7288"
     inkscape:cy="360"
     inkscape:window-width="1728"
     inkscape:window-height="833"
     inkscape:window-x="-8"
     inkscape:window-y="-8"
     inkscape:window-maximized="1"
     inkscape:current-layer="svg1493" />
  <g
     id="#000000ff">
    <path
       fill="#000000"
       opacity="1.00"
       d=" M 1239.29 16.47 C 1242.72 15.34 1246.41 15.80 1249.97 15.76 C 1255.34 16.08 1260.81 15.65 1266.09 16.96 C 1276.39 19.39 1285.82 25.27 1292.58 33.41 C 1297.46 38.99 1299.67 46.16 1302.10 53.01 C 1315.86 92.48 1327.05 132.77 1339.29 172.73 C 1368.29 269.00 1397.03 365.35 1426.38 461.51 C 1428.59 467.34 1432.07 473.12 1437.43 476.53 C 1439.90 478.30 1442.87 476.61 1444.76 474.81 C 1449.98 470.07 1453.18 463.52 1454.87 456.75 C 1481.29 369.94 1507.34 283.02 1533.44 196.12 C 1545.48 156.54 1557.03 116.82 1569.48 77.37 C 1572.88 66.63 1576.58 55.98 1580.43 45.39 C 1585.95 29.97 1600.92 18.95 1616.85 16.36 C 1623.54 15.80 1630.29 15.65 1637.02 15.80 C 1641.86 15.68 1646.24 20.07 1645.99 24.94 C 1646.01 33.63 1646.01 42.33 1645.99 51.02 C 1646.20 55.52 1642.51 59.77 1638.00 60.04 C 1633.26 60.62 1628.34 61.39 1624.45 64.36 C 1617.37 69.49 1614.46 78.23 1612.16 86.28 C 1598.57 133.59 1583.58 180.48 1569.37 227.60 C 1543.74 312.99 1519.14 398.69 1492.66 483.83 C 1488.75 497.05 1480.32 509.12 1468.55 516.47 C 1460.11 521.84 1450.09 524.81 1440.06 524.01 C 1424.67 525.25 1409.48 517.88 1399.47 506.43 C 1394.16 500.36 1390.13 493.20 1387.66 485.53 C 1360.87 399.57 1336.07 313.00 1310.16 226.77 C 1297.36 184.28 1283.89 142.00 1271.43 99.41 C 1268.88 91.36 1267.18 82.99 1263.74 75.24 C 1261.10 69.34 1256.62 63.84 1250.31 61.72 C 1246.77 60.43 1242.93 60.50 1239.33 59.50 C 1235.92 58.20 1233.62 54.59 1233.77 50.95 C 1233.73 42.29 1233.72 33.63 1233.77 24.98 C 1233.63 21.35 1235.95 17.85 1239.29 16.47 Z"
       id="path1472" />
    <path
       fill="#000000"
       opacity="1.00"
       d=" M 2113.50 116.84 C 2148.24 112.23 2184.60 119.96 2214.18 138.84 C 2241.50 156.08 2262.76 182.48 2274.34 212.60 C 2284.94 240.42 2288.27 271.28 2282.36 300.54 C 2275.83 332.26 2257.79 361.25 2232.87 381.80 C 2205.42 404.70 2169.71 417.36 2133.97 417.02 C 2099.51 417.11 2064.73 406.00 2037.91 384.09 C 2011.83 363.16 1994.02 332.70 1987.17 300.08 C 1982.13 275.92 1981.82 250.47 1988.38 226.56 C 1996.87 194.90 2016.41 166.48 2042.43 146.63 C 2063.00 130.77 2087.73 120.28 2113.50 116.84 M 2120.54 158.80 C 2086.49 162.67 2055.42 184.42 2039.40 214.59 C 2021.11 247.93 2021.83 290.79 2041.43 323.40 C 2057.45 350.91 2086.26 370.59 2117.81 375.13 C 2142.23 378.83 2167.88 373.90 2189.07 361.16 C 2215.50 345.56 2234.55 318.22 2240.19 288.06 C 2246.42 256.77 2238.16 222.90 2217.84 198.24 C 2195.00 169.56 2156.91 154.12 2120.54 158.80 Z"
       id="path1474" />
    <path
       fill="#000000"
       opacity="1.00"
       d=" M 2342.04 116.75 C 2351.39 114.69 2361.45 115.67 2370.09 119.89 C 2382.91 126.14 2391.86 138.41 2396.69 151.56 C 2416.10 204.12 2435.22 256.79 2454.47 309.41 C 2461.48 328.01 2467.56 346.98 2475.77 365.11 C 2476.74 367.10 2477.40 369.47 2479.31 370.82 C 2481.25 371.54 2483.41 371.15 2485.49 371.28 C 2485.56 308.87 2485.32 246.45 2485.75 184.04 C 2485.57 167.40 2486.72 149.05 2497.71 135.60 C 2507.62 123.61 2524.26 120.39 2539.07 121.17 C 2543.84 121.70 2549.49 119.89 2553.42 123.53 C 2556.45 126.09 2556.36 130.34 2556.27 133.96 C 2556.17 141.63 2556.33 149.30 2556.22 156.97 C 2556.28 161.81 2551.74 165.85 2546.98 165.52 C 2542.36 165.87 2537.18 164.38 2533.09 167.17 C 2530.26 169.13 2529.70 172.82 2529.74 176.01 C 2529.76 212.00 2529.75 247.98 2529.75 283.96 C 2529.56 312.95 2529.40 341.95 2529.51 370.95 C 2529.56 385.33 2522.73 399.55 2511.33 408.34 C 2499.47 417.84 2482.90 420.73 2468.42 416.36 C 2455.09 412.41 2443.79 402.24 2438.54 389.37 C 2419.56 337.21 2400.17 285.20 2380.87 233.16 C 2372.33 209.99 2362.92 187.16 2353.88 164.19 C 2351.62 164.22 2349.38 164.22 2347.17 164.19 C 2347.36 189.47 2347.19 214.76 2347.25 240.05 C 2347.63 264.01 2347.47 287.98 2347.50 311.95 C 2347.37 331.61 2347.81 351.29 2347.15 370.94 C 2346.42 385.16 2339.20 399.38 2326.59 406.55 C 2316.22 412.65 2303.82 413.98 2292.01 413.54 C 2289.46 413.41 2286.70 413.87 2284.44 412.49 C 2281.73 411.08 2279.89 408.11 2280.01 405.05 C 2279.98 396.00 2279.99 386.96 2280.00 377.91 C 2279.78 373.53 2283.66 369.56 2287.98 369.33 C 2291.27 369.04 2294.60 369.48 2297.91 369.12 C 2301.40 368.70 2304.50 365.71 2304.67 362.13 C 2305.06 345.76 2304.64 329.40 2304.75 313.02 C 2304.88 270.35 2304.30 227.69 2304.50 185.02 C 2304.70 174.71 2303.80 164.30 2305.68 154.09 C 2307.18 145.48 2310.62 137.04 2316.51 130.49 C 2323.09 123.10 2332.45 118.70 2342.04 116.75 Z"
       id="path1476" />
    <path
       fill="#000000"
       opacity="1.00"
       d=" M 176.06 119.75 C 196.38 118.64 216.72 119.83 237.05 119.50 C 241.32 119.69 245.72 118.94 249.88 120.13 C 253.40 121.48 255.79 125.20 255.51 128.97 C 255.48 136.99 255.55 145.01 255.48 153.03 C 255.48 157.49 251.51 161.51 247.04 161.49 C 225.34 161.52 203.64 161.32 181.97 162.21 C 159.99 163.80 138.62 172.55 121.85 186.84 C 103.37 202.39 90.45 224.55 86.52 248.43 C 82.66 271.68 86.69 296.23 97.89 316.98 C 108.04 336.08 124.47 351.72 144.03 360.95 C 156.50 366.86 170.16 370.19 183.93 370.88 C 201.28 371.39 218.64 371.33 236.00 371.75 C 243.32 371.62 250.66 372.53 257.96 371.81 C 262.90 371.28 267.83 368.60 269.94 363.94 C 273.46 356.43 271.68 347.98 272.00 340.01 C 271.52 300.01 271.40 259.99 271.52 219.98 C 272.14 209.62 271.16 199.21 272.47 188.90 C 274.18 173.07 279.38 157.10 290.04 144.98 C 299.75 133.78 313.57 126.82 327.87 123.56 C 341.32 120.37 355.23 120.47 368.96 120.50 C 380.35 120.42 391.73 120.73 403.12 121.13 C 419.45 121.84 436.06 126.68 448.83 137.19 C 461.34 147.24 469.19 162.29 471.91 177.97 C 475.27 196.09 473.39 215.74 463.79 231.77 C 454.46 247.72 438.12 258.92 420.30 263.31 C 405.03 267.44 389.11 265.59 373.50 266.00 C 373.50 268.16 373.50 270.33 373.50 272.49 C 389.04 272.62 404.86 271.70 420.07 275.57 C 435.27 279.15 449.59 287.43 459.26 299.82 C 469.90 313.13 474.78 330.18 475.81 346.99 C 476.25 352.86 475.53 358.94 477.35 364.64 C 478.67 368.89 482.30 372.09 486.45 373.50 C 489.72 374.20 493.29 373.09 496.41 374.62 C 499.13 376.00 501.30 378.84 501.23 381.99 C 501.29 390.32 501.23 398.66 501.26 406.99 C 501.57 411.54 497.47 415.53 493.04 415.69 C 482.31 416.00 471.16 416.06 461.09 411.76 C 449.57 407.11 440.59 397.14 436.64 385.42 C 431.20 370.50 434.29 354.25 430.79 338.97 C 429.24 332.62 425.94 326.47 420.61 322.53 C 415.29 318.53 408.56 316.86 402.01 316.55 C 388.38 315.90 374.62 316.81 361.13 314.41 C 346.68 311.65 333.64 301.95 327.30 288.62 C 321.33 276.46 321.44 261.85 326.38 249.37 C 330.81 237.94 340.79 229.12 352.41 225.47 C 370.08 219.46 389.04 224.98 407.02 221.00 C 414.22 219.37 421.42 215.77 425.57 209.44 C 430.29 202.31 430.79 193.17 429.08 184.99 C 427.99 179.40 425.09 174.08 420.55 170.56 C 415.32 166.38 408.48 164.93 401.95 164.59 C 387.31 164.26 372.68 163.61 358.05 163.53 C 347.20 163.82 335.15 164.09 326.35 171.33 C 318.11 178.28 316.47 189.76 316.14 199.91 C 315.49 237.60 315.44 275.30 315.50 313.00 C 315.43 322.67 315.69 332.34 315.26 342.00 C 315.12 357.61 316.31 373.82 310.67 388.71 C 307.51 397.39 300.74 404.72 292.11 408.14 C 281.08 412.81 268.84 413.11 257.04 413.00 C 221.96 412.82 186.52 414.38 151.88 407.69 C 122.55 401.92 95.66 385.41 76.74 362.33 C 48.68 328.68 37.48 282.60 43.82 239.56 C 49.02 206.50 67.25 176.13 92.55 154.48 C 115.76 134.47 145.36 121.58 176.06 119.75 Z"
       id="path1478" />
    <path
       fill="#000000"
       opacity="1.00"
       d=" M 799.58 126.51 C 812.26 118.17 828.46 117.04 843.01 120.14 C 854.79 122.68 865.00 130.40 871.58 140.37 C 878.10 149.68 881.82 160.49 885.99 170.96 C 893.54 190.37 900.66 209.95 907.19 229.73 C 911.30 242.47 912.86 256.85 907.47 269.46 C 903.04 280.10 893.34 287.78 882.65 291.55 C 867.58 297.12 851.26 295.82 835.51 296.00 C 835.43 298.93 835.45 301.87 835.73 304.79 C 850.49 304.69 865.24 304.78 880.00 304.75 C 890.01 304.97 900.12 303.59 910.04 305.57 C 919.80 307.25 929.11 311.80 936.07 318.90 C 944.55 327.47 949.40 338.91 952.44 350.41 C 954.74 358.36 957.24 367.64 965.08 371.90 C 969.49 374.91 974.98 373.37 979.94 373.76 C 984.40 373.55 988.74 377.42 988.73 381.94 C 988.82 389.28 988.68 396.63 988.78 403.98 C 988.73 406.52 989.08 409.33 987.55 411.55 C 985.81 414.49 982.33 415.93 979.02 415.76 C 971.70 415.72 964.38 415.82 957.06 415.72 C 943.57 414.49 931.65 405.89 924.28 394.81 C 915.73 382.05 913.46 366.33 905.83 353.12 C 903.08 348.25 897.10 347.32 892.01 347.29 C 873.03 347.19 854.05 347.28 835.08 347.25 C 829.43 347.20 823.70 347.60 818.15 346.32 C 804.53 343.61 792.46 334.30 786.20 321.94 C 779.47 309.04 779.35 292.94 785.87 279.94 C 792.54 266.07 806.54 256.07 821.83 254.27 C 832.89 253.48 844.02 254.55 855.09 253.66 C 858.96 253.37 863.35 251.91 865.10 248.13 C 866.98 243.61 865.29 238.65 863.74 234.30 C 857.22 217.77 851.29 201.00 844.27 184.67 C 842.81 181.29 841.48 177.77 839.14 174.88 C 835.83 170.71 831.56 167.44 827.93 163.57 C 823.31 168.71 817.10 172.72 814.31 179.27 C 790.49 243.57 768.99 308.72 744.77 372.87 C 740.94 382.79 737.97 393.48 730.59 401.49 C 722.98 410.47 711.46 415.40 699.87 416.32 C 689.25 416.91 678.61 416.74 667.98 416.74 C 644.67 417.26 621.33 416.88 598.01 417.01 C 586.99 416.56 575.85 417.25 564.98 414.99 C 550.74 412.33 537.13 405.38 527.43 394.50 C 514.15 379.79 508.33 359.53 508.48 340.00 C 508.23 328.42 510.08 316.83 513.57 305.81 C 515.77 298.75 519.66 292.12 525.31 287.28 C 531.61 281.79 539.67 278.59 547.90 277.44 C 555.87 276.25 563.93 277.05 571.95 276.52 C 593.38 276.46 614.81 276.53 636.24 276.49 C 636.24 274.24 636.24 271.99 636.26 269.74 C 611.83 269.72 587.40 269.84 562.98 269.69 C 547.66 268.29 531.02 264.60 520.28 252.72 C 510.18 241.43 508.62 225.46 508.74 210.96 C 508.35 189.60 511.98 166.75 525.70 149.63 C 538.39 133.60 559.06 126.03 578.98 125.00 C 609.98 124.98 640.98 125.02 671.98 124.98 C 674.56 125.03 677.22 124.74 679.73 125.49 C 683.26 126.63 685.87 130.21 685.74 133.94 C 685.76 141.98 685.77 150.02 685.74 158.06 C 686.00 163.20 681.10 167.57 676.04 167.01 C 651.70 166.77 627.35 166.49 603.01 167.01 C 591.71 167.09 579.82 166.43 569.31 171.36 C 562.02 174.60 555.96 180.64 553.18 188.17 C 550.04 196.41 550.59 205.58 552.76 214.00 C 553.34 216.98 555.70 219.11 558.04 220.84 C 562.41 223.97 567.66 226.02 573.07 226.12 C 595.34 227.28 617.64 226.50 639.92 226.80 C 652.00 227.31 664.63 230.88 673.35 239.67 C 682.03 247.97 685.67 260.27 685.77 272.03 C 686.12 282.82 683.33 294.05 676.31 302.46 C 667.34 313.46 652.80 318.01 639.04 318.55 C 613.80 319.76 588.51 319.00 563.26 319.32 C 558.24 319.21 553.90 322.90 552.82 327.72 C 550.94 335.87 551.45 344.53 553.60 352.59 C 555.55 359.29 558.97 366.08 565.05 369.91 C 567.96 371.83 571.50 372.43 574.93 372.51 C 612.95 374.34 651.04 374.02 689.08 372.88 C 691.16 372.86 693.38 372.51 694.92 370.96 C 700.74 365.64 704.05 358.21 706.59 350.88 C 729.80 287.72 752.38 224.33 775.08 160.98 C 779.90 147.63 787.42 134.43 799.58 126.51 Z"
       id="path1480" />
    <path
       fill="#000000"
       opacity="1.00"
       d=" M 1211.44 119.51 C 1214.22 118.77 1217.13 119.03 1219.98 118.99 C 1226.67 119.09 1233.36 118.85 1240.05 119.08 C 1244.69 119.10 1248.95 123.19 1248.74 127.91 C 1248.76 220.64 1248.76 313.37 1248.74 406.10 C 1248.94 410.79 1244.72 414.87 1240.11 414.91 C 1233.07 415.16 1226.03 414.90 1219.01 415.02 C 1216.47 414.98 1213.89 415.16 1211.43 414.49 C 1207.84 413.40 1205.07 409.83 1205.26 406.03 C 1205.24 313.33 1205.24 220.62 1205.26 127.92 C 1205.09 124.13 1207.87 120.59 1211.44 119.51 Z"
       id="path1482" />
    <path
       fill="#000000"
       opacity="1.00"
       d=" M 1644.42 119.57 C 1647.84 118.63 1651.45 119.09 1654.97 119.00 C 1661.35 119.13 1667.75 118.75 1674.12 119.17 C 1678.90 119.57 1682.47 124.28 1682.01 128.99 C 1681.97 221.34 1682.04 313.69 1681.98 406.04 C 1682.10 410.79 1677.87 414.94 1673.16 414.93 C 1666.10 415.14 1659.03 414.91 1651.98 415.02 C 1648.99 414.94 1645.80 415.33 1643.08 413.87 C 1640.19 412.45 1638.33 409.23 1638.49 406.03 C 1638.51 313.33 1638.50 220.64 1638.49 127.95 C 1638.30 124.23 1640.85 120.64 1644.42 119.57 Z"
       id="path1484" />
    <path
       fill="#000000"
       opacity="1.00"
       d=" M 1782.21 119.32 C 1815.11 119.04 1848.03 119.54 1880.93 119.00 C 1885.49 119.20 1890.92 118.01 1894.60 121.48 C 1897.58 124.10 1897.56 128.35 1897.53 132.01 C 1897.39 138.98 1897.67 145.96 1897.40 152.93 C 1897.36 157.75 1892.65 161.39 1888.02 161.01 C 1857.01 160.99 1826.00 161.01 1794.99 161.00 C 1787.54 160.80 1779.97 161.21 1772.86 163.59 C 1761.91 167.05 1752.41 175.13 1747.72 185.67 C 1741.44 199.65 1742.46 217.46 1752.67 229.36 C 1760.87 239.11 1773.57 243.90 1786.00 245.03 C 1797.64 245.98 1809.34 245.43 1821.01 246.04 C 1838.70 246.93 1856.41 252.66 1870.41 263.71 C 1883.35 273.82 1892.75 288.14 1897.44 303.84 C 1902.13 319.66 1903.41 336.89 1898.69 352.87 C 1891.13 379.13 1869.67 400.94 1843.42 408.67 C 1832.60 412.07 1821.16 412.12 1809.94 412.50 C 1777.64 412.51 1745.33 412.48 1713.03 412.52 C 1708.22 412.91 1703.77 408.72 1703.83 403.91 C 1703.66 395.60 1703.72 387.27 1703.80 378.96 C 1703.74 374.14 1708.04 369.81 1712.90 370.03 C 1741.59 369.96 1770.30 370.02 1799.00 370.00 C 1809.31 369.90 1819.86 370.73 1829.87 367.64 C 1840.42 364.79 1850.16 357.82 1854.79 347.72 C 1861.35 333.37 1859.79 314.94 1849.13 302.93 C 1841.54 294.34 1830.30 289.87 1819.13 288.44 C 1806.82 287.01 1794.42 288.34 1782.09 287.41 C 1767.86 286.75 1753.62 283.07 1741.44 275.53 C 1724.92 265.49 1712.01 249.63 1705.52 231.42 C 1693.27 198.16 1705.12 157.66 1733.43 136.31 C 1747.36 125.66 1764.75 119.98 1782.21 119.32 Z"
       id="path1486" />
    <path
       fill="#000000"
       opacity="1.00"
       d=" M 1927.49 119.64 C 1930.87 118.64 1934.47 119.07 1937.97 119.00 C 1944.34 119.11 1950.74 118.80 1957.12 119.13 C 1961.61 119.34 1965.51 123.49 1965.26 128.01 C 1965.25 220.68 1965.25 313.34 1965.26 406.00 C 1965.54 410.93 1960.96 415.14 1956.13 414.95 C 1947.69 415.03 1939.24 415.06 1930.81 414.94 C 1926.01 415.08 1921.46 410.84 1921.76 405.96 C 1921.75 313.29 1921.74 220.61 1921.76 127.94 C 1921.55 124.29 1924.17 120.93 1927.49 119.64 Z"
       id="path1488" />
    <path
       fill="#000000"
       opacity="1.00"
       d=" M 921.26 127.99 C 921.21 123.36 925.52 119.48 930.07 119.56 C 946.71 119.24 963.33 119.98 979.97 119.74 C 995.14 120.05 1011.10 119.21 1025.18 125.89 C 1034.26 130.00 1041.35 137.88 1044.79 147.20 C 1047.97 155.41 1049.03 164.31 1049.01 173.06 C 1049.50 204.35 1049.14 235.65 1049.25 266.94 C 1049.26 299.79 1049.32 332.65 1049.00 365.49 C 1051.99 365.50 1054.99 365.50 1058.00 365.49 C 1058.08 335.67 1057.55 305.86 1057.75 276.04 C 1057.85 243.03 1057.51 210.02 1058.00 177.02 C 1057.73 162.75 1059.36 147.17 1068.77 135.74 C 1077.30 125.41 1091.00 121.41 1103.90 120.40 C 1119.56 119.42 1135.27 119.85 1150.96 119.74 C 1159.60 119.39 1168.26 119.43 1176.91 119.57 C 1181.35 119.63 1185.48 123.47 1185.47 127.99 C 1185.55 136.32 1185.49 144.67 1185.49 153.00 C 1185.70 157.57 1181.64 161.87 1177.05 161.73 C 1158.37 161.79 1139.69 161.72 1121.01 161.76 C 1114.95 161.81 1108.00 162.95 1104.26 168.27 C 1099.78 174.55 1100.22 182.68 1100.25 190.02 C 1100.25 226.36 1100.25 262.69 1100.25 299.03 C 1100.13 322.99 1100.83 346.95 1100.40 370.91 C 1099.84 385.56 1091.93 399.59 1079.77 407.74 C 1067.67 416.09 1051.57 418.05 1037.74 413.18 C 1022.36 407.90 1010.24 394.07 1007.21 378.07 C 1005.90 371.81 1006.29 365.40 1006.25 359.06 C 1006.25 305.03 1006.25 251.00 1006.25 196.98 C 1006.33 187.87 1007.81 178.04 1003.40 169.63 C 1000.21 163.79 993.17 161.85 986.95 161.80 C 967.95 161.68 948.94 161.79 929.94 161.76 C 925.33 161.97 921.06 157.74 921.26 153.12 C 921.23 144.74 921.22 136.37 921.26 127.99 Z"
       id="path1490" />
  </g>
  <path
     style="fill:#c48c02;stroke-width:3.05085"
     d="m 626.51651,550.81852 c -30.20067,-7.20183 -45.09854,-30.21416 -48.12791,-74.34198 -3.22002,-46.90472 -11.15353,-53.77176 -65.84623,-56.99467 -27.31768,-1.60976 -37.99003,-3.55754 -48.2083,-8.79835 -33.59166,-17.22872 -42.16356,-65.70487 -16.42811,-92.90504 14.1084,-14.91138 23.74569,-17.99558 63.0382,-20.17395 52.40873,-2.90554 62.61516,-9.90718 62.61516,-42.95419 0,-12.33184 -1.6139,-16.86882 -8.90228,-25.02594 l -8.90228,-9.96338 h -56.49062 -56.49059 l -9.31488,8.92422 c -5.1232,4.90832 -10.1412,13.32883 -11.15115,18.71225 -1.00992,5.38342 -2.74311,66.57939 -3.85154,135.99104 -1.90175,119.0929 -2.36807,126.8905 -8.27671,138.40639 -4.50448,8.77921 -10.49684,14.34349 -21.35593,19.8305 -14.84289,7.49996 -16.19756,7.61766 -81.26274,7.05918 C 195.81694,547.62547 159.8081,537.20359 115.60164,493.02683 75.35027,452.8025 55.217212,398.09889 58.822237,338.75128 c 4.62382,-76.1195 56.530943,-142.21555 132.212773,-168.35341 22.06324,-7.61988 28.77903,-8.41259 81.30566,-9.59712 42.45883,-0.95748 58.42504,-0.3209 61.77967,2.46319 3.19119,2.64846 4.52373,9.90345 4.52373,24.6294 0,17.51612 -0.94953,21.3832 -5.90113,24.03322 -3.31132,1.77216 -26.40762,3.19092 -52.62712,3.23277 -50.90285,0.0812 -65.12922,2.28659 -89.68325,13.9025 -86.82934,41.07685 -104.756823,162.25317 -33.91663,229.25088 32.55221,30.78652 53.27788,36.63753 134.31868,37.91922 54.78221,0.86638 60.00366,0.48478 65.85789,-4.81323 6.22361,-5.63229 6.35834,-8.12392 6.35834,-117.60241 0,-67.6523 1.31336,-118.95286 3.32377,-129.82822 7.27344,-39.34564 28.55725,-64.17228 64.32965,-75.03782 18.06984,-5.48853 26.95949,-6.10371 74.8163,-5.17742 49.30606,0.95434 55.79393,1.71821 70.41667,8.29079 20.44465,9.18939 41.23819,31.93295 48.10985,52.62167 7.75489,23.34773 5.12418,61.26531 -5.50946,79.41022 -19.33917,32.99979 -49.05622,48.27737 -93.9063,48.27737 -24.59466,0 -27.34319,0.56875 -27.34319,5.65806 0,5.0172 3.42192,5.84662 30.21159,7.32282 23.96084,1.32031 34.06781,3.3953 48.84956,10.02896 33.71885,15.13212 49.94183,40.17801 55.67464,85.95343 3.57407,28.5384 8.24589,37.47741 19.58693,37.47741 11.82496,0 16.52473,7.80916 16.52473,27.45763 0,12.17697 -1.52719,19.39643 -4.79419,22.66343 -5.04833,5.04833 -20.28591,5.82785 -36.82489,1.8839 z"
     id="path2411"
     transform="scale(0.75)" />
  <path
     style="fill:#c48c02;stroke-width:3.05085"
     d="m 742.81757,548.23296 c -41.20849,-14.24911 -62.47859,-47.17205 -62.47859,-96.70754 0,-39.62044 11.53875,-64.47688 34.84496,-75.06204 10.78236,-4.8971 20.68905,-5.66035 74.22284,-5.71841 58.58869,-0.0635 61.77966,-0.36572 61.77966,-5.85037 0,-5.44194 -3.5571,-5.85348 -60.25424,-6.97105 -52.78542,-1.04047 -61.96848,-1.96779 -74.08383,-7.4811 -27.05138,-12.31022 -36.46358,-31.20475 -36.49237,-73.25668 -0.0325,-47.51031 16.81373,-80.61801 49.9014,-98.07047 l 15.6748,-8.26784 h 82.37288 82.37289 l 0.90836,20.86783 c 0.55536,12.75826 -0.47902,22.53952 -2.6617,25.16949 -2.86509,3.45223 -16.29818,4.30502 -68.027,4.31868 -35.45132,0.009 -69.49231,1.41558 -75.64665,3.12494 -13.89558,3.8595 -28.51679,20.04653 -31.24547,34.59165 -2.77261,14.77929 2.87548,34.45123 11.2676,39.24436 4.52378,2.58374 26.44532,4.36746 66.25231,5.39086 58.02763,1.49184 59.84091,1.73486 73.69002,9.87619 35.11576,20.6431 36.6549,76.24615 2.73197,98.69528 -13.83695,9.15687 -46.49759,13.17376 -108.60843,13.35764 -24.39205,0.0722 -37.99464,1.34077 -40.42373,3.76986 -5.62057,5.62057 -4.52952,38.82572 1.68271,51.2118 8.99413,17.93267 11.70402,18.38849 104.42879,17.56589 l 83.8403,-0.74379 6.72732,-12.20339 c 3.70003,-6.71187 28.71941,-73.13567 55.5986,-147.60846 26.87923,-74.47278 52.37703,-140.70259 56.66183,-147.17734 23.8688,-36.06827 77.6737,-40.71184 106.1758,-9.1634 18.0356,19.9632 57.5631,124.34861 57.9108,152.93225 0.4641,38.16127 -24.966,57.9661 -74.4305,57.9661 -23.5145,0 -23.9516,0.1392 -23.9516,7.62712 v 7.62712 l 46.5254,0.0171 c 25.589,0.009 51.492,1.39659 57.5623,3.08274 25.3111,7.03074 39.052,22.84556 51.4024,59.16077 8.0154,23.56841 13.4298,29.26489 27.8157,29.26489 16.4511,0 21.101,6.05072 21.101,27.45763 0,23.09583 -4.1697,27.45762 -26.2481,27.45762 -35.0979,0 -53.134,-14.72839 -71.5867,-58.4582 -9.5621,-22.66072 -14.2971,-30.42653 -19.2075,-31.50256 -3.5844,-0.78547 -30.5424,-1.80206 -59.9069,-2.25912 -50.132,-0.78032 -54.1784,-1.28272 -66.314,-8.23365 -7.1083,-4.07144 -16.7184,-12.87779 -21.3559,-19.56966 -7.1738,-10.35181 -8.4317,-15.2391 -8.4317,-32.7583 0,-17.95757 1.1706,-22.25332 9.1525,-33.58594 14.4051,-20.45218 30.3498,-27.19195 64.3297,-27.19195 30.0051,0 37.8737,-3.2071 37.8737,-15.43668 0,-3.21657 -7.0052,-23.82429 -15.5671,-45.79493 -15.0159,-38.53225 -28.9281,-60.80229 -37.9835,-60.80229 -9.3515,0 -20.648,24.85058 -54.0871,118.98305 -64.22891,180.80738 -66.37734,186.21842 -78.9147,198.75579 -6.24607,6.24606 -16.59395,12.81084 -22.99528,14.58842 -6.99832,1.94333 -46.91413,3.199 -100.11335,3.14936 -75.93116,-0.0708 -90.64628,-0.83352 -103.7926,-5.37925 z"
     id="path2413"
     transform="scale(0.75)" />
  <path
     style="fill:#c48c02;stroke-width:3.05085"
     d="m 1386.8708,550.07268 c -16.9595,-4.67085 -36.4601,-25.09093 -40.936,-42.86618 -2.4443,-9.70731 -3.5619,-55.84079 -3.5619,-147.03205 0,-128.81852 -0.1868,-133.07309 -6.1017,-138.98801 -5.5432,-5.54315 -10.1695,-6.10169 -50.5396,-6.10169 -24.7978,0 -47.0459,-1.39581 -50.3389,-3.15819 -4.9415,-2.64461 -5.9012,-6.51442 -5.9012,-23.79661 0,-11.98431 1.5352,-22.17356 3.661,-24.29944 2.5019,-2.50185 17.233,-3.65542 46.5255,-3.64335 71.6458,0.0295 93.7356,6.20268 107.7989,30.12509 l 8.2858,14.09453 0.877,142.62712 0.8769,142.62712 h 7.5129 7.5129 V 351.30271 c 0,-96.44501 1.0655,-141.49987 3.5175,-148.72881 5.6638,-16.69856 13.8712,-26.16228 29.0703,-33.52004 12.7518,-6.17303 20.0203,-7.03839 69.5401,-8.2792 65.6277,-1.64443 65.6687,-1.6277 65.6687,26.85246 0,26.89553 -1.1016,27.45763 -53.8083,27.45763 -24.321,0 -46.7311,1.3439 -49.8002,2.98644 -11.3596,6.07948 -12.3237,18.25505 -12.3237,155.63303 V 507.0064 l -7.1013,13.44597 c -12.7149,24.07512 -43.5246,37.0317 -70.4347,29.62031 z"
     id="path2415"
     transform="scale(0.75)" />
  <path
     style="fill:#c48c02;stroke-width:3.05085"
     d="m 1611.5729,547.13221 c -5.3938,-5.39384 -5.5059,-377.91111 -0.1153,-383.3017 5.2152,-5.21513 43.4426,-4.82117 47.8531,0.49316 2.5006,3.01301 3.2318,56.44035 2.6617,194.49152 l -0.786,190.33735 -22.9186,0.87798 c -15.2074,0.58259 -24.1892,-0.39259 -26.6949,-2.89831 z"
     id="path2417"
     transform="scale(0.75)" />
  <path
     style="fill:#c48c02;stroke-width:3.05085"
     d="m 1888.2589,688.72881 c -28.2243,-14.29587 -29.4546,-17.21422 -83.3375,-197.68167 -41.225,-138.07306 -96.7926,-322.7526 -114.1077,-379.23861 -5.8809,-19.184862 -14.1731,-28.182174 -30.1945,-32.761826 l -11.6361,-3.326177 V 50.063654 24.40678 l 16.6291,-0.943381 c 21.6114,-1.226023 39.6009,5.746315 52.9502,20.522358 13.4119,14.845474 18.8685,31.424447 110.4834,335.686563 39.6355,131.63336 73.3508,241.73668 74.9228,244.67406 8.6675,16.19537 23.1666,16.29885 31.4116,0.22424 2.3414,-4.56468 37.4854,-118.73535 78.0979,-253.71259 83.5149,-277.564982 92.5816,-306.338619 100.7727,-319.807785 9.8007,-16.116025 28.3274,-26.216239 50.7014,-27.640907 26.0024,-1.655706 28.6071,0.813914 28.6071,27.123185 0,22.489648 -0.2889,22.935182 -19.6754,30.345187 -7.2117,2.756489 -14.1537,8.270085 -17.2857,13.728813 -5.1541,8.983267 -44.1076,135.930807 -126.3704,411.834187 -23.0138,77.18644 -44.2959,145.14407 -47.2936,151.01695 -18.4012,36.05031 -58.8578,49.41308 -94.6753,31.27118 z"
     id="path2419"
     transform="scale(0.75)" />
  <path
     style="fill:#c48c02;stroke-width:3.05085"
     d="m 2189.4915,548.64406 c -1.1186,-1.11863 -2.0339,-88.14972 -2.0339,-193.4024 0,-171.68867 0.4963,-191.55895 4.8258,-193.22034 2.6542,-1.0185 13.589,-1.85183 24.2995,-1.85183 16.1306,0 20.0158,1.01304 22.6318,5.90113 4.3599,8.14649 4.3599,370.55972 0,378.70621 -2.6795,5.00675 -6.5329,5.90114 -25.4237,5.90114 -12.2461,0 -23.1808,-0.91526 -24.2995,-2.03391 z"
     id="path2421"
     transform="scale(0.75)" />
  <path
     style="fill:#c48c02;stroke-width:3.05085"
     d="m 2276.6949,544.12841 c -2.2267,-2.2324 -3.8135,-11.66568 -3.8135,-22.67012 0,-11.36032 1.5148,-20.10038 3.8135,-22.00271 2.3332,-1.93085 34.6057,-3.57099 83.1356,-4.22506 74.8308,-1.00855 80.0388,-1.45025 91.9807,-7.80074 18.1933,-9.67482 26.9667,-25.32631 26.9667,-48.10775 0,-22.64779 -7.8891,-36.8008 -26.2724,-47.13282 -10.843,-6.09408 -19.1927,-7.61579 -52.7779,-9.61856 -47.0584,-2.80622 -65.0837,-7.72079 -85.4048,-23.28554 -67.35,-51.58602 -55.5839,-153.06842 21.9611,-189.41375 17.3949,-8.153 17.6851,-8.17927 101.2207,-9.16274 77.1957,-0.90882 84.0849,-0.56349 87.7118,4.39667 4.961,6.78455 5.1619,38.38081 0.2751,43.26759 -2.6263,2.62634 -23.1043,3.6821 -72.4576,3.7356 -37.8381,0.041 -74.9746,1.48717 -82.5254,3.21367 -29.4109,6.72479 -45.7627,27.20548 -45.7627,57.318 0,17.40292 4.6354,28.87659 15.727,38.92776 13.2519,12.00873 22.0768,14.32052 63.8443,16.72478 44.6578,2.57063 63.6653,7.6489 85.6476,22.88267 37.9716,26.31438 54.6339,87.98125 35.2264,130.37278 -10.3252,22.55324 -31.4041,44.61139 -53.1579,55.62751 l -17.6264,8.92604 -86.9492,0.92502 c -66.6303,0.70887 -87.8403,0.0314 -90.7627,-2.8983 z"
     id="path2423"
     transform="scale(0.75)" />
  <path
     style="fill:#c48c02;stroke-width:3.05085"
     d="m 2566.4882,547.13221 c -4.9379,-4.93783 -5.5331,-371.87794 -0.6181,-381.06159 2.6454,-4.94305 6.4841,-5.89354 23.644,-5.85441 11.2673,0.0257 22.2124,1.14281 24.3226,2.48248 3.029,1.92299 3.6712,42.85747 3.0508,194.44481 l -0.7858,192.00904 -22.9186,0.87798 c -15.2074,0.58259 -24.1892,-0.39259 -26.6949,-2.89831 z"
     id="path2425"
     transform="scale(0.75)" />
  <path
     style="fill:#c48c02;stroke-width:3.05085"
     d="m 2805.2234,550.62775 c -72.6687,-14.44888 -128.8537,-66.25339 -150.455,-138.72478 -10.3233,-34.63434 -10.7134,-79.67828 -0.9648,-111.3945 17.0803,-55.56907 53.8944,-98.87071 106.0636,-124.75451 26.3997,-13.09829 51.4362,-18.64161 83.963,-18.59022 58.3604,0.0922 99.1621,16.94495 139.9681,57.81237 19.3641,19.39331 28.91,31.88184 37.3948,48.9222 31.016,62.29029 31.0937,133.10291 0.2075,188.84376 -16.8144,30.34489 -51.4591,63.08424 -83.4345,78.84558 -14.2627,7.03038 -34.8559,14.86794 -45.7627,17.41674 -20.8903,4.88191 -66.3265,5.72989 -86.98,1.62336 z m 81.0873,-53.67615 c 24.5199,-7.26959 38.6654,-15.3537 56.6839,-32.39488 32.2879,-30.53651 46.8625,-63.89558 46.7997,-107.11667 -0.064,-44.05274 -13.5937,-77.5299 -42.9375,-106.24285 -80.9141,-79.17433 -213.4603,-41.01451 -242.3138,69.7617 -15.0553,57.80115 9.3469,122.61465 59.1997,157.23761 31.956,22.19364 84.0719,30.16828 122.568,18.75509 z"
     id="path2427"
     transform="scale(0.75)" />
  <path
     style="fill:#c48c02;stroke-width:3.05085"
     d="m 3283.3317,548.89002 c -8.7078,-4.33928 -18.6223,-11.80761 -22.0321,-16.59622 -3.4098,-4.78864 -26.7006,-64.04763 -51.7573,-131.68665 -62.2125,-167.93882 -67.5341,-180.71743 -75.7604,-181.92103 l -6.6633,-0.97491 v 143.70001 c 0,158.4466 0.2763,155.9493 -19.1355,172.99307 -15.3975,13.51919 -53.9554,21.28445 -62.6272,12.61266 -2.1755,-2.17553 -3.661,-12.65412 -3.661,-25.82488 0,-24.00425 3.0263,-28.48021 19.2564,-28.48021 4.0998,0 8.9555,-1.80903 10.7905,-4.02007 2.2825,-2.75024 3.6051,-49.24768 4.1871,-147.20339 0.9606,-161.66426 0.5417,-158.70725 24.7488,-174.72675 10.4418,-6.91002 15.5479,-8.11758 34.3248,-8.11758 20.0872,0 23.1059,0.84221 33.7821,9.42526 6.4481,5.1839 14.6831,14.79407 18.2998,21.35593 3.6168,6.56187 28.8542,73.02389 56.0832,147.69338 27.229,74.6695 52.0985,140.91102 55.2657,147.20339 3.739,7.42842 7.8766,11.44068 11.7982,11.44068 5.9302,0 6.0397,-2.50703 6.0397,-138.25983 0,-113.03649 0.8218,-141.02707 4.5045,-153.42829 7.8781,-26.52828 29.7624,-40.85425 62.4088,-40.85425 21.9775,0 24.6121,3.17905 24.6121,29.69774 0,20.42777 -3.2616,25.21751 -17.1719,25.21751 -20.1083,0 -19.4312,-5.17078 -19.5053,148.94674 -0.075,156.12739 0.2225,153.80728 -22.252,173.54013 -19.9304,17.49909 -41.5399,20.2252 -65.5357,8.26756 z"
     id="path2429"
     transform="scale(0.75)" />
</svg>
