<?xml version="1.0" encoding="utf-8"?>
<!-- Generator: Adobe Illustrator 16.0.3, SVG Export Plug-In . SVG Version: 6.00 Build 0)  -->
<!DOCTYPE svg PUBLIC "-//W3C//DTD SVG 1.1//EN" "http://www.w3.org/Graphics/SVG/1.1/DTD/svg11.dtd">
<svg version="1.1" id="Capa_1" xmlns="http://www.w3.org/2000/svg" xmlns:xlink="http://www.w3.org/1999/xlink" x="0px" y="0px"
	 width="870.244px" height="170.836px" viewBox="0 0 870.244 170.836" enable-background="new 0 0 870.244 170.836"
	 xml:space="preserve">
<g id="Back">
</g>
<g id="Copyright">
</g>
<g id="Border">
</g>
<g id="Nintendo">
</g>
<g id="TM">
</g>
<g id="Donkey_Kong">
	<g id="XMLID_125_">
		<path id="XMLID_192_" fill="#FFFFFF" d="M819.615,1.526c0,0-39.168-6.84-60.84,42.552c-17.28,39.312,5.903,92.016,17.495,111.744
			c2.952,5.039,8.425,7.703,8.425,7.703c2.088,1.439,11.376,2.736,13.607,2.881c2.592,0.359,14.328-0.36,16.92-1.297
			s4.752-2.592,6.624-0.145c1.8,2.448,5.761,3.456,7.271,3.816c5.328,1.224,9.647,1.871,15.191,1.871
			c5.688-0.504,12.024,0.287,14.544-6.623c0,0,8.855-63.793,9.864-71.784c1.008-7.992-2.735-12.6-8.063-14.904
			c-5.328-2.304-34.561-7.92-41.544-8.352c-6.984-0.432-11.376,1.584-14.04,11.736c-2.664,10.007-2.088,14.832-1.872,18.072
			c0.216,3.313,2.376,7.992,6.84,9.721c4.536,1.729,5.688,2.159,5.112,4.248c-0.576,2.159-3.673,3.959-8.353,1.729
			c-4.752-2.305-7.704-12.889-7.345-22.969c0.433-10.007,1.584-23.473,7.416-33.191c5.832-9.792,11.736-11.16,16.057-2.304
			c0,0,2.521,7.272,10.225,8.424c7.775,1.152,22.823,3.528,26.496,3.456c3.6-0.144,12.096-3.456,10.367-16.2
			c-1.729-12.672-7.344-24.84-14.328-32.832C848.703,10.814,833.008,2.678,819.615,1.526z"/>
		<path id="XMLID_189_" fill="#2D0103" d="M816.88,6.926c10.008,0.72,29.951,6.84,38.088,21.168
			c8.208,14.256,9.288,25.056,9.359,27.288c0.145,2.232-0.576,8.136-10.296,6.264c-9.792-1.944-14.328-1.656-16.128-2.088
			c-1.872-0.432-5.761-0.504-7.632-4.248c-1.872-3.816-6.48-9.936-12.097-10.872s-11.664,2.304-16.775,11.304
			c-5.185,8.928-10.944,37.656-6.624,50.615c4.319,12.89,9.72,14.4,12.96,14.762c3.239,0.432,14.185-1.368,14.76-10.008
			c0.504-8.568-7.92-7.272-10.296-8.784c-2.448-1.513-2.664-4.177-2.231-7.704c0.433-3.456,1.872-13.104,2.088-14.472
			c0.145-1.368,0.288-5.688,7.561-5.04c7.271,0.576,34.849,5.832,38.017,7.272c3.096,1.368,5.977,2.52,4.464,10.584
			c-1.513,8.137-8.855,65.736-8.855,65.736c-0.288,0.07-1.225,3.888-5.04,5.328c-4.248,1.584-10.943,0-12.313,0
			c-2.88-0.576-5.544-1.297-7.775-1.944s-2.231-1.296-2.881-2.664c-0.648-1.368-1.079-3.6-2.447-3.888
			c-1.368-0.36-5.111,1.439-8.137,2.304c-3.096,0.864-25.271,7.92-43.271-14.112c-18-22.031-9.071-89.567-8.64-89.423
			c0.504,0.072,7.848-16.848,9.647-20.016s10.512-16.2,17.063-19.728C795.999,11.03,805.575,6.062,816.88,6.926z"/>
		<path id="XMLID_171_" fill="#F82401" d="M853.096,56.246c2.735,0.36,5.977,1.08,5.111-3.6
			c-0.792-4.752-3.815-33.408-38.304-39.168c-34.561-5.76-47.736,36.36-48.456,39.312c-0.647,2.952,9.647,91.512,9.647,91.512
			s9.359,9.072,17.784,9.792c8.424,0.721,13.176-1.08,16.487-1.943c3.313-0.937,9.647-5.688,13.319,0.145
			c3.673,5.904,3.961,7.632,13.32,7.416c9.433-0.288,8.136-14.615,8.136-14.615s7.2-49.033,7.345-51.841
			c0.145-2.88,0.72-4.176-3.528-5.399c-4.248-1.08-28.512-6.913-31.535-7.127c-3.097-0.216-5.185-0.432-5.761,5.4
			c-0.647,5.761-0.863,5.688-1.151,7.776c-0.217,2.088-0.288,3.527,3.815,5.398c4.104,1.872,6.265,1.656,7.775,4.68
			c1.439,2.953,2.16,10.226-2.735,16.992c-4.896,6.77-17.567,10.08-26.063,3.385c-8.496-6.769-12.168-22.176-11.16-36.937
			c1.009-14.76,6.192-34.128,12.385-40.392c6.191-6.192,12.239-9.576,19.8-8.352c7.632,1.296,12.744,6.984,13.896,9.432
			c1.08,2.376,2.664,5.112,5.328,5.976C841.216,54.95,853.096,56.246,853.096,56.246z"/>
		<g id="XMLID_167_">
			<path id="XMLID_170_" fill="#FFFFFF" d="M397.191,4.334c0,0,17.712-1.008,22.031-0.216c4.393,0.792,9.433,2.664,12.024,12.312
				c2.52,9.648,5.616,20.16,5.904,22.104c0.288,2.016,0.936,3.816,2.159,0.504c1.297-3.24,9.721-24.48,11.305-27.216
				c1.584-2.736,4.536-5.184,9.792-5.4c5.328-0.216,29.088-0.792,33.12-0.576c4.031,0.216,14.472,5.688,7.632,18.936
				c-6.912,13.248-35.712,66.024-38.017,69.84c-2.304,3.744-2.521,7.992-2.231,10.944c0.216,2.951,3.313,40.68,3.456,46.15
				c0.216,5.545-3.815,12.528-11.735,12.602c-7.849,0.144-29.665-0.36-32.76-0.36c-3.096,0-11.952-1.008-11.088-18.504
				c0.936-17.496,3.888-39.744,4.176-44.208s-4.896-11.88-4.896-11.88l-26.353-50.833L397.191,4.334z"/>
			<path id="XMLID_169_" fill="#2D0103" d="M460.336,12.686c0,0-3.313-0.648-6.841,7.776c-4.104,9.72-9.288,24.48-10.655,26.928
				c-1.297,2.376-7.775,7.272-11.017-3.024c-3.384-10.872-6.984-26.64-7.632-28.512c-0.648-1.944-1.44-5.472-7.272-5.688
				c-5.904-0.216-16.704,0.504-16.704,0.504s-7.344,35.424-6.84,36.792s7.992,11.736,7.992,11.736s16.488,32.976,16.92,34.344
				c0.504,1.438,1.584,3.744,0.792,8.64c-0.864,4.896-5.544,22.608-5.544,22.608s6.12,31.681,7.128,32.185
				c1.008,0.575,3.24,0.433,6.84,0.647c3.672,0.216,22.248,1.296,24.984,1.296c2.735-0.072,5.688-1.296,5.472-7.2
				c-0.216-5.976-3.672-49.392-3.672-51.479s1.439-4.753,2.736-7.058c1.296-2.23,29.447-51.264,38.664-72.072
				c2.304-5.184,1.151-9.792-6.12-9.36C482.296,12.11,460.336,12.686,460.336,12.686z"/>
			<path id="XMLID_168_" fill="#F82401" d="M452.991,148.189c-0.145,4.031,1.368,5.545-2.304,6.119
				c-3.744,0.576-24.12-0.72-24.12-0.72l-3.528-40.968c0,0,1.224-8.568,1.656-11.521c0.432-3.022,0.576-6.552-0.576-8.783
				c-1.225-2.159-15.048-26.063-15.048-26.063l-5.616-9.864V44.942l-0.072-29.88c0,0,10.368,0.432,12.24,0.648
				s4.68,0.36,6.264,6.912c1.656,6.624,6.408,23.256,7.272,25.776c0.864,2.592,4.032,6.408,9.072,6.912
				c5.184,0.432,8.855-2.016,9.936-4.68c1.08-2.592,9.864-24.48,11.305-27.504c1.439-3.024,1.225-5.4,7.487-5.688
				c6.265-0.216,19.297,0.36,21.24,0.36c1.872-0.072,4.176-0.504,1.8,3.528c-2.376,3.96-19.728,39.168-23.399,46.944
				c-3.743,7.704-11.809,22.248-13.319,24.552c-1.439,2.304-3.528,5.902-3.384,9.72C449.968,106.43,452.991,148.189,452.991,148.189
				z"/>
		</g>
		<g id="XMLID_163_">
			<path id="XMLID_166_" fill="#FFFFFF" d="M329.224,66.974l7.416,36.502l11.88,60.77c0,0,1.584,3.456,5.544,3.888
				c3.96,0.433,10.152-0.575,10.152-0.575s58.248-10.08,61.272-10.801c3.023-0.72,8.279-3.816,6.768-13.968
				s-4.392-26.567-5.256-29.16c-0.864-2.592-6.552-9.144-14.976-6.552c-8.496,2.592-16.849,4.535-19.584,5.111
				s-4.968,2.881-6.552-1.729c-1.512-4.68-2.232-2.664-1.512-4.68c0.648-2.018,1.224-4.248,4.464-3.961
				c3.312,0.289,19.368-0.145,22.464-2.016c3.024-1.943,7.776-4.896,6.192-13.32c-1.656-8.497-3.384-19.873-4.248-23.472
				c-0.864-3.528-4.176-10.728-15.48-8.28c-11.304,2.376-12.24,3.384-15.264,3.888c-2.952,0.504-4.32,0.216-4.752-2.016
				c-0.432-2.304-0.648-6.624,5.76-6.336c6.336,0.216,14.904,2.448,20.088,0.792c5.185-1.728,8.856-6.336,7.704-12.816
				c-1.151-6.48-4.319-23.688-6.264-28.944c-1.944-5.184-4.536-8.424-14.184-7.776c-9.72,0.648-43.2,5.904-46.8,9.144
				c-3.6,3.24-16.56,48.456-16.56,48.456L329.224,66.974z"/>
			<path id="XMLID_165_" fill="#2D0103" d="M332.319,49.478l14.256,81.577l8.568,32.543c0,0,31.464-6.19,38.16-7.056
				c6.624-0.864,23.4-4.176,26.64-4.824c3.239-0.72,6.84-0.647,5.688-8.063c-1.224-7.416-4.176-22.68-4.896-26.641
				c-0.792-4.031-3.744-4.68-9.576-3.168s-18.504,4.608-21.24,5.186c-2.736,0.574-7.992,1.512-9.936-4.465
				c-2.016-5.903-1.728-9.217-1.584-11.809c0.072-2.592,2.16-5.256,6.84-6.048c4.752-0.864,17.208-1.08,20.88-1.44
				c3.672-0.358,5.976-2.016,4.896-7.99c-1.008-5.904-3.527-19.8-4.104-22.608c-0.576-2.736-2.88-5.184-8.856-3.96
				c-6.048,1.296-15.336,3.456-18.432,4.176c-3.024,0.72-7.128,1.008-8.064-5.184c-1.008-6.192-0.792-9.288-0.432-10.656
				c0.288-1.296,2.448-4.392,6.912-4.104s19.944,0.504,22.032,0.72c2.088,0.288,5.903-1.944,4.104-8.568
				c-1.8-6.624-3.888-20.736-4.752-24.984c-0.936-4.32-2.952-4.968-7.776-4.68c-4.896,0.36-39.528,6.696-39.528,6.696
				L332.319,49.478z"/>
			<path id="XMLID_164_" fill="#F82401" d="M339.808,56.462l16.704,96.912c0,0-0.72,4.176,0.432,4.392
				c1.08,0.289,6.84-0.791,6.84-0.791s50.328-8.063,53.64-8.713c3.24-0.72,4.896,0.36,3.744-5.111
				c-1.08-5.545-2.736-17.137-3.528-20.881c-0.863-3.814-1.943-4.248-6.695-3.238c-4.752,1.08-18.216,5.615-20.017,5.976
				c-1.728,0.288-4.968,1.009-7.92-0.864c-2.88-1.871-5.112-2.664-6.408-8.424s-2.592-9.646-2.88-15.695
				c-0.144-3.743,5.544-7.344,8.208-7.487c2.592-0.072,20.088-1.296,22.32-1.513c2.16-0.217,3.456-0.647,3.096-4.104
				c-0.432-3.384-2.88-16.776-3.672-19.584c-0.792-2.88-2.448-1.8-4.68-1.368c-2.232,0.432-15.912,4.752-17.64,5.04
				c-1.728,0.36-6.984,2.232-10.44-2.376c-3.456-4.608-3.816-10.44-3.816-10.44s-0.936-6.408-0.792-10.224
				c0.144-3.744,3.456-6.624,7.632-7.056c4.608-0.576,21.312-0.144,23.832,0.216c2.521,0.288,2.017-1.512,1.584-3.744
				c-0.432-2.232-3.815-20.952-4.104-22.896c-0.288-1.944-1.368-2.232-7.56-1.512c-6.12,0.792-33.912,6.336-33.912,6.336
				L339.808,56.462z"/>
		</g>
		<g id="XMLID_159_">
			<path id="XMLID_162_" fill="#FFFFFF" d="M253.768,7.718c0,0,0.792-5.544,8.208-5.256s24.984,3.384,28.44,4.32
				c3.456,0.936,10.368,6.192,9.216,14.832c-1.224,8.64-1.728,17.136-1.872,18.504c-0.144,1.44,0.36,2.52,1.656-0.216
				c1.224-2.736,9.504-20.808,11.448-24.336c1.944-3.528,5.904-7.056,10.584-6.48c4.608,0.576,25.992,2.592,28.872,3.24
				c2.88,0.72,15.984,2.448,7.56,19.728c-8.424,17.352-25.92,48.384-26.136,50.76c-0.216,2.304,1.224,6.409,2.304,9.504
				c1.008,3.096,23.256,55.654,25.128,59.902c1.872,4.248,1.368,15.408-8.712,15.696c-10.08,0.216-36.648-0.433-39.24-0.864
				c-2.664-0.504-8.424-1.512-10.728-9.792c-2.232-8.352-7.344-31.032-7.344-31.032s-1.224,24.912-3.672,30.744
				c-2.448,5.762-4.968,7.776-13.392,6.912c-8.424-0.792-17.928-2.951-17.928-2.951l-5.688-83.088l-7.128-56.232L253.768,7.718z"/>
			<path id="XMLID_161_" fill="#2D0103" d="M256.432,12.686c0,0,2.736-6.264,8.064-4.68c5.4,1.512,21.168,3.528,24.048,4.248
				c2.88,0.648,5.544,1.584,4.608,9.648c-0.864,8.064-2.448,24.552-2.376,27.936c0,3.312,4.32,9.432,9.792,1.152
				c5.4-8.352,13.32-29.016,14.4-30.96c1.08-2.016,2.16-6.192,9.072-5.112c6.912,1.152,21.312,2.376,25.704,3.384
				c4.392,1.008,6.912,3.816,2.664,12.024c-4.32,8.28-23.904,47.88-24.912,50.4c-1.08,2.448-2.52,4.032,0,10.368
				c2.448,6.48,24.12,57.816,25.848,62.354c1.656,4.535,0.36,10.08-4.32,9.646c-4.68-0.432-31.968-0.792-35.568-1.152
				c-3.6-0.287-5.976-0.215-7.776-7.127c-1.728-6.983-8.208-37.584-9.144-42.625c-0.936-4.967-8.208-5.184-8.784,2.81
				s-2.952,38.017-3.312,39.384c-0.288,1.368-1.08,5.616-7.272,4.68c-6.12-0.936-11.16-2.088-11.16-2.088L254.056,54.446
				L256.432,12.686z"/>
			<path id="XMLID_160_" fill="#F82401" d="M271.264,152.006c0.864,0.217,4.32,0.936,5.904,1.296s1.296-0.647,1.728-3.384
				c0.36-2.809,2.952-36.863,3.384-40.824c0.432-3.96,6.48-6.623,10.512-6.408c4.032,0.217,8.856,3.024,9.576,7.2
				c0.72,4.248,8.352,39.673,9.36,42.552c1.008,2.81,2.304,3.602,4.392,3.816c2.088,0.288,27.72,0.864,29.952,0.648
				c2.16-0.146,4.68,1.367,2.664-3.168c-2.088-4.536-25.128-60.266-26.28-62.642c-1.152-2.376-0.864-7.56,0.504-10.296
				c1.296-2.808,22.896-47.088,24.624-51.264c1.656-4.104,3.816-6.264-0.648-6.768c-4.392-0.576-18.072-2.52-21.168-2.52
				c-3.096,0-3.96,0.792-5.688,4.176c-1.728,3.456-12.816,28.872-14.472,31.824c-1.656,2.952-5.76,5.4-11.52,4.32
				c-5.688-1.08-7.92-6.12-7.848-9.432c0.072-3.384,2.16-28.224,2.16-30.312c0-2.16-0.288-3.96-3.456-4.68
				c-3.168-0.72-15.984-2.232-18.072-2.448c-2.088-0.216-5.184-2.376-6.12,6.768c-0.864,9.072-8.856,55.512-8.856,55.512
				l2.088,61.776L271.264,152.006z"/>
		</g>
		<g id="XMLID_155_">
			<path id="XMLID_158_" fill="#FFFFFF" d="M688.646,8.798c5.04-1.224,12.169,0.216,16.345,6.912
				c4.176,6.696,15.695,23.184,17.063,25.416c1.439,2.232,3.023,3.528,1.801-1.512c-1.225-5.112-3.673-16.416-3.456-22.536
				c0.216-6.192,2.735-10.872,9.575-12.384c6.769-1.584,20.088-4.248,23.688-4.608c3.673-0.36,12.96-0.144,15.192,12.096
				c2.231,12.168,18.647,103.032,20.159,117.289c1.513,14.184,5.04,22.896-11.664,25.703c-16.632,2.881-17.136,3.96-20.664,3.889
				c-3.6-0.071-5.256,0-10.151-5.688c-4.968-5.616-17.928-26.063-17.928-26.063s3.672,22.319,3.672,25.703
				c-0.072,3.313-1.513,10.656-10.008,12.24c-8.496,1.656-10.584,1.439-13.824,2.088c-3.24,0.721-15.408,3.672-18.288,3.744
				c-2.88,0-8.712-1.8-11.376-8.855c-2.664-7.057-6.769-39.313-6.769-39.313l12.24-36.72l-7.776-50.544l0.433-23.544L688.646,8.798z
				"/>
			<path id="XMLID_157_" fill="#2D0103" d="M682.743,16.79c0,0,5.328-1.368,7.632-2.088c2.305-0.648,5.473-2.088,9.864,4.896
				c4.393,6.984,16.92,25.128,19.584,28.368c2.592,3.24,5.832,8.784,8.712,7.776c2.88-1.08,4.248-2.88,1.729-17.064
				c-2.447-14.184-3.456-14.184-3.815-19.728c-0.359-5.616,1.439-8.28,6.191-9.36c4.824-1.08,18.359-3.888,20.809-4.32
				c2.521-0.36,7.775-0.576,9.433,7.92c1.655,8.496,20.376,118.512,21.168,125.424c0.792,6.84-1.225,9.504-5.328,10.655
				c-4.104,1.225-15.048,3.239-17.855,4.031c-2.809,0.792-5.977,2.232-10.584-3.814c-4.607-6.049-18.864-31.32-20.88-33.912
				c-2.017-2.664-9.721-4.608-8.425,4.248c1.297,8.928,4.536,28.296,5.185,31.535c0.721,3.24-0.288,7.775-8.279,9.072
				c-7.921,1.295-19.439,2.521-23.761,3.672c-4.319,1.151-8.783,1.801-10.08-5.903c-1.367-7.704-5.688-30.456-5.688-30.456
				l13.753-39.168l-4.824-41.616L682.743,16.79z"/>
			<path id="XMLID_156_" fill="#F82401" d="M687.928,21.326c0,0,4.464-3.744,8.353,2.16c3.888,5.904,21.601,31.68,23.903,34.344
				c2.231,2.664,7.057,5.472,13.177,2.808c6.12-2.664,4.607-9.432,4.176-12.888c-0.433-3.456-3.456-23.472-4.176-26.784
				c-0.648-3.24-0.145-4.536,4.464-5.904c4.607-1.296,12.744-3.528,14.977-3.744c2.159-0.216,4.031,0.216,5.04,5.256
				c0.937,4.968,9.287,46.8,11.664,59.472c2.304,12.672,9.216,56.736,9.359,61.128c0.216,4.32,1.368,6.768-4.032,8.354
				c-5.399,1.654-11.735,2.304-13.536,2.662c-1.728,0.289-3.743,2.018-7.487-3.672c-3.744-5.615-17.641-28.367-19.872-31.248
				c-2.159-2.879-5.04-6.912-11.663-5.328c-6.553,1.586-7.776,7.776-7.2,11.736c0.504,3.961,4.176,29.592,4.68,30.672
				c0.433,1.08,2.017,4.752-4.247,5.041c-6.265,0.215-18.576,2.879-20.881,3.313c-2.231,0.432-4.607,2.52-5.76-3.96
				s-8.784-33.554-8.784-33.554l11.088-54.432l-10.872-39.312L687.928,21.326z"/>
		</g>
		<g id="XMLID_148_">
			<path id="XMLID_154_" fill="#FFFFFF" d="M608.871,159.206c0,0,6.696,5.328,15.769,7.416c9.071,2.088,22.824,2.664,32.761-0.937
				c9.863-3.601,17.928-7.487,25.271-14.473c7.271-6.912,20.159-29.736,24.119-49.68c3.96-19.872,7.633-42.336-12.239-73.944
				c-18.504-29.52-61.128-26.28-74.017-15.336l-41.399,73.152L608.871,159.206z"/>
			<path id="XMLID_153_" fill="#2D0103" d="M654.447,10.31c-7.704-1.152-24.769,0.216-35.353,11.16
				c-10.655,10.944-24.769,47.664-24.769,47.664s18.937,79.921,20.088,80.353c1.152,0.433,5.544,12.097,17.064,12.961
				c0,0,17.64,3.888,35.279-6.553c17.712-10.439,21.384-21.097,23.399-26.209c1.943-5.11,10.513-25.92,11.448-33.479
				c0,0,3.455-28.152-2.232-44.424c-5.615-16.272-13.464-27.432-21.672-32.616C669.567,13.91,662.151,11.462,654.447,10.31z"/>
			<path id="XMLID_152_" fill="#F82401" d="M618.375,30.326c0,0,17.784-19.152,39.024-13.752
				c21.239,5.328,25.487,14.904,30.384,23.688c4.896,8.712,10.8,33.048,7.992,51.624c-2.881,18.72-11.017,50.04-31.608,58.681
				c-20.592,8.713-28.872,6.049-28.872,6.049L588.928,85.91c0,0,9.288-53.064,11.809-52.488
				C603.256,33.998,618.375,30.326,618.375,30.326z"/>
			<path id="XMLID_151_" fill="#2D0103" d="M656.104,36.302c-5.184-1.008-10.871,0.36-14.039,5.688
				c-3.097,5.4-8.568,15.12-9.072,16.128c-0.576,0.936-1.225,1.152-2.88,0.72c-1.656-0.36-10.296-3.096-12.96-3.24
				s-4.752,0.648-7.057,4.392c-2.305,3.816-3.815,16.056-3.815,16.056s6.048,8.856,7.128,10.368c1.08,1.439,1.225,2.447,0.504,3.527
				c-0.792,1.151-3.168,5.977-3.168,5.977l16.775,25.632c0,0,7.92-3.384,8.855-3.815c0.864-0.433,1.801-1.008,3.313,0.721
				c1.513,1.8,9,11.304,11.736,13.536c2.664,2.231,8.641,5.832,16.487,1.728c7.775-4.104,6.12-15.048,6.048-16.128
				c-0.071-1.151,0.072-16.271-0.071-17.208c-0.071-1.008,0.145-1.872,1.368-2.447c1.224-0.504,10.943-3.961,12.96-5.615
				c1.943-1.584,4.536-5.4,4.319-9.792c-0.288-4.32-3.384-10.44-8.641-12.312c-5.328-1.872-12.023-3.384-12.888-3.6
				c-0.937-0.216-1.872-0.864-2.017-2.376c-0.359-3.384-1.225-12.888-1.513-17.064C666.903,39.254,660.424,37.166,656.104,36.302z"
				/>
			<path id="XMLID_150_" fill="#FFFFFF" d="M655.023,41.198c-4.104-0.792-8.208,2.232-10.225,5.616
				c-2.017,3.312-8.496,14.112-9.288,15.552c-0.792,1.368-0.647,2.664-4.319,2.016c-3.601-0.72-11.521-2.952-14.185-3.24
				s-6.912,1.728-7.776,3.456c-0.863,1.728-1.8,5.472,1.656,10.08c3.384,4.608,7.2,10.08,8.063,11.232
				c0.864,1.08,0.792,2.664,0.288,3.527s-6.265,9.359-6.265,9.359l11.305,17.424c0,0,11.016-5.111,12.239-5.472
				c1.225-0.36,2.952-1.224,3.961,0.576c1.079,1.872,10.728,13.104,12.96,15.264c2.231,2.088,6.624,4.392,10.224,2.017
				c3.528-2.377,4.393-5.399,4.104-11.809c-0.287-6.479-0.792-16.775-0.72-18.359c0-1.584-0.576-3.097,1.367-3.815
				c1.872-0.647,11.88-5.399,14.688-6.624c2.88-1.225,3.815-4.68,3.239-6.984c-0.576-2.376-2.448-5.4-4.681-6.048
				c-2.231-0.648-14.688-3.96-15.911-4.248c-1.225-0.288-2.305-0.216-2.593-2.664c-0.216-2.448-1.729-17.28-2.088-20.088
				C660.783,45.158,658.552,41.774,655.023,41.198z"/>
		</g>
		<g id="XMLID_144_">
			<path id="XMLID_147_" fill="#FFFFFF" d="M525.136,10.598c-4.032,0.36-11.16,3.456-10.872,12.024
				c0.288,8.496,8.208,129.456,9.576,134.063c1.296,4.607,1.943,12.889,14.615,11.809s28.729-3.098,31.177-3.313
				c2.447-0.289,9.359-3.815,8.063-16.201c-1.368-12.383-2.16-23.398-2.16-23.398s9.647,23.398,12.815,29.52
				c3.24,6.121,4.752,7.92,14.904,7.416c10.151-0.576,27.216-2.088,35.353-3.526c8.136-1.513,8.928-11.81,5.184-17.784
				c-3.743-5.977-31.968-51.77-34.128-55.368c-2.159-3.672-1.584-5.616-0.863-8.136c0.792-2.52,12.888-50.904,14.615-56.088
				c2.448-7.2-0.071-17.64-9.144-17.064c0,0-27.505,2.52-32.04,3.024c-4.608,0.576-9.288,1.368-11.16,12.6
				c-1.944,11.16-4.536,18.864-4.536,18.864s-1.439-14.4-2.735-21.312c-1.296-6.984-4.969-10.368-13.248-9.72
				C542.344,8.654,525.136,10.598,525.136,10.598z"/>
			<path id="XMLID_146_" fill="#2D0103" d="M551.415,13.406c-3.743,0.36-9.575,0.864-11.231,1.08
				c-1.655,0.288-10.225,0.72-12.815,0.936c-2.591,0.216-7.849,0.072-7.128,8.856c0.72,8.784,8.712,127.583,9.145,131.184
				s-0.504,8.28,10.439,7.128s23.977-2.447,26.208-2.592c2.305-0.072,6.696,0.145,5.473-9.072
				c-1.225-9.216-2.664-28.152-3.023-34.271c-0.433-7.562,6.264-9.864,9.359-1.872c0,0,13.177,33.768,15.407,37.654
				c2.305,3.816,3.96,5.186,8.354,4.752c4.392-0.432,22.176-2.446,24.768-2.592c2.592-0.216,12.816-0.432,13.607-4.535
				c0.793-4.104-2.447-8.713-6.623-14.76c0,0-26.496-41.545-29.377-48.313c-2.951-6.625-1.367-7.2,0.36-12.528
				c1.655-5.4,14.327-54.36,14.399-58.176c0.071-3.816-1.225-6.984-5.832-6.624c-4.536,0.432-25.128,2.736-28.368,2.88
				c-3.239,0.216-6.12-0.864-8.136,9.144c-1.944,10.08-5.688,26.928-6.912,29.664c-1.296,2.736-7.849,6.912-8.784-3.312
				c-1.008-10.296-2.664-28.152-3.168-30.672C556.959,14.846,555.447,13.046,551.415,13.406z"/>
			<path id="XMLID_145_" fill="#F82401" d="M543.855,156.83c-2.952,0.288-8.064,2.952-8.856-4.176
				c-0.72-7.057-7.703-121.608-7.92-125.712c-0.288-4.104,0.647-5.112,4.32-5.472c3.672-0.36,16.344-1.512,18.071-1.584
				c1.655-0.072,3.889-0.504,4.536,5.112s0.937,22.896,2.088,26.28c1.151,3.384,3.313,9.576,10.225,9.72
				c6.84,0.144,8.712-4.896,9.792-8.496c1.08-3.528,5.903-26.784,6.408-29.088c0.575-2.232,1.512-4.392,3.743-4.896
				c2.305-0.432,20.376-2.232,22.607-2.448c2.16-0.216,5.904-2.016,3.889,5.688c-1.943,7.632-13.032,51.696-14.111,56.448
				c-1.08,4.824-1.44,6.408,0,9.288c1.512,2.951,32.04,52.199,34.271,56.088c2.159,3.814,1.943,4.968-2.017,5.473
				c-3.96,0.575-23.328,1.871-25.849,2.231c-2.448,0.358-6.191,2.159-8.855-6.12c-2.664-8.208-12.601-30.527-13.969-33.77
				c-1.439-3.168-5.76-6.047-10.728-5.326c-4.969,0.791-7.561,4.752-7.2,9.574c0.288,4.896,2.16,30.168,2.735,33.842
				c0.576,3.742-0.216,4.968-4.104,5.256C559.048,155.102,543.855,156.83,543.855,156.83z"/>
		</g>
		<g id="XMLID_140_">
			<path id="XMLID_143_" fill="#FFFFFF" d="M162.111,10.382c0,0,17.64-2.52,20.88-2.88c3.312-0.36,11.376-1.08,16.416,7.56
				c5.04,8.64,13.752,22.752,14.616,23.904c0.864,1.152,2.664,5.04,2.088,0c-0.648-5.112-2.664-16.2-2.664-22.464
				c-0.072-6.192,5.832-11.664,10.368-12.096c4.536-0.36,23.544-2.736,26.784-2.952c3.24-0.144,11.52,1.872,13.248,13.248
				c1.656,11.376,5.472,40.608,6.192,45.864c0.72,5.256,2.88,30.528,3.312,36.864c0.504,6.266,1.008,16.562,1.44,20.809
				c0.504,4.248,3.6,25.561,3.384,27.721c-0.144,2.16-1.296,12.096-14.256,14.398c-12.96,2.306-14.976,2.81-18.648,2.736
				c-3.672-0.072-9.864,0-12.672-5.256c-2.736-5.256-16.128-30.96-16.128-30.96s2.736,24.048,3.168,27.937
				c0.36,3.959-4.392,9.504-10.728,10.656c-6.336,1.079-29.016,3.527-32.184,3.455c-3.168-0.144-12.672-3.6-12.672-12.023
				s16.272-55.801,16.056-56.375c-0.144-0.506-12.096-81-12.096-81L162.111,10.382z"/>
			<path id="XMLID_142_" fill="#2D0103" d="M169.6,15.134c0,0,14.472-1.368,17.064-1.224c2.52,0.072,4.608,1.224,7.848,5.76
				c3.312,4.608,17.712,30.024,20.88,33.48s9.072,4.896,8.28-4.824c-0.792-9.72-4.032-28.944-3.816-30.816
				c0.288-1.8-0.576-6.48,6.408-7.128c6.984-0.576,19.224-1.656,21.672-1.872c2.376-0.216,9.216-1.368,10.728,12.168
				c1.512,13.536,5.832,49.608,6.048,52.2c0.144,2.592,3.672,47.593,4.392,53.784c0.648,6.191,2.088,18,2.232,20.088
				s-1.656,5.688-6.264,7.057c-4.608,1.295-16.704,3.313-19.152,3.527c-2.376,0.288-5.544,0.792-8.496-3.816
				c-2.88-4.68-16.992-34.99-18.936-38.951c-1.944-3.889-9.576-4.104-9,4.681c0.504,8.712,3.168,24.407,3.168,30.672
				c0,6.192-0.144,9.504-6.048,10.224c-5.904,0.721-12.096,0.721-15.84,1.152c-3.744,0.359-11.52,1.512-13.68,1.152
				c-2.16-0.36-7.272-2.16-6.336-9.864c1.008-7.776,11.088-50.328,11.088-50.328l-4.248-52.2L169.6,15.134z"/>
			<path id="XMLID_141_" fill="#F82401" d="M175.936,144.95c0,0,0.72,8.352,0.72,9.504c-0.072,1.224,0.216,4.104,5.616,3.456
				s20.16-2.305,21.888-2.664c1.728-0.288,4.752,0.145,4.032-5.977c-0.792-6.119-2.52-26.641-3.168-31.104
				c-0.648-4.394,3.456-9.937,8.64-10.656c5.184-0.719,9.864,3.744,11.232,7.345c1.296,3.672,14.112,30.959,15.336,32.903
				s3.6,4.177,6.48,4.104c2.88,0,11.952-2.018,14.688-2.594c2.808-0.574,5.112,0.721,4.32-9.504
				c-0.72-10.222-10.945-117.79-12.313-122.182c-1.44-4.392-3.672-3.744-5.832-3.744c-2.16,0-15.552,1.008-17.424,1.008
				c-1.944,0.072-3.96,0.576-3.528,5.904s2.736,25.488,3.312,28.224c0.576,2.736-1.152,10.224-5.616,11.16
				c-4.536,0.864-8.064,1.728-13.104-5.616c-4.968-7.416-16.992-27.792-18.792-30.384c-1.8-2.52-2.232-4.824-7.2-4.968
				c-5.04-0.216-13.176,1.008-13.176,1.008s-2.304,78.984-1.728,79.561C170.896,100.382,175.936,144.95,175.936,144.95z"/>
		</g>
		<g id="XMLID_133_">
			<path id="XMLID_139_" fill="#FFFFFF" d="M120.352,3.542c5.616-1.224,14.184-5.112,30.312,0.144
				c16.056,5.256,26.352,15.768,33.264,24.624c6.912,8.856,12.168,26.568,13.896,44.64c1.728,18,0.144,50.472-15.912,70.417
				c-16.056,19.943-39.312,24.695-53.496,23.472c-14.184-1.223-29.232-7.991-39.384-18.216
				c-10.224-10.225-0.648-104.04-0.648-104.04l4.752-20.88c0,0,1.44-3.672,4.608-7.056C100.912,13.334,113.295,5.198,120.352,3.542z
				"/>
			<path id="XMLID_138_" fill="#2D0103" d="M97.167,27.662c0,0,16.56-22.032,40.752-19.44c24.12,2.52,36.072,16.56,40.104,24.048
				c3.96,7.56,13.464,27.864,13.248,49.536c-0.216,21.601-3.744,48.024-20.952,64.656c-17.136,16.56-36.504,14.544-46.584,13.536
				c-10.008-0.938-25.272-9.864-29.808-16.848c-4.464-6.984-6.768-46.01-6.768-46.01L97.167,27.662z"/>
			<path id="XMLID_137_" fill="#F82401" d="M102.063,33.782c0,0,10.152-20.376,34.2-20.088c24.12,0.216,35.712,19.368,37.584,22.68
				c1.872,3.312,20.232,36.864,8.856,77.903c-11.304,41.111-47.016,41.761-57.528,40.607c-10.44-1.224-25.344-9.432-28.656-17.855
				C93.208,128.678,102.063,33.782,102.063,33.782z"/>
			<path id="XMLID_136_" fill="#2D0103" d="M111.64,56.534c0,0,2.304,1.44,3.744,1.584c1.368,0.072,2.448,0.576,4.176-3.6
				c1.656-4.176,6.624-18.792,10.08-20.16c3.384-1.368,4.968-2.88,9.432-2.592c4.464,0.288,9.504,1.224,12.384,7.344
				c2.88,6.192,5.04,15.768,5.832,18.576s1.44,3.888,4.032,4.248c2.52,0.36,14.472,0.432,17.064,4.608
				c2.664,4.176,5.256,10.512,2.304,15.12c-2.952,4.536-8.712,8.64-11.376,10.943c-2.664,2.231-3.168,1.367-2.52,5.832
				s3.888,15.265,3.528,20.881c-0.288,5.688-3.456,11.158-7.776,13.248c-4.32,2.158-8.64,2.088-14.04-1.297
				c-5.472-3.385-11.232-9.217-13.824-11.735c-2.52-2.521-2.232-1.513-6.192,0c-3.888,1.512-11.088,5.616-14.976,5.903
				c-3.888,0.287-9.792,1.08-9.792,1.08l11.448-39.385L111.64,56.534z"/>
			<path id="XMLID_135_" fill="#FFFFFF" d="M113.295,63.59c0,0,0.072,0,0.288,0.072c1.08,0.144,4.464,0.72,5.328,0.864
				c1.008,0.072,1.944,0.792,3.096-2.16c1.152-2.952,4.176-12.456,7.056-17.856c2.952-5.4,5.4-7.704,9.36-7.272
				c3.96,0.432,6.696,2.448,8.208,6.84c1.512,4.464,5.76,19.152,6.048,20.448c0.36,1.224,0,2.232,2.736,2.592
				c2.808,0.432,10.368,1.224,13.752,1.728c3.312,0.504,10.44,7.632,3.816,12.96c-6.552,5.185-10.8,8.424-11.88,9.145
				c-1.152,0.72-2.376,0.863-1.656,4.031c0.72,3.168,3.456,20.881,4.104,23.903c0.576,2.952-1.584,7.272-4.608,8.496
				s-6.552,1.584-10.728-2.159c-4.176-3.673-12.096-11.449-14.184-13.104c-2.16-1.729-2.736-1.584-4.968-0.216
				c-2.232,1.438-15.768,8.352-19.08,8.64c-3.312,0.36,3.384-43.92,3.384-43.92L113.295,63.59z"/>
		</g>
		<g id="XMLID_126_">
			<path id="XMLID_132_" fill="#FFFFFF" d="M0.543,33.71c-0.792-4.032-2.664-15.264,11.52-20.448
				c14.256-5.184,39.6-10.872,56.232-6.12c16.56,4.752,46.8,22.248,49.32,70.272c2.52,47.952-23.832,71.208-26.928,74.447
				c-3.168,3.313-17.136,10.729-30.24,14.615c-13.176,3.816-17.856,6.121-24.984,2.664c-7.2-3.384-8.496-7.632-10.512-16.056
				C22.936,144.662,0.543,33.71,0.543,33.71z"/>
			<path id="XMLID_131_" fill="#2D0103" d="M8.175,33.854c0.792,3.456,13.32,64.007,14.832,71.496
				c1.44,7.488,8.712,46.584,9.072,47.736c0.36,1.225,1.152,6.984,5.4,9.359c4.176,2.447,5.832,2.16,12.312,0.433
				c6.408-1.655,22.32-5.832,30.24-11.231c7.92-5.328,24.552-22.393,29.52-52.92c4.896-30.528-8.208-59.977-13.608-65.809
				c-5.328-5.832-21.528-20.664-40.608-20.736c-19.08-0.072-34.704,4.752-38.664,6.264C16.671,18.446,5.224,20.894,8.175,33.854z"/>
			<path id="XMLID_130_" fill="#F82401" d="M39.496,154.598c0,0-23.616-115.919-24.696-121.68c-1.008-5.76-1.08-6.696,4.536-8.064
				c5.544-1.368,29.448-7.776,38.016-7.56c8.496,0.288,22.536,5.904,29.736,13.032c7.2,7.2,12.96,17.352,16.344,36
				c3.384,18.72,1.44,35.352-3.24,47.447c-4.68,12.098-12.24,26.354-22.464,32.328c-10.224,6.049-26.28,10.514-30.672,11.881
				C42.735,159.35,40.215,157.838,39.496,154.598z"/>
			<path id="XMLID_129_" fill="#2D0103" d="M49.863,52.646c-6.408,2.376-9.72,7.632-7.632,14.472
				c2.16,6.84,8.568,37.873,9.36,42.048s3.744,9.288,8.856,10.656c5.112,1.296,13.032-2.736,16.056-10.514
				c3.096-7.703,6.48-21.168,2.52-34.992c-3.96-13.968-7.056-19.152-15.264-22.32C56.704,49.262,49.863,52.646,49.863,52.646z"/>
			<path id="XMLID_128_" fill="#FFFFFF" d="M46.912,64.886c0.216,2.088,9,42.12,9.504,44.136c0.432,2.018,0.648,4.752,3.384,5.186
				c2.736,0.504,5.976,1.08,9-5.256c3.024-6.266,6.984-15.77,3.096-31.536C68.08,61.574,61.888,58.55,58.719,57.182
				c-3.168-1.368-9.144,0.936-9.936,1.728C47.919,59.702,46.624,61.286,46.912,64.886z"/>
		</g>
	</g>
</g>
</svg>
