<?xml version="1.0" encoding="UTF-8" standalone="no"?>
<svg
   version="1.1"
   id="svg2"
   viewBox="0 0 1680 869.19995"
   height="869.19995"
   width="1680"
   sodipodi:docname="doom.svg"
   inkscape:version="1.2.1 (9c6d41e410, 2022-07-14)"
   xmlns:inkscape="http://www.inkscape.org/namespaces/inkscape"
   xmlns:sodipodi="http://sodipodi.sourceforge.net/DTD/sodipodi-0.dtd"
   xmlns="http://www.w3.org/2000/svg"
   xmlns:svg="http://www.w3.org/2000/svg"
   xmlns:rdf="http://www.w3.org/1999/02/22-rdf-syntax-ns#"
   xmlns:cc="http://creativecommons.org/ns#"
   xmlns:dc="http://purl.org/dc/elements/1.1/">
  <sodipodi:namedview
     id="namedview150"
     pagecolor="#ffffff"
     bordercolor="#666666"
     borderopacity="1.0"
     inkscape:showpageshadow="2"
     inkscape:pageopacity="0.0"
     inkscape:pagecheckerboard="0"
     inkscape:deskcolor="#d1d1d1"
     showgrid="false"
     inkscape:zoom="0.27151405"
     inkscape:cx="847.10165"
     inkscape:cy="449.33218"
     inkscape:window-width="1176"
     inkscape:window-height="845"
     inkscape:window-x="46"
     inkscape:window-y="155"
     inkscape:window-maximized="0"
     inkscape:current-layer="svg2" />
  <defs
     id="defs4" />
  <metadata
     id="metadata7">
    <rdf:RDF>
      <cc:Work
         rdf:about="">
        <dc:format>image/svg+xml</dc:format>
        <dc:type
           rdf:resource="http://purl.org/dc/dcmitype/StillImage" />
      </cc:Work>
    </rdf:RDF>
  </metadata>
  <g
     transform="translate(-7.1328025,-565.73124)"
     id="layer1">
    <path
       id="path3347"
       d="m 1476.3012,1327.8121 -0.2917,-292.4969 -46.7662,163.4072 -46.7058,-162.6616 -0.2827,222.0343 -152.4945,-114.3724 11.559,-8.6664 -0.5292,-569.30683 144.9467,0.3774 43.4492,152.19623 43.5126,-152.40042 214.4342,0.69673 -70.3645,52.57665 -0.1246,814.42954 z M 78.328958,619.06163 7.1328025,565.73124 l 401.3006875,0.54398 45.93055,35.08717 0.0378,533.50351 12.16772,8.8133 -388.148567,291.252 z m 235.518822,416.21877 -0.15295,-307.89242 -10.75764,-8.78449 -83.44785,0.40375 -0.18291,387.17176 z m 152.39799,82.7814 -0.0717,-516.75483 47.07325,-35.27648 281.69722,-0.0156 46.98005,35.42167 0.17344,597.96244 -133.22444,100.1999 z m 223.12917,-399.76328 -71.04792,0.49268 -11.09868,8.52709 0.15885,308.10291 93.32018,69.9936 0.24947,-377.92826 z m 164.80854,481.66028 -0.34116,-598.79687 46.91876,-35.23879 282.06992,0.26967 47.2183,35.27898 -0.3246,515.55821 -241.33557,182.4526 z m 234.65122,-164.742 -0.03,-308.02638 -11.8726,-9.07298 -70.9365,0.23276 -11.40484,8.78228 0.70414,377.32652 z"
       style="fill:#000000;fill-opacity:1;stroke:none" />
  </g>
  <path
     style="fill:#ffffff;fill-rule:evenodd;stroke-width:3.68305"
     d="M 73.661013,457.06861 V 52.303374 L 40.513557,27.62288 C 22.282456,14.048609 7.3661013,2.5300827 7.3661013,2.0261552 c 0,-0.5039279 89.0837877,-0.1058229 197.9639687,0.8846768 l 197.96398,1.8009094 21.17754,16.2746466 21.17754,16.274645 V 303.33033 c 0,202.03206 1.0637,267.133 4.41966,270.48896 2.76236,2.76236 3.10765,5.61901 0.92076,7.6181 -7.77794,7.11001 -373.70661,280.39646 -375.448944,280.39646 -1.033777,0 -1.879593,-182.14435 -1.879593,-404.76524 z m 188.365007,48.95522 47.35023,-35.38461 V 314.63478 c 0,-150.46757 -0.25284,-156.13975 -7.12397,-159.81707 -3.91818,-2.09695 -26.29272,-3.81263 -49.72118,-3.81263 h -42.59721 v 195.20168 c 0,107.36093 1.06692,195.20168 2.37095,195.20168 1.30402,0 23.67855,-15.92308 49.72118,-35.38461 z"
     id="path499" />
  <path
     style="fill:#ffffff;fill-rule:evenodd;stroke-width:3.68305"
     d="M 579.15971,639.6964 460.38133,550.78092 V 294.16734 37.553743 L 483.17109,20.618396 505.96086,3.6830506 H 647.3466 788.73234 l 21.81855,16.7889914 21.81855,16.788991 v 297.586107 297.5861 l -63.76087,48.40541 c -35.06848,26.62297 -65.31554,48.26314 -67.21567,48.0893 -1.90014,-0.17388 -56.90508,-40.32804 -122.23319,-89.23155 z m 116.93686,-289.677 c 0,-185.45131 -0.22102,-191.50734 -7.12397,-195.20169 -10.63917,-5.69391 -77.99899,-4.66292 -85.87306,1.31434 -5.95803,4.52279 -6.44534,16.56109 -6.44534,159.22429 v 154.33158 l 46.9589,35.60339 c 25.82739,19.58186 48.20192,35.719 49.72118,35.86028 1.51926,0.14143 2.76229,-85.86823 2.76229,-191.13219 z"
     id="path501" />
  <path
     style="fill:#ffffff;fill-rule:evenodd;stroke-width:3.68305"
     d="M 912.55586,680.30925 847.26178,631.64318 847.18168,334.59846 847.10158,37.553743 869.89134,20.618396 892.6811,3.6830506 h 141.5061 141.5061 l 24.0507,17.4944904 24.0508,17.494491 -2.3486,184.152528 c -1.2917,101.2839 -2.3504,216.61561 -2.3525,256.29271 v 72.14013 l -117.7451,88.99333 c -64.7598,48.94631 -119.03878,88.93282 -120.61992,88.85894 -1.58114,-0.074 -32.25714,-22.03411 -68.16889,-48.80042 z m 141.71734,-187.71143 28.5437,-21.49837 V 315.47192 c 0,-116.13289 -1.1216,-156.74913 -4.4197,-160.04718 -6.061,-6.06099 -80.85898,-6.06099 -86.91997,0 -3.32394,3.32394 -4.41966,51.7961 -4.41966,195.51536 V 542.03582 L 1006.3936,528.066 c 10.6348,-7.68339 32.1806,-23.64408 47.8796,-35.46818 z"
     id="path503" />
  <path
     style="fill:#ffffff;fill-rule:evenodd;stroke-width:3.68305"
     d="m 1536.9429,810.93637 -67.0256,-50.38641 -1.1108,-147.28376 -1.1108,-147.2838 -22.07,78.07077 c -12.1385,42.93892 -23.0668,76.89786 -24.2851,75.46431 -1.2183,-1.43359 -11.0227,-34.09658 -21.7876,-72.58446 -10.7648,-38.48788 -20.9176,-72.46402 -22.5617,-75.50254 -1.6442,-3.03851 -3.0398,44.64568 -3.1014,105.96487 l -0.112,111.48944 -67.2157,-50.2879 c -83.0054,-62.10113 -78.9365,-58.41646 -72.7458,-65.87578 4.0152,-4.83798 4.4336,-56.37748 2.3474,-289.12368 l -2.5389,-283.23616877 70.9973,2.21158607 c 39.0485,1.2163724 71.9317,3.6340565 73.0738,5.3726314 1.1422,1.7385748 10.8362,34.2238743 21.5424,72.1895603 10.7061,37.965681 20.6364,70.280551 22.0673,71.810811 1.431,1.53027 12.2592,-31.20284 24.0629,-72.740248 l 21.4612,-75.5225514 h 101.0134 c 55.5574,0 100.2335,1.2430296 99.2802,2.762288 -0.9534,1.5192584 -14.2638,11.8778384 -29.5788,23.0190664 l -27.8453,20.256779 -0.1032,406.056336 c -0.057,223.33098 -1.346,405.94135 -2.8653,405.8008 -1.5193,-0.14069 -32.9238,-22.92938 -69.7879,-50.64195 z"
     id="path505" />
  <path
     style="fill:#ffffff;fill-rule:evenodd;stroke-width:3.68305"
     d="M 76.883682,666.64484 C 76.630472,561.30263 76.008958,473.45616 75.502538,471.43048 74.996119,469.4048 74.374604,373.59599 74.121394,258.52196 L 73.661013,49.296487 43.903032,27.410532 14.145052,5.524576 105.59413,4.3563572 c 50.297,-0.6425199 138.0871,-0.04369 195.08912,1.3307319 l 103.64006,2.4989506 20.66291,16.2176143 20.66291,16.217614 0.61385,265.125792 c 0.33774,145.81918 0.75193,267.50324 0.92076,270.40901 0.26629,4.58271 -121.16254,97.63635 -313.67315,240.37489 L 77.344063,858.1761 Z M 263.53447,507.53366 309.37625,473.65887 V 316.75164 c 0,-117.12823 -1.12046,-158.02771 -4.41966,-161.3269 -2.95841,-2.95842 -19.3974,-4.41966 -49.72118,-4.41966 h -45.30152 v 195.20168 c 0,134.2655 1.21103,195.20168 3.87939,195.20168 2.13367,0 24.5082,-15.24366 49.72119,-33.87478 z"
     id="path507" />
  <path
     style="fill:#ffffff;fill-rule:evenodd;stroke-width:3.68305"
     d=""
     id="path509" />
  <path
     style="fill:#ffffff;fill-rule:evenodd;stroke-width:3.68305"
     d=""
     id="path511" />
  <path
     style="fill:#ffffff;fill-rule:evenodd;stroke-width:3.68305"
     d=""
     id="path513" />
  <path
     style="fill:#ffffff;fill-rule:evenodd;stroke-width:3.68305"
     d="M 76.104676,575.35523 C 74.760661,420.29479 73.661013,238.49775 73.661013,171.36182 V 49.296487 L 44.196608,27.62288 C 27.991185,15.702395 14.732203,5.1813175 14.732203,4.2427075 c 0,-0.9386102 87.010427,-0.7610606 193.356507,0.3945545 l 193.35652,2.1011182 21.99459,15.9668258 21.99459,15.966826 0.72121,266.100408 c 0.39667,146.35523 0.85929,268.47786 1.02812,271.38363 0.26592,4.57726 -121.15003,97.62692 -313.07102,239.92851 L 78.548344,857.28329 Z M 243.61504,521.94212 c 14.89905,-10.70652 35.79039,-25.97663 46.4252,-33.93364 L 309.37625,473.5412 V 316.6928 c 0,-117.08247 -1.12052,-157.96892 -4.41966,-161.26806 -2.95841,-2.95842 -19.3974,-4.41966 -49.72118,-4.41966 h -45.30152 v 195.20168 c 0,112.39684 1.39816,195.20168 3.29598,195.20168 1.8128,0 15.48612,-8.75984 30.38517,-19.46632 z"
     id="path515" />
  <path
     style="fill:#ffffff;fill-rule:evenodd;stroke-width:3.68305"
     d="m 1539.1152,809.48297 -64.8533,-48.14642 -2.3433,-35.38226 c -1.2888,-19.46028 -2.464,-86.76085 -2.6116,-149.55686 -0.1638,-69.68822 -1.5405,-111.30448 -3.5332,-106.80847 -1.7957,4.05135 -11.8521,36.78446 -22.3475,72.74025 -10.4954,35.95578 -20.2798,65.37415 -21.7431,65.37415 -1.4633,0 -11.4191,-30.6614 -22.124,-68.13644 -10.7048,-37.47504 -20.8599,-68.13644 -22.5667,-68.13644 -1.7068,0 -3.5427,47.99593 -4.0797,106.65765 l -0.9764,106.65765 -67.2044,-50.65591 -67.2044,-50.65587 -0.932,-289.87607 -0.9321,-289.8760628 44.1966,0.4580651 c 24.3081,0.2519354 55.7982,1.4952317 69.978,2.7628795 l 25.7813,2.3048148 8.0469,25.7813544 c 4.4258,14.179745 14.1821,46.912858 21.6806,72.740249 7.4985,25.82739 14.7871,46.9589 16.1968,46.9589 2.6746,0 18.6871,-49.33553 36.459,-112.333048 l 10.39,-36.830506 36.482,-0.9211446 c 20.0651,-0.5066298 63.6378,0.322057 96.8283,1.8415253 l 60.3462,2.7626699 -26.1185,18.4152534 -26.1185,18.415253 -0.6869,200.726257 c -0.3778,110.39945 -1.6927,293.00749 -2.9218,405.79565 l -2.2349,205.06935 z"
     id="path517" />
</svg>
