<?xml version="1.0" encoding="utf-8"?>
<!-- Generator: Adobe Illustrator 19.0.0, SVG Export Plug-In . SVG Version: 6.00 Build 0)  -->
<svg version="1.1" id="Camada_1" xmlns="http://www.w3.org/2000/svg" xmlns:xlink="http://www.w3.org/1999/xlink" x="0px" y="0px"
	 viewBox="0 0 521.9 279.3" style="enable-background:new 0 0 521.9 279.3;" xml:space="preserve">
<style type="text/css">
	.st0{fill:#F8E13D;}
</style>
<rect id="XMLID_2_" width="521.9" height="279.3"/>
<g id="XMLID_1_">
	<path id="XMLID_30_" class="st0" d="M86.5,48l7.3-14.4v66.8h-0.6l-9.8-40.6c-3.1-13.3-7.1-20-12-20c-3.5,0-6.3,3.2-8.3,9.5
		c-2,6.8-3.5,17.5-4.4,32.2c-0.9,14.9-1.4,34.9-1.4,59.9c0,31.4,0.5,54.2,1.5,68.4c1.4,19.6,5,29.4,10.7,29.4
		c6.9,0,10.3-9.5,10.3-28.5v-76.7l-10.3-6.8h26.8v117.8h-0.8l-10-28.9c-0.5,9.2-2.1,16.2-4.8,21.2c-2.8,5.1-6.5,7.7-11,7.7
		c-7.6,0-14.3-8.9-20.3-26.8c-2.3-7.2-4.3-15.1-5.9-23.8c-1.6-8.7-2.8-17.6-3.6-26.8c-0.8-9.7-1.2-18.8-1.2-27.2
		c0-11.1,0.6-22,1.8-32.7c0.7-6.8,1.4-12,2.1-15.7c0.7-3.7,1.7-8.5,3-14.4c2.1-8.7,4.9-17.1,8.3-25.1C59.1,40.4,65,34.3,71.8,34.3
		C77.9,34.3,82.8,38.9,86.5,48z"/>
	<path id="XMLID_32_" class="st0" d="M164.4,36.4h27.9L182,43.2l-21.5,86.6l24.1,106.4L195,243h-38.6l10.4-6.8l-18.2-80.8L128,236.2
		l10.3,6.8h-27.5l10.4-6.8l24.1-94.8l-21.8-98.2l-10.3-6.8h38.3l-10.3,6.8l16.3,72.1l17.3-72.1L164.4,36.4z"/>
	<path id="XMLID_34_" class="st0" d="M234.1,36.4h18.6l-42.8,137.7h24.2v-37.7l16.7-10.7v48.4H265v6.8h-14.2v55.2L261,243h-37.2
		l10.3-6.8v-55.2h-30.3L234.1,36.4z"/>
	<path id="XMLID_36_" class="st0" d="M336.9,139.6c0,15-0.7,29.2-2.1,42.4c-1.4,12.3-3.5,23.4-6.2,33.3c-2.7,9.5-5.9,16.8-9.5,21.9
		c-3.7,5.2-7.8,7.9-12.1,7.9c-7.1,0-13.2-7.5-18.3-22.4c-3-8.9-5.4-21-7.3-36.5c-1.9-14.9-2.9-30-2.9-45.1c0-20.4,1.3-38.5,3.8-54.3
		c2.4-16,5.9-28.9,10.4-38.4c4.5-9.4,9.4-14.1,14.7-14.1c7.8,0,14.4,8.8,20,26.3c2.2,7.1,3.9,14.5,5.1,22.3
		c1.4,8.5,2.5,17.7,3.2,27.7C336.4,121.4,336.9,131,336.9,139.6z M307.2,239.5c4.1,0,7-5,8.6-15c1.2-7.3,2-18.6,2.4-34.1
		c0.1-2.5,0.3-11.6,0.5-27.1c0.1-2.3,0.2-7.4,0.2-15.1c0.1-1.5,0.2-3.8,0.2-6.8c0-1.7-0.1-2.8-0.2-3.3v-19.4
		c0-21.6-0.4-37.6-1.1-48.1c-0.8-11.5-2-19.4-3.5-23.8c-1.6-4.6-3.9-7-7-7c-4.1,0-6.8,4.1-8,12.4c-1.1,7.8-1.9,18.1-2.3,31
		c-0.5,16.4-0.8,35.7-0.8,57.8c0,20.2,0.2,36.6,0.5,49.2c0.3,11.9,0.9,21.9,1.7,30c0.8,7.6,1.9,12.6,3.2,15.1
		C303,238.2,304.9,239.5,307.2,239.5z"/>
	<path id="XMLID_39_" class="st0" d="M409.8,139.6c0,15-0.7,29.2-2.1,42.4c-1.4,12.3-3.5,23.4-6.2,33.3c-2.7,9.5-5.9,16.8-9.5,21.9
		c-3.7,5.2-7.8,7.9-12.1,7.9c-7.1,0-13.2-7.5-18.3-22.4c-3-8.9-5.4-21-7.3-36.5c-1.9-14.9-2.9-30-2.9-45.1c0-20.4,1.3-38.5,3.8-54.3
		c2.4-16,5.9-28.9,10.4-38.4c4.5-9.4,9.4-14.1,14.7-14.1c7.8,0,14.4,8.8,20,26.3c2.2,7.1,3.9,14.5,5.1,22.3
		c1.4,8.5,2.5,17.7,3.2,27.7C409.4,121.4,409.8,131,409.8,139.6z M380.1,239.5c4.1,0,7-5,8.6-15c1.2-7.3,2-18.6,2.4-34.1
		c0.1-2.5,0.3-11.6,0.5-27.1c0.1-2.3,0.2-7.4,0.2-15.1c0.1-1.5,0.2-3.8,0.2-6.8c0-1.7-0.1-2.8-0.2-3.3v-19.4
		c0-21.6-0.4-37.6-1.1-48.1c-0.8-11.5-2-19.4-3.5-23.8c-1.6-4.6-3.9-7-7-7c-4.1,0-6.8,4.1-8,12.4c-1.1,7.8-1.9,18.1-2.3,31
		c-0.5,16.4-0.8,35.7-0.8,57.8c0,20.2,0.2,36.6,0.5,49.2c0.3,11.9,0.9,21.9,1.7,30c0.8,7.6,1.9,12.6,3.2,15.1
		C376,238.2,377.8,239.5,380.1,239.5z"/>
	<path id="XMLID_42_" class="st0" d="M482.8,139.6c0,15-0.7,29.2-2.1,42.4c-1.4,12.3-3.5,23.4-6.2,33.3c-2.7,9.5-5.9,16.8-9.5,21.9
		c-3.7,5.2-7.8,7.9-12.1,7.9c-7.1,0-13.2-7.5-18.3-22.4c-3-8.9-5.4-21-7.3-36.5c-1.9-14.9-2.9-30-2.9-45.1c0-20.4,1.3-38.5,3.8-54.3
		c2.4-16,5.9-28.9,10.4-38.4c4.5-9.4,9.4-14.1,14.7-14.1c7.8,0,14.4,8.8,20,26.3c2.2,7.1,3.9,14.5,5.1,22.3
		c1.4,8.5,2.5,17.7,3.2,27.7C482.4,121.4,482.8,131,482.8,139.6z M453.1,239.5c4.1,0,7-5,8.6-15c1.2-7.3,2-18.6,2.4-34.1
		c0.1-2.5,0.3-11.6,0.5-27.1c0.1-2.3,0.2-7.4,0.2-15.1c0.1-1.5,0.2-3.8,0.2-6.8c0-1.7-0.1-2.8-0.2-3.3v-19.4
		c0-21.6-0.4-37.6-1.1-48.1c-0.8-11.5-2-19.4-3.5-23.8c-1.6-4.6-3.9-7-7-7c-4.1,0-6.8,4.1-8,12.4c-1.1,7.8-1.9,18.1-2.3,31
		c-0.5,16.4-0.8,35.7-0.8,57.8c0,20.2,0.2,36.6,0.5,49.2c0.3,11.9,0.9,21.9,1.7,30c0.8,7.6,1.9,12.6,3.2,15.1
		C448.9,238.2,450.8,239.5,453.1,239.5z"/>
</g>
<g id="XMLID_29_">
</g>
<g id="XMLID_45_">
</g>
<g id="XMLID_46_">
</g>
<g id="XMLID_47_">
</g>
<g id="XMLID_48_">
</g>
<g id="XMLID_49_">
</g>
</svg>
