<?xml version="1.0" encoding="UTF-8" standalone="no"?>
<!-- Generator: Adobe Illustrator 16.0.3, SVG Export Plug-In . SVG Version: 6.00 Build 0)  -->

<svg
   version="1.1"
   id="TEXT"
   x="0px"
   y="0px"
   width="566.929px"
   height="157.78px"
   viewBox="0 -0.001 566.929 157.78"
   enable-background="new 0 -0.001 566.929 157.78"
   xml:space="preserve"
   inkscape:version="1.2.1 (9c6d41e410, 2022-07-14)"
   sodipodi:docname="mame2010.svg"
   xmlns:inkscape="http://www.inkscape.org/namespaces/inkscape"
   xmlns:sodipodi="http://sodipodi.sourceforge.net/DTD/sodipodi-0.dtd"
   xmlns="http://www.w3.org/2000/svg"
   xmlns:svg="http://www.w3.org/2000/svg"
   xmlns:rdf="http://www.w3.org/1999/02/22-rdf-syntax-ns#"
   xmlns:cc="http://creativecommons.org/ns#"
   xmlns:dc="http://purl.org/dc/elements/1.1/"><metadata
     id="metadata5613"><rdf:RDF><cc:Work
         rdf:about=""><dc:format>image/svg+xml</dc:format><dc:type
           rdf:resource="http://purl.org/dc/dcmitype/StillImage" /></cc:Work></rdf:RDF></metadata><defs
     id="defs5611" /><sodipodi:namedview
     pagecolor="#ffffff"
     bordercolor="#666666"
     borderopacity="1"
     objecttolerance="10"
     gridtolerance="10"
     guidetolerance="10"
     inkscape:pageopacity="0"
     inkscape:pageshadow="2"
     inkscape:window-width="1920"
     inkscape:window-height="1129"
     id="namedview5609"
     showgrid="false"
     inkscape:zoom="4.6002232"
     inkscape:cx="102.06027"
     inkscape:cy="73.692077"
     inkscape:window-x="-8"
     inkscape:window-y="-8"
     inkscape:window-maximized="1"
     inkscape:current-layer="TEXT"
     inkscape:showpageshadow="2"
     inkscape:pagecheckerboard="0"
     inkscape:deskcolor="#d1d1d1" /><linearGradient
     id="SVGID_1_"
     gradientUnits="userSpaceOnUse"
     x1="558.1284"
     y1="955.5977"
     x2="11.77"
     y2="955.5977"
     gradientTransform="translate(-0.1797,-875.4102)"><stop
       offset="0"
       style="stop-color:#013A67"
       id="stop5278" /><stop
       offset="1"
       style="stop-color:#6CD1FF"
       id="stop5280" /></linearGradient><linearGradient
     id="SVGID_2_"
     gradientUnits="userSpaceOnUse"
     x1="64.7095"
     y1="938.7891"
     x2="60.765"
     y2="934.8448"
     gradientTransform="translate(-0.1797,-875.4102)"><stop
       offset="0"
       style="stop-color:#08406F"
       id="stop5285" /><stop
       offset="1"
       style="stop-color:#60C5F5"
       id="stop5287" /></linearGradient><linearGradient
     id="SVGID_3_"
     gradientUnits="userSpaceOnUse"
     x1="123.2954"
     y1="1013.9102"
     x2="119.6701"
     y2="1010.2849"
     gradientTransform="translate(-0.1797,-875.4102)"><stop
       offset="0"
       style="stop-color:#08406F"
       id="stop5292" /><stop
       offset="1"
       style="stop-color:#60C5F5"
       id="stop5294" /></linearGradient><linearGradient
     id="SVGID_4_"
     gradientUnits="userSpaceOnUse"
     x1="25.7236"
     y1="994.0508"
     x2="25.7236"
     y2="989.7383"
     gradientTransform="translate(-0.1797,-875.4102)"><stop
       offset="0"
       style="stop-color:#08406F"
       id="stop5299" /><stop
       offset="1"
       style="stop-color:#60C5F5"
       id="stop5301" /></linearGradient><linearGradient
     id="SVGID_5_"
     gradientUnits="userSpaceOnUse"
     x1="121.1855"
     y1="1033.1816"
     x2="121.1855"
     y2="1028.7246"
     gradientTransform="translate(-0.1797,-875.4102)"><stop
       offset="0"
       style="stop-color:#08406F"
       id="stop5306" /><stop
       offset="1"
       style="stop-color:#60C5F5"
       id="stop5308" /></linearGradient><linearGradient
     id="SVGID_6_"
     gradientUnits="userSpaceOnUse"
     x1="427.6938"
     y1="994.0234"
     x2="427.6938"
     y2="989.5566"
     gradientTransform="translate(-0.1797,-875.4102)"><stop
       offset="0"
       style="stop-color:#08406F"
       id="stop5313" /><stop
       offset="1"
       style="stop-color:#60C5F5"
       id="stop5315" /></linearGradient><linearGradient
     id="SVGID_7_"
     gradientUnits="userSpaceOnUse"
     x1="251.0645"
     y1="994.8945"
     x2="251.0645"
     y2="990.416"
     gradientTransform="translate(-0.1797,-875.4102)"><stop
       offset="0"
       style="stop-color:#08406F"
       id="stop5320" /><stop
       offset="1"
       style="stop-color:#60C5F5"
       id="stop5322" /></linearGradient><linearGradient
     id="SVGID_8_"
     gradientUnits="userSpaceOnUse"
     x1="522.2808"
     y1="882.1875"
     x2="522.2808"
     y2="877.3242"
     gradientTransform="translate(-0.1797,-875.4102)"><stop
       offset="0"
       style="stop-color:#08406F"
       id="stop5327" /><stop
       offset="1"
       style="stop-color:#60C5F5"
       id="stop5329" /></linearGradient><linearGradient
     id="SVGID_9_"
     gradientUnits="userSpaceOnUse"
     x1="515.0132"
     y1="906.7148"
     x2="515.0132"
     y2="902.5049"
     gradientTransform="translate(-0.1797,-875.4102)"><stop
       offset="0"
       style="stop-color:#08406F"
       id="stop5334" /><stop
       offset="1"
       style="stop-color:#60C5F5"
       id="stop5336" /></linearGradient><linearGradient
     id="SVGID_10_"
     gradientUnits="userSpaceOnUse"
     x1="459.3696"
     y1="950.2305"
     x2="459.3696"
     y2="946.5117"
     gradientTransform="translate(-0.1797,-875.4102)"><stop
       offset="0"
       style="stop-color:#08406F"
       id="stop5341" /><stop
       offset="1"
       style="stop-color:#60C5F5"
       id="stop5343" /></linearGradient><linearGradient
     id="SVGID_11_"
     gradientUnits="userSpaceOnUse"
     x1="490.1606"
     y1="925.1113"
     x2="490.1606"
     y2="919.5566"
     gradientTransform="translate(-0.1797,-875.4102)"><stop
       offset="0"
       style="stop-color:#08406F"
       id="stop5348" /><stop
       offset="1"
       style="stop-color:#60C5F5"
       id="stop5350" /></linearGradient><linearGradient
     id="SVGID_12_"
     gradientUnits="userSpaceOnUse"
     x1="74.3892"
     y1="968.8252"
     x2="70.846"
     y2="965.282"
     gradientTransform="translate(-0.1797,-875.4102)"><stop
       offset="0"
       style="stop-color:#08406F"
       id="stop5355" /><stop
       offset="1"
       style="stop-color:#60C5F5"
       id="stop5357" /></linearGradient><linearGradient
     id="SVGID_13_"
     gradientUnits="userSpaceOnUse"
     x1="120.2554"
     y1="904.3691"
     x2="114.8892"
     y2="904.3691"
     gradientTransform="translate(-0.1797,-875.4102)"><stop
       offset="0"
       style="stop-color:#08406F"
       id="stop5362" /><stop
       offset="1"
       style="stop-color:#60C5F5"
       id="stop5364" /></linearGradient><linearGradient
     id="SVGID_14_"
     gradientUnits="userSpaceOnUse"
     x1="173.0811"
     y1="919.9609"
     x2="166.4209"
     y2="919.9609"
     gradientTransform="translate(-0.1797,-875.4102)"><stop
       offset="0"
       style="stop-color:#08406F"
       id="stop5369" /><stop
       offset="1"
       style="stop-color:#60C5F5"
       id="stop5371" /></linearGradient><linearGradient
     id="SVGID_15_"
     gradientUnits="userSpaceOnUse"
     x1="255.9883"
     y1="925.2158"
     x2="249.9951"
     y2="925.2158"
     gradientTransform="translate(-0.1797,-875.4102)"><stop
       offset="0"
       style="stop-color:#08406F"
       id="stop5376" /><stop
       offset="1"
       style="stop-color:#60C5F5"
       id="stop5378" /></linearGradient><linearGradient
     id="SVGID_16_"
     gradientUnits="userSpaceOnUse"
     x1="349.2769"
     y1="904.625"
     x2="343.5757"
     y2="904.625"
     gradientTransform="translate(-0.1797,-875.4102)"><stop
       offset="0"
       style="stop-color:#08406F"
       id="stop5383" /><stop
       offset="1"
       style="stop-color:#60C5F5"
       id="stop5385" /></linearGradient><linearGradient
     id="SVGID_17_"
     gradientUnits="userSpaceOnUse"
     x1="400.9604"
     y1="918.4463"
     x2="395.1636"
     y2="918.4463"
     gradientTransform="translate(-0.1797,-875.4102)"><stop
       offset="0"
       style="stop-color:#08406F"
       id="stop5390" /><stop
       offset="1"
       style="stop-color:#60C5F5"
       id="stop5392" /></linearGradient><linearGradient
     id="SVGID_18_"
     gradientUnits="userSpaceOnUse"
     x1="101.7651"
     y1="968.9385"
     x2="96.6543"
     y2="968.9385"
     gradientTransform="translate(-0.1797,-875.4102)"><stop
       offset="0"
       style="stop-color:#08406F"
       id="stop5397" /><stop
       offset="1"
       style="stop-color:#60C5F5"
       id="stop5399" /></linearGradient><linearGradient
     id="SVGID_19_"
     gradientUnits="userSpaceOnUse"
     x1="121.2485"
     y1="973.8379"
     x2="117.6964"
     y2="970.2858"
     gradientTransform="translate(-0.1797,-875.4102)"><stop
       offset="0"
       style="stop-color:#08406F"
       id="stop5404" /><stop
       offset="1"
       style="stop-color:#60C5F5"
       id="stop5406" /></linearGradient><linearGradient
     id="SVGID_20_"
     gradientUnits="userSpaceOnUse"
     x1="553.436"
     y1="892.5"
     x2="549.7673"
     y2="888.8311"
     gradientTransform="translate(-0.1797,-875.4102)"><stop
       offset="0"
       style="stop-color:#08406F"
       id="stop5411" /><stop
       offset="1"
       style="stop-color:#60C5F5"
       id="stop5413" /></linearGradient><linearGradient
     id="SVGID_21_"
     gradientUnits="userSpaceOnUse"
     x1="145.9941"
     y1="969.8789"
     x2="140.5957"
     y2="969.8789"
     gradientTransform="translate(-0.1797,-875.4102)"><stop
       offset="0"
       style="stop-color:#08406F"
       id="stop5418" /><stop
       offset="1"
       style="stop-color:#60C5F5"
       id="stop5420" /></linearGradient><linearGradient
     id="SVGID_22_"
     gradientUnits="userSpaceOnUse"
     x1="148.7769"
     y1="907.0098"
     x2="144.2891"
     y2="902.522"
     gradientTransform="translate(-0.1797,-875.4102)"><stop
       offset="0"
       style="stop-color:#08406F"
       id="stop5425" /><stop
       offset="1"
       style="stop-color:#60C5F5"
       id="stop5427" /></linearGradient><linearGradient
     id="SVGID_23_"
     gradientUnits="userSpaceOnUse"
     x1="215.8457"
     y1="922.3213"
     x2="211.688"
     y2="918.1636"
     gradientTransform="translate(-0.1797,-875.4102)"><stop
       offset="0"
       style="stop-color:#08406F"
       id="stop5432" /><stop
       offset="1"
       style="stop-color:#60C5F5"
       id="stop5434" /></linearGradient><linearGradient
     id="SVGID_24_"
     gradientUnits="userSpaceOnUse"
     x1="304.3159"
     y1="927.8105"
     x2="299.9317"
     y2="923.4263"
     gradientTransform="translate(-0.1797,-875.4102)"><stop
       offset="0"
       style="stop-color:#08406F"
       id="stop5439" /><stop
       offset="1"
       style="stop-color:#60C5F5"
       id="stop5441" /></linearGradient><linearGradient
     id="SVGID_25_"
     gradientUnits="userSpaceOnUse"
     x1="376.9712"
     y1="906.8613"
     x2="372.7633"
     y2="902.653"
     gradientTransform="translate(-0.1797,-875.4102)"><stop
       offset="0"
       style="stop-color:#08406F"
       id="stop5446" /><stop
       offset="1"
       style="stop-color:#60C5F5"
       id="stop5448" /></linearGradient><linearGradient
     id="SVGID_26_"
     gradientUnits="userSpaceOnUse"
     x1="488.7378"
     y1="935.2646"
     x2="485.2816"
     y2="931.8086"
     gradientTransform="translate(-0.1797,-875.4102)"><stop
       offset="0"
       style="stop-color:#08406F"
       id="stop5453" /><stop
       offset="1"
       style="stop-color:#60C5F5"
       id="stop5455" /></linearGradient><linearGradient
     id="SVGID_27_"
     gradientUnits="userSpaceOnUse"
     x1="499.8081"
     y1="979.377"
     x2="495.8485"
     y2="975.4175"
     gradientTransform="translate(-0.1797,-875.4102)"><stop
       offset="0"
       style="stop-color:#08406F"
       id="stop5460" /><stop
       offset="1"
       style="stop-color:#60C5F5"
       id="stop5462" /></linearGradient><linearGradient
     id="SVGID_28_"
     gradientUnits="userSpaceOnUse"
     x1="441.8374"
     y1="921.6133"
     x2="437.5547"
     y2="917.3306"
     gradientTransform="translate(-0.1797,-875.4102)"><stop
       offset="0"
       style="stop-color:#08406F"
       id="stop5467" /><stop
       offset="1"
       style="stop-color:#60C5F5"
       id="stop5469" /></linearGradient><linearGradient
     id="SVGID_29_"
     gradientUnits="userSpaceOnUse"
     x1="486.8589"
     y1="916.6494"
     x2="481.7448"
     y2="911.5353"
     gradientTransform="translate(-0.1797,-875.4102)"><stop
       offset="0"
       style="stop-color:#08406F"
       id="stop5474" /><stop
       offset="1"
       style="stop-color:#60C5F5"
       id="stop5476" /></linearGradient><linearGradient
     id="SVGID_30_"
     gradientUnits="userSpaceOnUse"
     x1="185.9771"
     y1="992.3301"
     x2="182.3352"
     y2="988.6882"
     gradientTransform="translate(-0.1797,-875.4102)"><stop
       offset="0"
       style="stop-color:#08406F"
       id="stop5481" /><stop
       offset="1"
       style="stop-color:#60C5F5"
       id="stop5483" /></linearGradient><linearGradient
     id="SVGID_31_"
     gradientUnits="userSpaceOnUse"
     x1="303.0278"
     y1="969.1396"
     x2="299.3873"
     y2="965.4991"
     gradientTransform="translate(-0.1797,-875.4102)"><stop
       offset="0"
       style="stop-color:#08406F"
       id="stop5488" /><stop
       offset="1"
       style="stop-color:#60C5F5"
       id="stop5490" /></linearGradient><linearGradient
     id="SVGID_32_"
     gradientUnits="userSpaceOnUse"
     x1="349.8892"
     y1="973.085"
     x2="346.3799"
     y2="969.5756"
     gradientTransform="translate(-0.1797,-875.4102)"><stop
       offset="0"
       style="stop-color:#08406F"
       id="stop5495" /><stop
       offset="1"
       style="stop-color:#60C5F5"
       id="stop5497" /></linearGradient><linearGradient
     id="SVGID_33_"
     gradientUnits="userSpaceOnUse"
     x1="370.8042"
     y1="993.6396"
     x2="366.3813"
     y2="989.2169"
     gradientTransform="translate(-0.1797,-875.4102)"><stop
       offset="0"
       style="stop-color:#08406F"
       id="stop5502" /><stop
       offset="1"
       style="stop-color:#60C5F5"
       id="stop5504" /></linearGradient><linearGradient
     id="SVGID_34_"
     gradientUnits="userSpaceOnUse"
     x1="229.457"
     y1="971.7686"
     x2="223.4189"
     y2="971.7686"
     gradientTransform="translate(-0.1797,-875.4102)"><stop
       offset="0"
       style="stop-color:#08406F"
       id="stop5509" /><stop
       offset="1"
       style="stop-color:#60C5F5"
       id="stop5511" /></linearGradient><linearGradient
     id="SVGID_35_"
     gradientUnits="userSpaceOnUse"
     x1="330.3042"
     y1="968.5186"
     x2="325.0923"
     y2="968.5186"
     gradientTransform="translate(-0.1797,-875.4102)"><stop
       offset="0"
       style="stop-color:#08406F"
       id="stop5516" /><stop
       offset="1"
       style="stop-color:#60C5F5"
       id="stop5518" /></linearGradient><linearGradient
     id="SVGID_36_"
     gradientUnits="userSpaceOnUse"
     x1="374.9702"
     y1="967.8066"
     x2="368.7251"
     y2="967.8066"
     gradientTransform="translate(-0.1797,-875.4102)"><stop
       offset="0"
       style="stop-color:#08406F"
       id="stop5523" /><stop
       offset="1"
       style="stop-color:#60C5F5"
       id="stop5525" /></linearGradient><linearGradient
     id="SVGID_37_"
     gradientUnits="userSpaceOnUse"
     x1="440.6372"
     y1="959.6748"
     x2="436.2191"
     y2="955.2568"
     gradientTransform="translate(-0.1797,-875.4102)"><stop
       offset="0"
       style="stop-color:#08406F"
       id="stop5530" /><stop
       offset="1"
       style="stop-color:#60C5F5"
       id="stop5532" /></linearGradient><linearGradient
     id="SVGID_38_"
     gradientUnits="userSpaceOnUse"
     x1="472.9204"
     y1="969.5098"
     x2="472.9204"
     y2="963.708"
     gradientTransform="translate(-0.1797,-875.4102)"><stop
       offset="0"
       style="stop-color:#08406F"
       id="stop5537" /><stop
       offset="1"
       style="stop-color:#60C5F5"
       id="stop5539" /></linearGradient><g
     id="g4621"><g
       id="g4338"><g
         id="g5615"
         transform="matrix(0.81874674,0,0,0.81874674,100.58394,26.423976)"><polygon
           id="polygon5282"
           points="345.625,9.374 261.264,92.842 250.775,93.958 251.667,8.077 177.937,82.94 168.255,82.987 167.12,11.089 127.342,51.15 116.278,51.717 116.697,8.939 11.591,114.895 46.209,114.328 91.598,70.276 100.303,70.276 99.883,114.54 136.035,77.543 144.679,77.543 144.679,115.23 104.892,154.73 143.019,154.165 218.036,78.299 228.14,78.299 228.14,115.57 274.897,115.854 320.115,70.353 328.843,69.786 328.708,112.799 364.839,76.667 373.375,76.667 373.941,113.102 373.203,114.998 482.378,114.998 503.279,93.815 435.398,92.661 434.781,82.809 445.357,71.67 470.968,71.667 493.216,49.133 479.769,48.565 479.769,39.082 491.191,27.662 536.777,27.946 557.949,5.927 479.951,5.642 406.662,79.217 396.4,79.784 396.686,9.001 355.481,51.055 345.625,52.224 "
           style="fill:url(#SVGID_1_)" /><path
           id="path5289"
           d="M 114.692,13.213 13.577,114.328 2.106,118.641 c 0,0 -0.604,0.039 -0.271,-0.445 0,0 117.26,-117.292 117.472,-117.471 0.212,-0.181 0.467,-0.028 0.467,-0.028 l -5.082,12.516 z"
           style="fill:url(#SVGID_2_)"
           inkscape:connector-curvature="0" /><path
           id="path5296"
           d="m 145.814,115.797 -37.518,37.521 -11.065,4.457 c 0,0 -0.576,0.065 -0.236,-0.407 l 43.929,-43.749 4.89,2.178 z"
           style="fill:url(#SVGID_3_)"
           inkscape:connector-curvature="0" /><polygon
           id="polygon5303"
           points="2.106,118.641 13.603,114.328 46.209,114.328 48.982,118.641 "
           style="fill:url(#SVGID_4_)" /><polygon
           id="polygon5310"
           points="97.23,157.771 108.296,153.314 142.168,153.314 144.781,157.771 "
           style="fill:url(#SVGID_5_)" /><polygon
           id="polygon5317"
           points="370.242,118.584 374.052,114.148 481.529,114.146 484.787,118.613 "
           style="fill:url(#SVGID_6_)" /><path
           id="path5324"
           d="m 277.053,119.484 -51.527,-0.029 c -0.333,0.005 -0.81,-0.335 -0.81,-0.335 l 4.561,-4.115 45.054,0 2.722,4.479 z"
           style="fill:url(#SVGID_7_)"
           inkscape:connector-curvature="0" /><path
           id="path5331"
           d="m 477.382,1.913 88.652,0 c 0.785,0 0.785,0.313 0.785,0.313 l -10.572,4.55 -75.164,0 -3.701,-4.863 z"
           style="fill:url(#SVGID_8_)"
           inkscape:connector-curvature="0" /><polygon
           id="polygon5338"
           points="492.697,31.304 490.625,27.094 535.927,27.094 539.042,31.304 "
           style="fill:url(#SVGID_9_)" /><polygon
           id="polygon5345"
           points="448.91,74.82 444.791,71.102 470.402,71.1 473.589,74.82 "
           style="fill:url(#SVGID_10_)" /><path
           id="path5352"
           d="m 491.8,49.7 -13.58,0 -1.193,-5.548 25.467,0 c 0.346,-0.043 0.441,0.146 0.441,0.146 L 491.8,49.7 Z"
           style="fill:url(#SVGID_11_)"
           inkscape:connector-curvature="0" /><path
           id="path5359"
           d="M 96.872,70.634 48.982,118.643 46.209,114.33 92.81,67.965 c 2,-2.313 4.675,-1.731 4.675,-1.731 l -0.613,4.4 z"
           style="fill:url(#SVGID_12_)"
           inkscape:connector-curvature="0" /><path
           id="path5366"
           d="m 114.71,51.669 0,-38.476 5.063,-12.499 c 0,0 0.303,0.075 0.303,0.571 0,0.493 0,53.647 0,53.647 l -0.315,2.311 c 0,10e-4 -4.496,0.025 -5.051,-5.554 z"
           style="fill:url(#SVGID_13_)"
           inkscape:connector-curvature="0" /><path
           id="path5373"
           d="m 172.902,88.843 c 0,0 -6.539,1.95 -6.621,-5.625 -0.08,-7.313 -0.013,-69.291 -0.013,-69.291 l 5.214,-13.896 c 0,0 0.182,-0.027 0.182,0.725 l -0.017,81.793 1.255,6.294 z"
           style="fill:url(#SVGID_14_)"
           inkscape:connector-curvature="0" /><path
           id="path5380"
           d="m 255.809,98.91 c 0,0 -5.889,0.577 -5.96,-6.088 l -0.033,-80.063 4.651,-12.071 c 0,0 0.583,0.153 0.583,0.907 l -0.016,91.14 0.775,6.175 z"
           style="fill:url(#SVGID_15_)"
           inkscape:connector-curvature="0" /><path
           id="path5387"
           d="m 349.097,57.425 c 0,0 -4.868,0.452 -5.701,-4.563 l 0,-39.723 4.393,-12.147 c 0,0 0.563,0.134 0.563,0.886 l 0,49.667 0.745,5.88 z"
           style="fill:url(#SVGID_16_)"
           inkscape:connector-curvature="0" /><path
           id="path5394"
           d="m 400.781,85.333 c 0,0 -4.938,0.643 -5.797,-4.373 l 0,-67.706 4.85,-12.544 c 0,0 0.268,0.221 0.268,1.708 l 0,77.226 0.679,5.689 z"
           style="fill:url(#SVGID_17_)"
           inkscape:connector-curvature="0" /><path
           id="path5401"
           d="m 97.759,120.82 c 0,0 -0.833,-0.069 -0.809,-1.149 -0.001,-0.917 -0.078,-49.036 -0.078,-49.036 0,0 -1.218,-1.577 0.613,-4.4 0.547,0.131 3.495,0.727 4.101,4.256 l 0,40.37 -3.827,9.959 z"
           style="fill:url(#SVGID_18_)"
           inkscape:connector-curvature="0" /><path
           id="path5408"
           d="m 140.843,78.598 c 0,0 -41.489,41.548 -41.883,41.938 -0.346,0.379 -1.202,0.282 -1.202,0.282 l 3.827,-9.963 36.059,-36.088 c 0,0 1.34,-1.727 3.831,-1.637 l -0.632,5.468 z"
           style="fill:url(#SVGID_19_)"
           inkscape:connector-curvature="0" /><path
           id="path5415"
           d="M 566.609,3.639 539.043,31.304 535.928,27.093 556.24,6.769 566.822,2.227 c 0,0.001 0.349,0.847 -0.213,1.412 z"
           style="fill:url(#SVGID_20_)"
           inkscape:connector-curvature="0" /><path
           id="path5422"
           d="m 140.924,113.616 -0.079,-35.025 c 0,0 -1.301,-2.633 0.631,-5.456 0.593,-0.007 3.7,0.421 4.339,4.146 l -0.001,38.52 -4.89,-2.185 z"
           style="fill:url(#SVGID_21_)"
           inkscape:connector-curvature="0" /><path
           id="path5429"
           d="m 166.269,13.926 -41.462,41.463 c -1.987,1.986 -5.045,1.836 -5.045,1.836 -1.795,-3.531 0.315,-6.065 0.315,-6.065 0,0 50.503,-50.49 50.867,-50.87 0.331,-0.417 0.541,-0.264 0.541,-0.264 l -5.216,13.9 z"
           style="fill:url(#SVGID_22_)"
           inkscape:connector-curvature="0" /><path
           id="path5436"
           d="m 249.815,12.762 -74.376,74.375 c -1.55,1.551 -2.537,1.703 -2.537,1.703 -3.781,-1.878 -1.213,-6.255 -1.213,-6.255 0,0 80.652,-80.635 81.016,-81.015 0.943,-1.093 1.761,-0.883 1.761,-0.883 l -4.651,12.075 z"
           style="fill:url(#SVGID_23_)"
           inkscape:connector-curvature="0" /><path
           id="path5443"
           d="M 343.396,13.139 259.233,97.3 c -1.429,1.432 -3.424,1.608 -3.424,1.608 -3.115,-1.556 -0.776,-6.175 -0.776,-6.175 0,0 90.61,-90.5 90.974,-90.881 0.941,-1.098 1.781,-0.862 1.781,-0.862 l -4.392,12.149 z"
           style="fill:url(#SVGID_24_)"
           inkscape:connector-curvature="0" /><path
           id="path5450"
           d="m 394.984,13.254 -42.513,42.514 c -1.429,1.432 -3.374,1.657 -3.374,1.657 -2.932,-1.908 -0.588,-5.983 -0.588,-5.983 0,0 49.584,-49.69 49.947,-50.07 1.047,-1.033 1.377,-0.66 1.377,-0.66 l -4.849,12.542 z"
           style="fill:url(#SVGID_25_)"
           inkscape:connector-curvature="0" /><path
           id="path5457"
           d="M 502.958,45.453 473.589,74.82 470.401,71.098 491.8,49.7 502.935,44.299 c 0,0 0.414,0.294 0.023,1.154 z"
           style="fill:url(#SVGID_26_)"
           inkscape:connector-curvature="0" /><path
           id="path5464"
           d="m 513.634,89.96 -28.848,28.651 -3.258,-4.465 20.049,-20.049 12.289,-5.38 c 10e-4,0.003 0.397,0.435 -0.232,1.243 z"
           style="fill:url(#SVGID_27_)"
           inkscape:connector-curvature="0" /><path
           id="path5471"
           d="M 481.083,6.777 404.171,83.69 c -1.43,1.432 -3.395,1.644 -3.395,1.644 -2.449,-3.092 -0.686,-5.979 -0.686,-5.979 l 77.289,-77.44 3.704,4.862 z"
           style="fill:url(#SVGID_28_)"
           inkscape:connector-curvature="0" /><path
           id="path5478"
           d="M 492.697,31.304 480.021,44.09 c -2.771,2.282 -1.801,5.608 -1.801,5.608 -2.25,-0.21 -3.125,-2.065 -3.412,-3.695 -0.285,-1.63 0.303,-3.422 1.348,-4.467 l 14.469,-14.44 2.072,4.208 z"
           style="fill:url(#SVGID_29_)"
           inkscape:connector-curvature="0" /><path
           id="path5485"
           d="m 142.17,153.316 77.913,-77.943 c 0,0 1.437,-1.873 4.267,-1.771 l -0.456,5.223 c 0,0 -78.666,78.506 -79.113,78.948 l -2.611,-4.457 z"
           style="fill:url(#SVGID_30_)"
           inkscape:connector-curvature="0" /><path
           id="path5492"
           d="m 274.33,115.004 47.643,-47.659 c 0,0 1.437,-1.871 4.267,-1.771 l -0.857,5.621 -48.325,48.29 -2.728,-4.481 z"
           style="fill:url(#SVGID_31_)"
           inkscape:connector-curvature="0" /><path
           id="path5499"
           d="m 330.125,110.25 36.779,-36.789 c 0.842,-0.843 1.779,-1.771 3.396,-1.771 l -0.107,5.501 -43.081,43.043 c -0.569,0.563 -1.019,0.399 -1.019,0.399 l 4.032,-10.383 z"
           style="fill:url(#SVGID_32_)"
           inkscape:connector-curvature="0" /><path
           id="path5506"
           d="m 361.984,118.057 7.25,-7.281 5.557,2.326 -0.734,1.047 -3.813,4.437 -0.272,0.3 -7.72,0 c -0.34,0.014 -0.521,-0.271 -0.521,-0.271 0,0 -0.155,-0.147 0.253,-0.558 z"
           style="fill:url(#SVGID_33_)"
           inkscape:connector-curvature="0" /><path
           id="path5513"
           d="m 223.983,117.338 -0.09,-38.515 c 0,0 -1.738,-2.016 0.457,-5.223 0.673,-0.01 4.202,0.478 4.928,4.707 l -0.001,36.694 -4.561,4.115 c 0,0.003 -0.73,-0.475 -0.733,-1.778 z"
           style="fill:url(#SVGID_34_)"
           inkscape:connector-curvature="0" /><path
           id="path5520"
           d="m 325.449,119.945 -0.08,-48.75 c 0,0 -1.472,-2.681 0.871,-5.621 0.596,-0.009 3.243,0.472 3.885,4.702 l 0,39.975 -4.028,10.39 c -0.004,-0.002 -0.605,-0.143 -0.648,-0.696 z"
           style="fill:url(#SVGID_35_)"
           inkscape:connector-curvature="0" /><path
           id="path5527"
           d="m 369.234,110.775 0,-32.629 c 0,0 -2.113,-3.379 1.064,-6.456 0.693,-0.008 4.132,0.24 4.492,4.323 l 0,37.088 -5.556,-2.326 z"
           style="fill:url(#SVGID_36_)"
           inkscape:connector-curvature="0" /><path
           id="path5534"
           d="m 448.91,74.82 -13.451,13.479 -3.844,4.809 c -3.896,-2.458 -1.953,-6.874 -0.912,-7.925 l 14.088,-14.079 4.119,3.716 z"
           style="fill:url(#SVGID_37_)"
           inkscape:connector-curvature="0" /><path
           id="path5541"
           d="m 501.58,94.098 -66.391,0 c -2.502,-0.196 -3.574,-0.992 -3.574,-0.992 -0.012,-3.571 3.844,-4.809 3.844,-4.809 l 77.746,0.001 c 0.543,-0.001 0.662,0.422 0.662,0.422 l -12.287,5.378 z"
           style="fill:url(#SVGID_38_)"
           inkscape:connector-curvature="0" /><g
           id="g5543"><path
             id="path5545"
             d="m 0,142.055 0,-9.521 2.876,0 1.728,6.494 1.708,-6.494 2.883,0 0,9.521 -1.785,0 0,-7.496 -1.89,7.496 -1.851,0 -1.883,-7.496 0,7.496 -1.786,0 z"
             inkscape:connector-curvature="0" /><path
             id="path5547"
             d="m 17.224,132.532 1.922,0 0,5.155 c 0,0.816 0.024,1.35 0.071,1.592 0.083,0.391 0.278,0.701 0.588,0.938 0.31,0.237 0.732,0.354 1.27,0.354 0.545,0 0.957,-0.11 1.234,-0.334 0.277,-0.223 0.443,-0.496 0.5,-0.821 0.056,-0.324 0.084,-0.863 0.084,-1.616 l 0,-5.268 1.922,0 0,5.001 c 0,1.144 -0.052,1.95 -0.155,2.423 -0.104,0.472 -0.296,0.87 -0.575,1.193 -0.279,0.324 -0.652,0.582 -1.12,0.773 -0.468,0.192 -1.078,0.289 -1.832,0.289 -0.909,0 -1.599,-0.104 -2.068,-0.313 -0.47,-0.211 -0.841,-0.482 -1.114,-0.818 -0.273,-0.335 -0.452,-0.688 -0.539,-1.057 -0.125,-0.545 -0.188,-1.353 -0.188,-2.416 l 0,-5.075 z"
             inkscape:connector-curvature="0" /><path
             id="path5549"
             d="m 33.025,142.055 0,-9.443 1.922,0 0,7.84 4.78,0 0,1.604 -6.702,0 0,-0.001 z"
             inkscape:connector-curvature="0" /><path
             id="path5551"
             d="m 48.385,142.055 0,-7.91 -2.825,0 0,-1.61 7.566,0 0,1.61 -2.819,0 0,7.91 -1.922,0 z"
             inkscape:connector-curvature="0" /><path
             id="path5553"
             d="m 60.438,142.055 0,-9.521 1.922,0 0,9.521 -1.922,0 z"
             inkscape:connector-curvature="0" /><path
             id="path5555"
             d="m 70.324,142.055 0,-9.521 3.085,0 c 1.169,0 1.931,0.048 2.286,0.144 0.545,0.146 1.002,0.453 1.37,0.935 0.368,0.479 0.552,1.098 0.552,1.854 0,0.584 -0.106,1.075 -0.318,1.477 -0.212,0.396 -0.482,0.711 -0.809,0.938 -0.327,0.229 -0.659,0.378 -0.997,0.452 -0.459,0.09 -1.124,0.136 -1.994,0.136 l -1.253,0 0,3.594 -1.922,-0.009 0,0 z m 1.922,-7.91 0,2.701 1.052,0 c 0.757,0 1.264,-0.053 1.52,-0.15 0.256,-0.098 0.456,-0.254 0.601,-0.467 0.145,-0.213 0.217,-0.459 0.217,-0.74 0,-0.346 -0.102,-0.633 -0.305,-0.856 -0.204,-0.225 -0.461,-0.362 -0.773,-0.422 -0.229,-0.043 -0.691,-0.063 -1.383,-0.063 l -0.929,-0.003 0,0 z"
             inkscape:connector-curvature="0" /><path
             id="path5557"
             d="m 85.378,142.055 0,-9.443 1.922,0 0,7.84 4.78,0 0,1.604 -6.702,0 0,-0.001 z"
             inkscape:connector-curvature="0" /><path
             id="path5559"
             d="m 99.582,142.055 0,-9.521 7.059,0 0,1.609 -5.137,0 0,2.108 4.78,0 0,1.604 -4.78,0 0,2.592 5.319,0 0,1.604 -7.241,0.004 0,0 z"
             inkscape:connector-curvature="0" /></g><g
           id="g5561"><path
             id="path5563"
             d="m 189.966,142.055 -2.091,0 -0.831,-2.164 -3.806,0 -0.786,2.164 -2.039,0 3.708,-9.521 2.032,0 3.813,9.521 z m -3.539,-3.769 -1.313,-3.532 -1.286,3.532 2.599,0 z"
             inkscape:connector-curvature="0" /><path
             id="path5565"
             d="m 197.124,142.055 0,-9.521 4.046,0 c 1.018,0 1.757,0.086 2.218,0.258 0.461,0.171 0.83,0.477 1.107,0.912 0.277,0.438 0.416,0.938 0.416,1.5 0,0.714 -0.21,1.304 -0.63,1.771 -0.419,0.465 -1.047,0.758 -1.883,0.879 0.416,0.242 0.758,0.51 1.029,0.799 0.271,0.291 0.635,0.808 1.094,1.548 l 1.162,1.856 -2.299,0 -1.39,-2.072 c -0.493,-0.739 -0.832,-1.207 -1.013,-1.398 -0.181,-0.189 -0.375,-0.322 -0.578,-0.396 -0.203,-0.069 -0.526,-0.104 -0.968,-0.104 l -0.389,0 0,3.978 -1.922,0 0,-0.01 z m 1.922,-5.496 1.422,0 c 0.922,0 1.498,-0.037 1.727,-0.115 0.23,-0.077 0.409,-0.213 0.539,-0.402 0.13,-0.188 0.195,-0.43 0.195,-0.714 0,-0.32 -0.085,-0.579 -0.256,-0.776 -0.171,-0.193 -0.412,-0.318 -0.724,-0.371 -0.156,-0.021 -0.623,-0.031 -1.403,-0.031 l -1.5,0 0,2.409 0,0 z"
             inkscape:connector-curvature="0" /><path
             id="path5567"
             d="m 218.945,138.552 1.864,0.593 c -0.286,1.041 -0.761,1.813 -1.425,2.313 -0.664,0.504 -1.508,0.757 -2.53,0.757 -1.264,0 -2.303,-0.433 -3.117,-1.296 -0.814,-0.86 -1.221,-2.044 -1.221,-3.542 0,-1.585 0.409,-2.813 1.228,-3.689 0.818,-0.877 1.894,-1.313 3.228,-1.313 1.165,0 2.11,0.344 2.838,1.03 0.433,0.406 0.757,0.992 0.974,1.755 l -1.903,0.452 c -0.113,-0.491 -0.347,-0.881 -0.705,-1.168 -0.358,-0.284 -0.791,-0.428 -1.302,-0.428 -0.706,0 -1.278,0.252 -1.718,0.76 -0.44,0.507 -0.66,1.326 -0.66,2.461 0,1.203 0.217,2.062 0.65,2.572 0.433,0.51 0.996,0.767 1.688,0.767 0.511,0 0.95,-0.162 1.318,-0.486 0.369,-0.33 0.633,-0.84 0.793,-1.538 z"
             inkscape:connector-curvature="0" /><path
             id="path5569"
             d="m 237.175,142.055 -2.091,0 -0.832,-2.164 -3.806,0 -0.786,2.164 -2.039,0 3.708,-9.521 2.033,0 3.813,9.521 z m -3.539,-3.769 -1.313,-3.532 -1.286,3.532 2.599,0 z"
             inkscape:connector-curvature="0" /><path
             id="path5571"
             d="m 244.32,132.532 3.514,0 c 0.792,0 1.396,0.062 1.812,0.183 0.559,0.165 1.037,0.457 1.435,0.877 0.398,0.419 0.702,0.936 0.91,1.542 0.208,0.608 0.312,1.358 0.312,2.251 0,0.782 -0.098,1.458 -0.292,2.025 -0.238,0.691 -0.578,1.254 -1.02,1.682 -0.333,0.325 -0.784,0.578 -1.351,0.762 -0.424,0.136 -0.991,0.203 -1.701,0.203 l -3.617,0 0,-9.521 -0.002,-0.004 0,0 z m 1.922,1.613 0,6.307 1.435,0 c 0.537,0 0.924,-0.03 1.163,-0.092 0.312,-0.077 0.57,-0.211 0.776,-0.396 0.206,-0.188 0.374,-0.49 0.503,-0.92 0.13,-0.426 0.195,-1.007 0.195,-1.743 0,-0.733 -0.065,-1.301 -0.195,-1.692 -0.13,-0.396 -0.312,-0.701 -0.545,-0.924 -0.234,-0.223 -0.53,-0.369 -0.89,-0.447 -0.269,-0.063 -0.795,-0.09 -1.578,-0.09 l -0.864,-0.003 0,0 z"
             inkscape:connector-curvature="0" /><path
             id="path5573"
             d="m 260.063,142.055 0,-9.521 7.059,0 0,1.609 -5.137,0 0,2.108 4.78,0 0,1.604 -4.78,0 0,2.592 5.319,0 0,1.604 -7.241,0.004 0,0 z"
             inkscape:connector-curvature="0" /></g><g
           id="g5575"><path
             id="path5577"
             d="m 283.18,142.055 0,-9.521 2.877,0 1.729,6.494 1.707,-6.494 2.883,0 0,9.521 -1.785,0 0,-7.496 -1.891,7.496 -1.854,0 -1.887,-7.496 0,7.496 -1.779,0 z"
             inkscape:connector-curvature="0" /><path
             id="path5579"
             d="m 309.001,142.055 -2.09,0 -0.832,-2.164 -3.809,0 -0.782,2.164 -2.04,0 3.709,-9.521 2.029,0 3.815,9.521 z m -3.539,-3.769 -1.313,-3.532 -1.286,3.532 2.599,0 z"
             inkscape:connector-curvature="0" /><path
             id="path5581"
             d="m 322.246,138.552 1.863,0.593 c -0.285,1.041 -0.761,1.813 -1.425,2.313 -0.665,0.505 -1.509,0.757 -2.53,0.757 -1.264,0 -2.303,-0.433 -3.115,-1.296 -0.813,-0.86 -1.223,-2.044 -1.223,-3.542 0,-1.585 0.409,-2.813 1.229,-3.689 0.818,-0.877 1.896,-1.313 3.229,-1.313 1.165,0 2.108,0.344 2.839,1.03 0.434,0.406 0.76,0.992 0.977,1.755 l -1.902,0.452 c -0.111,-0.491 -0.35,-0.881 -0.704,-1.168 -0.356,-0.284 -0.791,-0.428 -1.303,-0.428 -0.705,0 -1.277,0.252 -1.718,0.76 -0.439,0.507 -0.66,1.326 -0.66,2.461 0,1.203 0.218,2.062 0.648,2.572 0.434,0.51 0.994,0.767 1.688,0.767 0.51,0 0.946,-0.162 1.313,-0.486 0.369,-0.33 0.633,-0.84 0.794,-1.538 z"
             inkscape:connector-curvature="0" /><path
             id="path5583"
             d="m 331.897,142.055 0,-9.521 1.923,0 0,3.748 3.766,0 0,-3.748 1.924,0 0,9.521 -1.924,0 0,-4.164 -3.766,0 0,4.164 -1.923,0 z"
             inkscape:connector-curvature="0" /><path
             id="path5585"
             d="m 347.569,142.055 0,-9.521 1.923,0 0,9.521 -1.923,0 z"
             inkscape:connector-curvature="0" /><path
             id="path5587"
             d="m 357.472,142.055 0,-9.521 1.871,0 3.896,6.357 0,-6.357 1.786,0 0,9.521 -1.929,0 -3.839,-6.209 0,6.209 -1.785,0 z"
             inkscape:connector-curvature="0" /><path
             id="path5589"
             d="m 373.19,142.055 0,-9.521 7.06,0 0,1.609 -5.138,0 0,2.108 4.78,0 0,1.604 -4.78,0 0,2.592 5.319,0 0,1.604 -7.241,0.004 0,0 z"
             inkscape:connector-curvature="0" /></g><g
           id="g5591"><path
             id="path5593"
             d="m 397.091,142.055 0,-9.521 7.06,0 0,1.609 -5.137,0 0,2.108 4.78,0 0,1.604 -4.78,0 0,2.592 5.319,0 0,1.604 -7.242,0.004 0,0 z"
             inkscape:connector-curvature="0" /><path
             id="path5595"
             d="m 412.069,142.055 0,-9.521 2.877,0 1.728,6.494 1.709,-6.494 2.883,0 0,9.521 -1.783,0 0,-7.496 -1.893,7.496 -1.852,0 -1.884,-7.496 0,7.496 -1.785,0 z"
             inkscape:connector-curvature="0" /><path
             id="path5597"
             d="m 429.292,132.532 1.922,0 0,5.155 c 0,0.816 0.023,1.35 0.07,1.592 0.082,0.391 0.273,0.701 0.588,0.938 0.311,0.236 0.729,0.354 1.27,0.354 0.547,0 0.957,-0.11 1.234,-0.334 0.277,-0.223 0.443,-0.496 0.5,-0.821 0.057,-0.324 0.084,-0.863 0.084,-1.616 l 0,-5.268 1.924,0 0,5.001 c 0,1.144 -0.053,1.95 -0.156,2.423 -0.104,0.472 -0.297,0.87 -0.574,1.193 -0.279,0.324 -0.652,0.582 -1.121,0.773 -0.467,0.192 -1.078,0.289 -1.83,0.289 -0.91,0 -1.6,-0.104 -2.068,-0.313 -0.471,-0.211 -0.842,-0.482 -1.109,-0.818 -0.271,-0.335 -0.451,-0.688 -0.537,-1.057 -0.127,-0.545 -0.189,-1.353 -0.189,-2.416 l 0,-5.077 -0.008,0.002 0,0 z"
             inkscape:connector-curvature="0" /><path
             id="path5599"
             d="m 445.093,142.055 0,-9.443 1.922,0 0,7.84 4.781,0 0,1.604 -6.703,0 0,-0.001 z"
             inkscape:connector-curvature="0" /><path
             id="path5601"
             d="m 467.882,142.055 -2.092,0 -0.83,-2.164 -3.807,0 -0.785,2.164 -2.039,0 3.707,-9.521 2.033,0 3.813,9.521 z m -3.539,-3.769 -1.313,-3.532 -1.285,3.532 2.598,0 z"
             inkscape:connector-curvature="0" /><path
             id="path5603"
             d="m 476.191,142.055 0,-7.91 -2.826,0 0,-1.61 7.564,0 0,1.61 -2.816,0 0,7.91 -1.922,0 z"
             inkscape:connector-curvature="0" /><path
             id="path5605"
             d="m 487.671,137.352 c 0,-0.972 0.146,-1.783 0.438,-2.44 0.215,-0.484 0.51,-0.92 0.885,-1.308 0.375,-0.387 0.785,-0.67 1.23,-0.854 0.594,-0.251 1.277,-0.376 2.053,-0.376 1.402,0 2.525,0.438 3.367,1.305 0.842,0.87 1.264,2.081 1.264,3.633 0,1.535 -0.418,2.737 -1.254,3.605 -0.836,0.867 -1.953,1.302 -3.352,1.302 -1.416,0 -2.541,-0.433 -3.377,-1.296 -0.836,-0.863 -1.254,-2.057 -1.254,-3.571 z m 1.983,-0.066 c 0,1.078 0.248,1.896 0.746,2.45 0.498,0.558 1.131,0.834 1.896,0.834 0.768,0 1.396,-0.273 1.887,-0.825 0.492,-0.554 0.736,-1.381 0.736,-2.485 0,-1.09 -0.238,-1.902 -0.717,-2.439 -0.48,-0.535 -1.113,-0.805 -1.906,-0.805 -0.793,0 -1.43,0.271 -1.916,0.813 -0.486,0.542 -0.726,1.362 -0.726,2.457 z"
             inkscape:connector-curvature="0" /><path
             id="path5607"
             d="m 504.544,142.055 0,-9.521 4.047,0 c 1.018,0 1.756,0.086 2.217,0.258 0.461,0.171 0.83,0.477 1.107,0.912 0.277,0.438 0.416,0.938 0.416,1.5 0,0.714 -0.211,1.304 -0.631,1.771 -0.42,0.465 -1.047,0.758 -1.883,0.879 0.416,0.242 0.76,0.51 1.021,0.799 0.271,0.291 0.645,0.808 1.102,1.548 l 1.156,1.856 -2.296,0 -1.391,-2.072 c -0.492,-0.739 -0.83,-1.207 -1.012,-1.398 -0.186,-0.189 -0.375,-0.322 -0.578,-0.396 -0.203,-0.069 -0.525,-0.104 -0.971,-0.104 l -0.391,0 0,3.978 -1.92,0 0,-0.006 0.004,0 0,-0.002 0.003,0 z m 1.922,-5.496 1.424,0 c 0.922,0 1.498,-0.037 1.727,-0.115 0.23,-0.077 0.41,-0.213 0.541,-0.402 0.129,-0.188 0.193,-0.43 0.193,-0.714 0,-0.32 -0.086,-0.579 -0.258,-0.776 -0.17,-0.193 -0.41,-0.318 -0.723,-0.371 -0.156,-0.021 -0.623,-0.031 -1.402,-0.031 l -1.502,0 0,2.409 0,0 z"
             inkscape:connector-curvature="0" /></g></g><g
         id="g5777"
         transform="matrix(0.00747947,0,0,0.00747947,3.501995,42.888333)"><g
           transform="translate(0,-5640)"
           id="g5771"><path
             style="fill:#c0392b;stroke:none"
             inkscape:connector-curvature="0"
             id="path6"
             d="m 1910,4378 c -123,-19 -263,-125 -316,-240 l -29,-63 0,-1425 0,-1425 205,0 205,0 3,1574 c 1,866 -1,1578 -5,1581 -5,4 -33,3 -63,-2 z" /><path
             style="fill:#c0392b;stroke:none"
             inkscape:connector-curvature="0"
             id="path8"
             d="M 47,4343 C 43,4340 40,3465 40,2400 40,766 42,461 54,451 c 9,-8 74,-11 212,-9 l 199,3 3,1742 2,1741 248,4 248,3 66,33 c 122,60 229,209 232,325 l 1,52 -606,3 c -333,1 -609,-1 -612,-5 z" /><path
             style="fill:#c0392b;stroke:none"
             inkscape:connector-curvature="0"
             id="path10"
             d="m 2367,4343 c -4,-3 -7,-878 -7,-1943 0,-1634 2,-1939 14,-1949 9,-8 74,-11 212,-9 l 199,3 3,387 2,388 234,0 c 207,0 239,2 291,20 113,39 216,141 256,255 18,53 19,94 19,1288 0,1381 5,1287 -74,1394 -51,71 -120,122 -199,152 -56,20 -73,21 -501,21 -243,0 -446,-3 -449,-7 z m 803,-1558 0,-1145 -190,0 -190,0 0,1145 0,1145 190,0 190,0 0,-1145 z" /><path
             style="fill:#c0392b;stroke:none"
             inkscape:connector-curvature="0"
             id="path162"
             d="m 1565,857 c -3,-7 -4,-102 -3,-212 l 3,-200 205,0 205,0 0,210 0,210 -203,3 c -159,2 -204,0 -207,-11 z" /></g><g
           style="fill:#231f20;stroke:none"
           transform="translate(0,-5640)"
           id="g172"><path
             inkscape:connector-curvature="0"
             id="path174"
             d="m 4015,4378 c -3,-7 -4,-890 -3,-1963 l 3,-1950 1670,0 1670,0 47,27 c 64,38 119,106 171,213 179,362 529,1114 539,1155 9,38 9,62 0,101 -11,47 -44,88 -402,505 -215,250 -393,460 -396,468 -3,8 177,335 401,727 223,392 402,716 397,721 -4,4 -282,7 -616,6 l -608,-3 -543,-900 C 5735,2477 5766,2537 5834,2462 l 34,-37 269,-5 c 234,-4 272,-7 303,-23 32,-17 413,-437 434,-477 6,-13 -19,-87 -89,-261 -53,-134 -107,-263 -120,-285 -45,-77 -11,-74 -754,-74 l -661,0 -2,1543 -3,1542 -613,3 c -485,2 -614,0 -617,-10 z" /><path
             inkscape:connector-curvature="0"
             id="path176"
             d="m 8344,4377 c -2,-7 -3,-609 -2,-1337 3,-1111 6,-1331 18,-1363 28,-77 608,-1123 640,-1154 17,-18 48,-38 68,-45 30,-10 367,-13 1712,-13 l 1675,0 0,415 0,415 -1265,5 -1265,5 -31,22 c -17,13 -39,38 -48,57 -28,59 -256,609 -256,618 0,4 552,9 1228,10 l 1227,3 0,410 0,410 -1232,3 -1233,2 0,355 0,355 1438,2 1437,3 0,415 0,415 -2053,3 c -1660,2 -2054,0 -2058,-11 z" /><path
             inkscape:connector-curvature="0"
             id="path178"
             d="m 13687,4383 c -4,-3 -7,-280 -7,-615 l 0,-608 -612,-2 -613,-3 0,-730 0,-730 612,-3 613,-2 2,-613 3,-612 730,0 730,0 3,612 2,613 608,2 607,3 0,730 0,730 -607,3 -608,2 -2,613 -3,612 -726,3 c -399,1 -729,-1 -732,-5 z m 943,-638 205,-205 -420,0 -420,0 205,205 c 113,113 209,205 215,205 6,0 102,-92 215,-205 z m -128,-906 c 173,-37 298,-169 328,-349 30,-178 -67,-368 -227,-442 -86,-41 -177,-54 -259,-39 -172,31 -297,144 -339,306 -80,310 185,590 497,524 z m -1202,-416 0,-418 -205,205 c -113,113 -205,209 -205,215 0,8 399,415 407,415 2,0 3,-188 3,-417 z m 2640,2 c 0,-6 -92,-102 -205,-215 l -205,-205 0,420 0,420 205,-205 c 113,-113 205,-209 205,-215 z M 14630,1105 c -113,-113 -209,-205 -215,-205 -6,0 -102,92 -215,205 l -205,205 420,0 420,0 -205,-205 z" /><path
             inkscape:connector-curvature="0"
             id="path180"
             d="m 16555,4378 c -3,-7 -4,-890 -3,-1963 l 3,-1950 1645,-3 c 1869,-2 1714,-9 1804,81 30,30 69,86 93,132 108,210 545,1144 555,1187 9,36 8,61 0,98 -11,46 -47,91 -408,511 -257,300 -394,467 -391,478 2,9 185,333 405,721 221,387 398,708 394,712 -5,5 -282,7 -617,6 l -608,-3 -543,-900 c -298,-495 -544,-909 -546,-920 -7,-35 10,-80 42,-110 l 31,-30 267,-5 c 211,-4 273,-8 297,-20 29,-15 445,-474 445,-491 0,-16 -202,-514 -221,-545 -40,-66 -17,-64 -748,-64 l -661,0 -2,1543 -3,1542 -613,3 c -485,2 -614,0 -617,-10 z" /><path
             inkscape:connector-curvature="0"
             id="path182"
             d="m 21410,4370 c -125,-33 -231,-93 -332,-188 -130,-124 -196,-239 -232,-402 -15,-68 -16,-197 -14,-1385 l 3,-1310 28,-80 c 74,-210 212,-368 402,-460 177,-85 64,-79 1455,-83 823,-2 1268,0 1333,8 197,21 339,89 478,230 66,67 96,107 132,178 93,180 87,66 87,1550 0,1465 5,1361 -75,1527 -24,50 -64,116 -89,147 -98,122 -263,230 -412,268 -75,19 -116,20 -1383,19 -1256,0 -1309,-1 -1381,-19 z m 1576,-795 c 485,-83 859,-450 950,-931 23,-122 21,-330 -4,-449 -96,-448 -421,-785 -865,-896 -121,-30 -334,-37 -467,-14 -774,129 -1193,960 -843,1671 158,323 467,551 833,618 102,19 289,19 396,1 z" /></g></g></g><g
       id="text4331"
       style="font-style:normal;font-weight:normal;font-size:35.98617172px;line-height:125%;font-family:Sans;letter-spacing:0px;word-spacing:0px;fill:#333333;fill-opacity:1;stroke:none;stroke-width:1px;stroke-linecap:butt;stroke-linejoin:miter;stroke-opacity:1"><path
         id="path4613"
         style="font-style:normal;font-variant:normal;font-weight:normal;font-stretch:normal;font-family:'Roboto Slab';-inkscape-font-specification:'Roboto Slab';fill:#333333"
         d="m 4.1734509,63.998802 0,-2.372135 8.3815451,-9.312828 q 2.249136,-2.512706 3.039847,-3.988701 0.808283,-1.475996 0.808283,-3.022277 0,-1.915279 -1.124567,-3.215561 -1.124568,-1.317853 -2.969562,-1.317853 -2.6532777,0 -3.9008452,1.352996 -1.2475675,1.352996 -1.2475675,3.830559 l -3.3209895,0 -0.035143,-0.105428 q -0.087857,-3.303418 2.1788502,-5.552554 2.2842785,-2.249136 6.3256947,-2.249136 3.46156,0 5.499839,2.020708 2.055851,2.003137 2.055851,5.11327 0,2.090993 -1.247568,4.181987 -1.229996,2.090993 -3.479131,4.515842 l -6.7298362,7.327263 0.035143,0.08786 9.0843995,0 0.281142,-2.93442 2.93442,0 0,5.640411 -16.5698051,0 z" /><path
         id="path4615"
         style="font-style:normal;font-variant:normal;font-weight:normal;font-stretch:normal;font-family:'Roboto Slab';-inkscape-font-specification:'Roboto Slab';fill:#333333"
         d="m 40.774621,54.24669 q 0,4.902413 -2.17885,7.520548 -2.17885,2.600563 -5.956695,2.600563 -3.760274,0 -5.956696,-2.618135 -2.196421,-2.618134 -2.196421,-7.502976 l 0,-6.062123 q 0,-4.884842 2.17885,-7.502977 2.17885,-2.635706 5.939124,-2.635706 3.777845,0 5.974267,2.635706 2.196421,2.618135 2.196421,7.502977 l 0,6.062123 z m -3.46156,-6.800121 q 0,-3.32099 -1.212425,-4.99027 -1.194853,-1.686852 -3.496703,-1.686852 -2.266707,0 -3.461561,1.686852 -1.194853,1.66928 -1.194853,4.99027 l 0,7.502976 q 0,3.32099 1.212425,5.025413 1.212425,1.686852 3.479132,1.686852 2.30185,0 3.479132,-1.686852 1.194853,-1.686852 1.194853,-5.025413 l 0,-7.502976 z" /><path
         id="path4617"
         style="font-style:normal;font-variant:normal;font-weight:normal;font-stretch:normal;font-family:'Roboto Slab';-inkscape-font-specification:'Roboto Slab';fill:#333333"
         d="m 45.009322,61.784809 3.953559,-0.491998 0,-19.170368 -4.023845,0.07029 0,-2.161278 7.485405,-1.616567 0,22.877928 3.935988,0.491998 0,2.213993 -11.351107,0 0,-2.213993 z" /><path
         id="path4619"
         style="font-style:normal;font-variant:normal;font-weight:normal;font-stretch:normal;font-family:'Roboto Slab';-inkscape-font-specification:'Roboto Slab';fill:#333333"
         d="m 76.128223,54.24669 q 0,4.902413 -2.17885,7.520548 -2.178851,2.600563 -5.956696,2.600563 -3.760274,0 -5.956695,-2.618135 Q 59.83956,59.131532 59.83956,54.24669 l 0,-6.062123 q 0,-4.884842 2.17885,-7.502977 2.178851,-2.635706 5.939124,-2.635706 3.777846,0 5.974267,2.635706 2.196422,2.618135 2.196422,7.502977 l 0,6.062123 z m -3.461561,-6.800121 q 0,-3.32099 -1.212424,-4.99027 -1.194854,-1.686852 -3.496704,-1.686852 -2.266707,0 -3.46156,1.686852 -1.194853,1.66928 -1.194853,4.99027 l 0,7.502976 q 0,3.32099 1.212424,5.025413 1.212425,1.686852 3.479132,1.686852 2.30185,0 3.479132,-1.686852 1.194853,-1.686852 1.194853,-5.025413 l 0,-7.502976 z" /></g></g><path
     style="fill:#3381af;fill-opacity:1;fill-rule:evenodd;stroke-width:0.307423"
     d="m 162.93409,32.924515 c -1.34379,-0.610416 -2.81259,-2.307518 -3.219,-3.719347 -0.24379,-0.846893 -0.3242,-4.299274 -0.25831,-11.090323 l 0.0957,-9.8606315 0.84576,-1.2773727 c 1.64062,-2.4778913 1.86378,-2.51921 13.60613,-2.51921 8.41575,0 10.48554,0.082409 11.18755,0.4454302 1.13064,0.5846793 2.72743,2.4225935 3.0233,3.4798489 0.12925,0.461876 0.23501,5.3358331 0.23501,10.8310161 0,11.241599 0.0343,11.055954 -2.41062,13.032876 l -1.18092,0.954862 -10.50115,0.0709 c -8.32716,0.05622 -10.69207,-0.01584 -11.42341,-0.348044 z m 14.55284,-5.901057 c 3.096,-1.275122 5.00528,-4.136741 5.20269,-7.797754 0.11573,-2.146315 0.0493,-2.464968 -0.90002,-4.315108 -2.29087,-4.464839 -7.25601,-6.0725614 -11.83509,-3.832226 -7.24551,3.544898 -5.80855,14.815728 2.09367,16.421766 1.59015,0.32318 4.01209,0.11091 5.43875,-0.476678 z"
     id="path2552"
     transform="translate(0,-0.001)" /><path
     style="fill:#3381af;fill-opacity:1;fill-rule:evenodd;stroke-width:0.307423"
     d="M 127.42676,18.955981 V 4.5565872 l 9.29954,-0.1920461 c 11.22305,-0.2317687 15.6933,-0.040104 16.36457,0.7016409 0.51191,0.5656571 4.77075,9.49289 4.77075,10.000287 0,0.172776 -1.37901,1.95783 -3.06446,3.966786 -1.68546,2.008957 -3.01685,3.73608 -2.95866,3.838053 2.23729,3.920456 5.71569,10.208916 5.71569,10.333155 0,0.09229 -1.96624,0.129411 -4.36943,0.0825 l -4.36944,-0.0853 -3.9418,-6.593576 c -2.168,-3.626467 -3.90088,-6.808293 -3.85087,-7.070725 0.0702,-0.368183 0.59602,-0.497712 2.30264,-0.567193 l 2.2117,-0.09004 1.70771,-1.887083 c 1.88876,-2.08715 1.87935,-1.998292 0.51337,-4.849843 l -0.80996,-1.690825 -5.30305,-0.08411 -5.30304,-0.08412 V 21.81976 33.355376 h -4.45763 -4.45763 z"
     id="path2554"
     transform="translate(0,-0.001)" /><path
     style="fill:#3381af;fill-opacity:1;fill-rule:evenodd;stroke-width:0.307423"
     d="m 105.90716,28.744033 v -4.611342 h -4.61134 -4.611344 v -5.379899 -5.379899 h 4.611344 4.61134 V 8.9152617 4.4576308 h 5.3799 5.3799 v 4.4576309 4.4576313 h 4.61134 4.61134 v 5.379899 5.379899 h -4.61134 -4.61134 v 4.611342 4.611343 h -5.3799 -5.3799 z m 7.13702,0.08841 c 0.80895,-0.796786 1.47082,-1.557658 1.47082,-1.690826 0,-0.133168 -1.45257,-0.242124 -3.22794,-0.242124 -1.77537,0 -3.22794,0.099 -3.22794,0.220008 0,0.34194 2.8591,3.161643 3.20582,3.161643 0.16963,0 0.97029,-0.651916 1.77924,-1.448701 z m -0.55773,-6.972952 c 1.89685,-0.792556 2.58108,-2.837308 1.59047,-4.752944 -1.07415,-2.077177 -4.50557,-2.077177 -5.57972,0 -0.97421,1.883918 -0.31344,3.940708 1.52276,4.739862 1.21229,0.527618 1.23474,0.527737 2.46649,0.01308 z m -9.3461,-3.180216 v -3.301454 l -1.7602,1.760201 -1.760197,1.760201 1.518077,1.541253 c 0.83494,0.847689 1.62703,1.541252 1.7602,1.541252 0.13317,0 0.24212,-1.485654 0.24212,-3.301453 z m 18.27669,1.779538 1.49903,-1.521915 -1.4575,-1.706024 c -0.80163,-0.938314 -1.58515,-1.706025 -1.74115,-1.706025 -0.15601,0 -0.28366,1.452573 -0.28366,3.22794 0,1.775367 0.10896,3.227939 0.24213,3.227939 0.13317,0 0.91669,-0.684861 1.74115,-1.521915 z M 114.515,10.358971 c 0,-0.231987 -1.20074,-1.4187783 -2.63006,-2.5995081 -0.61073,-0.5045027 -0.68735,-0.4656961 -2.29517,1.1623481 l -1.66336,1.684276 h 3.2943 c 1.81186,0 3.29429,-0.111202 3.29429,-0.247116 z"
     id="path2556"
     transform="translate(0,-0.001)" /><path
     style="fill:#3381af;fill-opacity:1;fill-rule:evenodd;stroke-width:0.307423"
     d="m 65.996444,23.44099 0.09946,-9.914386 1.813449,-3.381651 c 0.997397,-1.8599081 2.14044,-3.900427 2.540094,-4.5344866 l 0.726646,-1.1528356 h 12.600479 12.600479 v 2.9161369 2.9161373 l -9.576835,0.08124 -9.576835,0.08124 -1.029252,2.41221 c -0.566089,1.326716 -1.029252,2.537193 -1.029252,2.68995 0,0.159094 3.874111,0.277739 9.068973,0.277739 h 9.068973 v 2.915942 2.915942 l -9.145829,0.08143 -9.145829,0.08143 v 2.766805 2.766806 l 10.682943,0.08084 10.682943,0.08084 v 2.916533 2.916534 H 81.137018 65.896983 Z"
     id="path2558"
     transform="translate(0,-0.001)" /><path
     style="fill:#3381af;fill-opacity:1;fill-rule:evenodd;stroke-width:0.307423"
     d="M 33.662798,18.906503 V 4.4576308 h 12.556689 c 11.805301,0 12.587342,0.033871 13.06894,0.566031 0.516531,0.5707604 4.80923,9.5889562 4.80923,10.1033362 0,0.152262 -1.383291,1.908373 -3.073979,3.902468 -1.690689,1.994096 -3.022084,3.715992 -2.958655,3.826437 1.856464,3.232549 5.725211,10.225472 5.725211,10.34856 0,0.09229 -1.961449,0.129411 -4.358777,0.0825 l -4.358778,-0.0853 -3.931102,-6.455879 c -2.162105,-3.550734 -3.901258,-6.73256 -3.864782,-7.070725 0.05823,-0.539837 0.328806,-0.626148 2.217938,-0.707491 2.331928,-0.10041 2.811504,-0.387367 4.788455,-2.865198 l 0.888258,-1.113307 -0.793704,-1.960921 C 53.941205,11.949636 53.442539,10.894296 53.269595,10.682943 53.040624,10.40312 51.54479,10.298664 47.766606,10.298664 H 42.57806 V 21.82702 33.355376 h -4.457631 -4.457631 z"
     id="path2560"
     transform="translate(0,-0.001)" /><path
     style="fill:#3381af;fill-opacity:1;fill-rule:evenodd;stroke-width:0.307423"
     d="m 64.500258,63.348729 c -1.039071,-0.483784 -1.92479,-1.197291 -2.539268,-2.045554 -1.576863,-2.176796 -1.859829,-3.716104 -1.859829,-10.117276 0,-6.399364 0.279027,-7.919463 1.844405,-10.048047 2.913093,-3.961191 9.470927,-3.791631 12.21601,0.31586 1.559926,2.33413 1.761565,3.444724 1.76697,9.732187 0.0056,6.491009 -0.373661,8.297223 -2.186907,10.415593 -2.183983,2.551494 -5.974682,3.268188 -9.241381,1.747237 z m 6.053278,-2.308738 c 0.422707,-0.298081 1.045238,-1.011696 1.383403,-1.585811 0.567791,-0.963958 0.614846,-1.596742 0.614846,-8.268281 0,-8.044759 -0.129378,-8.654497 -2.090029,-9.849976 -1.295403,-0.789854 -3.729156,-0.800891 -5.005301,-0.0227 -1.829203,1.115445 -2.115226,2.262296 -2.23222,8.950406 -0.113682,6.498822 0.14525,8.534364 1.262869,9.92781 1.338055,1.668283 4.313732,2.084511 6.066432,0.848552 z"
     id="path2562"
     transform="translate(0,-0.001)" /><path
     style="fill:#3381af;fill-opacity:1;fill-rule:evenodd;stroke-width:0.307423"
     d="m 45.037443,62.886803 c 0,-0.845871 0.09304,-0.915671 1.460258,-1.095518 0.803142,-0.105647 1.667769,-0.21973 1.921393,-0.253518 0.396973,-0.05289 0.472428,-1.418934 0.542308,-9.817993 l 0.08117,-9.75656 h -2.002567 -2.002566 v -0.922268 c 0,-0.507248 0.07158,-0.922268 0.159074,-0.922268 0.227784,0 6.038609,-1.237328 6.677322,-1.421835 0.49956,-0.14431 0.53946,0.590078 0.614846,11.316697 l 0.08062,11.471023 0.768557,0.08291 c 2.576015,0.277893 2.766805,0.368531 2.766805,1.314423 v 0.908338 h -5.533611 -5.53361 z"
     id="path2564"
     transform="translate(0,-0.001)" /><path
     style="fill:#3381af;fill-opacity:1;fill-rule:evenodd;stroke-width:0.307423"
     d="m 29.146635,63.348729 c -1.039072,-0.483784 -1.92479,-1.197291 -2.539269,-2.045554 -1.576863,-2.176796 -1.859829,-3.716104 -1.859829,-10.117276 0,-6.399364 0.279027,-7.919463 1.844405,-10.048047 2.913093,-3.961191 9.470928,-3.791631 12.21601,0.31586 1.559926,2.33413 1.761565,3.444724 1.76697,9.732187 0.0056,6.491009 -0.373661,8.297223 -2.186906,10.415593 -2.183984,2.551494 -5.974683,3.268188 -9.241381,1.747237 z m 6.053277,-2.308738 c 0.422707,-0.298081 1.045238,-1.011696 1.383403,-1.585811 0.567791,-0.963958 0.614846,-1.596742 0.614846,-8.268281 0,-8.044759 -0.129378,-8.654497 -2.090029,-9.849976 -1.295403,-0.789854 -3.729156,-0.800891 -5.005301,-0.0227 -1.829203,1.115445 -2.115226,2.262296 -2.232219,8.950406 -0.113683,6.498822 0.145249,8.534364 1.262869,9.92781 1.338054,1.668283 4.313732,2.084511 6.066431,0.848552 z"
     id="path2566"
     transform="translate(0,-0.001)" /><path
     style="fill:#3381af;fill-opacity:1;fill-rule:evenodd;stroke-width:0.307423"
     d="m 4.4576308,62.681116 c 0,-0.988888 0.4253899,-1.580405 3.9242326,-5.456754 5.9031866,-6.540111 6.5292946,-7.298057 7.3287206,-8.871904 0.85775,-1.688676 0.982211,-4.100159 0.281545,-5.455098 -0.820353,-1.586387 -1.879862,-2.163964 -3.967242,-2.162688 -2.96493,0.0018 -4.405628,1.192559 -4.927006,4.072203 -0.2080272,1.148964 -0.2138443,1.152836 -1.731912,1.152836 -1.7323092,0 -1.7511101,-0.04316 -1.0488532,-2.407917 0.9367407,-3.154348 3.3977194,-4.969907 7.0575282,-5.20661 2.67736,-0.173162 4.453987,0.289467 5.863182,1.526756 2.944751,2.585525 3.203965,6.244662 0.715156,10.095332 -1.032419,1.597353 -4.460955,5.555115 -8.8453797,10.210744 L 8.0219229,61.330852 H 12.814461 17.607 l 0.207454,-1.383403 c 0.205493,-1.370321 0.218904,-1.383402 1.418309,-1.383402 h 1.210854 v 2.613093 2.613094 H 12.450624 4.4576308 Z"
     id="path2568"
     transform="translate(0,-0.001)" /><path
     style="fill:#3381af;fill-opacity:1;fill-rule:evenodd;stroke-width:0.307423"
     d="m 100.68097,138.8014 v -3.68907 h 1.06413 c 1.16155,0 0.97711,-0.33721 2.05975,3.76593 0.21191,0.80314 0.47955,1.46026 0.59474,1.46026 0.1152,0 0.29825,-0.47333 0.40678,-1.05185 0.10853,-0.57851 0.40596,-1.7544 0.66097,-2.61309 0.4415,-1.48671 0.51444,-1.56125 1.52771,-1.56125 h 1.06407 v 3.68907 c 0,3.48413 -0.0342,3.68908 -0.61485,3.68908 -0.57258,0 -0.61484,-0.20495 -0.61484,-2.98201 0,-3.15766 -0.28541,-3.4316 -0.89682,-0.86078 -0.89846,3.77784 -0.94545,3.8864 -1.63839,3.78508 -0.55038,-0.0805 -0.76677,-0.53492 -1.3369,-2.8077 -0.37413,-1.49142 -0.76268,-2.79413 -0.86345,-2.89489 -0.10076,-0.10077 -0.18321,1.15408 -0.18321,2.78854 0,2.76681 -0.0424,2.97176 -0.61484,2.97176 -0.58069,0 -0.61485,-0.20495 -0.61485,-3.68908 z"
     id="path2570"
     transform="translate(0,-0.001)" /><path
     style="fill:#3381af;fill-opacity:1;fill-rule:evenodd;stroke-width:0.307423"
     d=""
     id="path2572"
     transform="translate(0,-0.001)" /><path
     style="fill:#3381af;fill-opacity:1;fill-rule:evenodd;stroke-width:0.307423"
     d=""
     id="path2574"
     transform="translate(0,-0.001)" /><path
     style="fill:#3381af;fill-opacity:1;fill-rule:evenodd;stroke-width:0.217381"
     d="m 116.27438,142.49742 c -0.25249,-0.10202 -0.66823,-0.45139 -0.92386,-0.77637 -0.42404,-0.53907 -0.46479,-0.85514 -0.46479,-3.60489 v -3.01402 h 0.65214 0.65215 v 2.82595 c 0,2.53611 0.0446,2.87054 0.43476,3.26071 0.26913,0.26914 0.7246,0.43476 1.19559,0.43476 0.47099,0 0.92646,-0.16562 1.1956,-0.43476 0.39017,-0.39017 0.43476,-0.7246 0.43476,-3.26071 v -2.82595 h 0.65214 0.65214 v 2.8118 c 0,1.54649 -0.0954,3.06267 -0.21196,3.3693 -0.444,1.16779 -2.75592,1.8254 -4.26867,1.21418 z"
     id="path2576"
     transform="translate(0,-0.001)" /><path
     style="fill:#3381af;fill-opacity:1;fill-rule:evenodd;stroke-width:0.217381"
     d="m 127.7112,138.9063 v -3.80416 h 0.65214 0.65214 v 3.26071 3.26071 h 1.95643 c 1.94193,0 1.95642,0.004 1.95642,0.54346 v 0.54345 h -2.60857 -2.60856 z"
     id="path2578"
     transform="translate(0,-0.001)" /><path
     style="fill:#3381af;fill-opacity:1;fill-rule:evenodd;stroke-width:0.217381"
     d="m 140.31928,139.44976 v -3.26072 h -1.19559 c -1.13038,0 -1.1956,-0.0296 -1.1956,-0.54345 v -0.54345 h 3.04333 3.04333 v 0.54345 c 0,0.51381 -0.0652,0.54345 -1.19559,0.54345 h -1.1956 v 3.26072 3.26071 h -0.65214 -0.65214 z"
     id="path2580"
     transform="translate(0,-0.001)" /><path
     style="fill:#3381af;fill-opacity:1;fill-rule:evenodd;stroke-width:0.217381"
     d="m 150.10141,138.9063 v -3.80416 h 0.76084 0.76083 v 3.80416 3.80417 h -0.76083 -0.76084 z"
     id="path2582"
     transform="translate(0,-0.001)" /><path
     style="fill:#3381af;fill-opacity:1;fill-rule:evenodd;stroke-width:0.217381"
     d="m 158.36188,138.9063 v -3.80416 h 2.07941 c 2.30555,0 2.76336,0.15277 3.24417,1.08255 0.51009,0.9864 0.41188,1.8604 -0.29835,2.65529 -0.57443,0.6429 -0.75566,0.70867 -2.17381,0.7888 l -1.54713,0.0874 v 1.49713 1.49714 h -0.65215 -0.65214 z m 3.58566,-0.4644 c 0.5971,-0.22913 0.82671,-1.14344 0.43665,-1.73875 -0.28632,-0.43697 -0.51548,-0.51411 -1.52744,-0.51411 h -1.19058 v 1.1956 1.19559 h 0.96043 c 0.52824,0 1.12266,-0.0623 1.32094,-0.13833 z"
     id="path2584"
     transform="translate(0,-0.001)" /><path
     style="fill:#3381af;fill-opacity:1;fill-rule:evenodd;stroke-width:0.217381"
     d="m 170.5352,138.9063 v -3.80416 h 0.76084 0.76083 v 3.26071 3.26071 h 1.95643 c 1.94193,0 1.95642,0.004 1.95642,0.54346 v 0.54345 h -2.71726 -2.71726 z"
     id="path2586"
     transform="translate(0,-0.001)" /><path
     style="fill:#3381af;fill-opacity:1;fill-rule:evenodd;stroke-width:0.217381"
     d="m 182.27377,138.9063 v -3.80416 h 2.71726 2.71725 v 0.54345 c 0,0.54155 -0.007,0.54345 -2.06511,0.54345 h -2.06512 v 0.97822 0.97821 h 1.95643 c 1.94193,0 1.95642,0.004 1.95642,0.54345 0,0.53943 -0.0145,0.54346 -1.95642,0.54346 h -1.95643 v 1.19559 1.19559 h 2.17381 2.17381 v 0.54346 0.54345 h -2.82595 -2.82595 z"
     id="path2588"
     transform="translate(0,-0.001)" /><path
     style="fill:#3381af;fill-opacity:1;fill-rule:evenodd;stroke-width:0.217381"
     d="m 300.74628,138.91614 v -3.85357 l 2.26876,0.0741 c 2.14823,0.0702 2.30291,0.10688 2.91159,0.69052 1.67889,1.60981 1.33857,5.55294 -0.55567,6.43838 -0.33173,0.15506 -1.50798,0.33192 -2.61391,0.39302 l -2.01077,0.11109 z m 4.40196,2.02224 c 0.28785,-0.34041 0.38042,-0.84315 0.38042,-2.06604 0,-1.42607 -0.0628,-1.67891 -0.53358,-2.14972 -0.43821,-0.43822 -0.749,-0.53358 -1.73904,-0.53358 h -1.20548 v 2.74534 2.74534 l 1.35863,-0.14573 c 0.98444,-0.10559 1.46341,-0.26963 1.73905,-0.59561 z"
     id="path2590"
     transform="translate(0,-0.001)" /><path
     style="fill:#3381af;fill-opacity:1;fill-rule:evenodd;stroke-width:0.217381"
     d="m 290.25766,139.51372 c 0.26901,-0.0518 0.7092,-0.0518 0.97821,0 0.26901,0.0518 0.0489,0.0942 -0.48911,0.0942 -0.53801,0 -0.75811,-0.0424 -0.4891,-0.0942 z"
     id="path2592"
     transform="translate(0,-0.001)" /><path
     style="fill:#3381af;fill-opacity:1;fill-rule:evenodd;stroke-width:0.217381"
     d="m 287.95875,140.48231 c 0.48108,-1.22548 1.13824,-2.9129 1.46037,-3.74981 0.56202,-1.46019 0.61708,-1.52433 1.36279,-1.58743 l 0.77711,-0.0658 1.5317,3.81558 1.5317,3.81558 h -0.72426 c -0.65903,0 -0.75818,-0.0889 -1.1011,-0.98677 l -0.37685,-0.98677 -1.63445,0.0629 -1.63446,0.0629 -0.30729,0.92387 c -0.27981,0.84126 -0.37223,0.92387 -1.03361,0.92387 h -0.72633 z m 3.52069,-2.28249 c -0.30367,-0.80703 -0.59001,-1.50535 -0.63632,-1.55182 -0.0463,-0.0465 -0.1947,0.19809 -0.32976,0.54346 -0.3703,0.94688 -0.8535,2.3024 -0.8535,2.39432 0,0.0447 0.53363,0.0814 1.18585,0.0814 h 1.18586 z"
     id="path2594"
     transform="translate(0,-0.001)" /><path
     style="fill:#3381af;fill-opacity:1;fill-rule:evenodd;stroke-width:0.217381"
     d="m 276.37744,142.21961 c -1.92131,-1.27681 -2.26637,-4.49615 -0.66559,-6.20979 1.27683,-1.36685 3.46307,-1.43658 4.74821,-0.15144 0.87334,0.87334 0.8992,1.10857 0.14277,1.29842 -0.46875,0.11765 -0.6713,0.0298 -1.06236,-0.4606 -0.39145,-0.49093 -0.65728,-0.60596 -1.40032,-0.60596 -0.73358,0 -1.02129,0.12108 -1.43752,0.60497 -0.44206,0.51394 -0.52038,0.83468 -0.52038,2.13125 0,1.39708 0.0538,1.58004 0.63542,2.16168 0.81075,0.81075 1.77857,0.84977 2.52649,0.10185 0.29346,-0.29346 0.53357,-0.64644 0.53357,-0.7844 0,-0.16503 0.20431,-0.19954 0.59735,-0.1009 0.79451,0.19941 0.79109,0.19081 0.38633,0.97352 -0.77658,1.50174 -3.01053,2.02058 -4.48397,1.0414 z"
     id="path2596"
     transform="translate(0,-0.001)" /><path
     style="fill:#3381af;fill-opacity:1;fill-rule:evenodd;stroke-width:0.217381"
     d="m 262.0525,138.9063 v -3.80416 h 2.2933 c 3.10029,0 3.79337,0.36332 3.79337,1.9885 0,0.92377 -0.33088,1.42532 -1.25666,1.9049 -0.67502,0.34968 -0.74395,0.44417 -0.41764,0.57245 0.21495,0.0845 0.76039,0.70386 1.21208,1.37634 1.25105,1.86255 1.23061,1.76614 0.37445,1.76614 -0.69081,0 -0.8505,-0.12509 -1.63556,-1.28114 -1.19122,-1.75414 -1.4547,-1.97957 -2.31375,-1.97957 h -0.7453 v 1.63035 1.63036 h -0.65214 -0.65215 z m 4.44078,-0.88505 c 0.40543,-0.40542 0.44654,-1.20555 0.0807,-1.57135 -0.15174,-0.15174 -0.87918,-0.26086 -1.73904,-0.26086 h -1.47819 v 1.08691 1.0869 h 1.39745 c 0.98056,0 1.49935,-0.1019 1.73904,-0.3416 z"
     id="path2598"
     transform="translate(0,-0.001)" /><path
     style="fill:#3381af;fill-opacity:1;fill-rule:evenodd;stroke-width:0.217381"
     d="m 248.5749,142.54076 c 0,-0.0933 0.62519,-1.78076 1.38932,-3.74982 l 1.38933,-3.58011 h 0.80538 0.80538 l 1.13178,2.82595 c 0.62248,1.55427 1.29704,3.24169 1.49901,3.74982 l 0.36722,0.92387 h -0.74096 c -0.67859,0 -0.76682,-0.0778 -1.04824,-0.92387 l -0.30729,-0.92387 -1.64593,-0.0631 -1.64593,-0.0631 -0.37693,0.98697 c -0.32598,0.85358 -0.46107,0.98698 -0.99953,0.98698 -0.34244,0 -0.62261,-0.0764 -0.62261,-0.16971 z m 4.23081,-4.32907 c -0.61875,-1.64387 -0.69989,-1.77284 -0.8476,-1.34727 -0.0578,0.16656 -0.30462,0.84086 -0.54846,1.49843 -0.24384,0.65758 -0.44339,1.22005 -0.44346,1.24994 -6e-5,0.0299 0.53707,0.0543 1.19362,0.0543 h 1.19373 z"
     id="path2600"
     transform="translate(0,-0.001)" /><path
     style="fill:#3381af;fill-opacity:1;fill-rule:evenodd;stroke-width:0.217381"
     d="m 316.02384,137.98542 c 0.57151,-0.0449 1.4519,-0.0444 1.95642,0.001 0.50452,0.0456 0.0369,0.0823 -1.03911,0.0817 -1.07604,-6.6e-4 -1.48883,-0.038 -0.91731,-0.0829 z"
     id="path2602"
     transform="translate(0,-0.001)" /><path
     style="fill:#3381af;fill-opacity:1;fill-rule:evenodd;stroke-width:0.217381"
     d="m 313.57174,138.9063 v -3.80416 h 2.82595 2.82595 v 0.54345 0.54345 h -2.1738 -2.17381 v 0.97822 0.97821 h 1.95642 c 1.94194,0 1.95643,0.004 1.95643,0.54345 0,0.53966 -0.0137,0.54346 -1.96779,0.54346 h -1.96778 l 0.0657,1.14124 0.0657,1.14125 2.11946,0.0622 c 2.0907,0.0614 2.11946,0.0695 2.11946,0.5978 v 0.53558 h -2.82595 -2.82595 z"
     id="path2604"
     transform="translate(0,-0.001)" /><path
     style="fill:#3381af;fill-opacity:1;fill-rule:evenodd;stroke-width:0.217381"
     d="m 332.48387,138.89494 v -3.81552 l 1.13176,0.0657 1.13176,0.0657 0.62727,2.39119 c 0.345,1.31515 0.70266,2.47069 0.79481,2.56785 0.0922,0.0972 0.33145,-0.48976 0.53178,-1.30428 0.20032,-0.81453 0.50995,-1.99451 0.68806,-2.6222 l 0.32384,-1.14125 h 1.08083 1.08084 v 3.80416 3.80417 h -0.65215 -0.65214 v -3.07956 c 0,-1.69376 -0.0573,-3.02223 -0.1274,-2.95216 -0.0701,0.0701 -0.36898,1.08904 -0.66424,2.26438 -1.01909,4.05665 -0.89775,3.76734 -1.58002,3.76734 -0.60523,0 -0.62776,-0.046 -1.30465,-2.66292 -1.01325,-3.9173 -1.0747,-3.94178 -1.09135,-0.43476 l -0.0147,3.09768 h -0.65214 -0.65214 z"
     id="path2606"
     transform="translate(0,-0.001)" /><path
     style="fill:#3381af;fill-opacity:1;fill-rule:evenodd;stroke-width:0.217381"
     d="m 346.05109,142.34602 c 0.0816,-0.21801 0.74629,-1.93707 1.47708,-3.82013 l 1.3287,-3.42375 0.78046,0.002 0.78045,0.002 1.35097,3.42175 c 0.74303,1.88196 1.41379,3.59293 1.49058,3.80216 0.11421,0.31122 0.0153,0.38042 -0.54352,0.38042 -0.60259,0 -0.73256,-0.11533 -1.10243,-0.97822 l -0.41931,-0.97821 h -1.59316 -1.59316 l -0.33544,0.92387 c -0.29152,0.80292 -0.42931,0.93307 -1.05252,0.99418 -0.6165,0.0605 -0.69627,0.0147 -0.5687,-0.32607 z m 4.69276,-2.77942 c 0,-0.21896 -0.93305,-2.62756 -1.08098,-2.79047 -0.0868,-0.0956 -0.40356,0.51582 -0.70396,1.35863 l -0.54619,1.53238 h 1.16557 c 0.64106,0 1.16556,-0.0452 1.16556,-0.10054 z"
     id="path2608"
     transform="translate(0,-0.001)" /><path
     style="fill:#3381af;fill-opacity:1;fill-rule:evenodd;stroke-width:0.217381"
     d="m 360.9503,142.22062 c -1.37907,-0.92935 -2.01392,-2.86039 -1.53055,-4.6555 0.68797,-2.5549 3.80386,-3.50431 5.60143,-1.70674 0.87333,0.87334 0.8992,1.10857 0.14277,1.29842 -0.46875,0.11765 -0.67131,0.0298 -1.06236,-0.4606 -0.38774,-0.48627 -0.65956,-0.60596 -1.37615,-0.60596 -1.40011,0 -1.84603,0.59408 -1.94702,2.59389 -0.079,1.564 -0.0584,1.64521 0.57695,2.28059 0.81998,0.81999 1.79428,0.88089 2.51779,0.15739 0.2758,-0.27581 0.54282,-0.62556 0.59338,-0.77725 0.10774,-0.32322 1.27659,-0.107 1.27659,0.23615 0,0.41199 -0.9087,1.48641 -1.52801,1.80667 -0.93971,0.48594 -2.40727,0.41085 -3.26482,-0.16706 z"
     id="path2610"
     transform="translate(0,-0.001)" /><path
     style="fill:#3381af;fill-opacity:1;fill-rule:evenodd;stroke-width:0.217381"
     d="m 372.48193,138.9063 v -3.80416 h 0.65214 0.65214 v 1.52167 1.52166 h 1.63036 1.63035 v -1.52166 -1.52167 h 0.65215 0.65214 v 3.80416 3.80417 h -0.65214 -0.65215 v -1.73905 -1.73904 h -1.63035 -1.63036 v 1.73904 1.73905 h -0.65214 -0.65214 z"
     id="path2612"
     transform="translate(0,-0.001)" /><path
     style="fill:#3381af;fill-opacity:1;fill-rule:evenodd;stroke-width:0.217381"
     d="m 385.30739,138.9063 v -3.80416 h 0.65215 0.65214 v 3.80416 3.80417 h -0.65214 -0.65215 z"
     id="path2614"
     transform="translate(0,-0.001)" /><path
     style="fill:#3381af;fill-opacity:1;fill-rule:evenodd;stroke-width:0.217381"
     d="m 393.35048,138.9063 v -3.80416 l 0.70649,0.002 c 0.66923,0.002 0.79247,0.14227 2.33684,2.66291 l 1.63036,2.66097 0.061,-2.66291 0.061,-2.66292 h 0.64545 0.64545 v 3.80416 3.80417 h -0.71477 c -0.67973,0 -0.79431,-0.12934 -2.33684,-2.63784 l -1.62207,-2.63784 -0.061,2.63784 -0.061,2.63784 h -0.64545 -0.64545 z"
     id="path2616"
     transform="translate(0,-0.001)" /><path
     style="fill:#3381af;fill-opacity:1;fill-rule:evenodd;stroke-width:0.217381"
     d="m 406.17595,138.9063 v -3.80416 h 2.82595 2.82595 v 0.54345 c 0,0.54155 -0.007,0.54345 -2.06512,0.54345 h -2.06512 v 0.97822 0.97821 h 1.95643 c 1.94193,0 1.95643,0.004 1.95643,0.54345 0,0.53943 -0.0145,0.54346 -1.95643,0.54346 h -1.95643 v 1.19559 1.19559 h 2.17381 2.17381 v 0.54346 0.54345 h -2.93464 -2.93464 z"
     id="path2618"
     transform="translate(0,-0.001)" /><path
     style="fill:#3381af;fill-opacity:1;fill-rule:evenodd;stroke-width:0.217381"
     d="m 425.74021,138.9063 v -3.80416 h 2.82595 2.82595 v 0.54345 c 0,0.54155 -0.007,0.54345 -2.06511,0.54345 h -2.06512 v 0.97822 0.97821 h 1.95643 c 1.94193,0 1.95642,0.004 1.95642,0.54345 0,0.53943 -0.0145,0.54346 -1.95642,0.54346 h -1.95643 v 1.19559 1.19559 h 2.17381 2.17381 v 0.54346 0.54345 h -2.93464 -2.93465 z"
     id="path2620"
     transform="translate(0,-0.001)" /><path
     style="fill:#3381af;fill-opacity:1;fill-rule:evenodd;stroke-width:0.217381"
     d="m 438.13092,138.9063 v -3.80416 h 1.05359 1.05359 l 0.60905,2.33684 c 0.33499,1.28527 0.68352,2.4801 0.77453,2.65518 0.17092,0.32882 0.46753,-0.54163 1.20105,-3.5247 l 0.3608,-1.46732 h 1.06048 1.06047 v 3.80416 3.80417 h -0.54345 -0.54345 v -3.04333 c 0,-1.67383 -0.0783,-3.04333 -0.17392,-3.04333 -0.0957,0 -0.5065,1.3695 -0.91298,3.04333 l -0.73906,3.04333 h -0.67392 -0.67392 l -0.73905,-3.04333 c -0.40649,-1.67383 -0.81733,-3.04333 -0.91299,-3.04333 -0.0957,0 -0.17392,1.3695 -0.17392,3.04333 v 3.04333 h -0.54345 -0.54345 z"
     id="path2622"
     transform="translate(0,-0.001)" /><path
     style="fill:#3381af;fill-opacity:1;fill-rule:evenodd;stroke-width:0.217381"
     d=""
     id="path2624"
     transform="translate(0,-0.001)" /><path
     style="fill:#3381af;fill-opacity:1;fill-rule:evenodd;stroke-width:0.217381"
     d="m 476.85814,140.48231 c 0.4786,-1.22548 1.13343,-2.9129 1.45518,-3.74981 0.56254,-1.46325 0.61503,-1.52419 1.36729,-1.58743 l 0.78229,-0.0658 1.5317,3.81558 1.5317,3.81558 h -0.72426 c -0.65904,0 -0.75818,-0.0889 -1.1011,-0.98677 l -0.37685,-0.98677 -1.63238,0.0629 -1.63238,0.0629 -0.33617,0.92387 c -0.30051,0.82586 -0.41038,0.92387 -1.03569,0.92387 h -0.69952 z m 3.49055,-2.34755 c -0.30041,-0.84281 -0.61719,-1.45419 -0.70397,-1.35863 -0.14793,0.16291 -1.08098,2.57151 -1.08098,2.79047 0,0.0553 0.5245,0.10054 1.16557,0.10054 h 1.16557 z"
     id="path2626"
     transform="translate(0,-0.001)" /><path
     style="fill:#3381af;fill-opacity:1;fill-rule:evenodd;stroke-width:0.217381"
     d="m 490.51968,139.44976 v -3.26072 h -1.0869 c -1.01445,0 -1.08691,-0.0362 -1.08691,-0.54345 v -0.54345 h 2.93464 2.93464 v 0.54345 c 0,0.51381 -0.0652,0.54345 -1.19559,0.54345 h -1.19559 v 3.26072 3.26071 h -0.65215 -0.65214 z"
     id="path2628"
     transform="translate(0,-0.001)" /><path
     style="fill:#3381af;fill-opacity:1;fill-rule:evenodd;stroke-width:0.217381"
     d="m 501.87091,142.34895 c -1.36611,-0.67333 -2.06112,-2.38096 -1.77899,-4.37093 0.35121,-2.47724 2.95305,-3.78812 5.19693,-2.61836 1.51857,0.79164 1.86046,1.42342 1.86046,3.43795 0,1.90021 -0.2921,2.51444 -1.62815,3.42375 -0.87303,0.59418 -2.58236,0.65393 -3.65025,0.12759 z m 3.21402,-1.34482 c 1.06513,-1.06513 1.1308,-3.1466 0.13578,-4.30339 -0.39707,-0.46162 -0.69824,-0.58126 -1.50693,-0.59865 -0.83105,-0.0179 -1.11784,0.0854 -1.61353,0.581 -0.54501,0.54492 -0.60284,0.74994 -0.60284,2.1373 0,1.4584 0.0352,1.56603 0.70992,2.16886 0.96286,0.86032 2.02666,0.86582 2.8776,0.0149 z"
     id="path2630"
     transform="translate(0,-0.001)" /><path
     style="fill:#3381af;fill-opacity:1;fill-rule:evenodd;stroke-width:0.217381"
     d="m 513.77942,138.9063 v -3.80416 h 2.29679 c 2.97365,0 3.76844,0.40263 3.78296,1.91637 0.01,1.00635 -0.33674,1.54584 -1.233,1.92032 l -0.77016,0.32179 0.672,0.65701 c 0.3696,0.36135 0.9677,1.13756 1.3291,1.72492 l 0.6571,1.06792 -0.81317,-3.9e-4 c -0.73047,-3.5e-4 -0.87783,-0.10273 -1.44889,-1.0066 -1.15149,-1.82258 -1.61577,-2.25372 -2.42693,-2.25372 h -0.74151 v 1.63035 1.63036 h -0.65215 -0.65214 z m 4.44078,-0.88505 c 0.40543,-0.40542 0.44654,-1.20555 0.0807,-1.57135 -0.15174,-0.15174 -0.87918,-0.26086 -1.73904,-0.26086 h -1.47819 v 1.08691 1.0869 h 1.39744 c 0.98057,0 1.49936,-0.1019 1.73905,-0.3416 z"
     id="path2632"
     transform="translate(0,-0.001)" /><path
     style="fill:#3381af;fill-opacity:1;fill-rule:evenodd;stroke-width:0.217381"
     d="m 465.08613,138.9063 v -3.80416 h 0.65214 0.65215 v 3.26071 3.26071 h 1.95642 c 1.94194,0 1.95643,0.004 1.95643,0.54346 v 0.54345 h -2.60857 -2.60857 z"
     id="path2634"
     transform="translate(0,-0.001)" /><path
     style="fill:#3381af;fill-opacity:1;fill-rule:evenodd;stroke-width:0.217381"
     d=""
     id="path2636"
     transform="translate(0,-0.001)" /><path
     style="fill:#3381af;fill-opacity:1;fill-rule:evenodd;stroke-width:0.217381"
     d="m 453.41579,142.28653 c -0.38094,-0.23228 -0.79668,-0.61677 -0.92387,-0.85442 -0.13082,-0.24444 -0.23125,-1.71285 -0.23125,-3.38104 v -2.94893 h 0.65214 0.65214 v 2.82595 c 0,2.53611 0.0446,2.87054 0.43476,3.26071 0.26914,0.26914 0.72461,0.43476 1.1956,0.43476 0.47099,0 0.92645,-0.16562 1.19559,-0.43476 0.39017,-0.39017 0.43476,-0.7246 0.43476,-3.26071 v -2.82595 h 0.65215 0.65214 v 2.8118 c 0,1.54649 -0.0954,3.06267 -0.21196,3.3693 -0.50443,1.32675 -3.04369,1.8926 -4.5022,1.00329 z"
     id="path2638"
     transform="translate(0,-0.001)" /></svg>
