<?xml version="1.0" encoding="UTF-8" standalone="no"?>
<!-- Generator: Adobe Illustrator 26.0.3, SVG Export Plug-In . SVG Version: 6.00 Build 0)  -->

<svg
   version="1.1"
   id="Layer_1"
   x="0px"
   y="0px"
   viewBox="0 0 3839 994.4"
   style="enable-background:new 0 0 3839 994.4;"
   xml:space="preserve"
   sodipodi:docname="scv.svg"
   inkscape:version="1.3.1 (91b66b0783, 2023-11-16)"
   xmlns:inkscape="http://www.inkscape.org/namespaces/inkscape"
   xmlns:sodipodi="http://sodipodi.sourceforge.net/DTD/sodipodi-0.dtd"
   xmlns="http://www.w3.org/2000/svg"
   xmlns:svg="http://www.w3.org/2000/svg"><defs
   id="defs55" /><sodipodi:namedview
   id="namedview55"
   pagecolor="#ffffff"
   bordercolor="#000000"
   borderopacity="0.25"
   inkscape:showpageshadow="2"
   inkscape:pageopacity="0.0"
   inkscape:pagecheckerboard="0"
   inkscape:deskcolor="#d1d1d1"
   showgrid="false"
   inkscape:zoom="0.40114613"
   inkscape:cx="798.96071"
   inkscape:cy="497.325"
   inkscape:window-width="1440"
   inkscape:window-height="829"
   inkscape:window-x="-8"
   inkscape:window-y="-8"
   inkscape:window-maximized="1"
   inkscape:current-layer="g55" />
<style
   type="text/css"
   id="style1">
	.st0{fill:#FF221D;}
	.st1{fill:#FDEB05;}
	.st2{display:none;}
	.st3{display:inline;}
	.st4{fill:#FBE901;}
	.st5{fill:#FFFFFF;}
</style>
<g
   id="g55">
	<path
   d="m 1009.9004,613.80078 c -1.3,0 -2.7012,-3.7e-4 -4.2012,0.0996 -12.79988,0.5 -126.39971,10.40024 -146.09959,180.69922 -7.79997,67.99958 -23.29943,93.60081 -60.69922,99.30078 L 777.30078,989.5 c 3.89997,2.79997 8.30006,4.90039 19,4.90039 h 4.5 c 19.09988,-0.8 115.69856,-11.90162 138.39844,-149.30078 15.09991,-91.89946 23.4006,-123.59925 60.40039,-128.69922 L 1022.4004,615 c -5.1,-0.9 -8.5,-1.19922 -12.5,-1.19922 z"
   style="fill:#ff221d"
   id="path284" /><path
   d="m 2961.8008,613.80078 c -1.3,0 -2.7012,-3.7e-4 -4.2012,0.0996 -12.8,0.5 -126.3996,10.40024 -146.0996,180.69922 -7.8,67.99958 -23.2995,93.60081 -60.6992,99.30078 L 2729.1992,989.5 c 4,2.79997 8.3016,4.90039 19.1016,4.90039 h 4.3984 c 19.1,-0.8 115.7007,-11.90162 138.4004,-149.30078 15.1,-91.89946 23.4007,-123.59925 60.4004,-128.69922 L 2974.3008,615 c -5.1,-0.9 -8.5,-1.19922 -12.5,-1.19922 z"
   style="fill:#ff221d"
   id="path283" /><path
   d="m 852.5,613.80078 c -1.3,0 -2.69922,-3.7e-4 -4.19922,0.0996 -12.79991,0.5 -126.40168,10.40024 -146.10156,180.69922 -7.79997,67.99958 -23.29943,93.60081 -60.69922,99.30078 L 619.90039,989.5 c 3.89997,2.79997 8.30006,4.90039 19,4.90039 1.3,0 2.80039,3.7e-4 4.40039,-0.0996 19.09988,-0.8 115.70015,-11.90201 138.5,-149.20117 15.09991,-91.89946 23.39865,-123.59925 60.39844,-128.69922 L 865,615 c -5.09997,-0.9 -8.50003,-1.19922 -12.5,-1.19922 z"
   style="fill:#ff221d"
   id="path282" /><path
   d="m 2311.5,512.19922 v 482.20117 h 15 l 82.6992,-130.99414 V 512.19922 Z"
   style="fill:#ff221d"
   id="path281" /><path
   d="m 3302.6992,613.80078 c -107.5994,0 -197.8988,78.19946 -207.2988,185.79883 -9.4,107.59934 70.1994,194.80078 177.7988,194.80078 107.5994,0 212.6004,-83.70144 211.9004,-194.80078 -0.7,-108.09934 -74.801,-185.79883 -182.4004,-185.79883 z m -0.1,82.89844 c 60.8997,0 99.0004,39.60078 99.4004,103.40039 0.3,32.29979 -16.4992,56.00087 -30.6992,70.30078 -25.6,25.69985 -62.3015,41.09961 -98.2012,41.09961 -28.3997,0 -53.7004,-10.60051 -71.4004,-29.90039 -17.8997,-19.49988 -26.2988,-45.99901 -23.7988,-74.79883 5.5,-62.79961 59.0995,-110.10156 124.6992,-110.10156 z"
   style="fill:#ff221d"
   id="path280" /><path
   d="m 443.40039,613 c -107.69934,0 -198.00084,78.20105 -207.30078,185.90039 -9.39994,107.59937 70.20144,194.79883 177.80078,194.79883 16.89991,0 49.90039,-5.89844 49.90039,-5.89844 l 0.5,-0.10156 22,-97.79883 c -21.79988,13.29991 -47.30054,20.79883 -72.40039,20.79883 -28.39982,0 -53.70051,-10.59856 -71.40039,-29.89844 C 324.60012,861.3009 316.19922,834.69982 318.69922,806 c 5.49997,-62.79961 59.10156,-110.09961 124.70117,-110.09961 60.89964,0 99.00039,39.60078 99.40039,103.40039 0,2.5 -0.10078,5.00003 -0.30078,7.5 l -42.09961,186.79883 h 85.69922 l 37.20117,-165 c 1.6,-9.69994 2.49844,-19.59889 2.39844,-29.79883 C 624.99922,690.80144 551.09976,613 443.40039,613 Z"
   style="fill:#ff221d"
   id="path279" /><path
   d="m 1486.5996,512.19922 -79,350.30078 c 0,0 -1.8004,7.99961 -2.4004,10.59961 -14.4,61.29964 1.6014,121.20117 81.3008,121.20117 h 11.4004 l 43.2988,-77 H 1503.5 c -15.9,0 -14.7004,-16.10087 -10.9004,-32.80078 9.4,-41.69976 39.9004,-177.69922 39.9004,-177.69922 h 64.6992 l 17.4004,-77 H 1550 l 26.5,-117.60156 z"
   style="fill:#ff221d"
   id="path278" /><path
   d="m 1683.1992,512.19922 -79,350.30078 c 0,0 -1.7984,7.99961 -2.3984,10.59961 -14.4,61.29964 1.5994,121.20117 81.2988,121.20117 H 1694.5 l 43.3008,-77 h -37.7012 c -15.9,0 -14.8004,-16.10087 -10.9004,-32.80078 9.3,-41.69976 39.9004,-177.69922 39.9004,-177.69922 h 64.7012 l 17.3984,-77 h -64.5996 l 26.5,-117.60156 z"
   style="fill:#ff221d"
   id="path277" /><path
   d="M 344,514.5 C 199.00087,513.2 22.600264,554.3012 1.4003906,756 -5.1995698,818.39964 11.401009,874.39949 49.300781,917.69922 86.800556,960.59895 143.70039,987.80042 207.5,993.90039 L 226,912.09961 C 148.80045,908.79964 73.700451,861.99862 83.900391,764.69922 91.700343,690.09967 127.90159,600.79997 325.40039,597.5 Z"
   style="fill:#ff221d"
   id="path276" /><path
   d="m 2686.8008,629.80078 -82.2012,364.59961 h 90 c 15.7,-69.79958 55.2999,-245.60033 82.0996,-364.59961 z"
   style="fill:#ff221d"
   id="path275" /><path
   d="m 3040.4004,512.19922 -17.4004,77 h 89.9004 c 10.1,-44.99973 17.4004,-77 17.4004,-77 z"
   style="fill:#ff221d"
   id="path274" /><path
   d="m 3013.9004,629.80078 -82.2012,364.59961 h 90 c 15.7,-69.79958 55.3016,-245.60033 82.1016,-364.59961 z"
   style="fill:#ff221d"
   id="path273" /><path
   d="m 3563.3008,629.80078 -82.2012,364.59961 h 90 c 12.3843,-55.0586 40.6485,-180.535 64.7617,-287.59961 h -11.4609 l 17.4004,-77 z m 78.5,0 11.3965,0.01 c 7e-4,-0.003 0,-0.007 0,-0.01 z"
   style="fill:#ff221d"
   id="path272" /><path
   d="m 3641.8008,629.80078 -17.4004,77 h 101.1992 c 12.4,0 21.6004,11.49967 18.9004,23.59961 l -59.5,264 h 90 c 12.1,-53.79967 38.4995,-170.90102 62.1992,-275.90039 10.2,-45.39973 -24.2987,-88.59961 -70.8984,-88.59961 z"
   style="fill:#ff221d"
   id="path271" /><path
   d="m 2677,512.19922 c -28.6997,0 -55.3992,14.70015 -70.6992,39 L 2326.5,994.40039 H 2442 l 255.8008,-405.20117 h 88 c 10.1,-44.99973 17.3984,-77 17.3984,-77 h -56.7988 -33.0996 z"
   style="fill:#ff221d"
   id="path270" /><path
   d="m 2002.8008,613.80078 c -107.5994,0 -197.9008,78.19946 -207.3008,185.79883 -9.4,107.59934 70.2014,194.80078 177.8008,194.80078 17.3997,0 34.7996,-2.20081 51.5996,-6.30078 1.8,-0.5 3.7,-0.90039 5.5,-1.40039 l 22.7988,-100.89844 c -23.2997,16.39991 -51.7987,25.69922 -79.8984,25.69922 -22.9,0 -43.8008,-6.89928 -60.3008,-19.69922 L 2181.5,760.40039 C 2165.3,673.3009 2096.9002,613.80078 2002.8008,613.80078 Z m 0,82.89844 c 33.2997,0 59.7,11.80012 77,33 l -201.5,98.60156 c -0.8,-6.99994 -0.8012,-14.20003 -0.2012,-21.5 5.5,-62.79961 59.1015,-110.10156 124.7012,-110.10156 z"
   style="fill:#ff221d"
   id="path269" /><path
   d="m 1220.5,613.80078 c -107.5994,0 -197.9008,78.19946 -207.3008,185.79883 -9.4,107.59934 70.2014,194.80078 177.8008,194.80078 17.4,0 34.7996,-2.20081 51.5996,-6.30078 1.8,-0.5 3.7,-0.90039 5.5,-1.40039 l 22.8008,-100.89844 C 1247.6004,902.20069 1219.0997,911.5 1191,911.5 c -22.9,0 -43.8008,-6.89928 -60.3008,-19.69922 l 268.5,-131.40039 C 1382.9995,673.3009 1314.5994,613.80078 1220.5,613.80078 Z m 0,82.89844 c 33.2997,0 59.7,11.80012 77,33 L 1096,828.30078 c -0.8,-6.99994 -0.8992,-14.20003 -0.1992,-21.5 5.5,-62.79961 59.0995,-110.10156 124.6992,-110.10156 z"
   style="fill:#ff221d"
   id="path268" />
	<path
   d="M 128.69922,2.4003906 107.80078,102.90039 h 73.59961 L 184.5,87.699219 h -56.30078 l 6.10156,-29.398438 h 52 l 3,-14.40039 H 137.5 L 143,17.599609 h 55.90039 L 202,2.4003906 Z"
   style="fill:#ff221d"
   id="path267" /><path
   d="M 217.90039,2.4003906 197,103 h 17.69922 l 8,-38.599609 h 30.10156 c 36.49979,0 36.89844,-30.700785 36.89844,-31.300782 0,-9.399943 8.8e-4,-30.6992184 -31.39844,-30.6992184 z M 232.5,16.800781 h 22.80078 c 14.39991,0 16.79883,8.198864 16.79883,13.798828 C 272.09961,39.399558 267.99913,50 252.19922,50 h -26.59961 z"
   style="fill:#ff221d"
   id="path266" /><path
   d="m 348.69922,0 c -26.19985,0 -53.99844,19.100643 -53.89844,61.400391 0,24.89985 15.89979,43.900389 44.59961,43.900389 26.89985,0 53.19922,-19.200644 53.19922,-61.400389 C 392.59961,18.200544 375.19907,0 348.69922,0 Z m -0.59961,14.400391 C 365.69949,14.400391 375,25.800111 375,44.5 375,66.899865 363.10024,91 339.90039,91 322.30051,91 312.30078,79.500277 312.30078,60.900391 c 0,-22.399868 11.89898,-46.5 35.79883,-46.5 z"
   style="fill:#ff221d"
   id="path265" /><path
   d="M 455.40039,0.09960937 C 429.20054,0.09960937 401.5,19.300252 401.5,61.5 c 0,24.89985 15.89979,43.90039 44.59961,43.90039 20.99988,0 38.4012,-12.200152 44.20117,-37.499999 H 472.69922 C 470.79922,74.800349 464.8991,91 446.69922,91 429.09931,91 419.09961,79.600277 419.09961,60.900391 c 0,-22.399868 11.90093,-46.5 35.80078,-46.5 14.39991,0 22.69922,7.400084 22.69922,21.5 V 36 h 17.5 c 0.7,-23.099862 -15.89937,-35.90039063 -39.69922,-35.90039063 z"
   style="fill:#ff221d"
   id="path264" /><path
   d="M 518.90039,2.4003906 498,102.90039 h 17.69922 l 9.40039,-45.300781 h 47 l -9.40039,45.300781 h 17.60156 L 601.09961,2.4003906 H 583.5 l -8.30078,40.0000004 h -47 L 536.5,2.4003906 Z"
   style="fill:#ff221d"
   id="path263" /><path
   d="m 650.80078,2.4003906 -3.20117,15.1992184 h 33.09961 L 663,102.90039 h 17.69922 l 17.70117,-85.300781 h 32 l 2.58203,-12.2636715 v -0.00195 l -0.38281,-2.9335938 z"
   style="fill:#ff221d"
   id="path262" /><path
   d="M 732.59961,2.4003906 745.69922,102.90039 h 20 L 820.90039,2.4003906 h -18.70117 l -42,79.4003904 h -0.29883 L 750.5,2.4003906 Z"
   style="fill:#ff221d"
   id="path261" /><path
   d="m 906.59961,0.09960937 c -26.19985,0 -53.90039,19.20064263 -53.90039,61.40039063 0,24.89985 15.90174,43.90039 44.60156,43.90039 8.39994,0 19.69925,-4.10006 26.69922,-12.999999 h 0.30078 v 10.499999 h 11.29883 L 946.90039,50.099609 H 903.69922 L 900.90039,63.5 H 928.5 c -3.79997,16.099904 -13.2997,27.599609 -30.59961,27.599609 -17.59988,0 -27.59961,-11.39972 -27.59961,-30.099609 0,-22.399865 11.89898,-46.5 35.79883,-46.5 C 920.89952,14.5 930.3,20.899693 931,34.599609 h 17.59961 c -0.2,-23.499859 -18.30015,-34.49999962 -42,-34.49999963 z"
   style="fill:#ff221d"
   id="path260" /><path
   d="M 1007,2.4003906 946.69922,102.90039 h 18.90039 l 15.5,-26.599609 h 39.99999 l 4.0996,26.599609 h 17.9004 l -17.5,-100.4999994 z m 5.6992,17.6992184 H 1013 l 6.1992,42.800782 H 988.5 Z"
   style="fill:#ff221d"
   id="path259" /><path
   d="M 1073,2.4003906 1052.0996,102.90039 H 1069 l 15.3008,-80.499999 h 0.2988 l 12.7012,80.499999 h 13.7988 l 45.5,-80.499999 h 0.3008 l -17.5,80.499999 h 16.9004 L 1177,2.4003906 h -24.9004 L 1108.5,79 h -0.3008 l -11,-76.5996094 z"
   style="fill:#ff221d"
   id="path258" /><path
   d="m 1197.8008,2.4003906 -21,100.4999994 h 73.5996 L 1253.5,87.699219 h -56.3008 l 6.1016,-29.398438 h 52 l 3,-14.40039 H 1206.5 l 5.5,-26.300782 h 55.9004 L 1271,2.4003906 Z"
   style="fill:#ff221d"
   id="path257" /><path
   d="m 619.77539,224.69922 -21.57617,95.70117 -8.79883,39 L 580,401.19922 577,414.59961 H 563.30078 515 493.59961 l 0.30078,-1.5 c -3.14994,0.44999 -6.52587,0.82539 -10.13867,1.08789 -3.6128,0.2625 -7.46257,0.41211 -11.5625,0.41211 h -33.09961 c -2.34972,0 -4.67329,-0.15371 -6.97852,-0.38867 -0.0103,-0.001 -0.0209,-9.1e-4 -0.0312,-0.002 -0.83536,-0.0843 -1.65586,-0.21979 -2.48437,-0.33398 -1.43408,-0.20008 -2.8573,-0.42961 -4.26758,-0.71875 -0.003,-5.3e-4 -0.005,-0.001 -0.008,-0.002 -1.03161,-0.20914 -2.05277,-0.43972 -3.07031,-0.69532 -1.10752,-0.28128 -2.19816,-0.60546 -3.28711,-0.9414 -1.17952,-0.3601 -2.3598,-0.70803 -3.51563,-1.13086 -0.003,-9.2e-4 -0.005,-0.001 -0.008,-0.002 -0.25137,-0.0929 -0.49626,-0.201 -0.74219,-0.30665 -0.14831,-0.0563 -0.29156,-0.12433 -0.43945,-0.18164 -3.31629,-1.28508 -6.52039,-2.82272 -9.59571,-4.61328 -0.005,-0.003 -0.0106,-0.005 -0.0156,-0.008 -0.0214,-0.0125 -0.0427,-0.0253 -0.0645,-0.0371 -0.0365,-0.0213 -0.0748,-0.0391 -0.11133,-0.0605 -1.60068,-0.93891 -3.14626,-1.96386 -4.66992,-3.03515 -0.002,-0.001 -0.004,-0.003 -0.006,-0.004 -0.081,-0.0571 -0.16133,-0.11486 -0.24219,-0.17187 -0.11583,-0.0822 -0.2323,-0.16312 -0.34766,-0.2461 -1.54667,-1.11253 -3.05078,-2.28051 -4.50781,-3.52734 1.70238,11.90243 6.52576,23.28201 14.29297,33.00586 13.09991,16.39991 32.60012,25.70117 53.5,25.70117 h 33.09961 c 8.19994,0 15.4012,-0.6 21.70117,-1.5 l -0.30078,1.5 h 21.40039 48.29883 13.70117 l 3,-13.40039 1.77734,-7.90039 H 585.30078 L 590,414.69922 l 0.90039,-4 3.79883,-17.09961 7.30078,-32.29883 27.90039,-123.70117 2.89453,-12.90039 h -1.5957 z M 479.66797,224.80078 454,338.5 h 32.94922 l 20.95117,-92.80078 4.69922,-20.89844 h -21.40039 z"
   style="fill:#ff221d"
   id="path256" /><path
   d="m 1280.8105,224.69922 -4.6113,20.5 -3,13.40039 H 1259.5 1207.8008 c -0.1553,0 -0.3033,0.03 -0.457,0.0371 -0,7.1e-4 -0.01,0.001 -0.012,0.002 0,3.7e-4 3e-4,0.002 -0.01,0.002 -1.5817,0.25178 -2.8653,0.54305 -4.1407,0.83594 -0.9169,0.35191 -1.7763,0.82183 -2.582,1.36524 -0.086,0.0578 -0.1731,0.11409 -0.2578,0.17382 -0.8053,0.57225 -1.5518,1.22394 -2.2051,1.96875 -0.6091,0.6945 -1.1158,1.48165 -1.5644,2.30665 -0.1001,0.18446 -0.1978,0.37022 -0.2891,0.56054 -0.4151,0.86489 -0.7675,1.77256 -0.9824,2.74805 l -4.3008,19.09961 -1.0996,4.80078 -20.7012,91.69922 -3.7988,17 -3,13.40039 h -0 -13.6973 -36.6777 L 1107.1992,436 1102.5,456.90039 h 21.4004 48.2988 13.7012 l 3,-13.40039 3.7988,-17 20.7012,-91.69922 L 1214.5,330 l 4.3008,-19.09961 c 1.3,-5.89997 6.5,-10 12.5,-10 H 1283 h 13.6992 l 3,-13.40039 9.4004,-41.80078 4.7012,-21 h -21.4004 z"
   style="fill:#ff221d"
   id="path255" /><path
   d="m 1100.2109,240.94727 c 10e-5,6.3e-4 -10e-5,0.001 0,0.002 0,0.002 -2e-4,0.004 0,0.006 0.2601,1.78758 0.4296,3.58286 0.5469,5.39062 3e-4,0.005 0,0.009 0,0.0137 0.013,0.20042 0.022,0.40095 0.033,0.60157 0.019,0.31816 0.04,0.63604 0.055,0.95508 0.064,1.54421 0.095,3.08654 0.055,4.63867 0,6.5e-4 10e-5,0.001 0,0.002 -0,0.18404 -0.023,0.36862 -0.029,0.55273 -0.033,0.83747 -0.083,1.67491 -0.1386,2.51368 -0.083,1.17017 -0.1379,2.33725 -0.2813,3.50781 -10e-5,0.001 2e-4,0.003 0,0.004 -0.2717,2.29161 -0.6375,4.58196 -1.1523,6.86523 l -2.2012,9.59961 c -0.7324,3.26613 -1.7034,6.41302 -2.7988,9.49023 -0.1649,0.46283 -0.3136,0.93231 -0.4863,1.39063 -0.1295,0.34366 -0.2295,0.70381 -0.3633,1.04492 -1.0075,2.56862 -2.1811,5.03523 -3.4278,7.45313 -0.2377,0.46053 -0.4805,0.9143 -0.7265,1.36914 -0.3834,0.70947 -0.7316,1.44327 -1.1348,2.13867 -1.1627,2.00514 -2.4287,3.93264 -3.75,5.8164 -0.1709,0.24347 -0.3558,0.47347 -0.5293,0.71485 -0.8141,1.13379 -1.621,2.27462 -2.4902,3.36133 -1.1595,1.44955 -2.3763,2.84801 -3.6289,4.21093 -0,0.001 -0,0.003 -0,0.004 h 6.6328 v 4.50586 h 3.3066 l -3.3066,14.70703 v 0.72852 h -0.1641 L 1083,338 l -1.5996,7 c -0.575,2.5562 -1.2542,5.06535 -2.0313,7.52148 -0.7771,2.45615 -1.6517,4.85891 -2.6211,7.20704 -0.9693,2.34811 -2.0318,4.64091 -3.1835,6.87304 -1.1518,2.23214 -2.3926,4.40352 -3.7168,6.51172 -2.6485,4.21638 -5.6328,8.17677 -8.9122,11.84961 -3.2792,3.67284 -6.8542,7.05937 -10.6855,10.125 -3.8313,3.06563 -7.9183,5.81033 -12.2227,8.20508 -4.3042,2.39473 -8.825,4.43943 -13.5234,6.09961 -2.3492,0.83008 -4.7428,1.56471 -7.1758,2.19922 -2.4329,0.6345 -4.9053,1.16864 -7.4121,1.59961 -2.5068,0.43096 -5.0483,0.7571 -7.6191,0.97656 -2.57087,0.21946 -5.17195,0.33203 -7.7969,0.33203 h -74.69922 c -2.34971,0 -4.6733,-0.15371 -6.97851,-0.38867 -0.0103,-0.001 -0.0209,-9.1e-4 -0.0312,-0.002 -0.83536,-0.0843 -1.65587,-0.21979 -2.48438,-0.33398 -1.43407,-0.20008 -2.8573,-0.42961 -4.26758,-0.71875 -0.003,-5.3e-4 -0.005,-0.001 -0.008,-0.002 -1.03161,-0.20914 -2.05277,-0.43972 -3.07031,-0.69532 -1.10752,-0.28127 -2.19815,-0.60546 -3.28711,-0.9414 -1.17952,-0.3601 -2.3598,-0.70803 -3.51563,-1.13086 -0.003,-9.2e-4 -0.005,-0.001 -0.008,-0.002 -0.25136,-0.0929 -0.49626,-0.201 -0.74219,-0.30664 -0.14831,-0.0563 -0.29156,-0.12434 -0.43945,-0.18165 -3.31629,-1.28508 -6.52039,-2.82272 -9.5957,-4.61328 -0.005,-0.003 -0.0106,-0.005 -0.0156,-0.008 -0.0211,-0.0124 -0.043,-0.0235 -0.0645,-0.0352 -0.0368,-0.0215 -0.0746,-0.0409 -0.11133,-0.0625 -1.60068,-0.93891 -3.14626,-1.96386 -4.66992,-3.03515 -0.002,-0.001 -0.004,-0.003 -0.006,-0.004 -0.081,-0.0571 -0.16133,-0.11486 -0.24219,-0.17187 -0.11583,-0.0822 -0.23229,-0.16312 -0.34765,-0.2461 -1.54668,-1.11253 -3.05078,-2.28051 -4.50782,-3.52734 1.70207,11.9023 6.5242,23.28253 14.29102,33.00586 13.09991,16.39991 32.60012,25.70117 53.5,25.70117 h 74.70118 c 31.828,0 60.0112,-16.44593 75.8125,-42.20117 H 1079 l 4.6992,-20.90039 30.6992,-136.13281 c -1.5069,-2.46839 -3.1619,-4.86744 -4.998,-7.16602 -2.7846,-3.48607 -5.8736,-6.62972 -9.1895,-9.45312 z"
   style="fill:#ff221d"
   id="path254" /><path
   d="m 855.41797,240.99609 c 0.25784,1.77979 0.42472,3.56743 0.54101,5.36719 5.1e-4,0.008 0.001,0.0156 0.002,0.0234 0.021,0.32733 0.0384,0.65458 0.0547,0.98242 0.0102,0.19141 0.0245,0.38241 0.0332,0.57422 0.0635,1.53513 0.0931,3.06838 0.0527,4.61133 -3e-5,0.001 4e-5,0.003 0,0.004 -0.0221,1.04168 -0.0999,2.08347 -0.16992,3.12696 -5.6e-4,0.008 -0.001,0.0156 -0.002,0.0234 -0.0821,1.13765 -0.13621,2.27218 -0.27539,3.41016 -1.5e-4,0.001 1.5e-4,0.003 0,0.004 -0.27188,2.29531 -0.63862,4.59001 -1.1543,6.87695 L 839,334.80078 c -0.57499,2.55622 -1.25419,5.06343 -2.03125,7.51953 -2.33135,7.36914 -5.54846,14.26865 -9.52148,20.59375 -2.64848,4.21638 -5.63278,8.17677 -8.91211,11.84961 -3.27934,3.67284 -6.85427,7.05937 -10.68555,10.125 -3.83128,3.06564 -7.91834,5.81033 -12.22266,8.20508 -4.30431,2.39475 -8.825,4.43943 -13.52343,6.09961 -9.39689,3.32034 -19.50402,5.10742 -30.00391,5.10742 h -47.29883 c -5.32145,0 -10.08524,-0.2748 -14.46094,-0.71484 -0.002,1.7e-4 -0.002,-1.7e-4 -0.004,0 -4.11118,0.44224 -7.61722,0.93344 -10.06446,1.58984 -0.009,0.002 -0.024,0.003 -0.0332,0.006 -2.21285,0.76307 -3.8804,1.64605 -5.29883,2.61133 v 0.002 l -3.24023,14.4043 -3,13.40039 H 655 618.16797 l -0.0684,0.30078 -3.90039,17.40039 -0.79883,3.69922 -4.70117,20.90039 H 630.09961 678.30078 692 l 3,-13.40039 4.69922,-20.90039 c 7.39994,1.8 16.70045,3 28.40039,3 h 47.30078 c 40.52603,0 75.11216,-26.66497 85.75977,-65.27734 -0.0194,-0.0321 -0.0354,-0.0656 -0.0547,-0.0977 -0.79097,-1.31548 -1.5287,-2.65482 -2.2207,-4.01172 -0.61034,-1.188 -1.16964,-2.39115 -1.70704,-3.60742 -0.11053,-0.25285 -0.20903,-0.50968 -0.3164,-0.76367 -1.07995,-2.52684 -1.99638,-5.10305 -2.75977,-7.72852 -0.23257,-0.79497 -0.4862,-1.58236 -0.68945,-2.38476 -0.32744,-1.30199 -0.58627,-2.61451 -0.83594,-3.9336 -1.2e-4,-6.2e-4 1.2e-4,-0.001 0,-0.002 -0.19791,-1.03555 -0.38364,-2.07086 -0.5332,-3.11524 -1.8e-4,-0.001 1.8e-4,-0.003 0,-0.004 -0.17027,-1.20451 -0.30847,-2.409 -0.41406,-3.62305 -0.10903,-1.22917 -0.17089,-2.46065 -0.21289,-3.69726 -0.0352,-1.08468 -0.0751,-2.16531 -0.0586,-3.25391 0.001,-0.0956 0.0136,-0.19151 0.0156,-0.28711 0.0267,-1.38153 0.11586,-2.76574 0.22656,-4.15039 0.0703,-0.8791 0.10073,-1.75551 0.20508,-2.63477 1.5e-4,-0.001 -1.6e-4,-0.003 0,-0.004 0.28058,-2.37803 0.66127,-4.75468 1.19531,-7.12305 l 16.51758,-73.30273 c -1.51196,-2.47954 -3.17371,-4.88891 -5.01758,-7.19727 -2.74761,-3.46622 -5.80089,-6.59308 -9.08203,-9.4043 z m -124.50586,17.4043 c -5.86368,0.33273 -10.50285,0.73256 -14.10547,1.43164 -0.002,3.3e-4 -0.004,-3.2e-4 -0.006,0 -0.004,8.2e-4 -0.008,0.001 -0.0117,0.002 -1.79235,0.3486 -3.32699,0.77185 -4.62695,1.29883 -0.007,0.003 -0.0142,0.007 -0.0215,0.01 -1.29486,0.52714 -2.35538,1.15889 -3.20507,1.92187 -0.003,0.003 -0.009,0.003 -0.0117,0.006 l -0.002,0.002 -0.002,0.002 c -8.5e-4,0.001 -0.001,0.003 -0.002,0.004 -0.56288,0.68466 -1.03983,1.44363 -1.45899,2.24024 -0.0705,0.13677 -0.14521,0.27028 -0.21093,0.41016 -0.003,0.006 -0.005,0.0119 -0.008,0.0176 -0.39906,0.83495 -0.73209,1.71322 -0.93945,2.6543 L 704,278.69922 l -11.09961,49.5 32.88086,-0.0606 1.61914,-7.13867 2.29883,-10.30078 c 1.3,-5.89997 6.50003,-10 12.5,-10 h 20.93555 l 9.43945,-41.74805 c -0.77325,-0.19833 -1.59954,-0.3912 -2.7168,-0.55078 H 763.5 757.30078 Z"
   style="fill:#ff221d"
   id="path253" /><path
   d="m 388.85352,177.87305 c 9e-5,6.3e-4 -10e-5,0.001 0,0.002 -4e-5,0.002 -2.8e-4,0.004 0,0.006 0.26082,1.79175 0.43166,3.59077 0.54882,5.40234 4.7e-4,0.007 0.001,0.0143 0.002,0.0215 0.0233,0.36248 0.043,0.7248 0.0605,1.08789 0.008,0.16344 0.0199,0.3265 0.0274,0.49023 0.0635,1.54713 0.0915,3.09198 0.0488,4.64649 -0.0232,1.03875 -0.10445,2.07693 -0.17579,3.11718 -0.0842,1.14684 -0.13831,2.29075 -0.28125,3.4375 -4e-4,0.003 4.1e-4,0.007 0,0.01 -0.28784,2.30666 -0.65498,4.61187 -1.18359,6.90625 l -0.0996,0.30078 -3,13.29883 H 371.09961 323.40039 302 l 4.13281,-18.38477 c -0.321,-0.98822 -0.81622,-1.84504 -1.71875,-2.54687 -0.3294,-0.14773 -0.98411,-0.23021 -1.36133,-0.36719 H 196.30078 c -1.49998,0 -2.94922,0.25586 -4.30078,0.73242 -1.35156,0.47657 -2.60468,1.17344 -3.71094,2.05469 -1.10625,0.88125 -2.06601,1.94805 -2.83008,3.16211 -0.76406,1.21406 -1.3332,2.5758 -1.6582,4.05078 L 180.90039,218 c -0.25,0.94999 -0.14892,1.77422 0.0762,2.44922 0.2251,0.675 0.57422,1.20078 0.82422,1.55078 0.25,0.35 0.6748,0.79941 1.28711,1.16211 0.61231,0.36269 1.41212,0.63867 2.41211,0.63867 h 121.69922 c 18.59979,0 36.00168,8.2986 47.60156,22.89844 0.90614,1.13074 1.68422,2.32807 2.5,3.50586 v -1.10547 h 31.59961 v 8.37305 l 13.90039,-61.57227 0.29688,-1.32422 c -1.51509,-2.50313 -3.15206,-4.9466 -4.99805,-7.27539 -2.78963,-3.49233 -5.92339,-6.59338 -9.24609,-9.42773 z M 121.80078,281.35156 c 2.02493,12.06611 7.10412,23.56515 15,33.44922 0.60204,0.75363 1.23421,1.47393 1.86133,2.19922 h 8.03711 v -20.98047 c -2.79228,-0.9473 -5.48597,-2.12616 -8.12695,-3.41406 -0.003,-0.002 -0.006,-0.004 -0.01,-0.006 -1.0442,-0.50368 -2.05528,-1.05763 -3.07422,-1.61133 -1.48342,-0.81592 -2.93018,-1.69069 -4.35547,-2.61133 -0.001,-7.7e-4 -0.003,-0.001 -0.004,-0.002 -1.57197,-1.00418 -3.10641,-2.0517 -4.60157,-3.17969 -1.59033,-1.18339 -3.13721,-2.43227 -4.6289,-3.76367 -0.0315,-0.0282 -0.0662,-0.0519 -0.0977,-0.0801 z M 366.53125,298.5 355.90039,345.09961 c -2.32497,10.19989 -6.29994,19.63159 -11.60937,28.04101 -2.65473,4.20471 -5.64332,8.15426 -8.92579,11.81641 -3.27502,3.65386 -6.84259,7.01949 -10.66406,10.07031 -0.001,8.7e-4 -0.003,0.001 -0.004,0.002 -0.0164,0.0131 -0.0324,0.026 -0.0488,0.0391 -0.001,0.001 -0.002,0.003 -0.004,0.004 -3.82245,3.04649 -7.89773,5.77737 -12.1875,8.1582 -4.28902,2.38041 -8.79279,4.41028 -13.4707,6.0625 -2.35916,0.83326 -4.76198,1.57293 -7.20508,2.20898 -4.8581,1.26479 -9.87123,2.13094 -15.00195,2.56836 -2.56536,0.21871 -5.1606,0.33008 -7.7793,0.33008 H 138.90039 c -2.36201,0 -4.69853,-0.1562 -7.01758,-0.39062 -0.81614,-0.0825 -1.61812,-0.21322 -2.42773,-0.32422 -0.008,-0.001 -0.0156,-0.003 -0.0234,-0.004 -1.44241,-0.20065 -2.87459,-0.43387 -4.29297,-0.72461 -0.003,-5.3e-4 -0.005,-0.001 -0.008,-0.002 -1.02426,-0.20769 -2.03843,-0.43596 -3.04883,-0.68946 -1.12153,-0.28438 -2.22561,-0.61269 -3.32812,-0.95312 -0.007,-0.002 -0.013,-0.004 -0.0195,-0.006 -1.15492,-0.35339 -2.31117,-0.69386 -3.44336,-1.10742 -0.003,-9.2e-4 -0.005,-0.001 -0.008,-0.002 -0.1708,-0.063 -0.33666,-0.13768 -0.5039,-0.20899 -0.2542,-0.0952 -0.499,-0.21232 -0.75196,-0.31055 -3.22452,-1.25212 -6.34082,-2.74412 -9.33789,-4.47461 -0.001,-7.2e-4 -0.003,-0.001 -0.004,-0.002 -0.12742,-0.074 -0.25976,-0.13806 -0.38672,-0.21289 -1.57328,-0.92229 -3.09281,-1.92836 -4.591799,-2.97851 -0.227895,-0.16016 -0.455539,-0.31939 -0.68164,-0.48243 -1.524113,-1.09597 -3.008153,-2.24433 -4.445313,-3.4707 -0.0025,-0.002 -0.0053,-0.004 -0.0078,-0.006 1.711191,11.87804 6.476264,23.2441 14.228514,32.94922 13.09994,16.39991 32.60012,25.69922 53.5,25.69922 h 130.09961 c 41.89976,0 77.60045,-28.49907 86.90039,-69.29883 l 1.30469,-5.71289 c -3e-4,-4.9e-4 3e-4,-0.001 0,-0.002 -2.05151,-3.36527 -3.74707,-6.88681 -5.17383,-10.50196 -0.19997,-0.50518 -0.43737,-0.99664 -0.625,-1.50586 -0.48809,-1.32909 -0.8799,-2.68301 -1.2832,-4.03711 -0.27974,-0.93473 -0.57343,-1.86342 -0.8125,-2.80859 -0.001,-0.004 -8.4e-4,-0.009 -0.002,-0.0137 -0.30898,-1.22959 -0.55724,-2.46797 -0.79687,-3.71289 -0.21599,-1.11342 -0.41222,-2.22788 -0.57227,-3.35156 -0.16303,-1.15618 -0.30083,-2.31157 -0.40429,-3.47657 -2.3e-4,-0.003 2.3e-4,-0.005 0,-0.008 -0.0842,-0.9348 -0.12133,-1.87366 -0.16211,-2.8125 -0.0164,-0.34685 -0.0475,-0.6917 -0.0586,-1.03906 -0.0334,-1.04707 -0.0753,-2.08988 -0.0605,-3.14063 0.0198,-1.52428 0.12554,-3.04972 0.24804,-4.57812 0.001,-0.0131 0.003,-0.026 0.004,-0.0391 0.0682,-0.83678 0.0963,-1.67091 0.19531,-2.50782 0.28111,-2.38745 0.66309,-4.77473 1.19922,-7.15234 l 7.33789,-32.5 z m -188.23047,1.40039 v 38.5 h 82.3418 c 4.44707,-0.70133 8.09341,-1.42117 10.57031,-2.13867 0.60911,-0.32558 1.10299,-0.72278 1.6582,-1.08203 0.97628,-0.86023 1.82549,-1.86783 2.50977,-2.9961 4.5e-4,-7.4e-4 0.002,-0.001 0.002,-0.002 0.0124,-0.0213 0.0211,-0.0449 0.0332,-0.0664 7.3e-4,-0.001 0.001,-0.003 0.002,-0.004 0.67211,-1.12455 1.18582,-2.36484 1.48242,-3.71094 L 282,305.69922 c 0.25,-0.94999 0.14893,-1.77422 -0.0762,-2.44922 -0.2251,-0.675 -0.57422,-1.20078 -0.82422,-1.55078 -0.25,-0.35 -0.6748,-0.7999 -1.28711,-1.16211 -0.61231,-0.36221 -1.41212,-0.63672 -2.41211,-0.63672 z"
   style="fill:#ff221d"
   id="path252" /><path
   d="m 545.80078,182.40039 -3,13.40039 L 512.90039,328.5 c -1.3,5.89997 -6.50003,10 -12.5,10 H 454 L 484.5,203.40039 489.19922,182.5 H 467.80078 419.5 405.80078 l -3,13.40039 -13.90039,61.57227 v 35.09375 c 0.79477,-2.9825 1.5375,-5.26668 2.37305,-8.89063 6e-5,-0.001 -7e-5,-0.003 0,-0.004 0.0684,-1.39498 0.10547,-2.82411 0.10547,-4.27539 0,-2.94365 0.22556,-6.75293 0.63281,-11.11523 0.81449,-8.72461 2.35627,-19.66244 4.27344,-30.32617 0.95858,-5.33187 2.0106,-10.59573 3.11328,-15.47852 l 8.01953,-35.51172 h 39.67969 c 8.86433,0 15.76008,0.0587 21.08007,0.26758 5.32,0.20884 9.06455,0.56857 11.62891,1.17188 1.28218,0.30165 2.26861,0.66258 3.00977,1.09765 0.74115,0.43507 1.23643,0.94347 1.53515,1.53516 0.29872,0.59169 0.4006,1.26754 0.35547,2.03906 -0.0451,0.77152 -0.23695,1.63874 -0.52734,2.61328 -1.46186,4.90597 -8.868,36.42138 -16.25977,68.56836 -7.39177,32.14699 -14.7692,64.92569 -16.17383,72.35938 0.42246,1.08222 1.16903,1.93177 2.39649,2.58203 1.22746,0.65026 2.93526,1.10067 5.27929,1.38281 2.34404,0.28215 5.32547,0.39713 9.09766,0.375 3.77219,-0.0221 8.33574,-0.1808 13.84766,-0.44336 l 18.44336,-0.8789 c 1.95787,-0.27585 3.7387,-0.57096 5.16992,-0.89063 1.43122,-0.31967 2.51284,-0.66389 3.07617,-1.03906 0.37812,-0.25183 0.86469,-1.0146 1.44336,-2.23633 0.57867,-1.22173 1.24898,-2.90219 1.99805,-4.98828 1.49813,-4.17218 3.30789,-9.9685 5.30664,-16.96485 1.99874,-6.99634 4.18724,-15.19379 6.44531,-24.16992 2.25807,-8.97612 4.58521,-18.73026 6.86133,-28.84179 l 16.55273,-73.53907 h 3.00196 l 0.27929,-1.36328 16.98242,1.36328 h 19.09375 c 8.78082,0 15.61333,0.058 20.88868,0.26758 5.27534,0.20962 8.99371,0.57186 11.54296,1.17578 1.27463,0.30197 2.25686,0.66444 2.9961,1.09961 0.73924,0.43517 1.23583,0.94175 1.53711,1.53321 0.30127,0.59145 0.40841,1.26627 0.36914,2.0371 -0.0393,0.77084 -0.22543,1.63804 -0.50781,2.61133 -1.39228,4.7987 -11.77714,50.23191 -23.07618,100.96094 -11.29902,50.72903 -21.77216,97.28338 -23.27343,103.45313 -0.33584,1.38017 -0.64811,2.58979 -1.08399,3.65039 -0.43588,1.06059 -0.99521,1.9726 -1.82226,2.7539 -0.82706,0.7813 -1.92228,1.43232 -3.43164,1.97461 -1.50937,0.5423 -3.4332,0.97479 -5.91602,1.31836 -2.48282,0.34358 -5.52407,0.59806 -9.27148,0.7832 -3.74742,0.18515 -8.20076,0.30214 -13.50391,0.36914 -10.60629,0.134 -24.61535,0.0715 -43.19141,-0.0254 -20.75995,-0.10823 -40.47515,-0.51346 -55.51367,-1.07812 -7.51926,-0.28233 -13.86814,-0.60392 -18.5957,-0.94922 -4.72756,-0.3453 -7.83304,-0.71372 -8.86133,-1.08789 -1.73288,-0.63055 -3.57352,-1.53955 -5.47852,-2.67969 -1.90499,-1.14014 -3.87353,-2.51102 -5.86328,-4.06445 -1.98975,-1.55344 -4.00113,-3.28971 -5.98828,-5.16016 -3.97429,-3.74088 -7.8552,-8.01999 -11.29492,-12.45117 -1.71986,-2.21559 -3.32998,-4.46916 -4.78516,-6.71289 -1.45517,-2.24373 -2.75623,-4.47676 -3.85937,-6.65234 -1.10314,-2.17558 -2.00814,-4.29355 -2.67188,-6.30469 -0.72927,-2.20973 -1.26686,-4.77664 -1.63086,-7.58203 -0.36399,-2.80539 -0.55359,-5.85009 -0.58984,-9.01563 -0.0362,-3.16553 0.082,-6.45202 0.33594,-9.74218 0.25397,-3.29017 0.64373,-6.58243 1.15039,-9.76172 0.50666,-3.1793 1.12975,-6.24522 1.85156,-9.07813 0.72182,-2.83291 1.54197,-5.43453 2.44141,-7.68555 0.89944,-2.25101 1.87844,-4.15037 2.91797,-5.58398 0.51976,-0.7168 1.05381,-1.31686 1.60156,-1.78516 0.54775,-0.46829 1.10864,-0.80574 1.67969,-0.99609 0.0428,-0.0143 0.0844,-0.0495 0.12695,-0.0684 h 0.002 c 0.33277,-1.06123 0.72172,-2.82146 1.06446,-3.98828 h -7.67774 l -7.33789,32.5 c -4.59997,20.39988 0.19892,41.50048 13.29883,57.90039 13.09991,16.39991 32.60012,25.69922 53.5,25.69922 h 33.09961 c 8.19994,0 15.4012,-0.6 21.70117,-1.5 l -0.30078,1.5 H 515 563.30078 577 l 3,-13.40039 9.40039,-41.79883 8.79883,-39 26.40039,-117.09961 4.59961,-20.90039 H 607.80078 559.5 Z"
   style="fill:#ff221d"
   id="path251" /><path
   d="m 1131.3008,182.40039 -3,13.40039 -9.4004,41.79883 -35.2012,156.09961 -4.6992,20.90039 h 21.4004 48.2988 13.7012 l 3,-13.40039 3.7988,-17 20.7012,-91.69922 1.0996,-4.80078 4.3008,-19.09961 c 0.9484,-4.30424 3.9848,-7.62782 7.8808,-9.12305 -2.5392,0.58321 -4.6377,1.21521 -5.873,1.91406 -0.4242,0.27618 -0.8568,0.55206 -1.0371,0.84375 -0.4649,0.75218 -1.3576,3.45418 -2.5723,7.69141 -1.2146,4.23723 -2.751,10.00982 -4.5039,16.90039 -3.5057,13.78115 -7.8765,32.03721 -12.2656,51.44141 l -15.959,70.56054 -38.2891,1.45704 c -7.2013,0.27387 -13.1926,0.40273 -18.125,0.36523 -4.9323,-0.0375 -8.8063,-0.242 -11.7753,-0.63086 -2.9691,-0.38886 -5.0323,-0.96196 -6.3438,-1.74219 -0.6557,-0.39011 -1.1232,-0.83267 -1.4219,-1.32812 -0.2986,-0.49545 -0.4284,-1.0446 -0.4082,-1.65039 0.059,-1.77149 2.7901,-15.16192 7.1426,-35.30664 4.3525,-20.14472 10.3265,-47.04384 16.8711,-75.83594 l 23.7988,-104.69922 75.7012,-1.37695 c 14.2142,-0.25843 26.0525,-0.37887 35.8144,-0.34375 7.3216,0.0263 13.4758,0.13994 18.5879,0.34961 5.1122,0.20966 9.1825,0.51517 12.3379,0.92383 3.1555,0.40866 5.3963,0.92159 6.8477,1.54492 0.7257,0.31166 1.2545,0.65126 1.6015,1.01953 0.3471,0.36827 0.5118,0.76457 0.5118,1.1914 0,1.667 -0.6731,6.44148 -1.7578,12.79102 -1.0848,6.34954 -2.5812,14.27416 -4.2266,22.24023 l -5.9824,28.9668 h -36.1016 c -4.4879,0 -8.6569,0.15314 -12.6562,0.35352 -1.0019,0.0531 -2.0684,0.0854 -3.0293,0.15039 -3.0164,0.19395 -5.6571,0.47875 -8.2207,0.77539 -1.5668,0.18659 -3.1254,0.37469 -4.5039,0.59375 0.1537,-0.007 0.3017,-0.0371 0.457,-0.0371 h 51.6992 13.6992 l 3,-13.40039 9.4004,-41.79883 4.8008,-21 H 1269 1236 c -8.2,0 -15.3992,0.6 -21.6992,1.5 l 0.2988,-1.5 H 1193.1992 1145 Z"
   style="fill:#ff221d"
   id="path250" /><path
   d="m 957.69922,182.40039 c -41.99976,0 -77.6985,28.60024 -86.89844,69.5 l -17.80078,79 c -4.59997,20.39988 0.20087,41.50048 13.30078,57.90039 13.09994,16.39991 32.60012,25.69922 53.5,25.69922 H 994.5 c 41.9997,0 77.7004,-28.60024 86.9004,-69.5 l 1.5996,-7 1.2285,-5.46484 h -2.4062 c -6e-4,0.004 -0,0.009 -0,0.0137 -0.2669,2.06561 -0.7908,4.3942 -1.5411,6.94531 -0.045,0.15484 -0.097,0.31608 -0.1445,0.47266 -0.7408,2.45212 -1.6986,5.11621 -2.8711,7.98242 -0.099,0.24159 -0.197,0.48016 -0.2988,0.72461 -0.9305,2.23265 -2.0975,4.68137 -3.2813,7.14648 -0.4913,1.02372 -0.8948,1.96662 -1.4296,3.0293 -1.729,3.43398 -3.649,7.03801 -5.8282,10.86133 -2.3063,4.04644 -4.7003,7.72848 -7.2539,11.07812 -0.01,0.008 -0.011,0.0174 -0.018,0.0254 -3e-4,4.2e-4 4e-4,0.002 0,0.002 -0.01,0.008 -0.014,0.0137 -0.019,0.0215 -2.5549,3.34617 -5.2701,6.36007 -8.2168,9.06445 -2.9539,2.71103 -6.1404,5.11331 -9.6328,7.23438 -3.4924,2.12107 -7.291,3.9607 -11.4668,5.54687 -4.1758,1.58617 -8.7283,2.91907 -13.7324,4.02539 -5.0041,1.10633 -10.4582,1.98643 -16.43556,2.66797 -5.97733,0.68154 -12.47872,1.16475 -19.57422,1.47657 -7.09551,0.31181 -14.78592,0.45207 -23.14453,0.44921 -11.31785,-0.004 -20.55238,-0.1092 -28.2461,-0.39257 -7.69371,-0.28338 -13.84638,-0.74438 -18.99804,-1.45704 -2.57583,-0.35632 -4.90172,-0.77585 -7.04493,-1.26757 -2.1432,-0.49173 -4.10338,-1.05533 -5.94921,-1.70118 -3.69168,-1.29169 -6.92453,-2.91112 -10.23829,-4.93164 -2.33195,-1.42187 -4.57113,-3.01051 -6.70507,-4.74414 -2.13395,-1.73362 -4.16304,-3.61225 -6.07227,-5.61132 -1.90922,-1.99907 -3.69963,-4.11968 -5.35742,-6.3379 -1.6578,-2.21821 -3.18285,-4.53473 -4.5625,-6.92578 -1.37966,-2.39105 -2.6127,-4.85546 -3.6875,-7.37304 -1.07481,-2.51759 -1.99113,-5.08773 -2.73438,-7.68555 -0.74324,-2.59782 -1.31424,-5.22372 -1.69921,-7.85547 -0.38498,-2.63175 -0.58399,-5.2693 -0.58399,-7.88867 0,-3.29068 0.31896,-7.39312 0.90039,-12.08594 0.58143,-4.69282 1.42575,-9.97568 2.47266,-15.62695 1.0469,-5.65127 2.29693,-11.67186 3.69336,-17.83789 2.79285,-12.33207 6.16881,-25.2495 9.66406,-36.97852 1.74763,-5.8645 3.52609,-11.43225 5.27539,-16.48047 1.7493,-5.04821 3.47045,-9.577 5.10547,-13.36523 1.63502,-3.78823 3.1831,-6.83536 4.58789,-8.91992 1.50092,-2.22722 3.40735,-4.67168 5.56641,-7.1836 2.15906,-2.51191 4.57019,-5.09053 7.08398,-7.58593 2.5138,-2.4954 5.1302,-4.90826 7.69531,-7.08594 2.56512,-2.17768 5.07955,-4.12094 7.39258,-5.67969 1.90004,-1.28043 3.67873,-2.41758 5.44336,-3.42773 1.76463,-1.01016 3.51594,-1.89278 5.35938,-2.66407 1.84344,-0.77128 3.77953,-1.43225 5.91601,-1.99609 2.13648,-0.56384 4.47345,-1.03015 7.11719,-1.41797 5.28748,-0.77563 11.80243,-1.23215 20.4043,-1.49219 8.60186,-0.26003 19.28986,-0.32452 32.91992,-0.32031 12.55916,0.004 22.77046,0.10569 31.22266,0.37695 8.4522,0.27127 15.1452,0.71189 20.668,1.39649 2.7614,0.3423 5.2306,0.74575 7.4804,1.21875 2.2498,0.473 4.2806,1.01477 6.166,1.63672 1.8855,0.62194 3.6248,1.32415 5.293,2.11328 1.6682,0.78913 3.2651,1.66606 4.8633,2.64062 1.9778,1.20609 3.9611,2.68859 5.918,4.39454 1.9568,1.70594 3.8866,3.63602 5.7578,5.73242 1.8712,2.09639 3.6833,4.36084 5.4043,6.73828 1.7209,2.37744 3.3514,4.86694 4.8574,7.41601 1.506,2.54908 2.8888,5.15628 4.1152,7.76758 1.2265,2.61131 2.2974,5.22689 3.1797,7.79102 0.8823,2.56412 1.5754,5.07683 2.0488,7.48437 0.4735,2.40754 0.7266,4.71002 0.7266,6.85157 0,1.83231 -0.162,3.86322 -0.4668,6.04296 -0.3047,2.17974 -0.7514,4.50859 -1.3223,6.9336 -1.1417,4.85002 -2.7777,10.08847 -4.7519,15.30664 -1.9742,5.21817 -4.2877,10.41648 -6.7852,15.18555 -1.2487,2.38453 -2.5436,4.66027 -3.8652,6.77929 -1.3216,2.11902 -2.6696,4.08068 -4.0254,5.83203 -1.9042,2.45979 -3.278,4.3456 -4.3555,5.97266 h 3.9825 c 9.3113,-10.12914 16.1329,-22.69332 19.3398,-36.99414 L 1099.3008,266 c 4.6,-20.39988 -0.2008,-41.50048 -13.3008,-57.90039 -13.1,-16.29991 -32.5999,-25.69922 -53.5996,-25.69922 z m 126.69338,134.69922 v 14.70703 l 3.3066,-14.70703 z"
   style="fill:#ff221d"
   id="path249" /><path
   d="m 642.30078,182.40039 -3,13.40039 -2.40039,10.59961 -7,31.19922 L 602,361.30078 l -7.30078,32.29883 -3.79883,17.09961 -0.90039,4 -4.69922,20.90039 H 606.69922 655 668.69922 l 3,-13.40039 3.24023,-14.4043 c -0.19126,0.13018 -0.53864,0.21665 -0.71484,0.35156 -1.01487,0.95232 -1.71238,2.07476 -2.26367,3.41797 -0.55129,1.34322 -0.95636,2.90722 -1.38477,4.74219 -0.34427,1.4746 -0.68099,2.77563 -1.07617,3.92773 -0.39518,1.15211 -0.84807,2.15602 -1.42969,3.03125 -0.58161,0.87524 -1.29173,1.62358 -2.19531,2.26758 -0.90358,0.64401 -2.0022,1.18223 -3.36328,1.64063 -1.36108,0.4584 -2.9834,0.83587 -4.9375,1.15429 -1.95411,0.31843 -4.23921,0.57866 -6.92188,0.80274 -5.36532,0.44815 -12.32327,0.75311 -21.41601,1.09766 -7.23021,0.27396 -13.24449,0.40258 -18.19531,0.36523 -4.95083,-0.0374 -8.83914,-0.24012 -11.81836,-0.62891 -2.97922,-0.38878 -5.04789,-0.9638 -6.36329,-1.74414 -0.65769,-0.39016 -1.12828,-0.83255 -1.42773,-1.32812 -0.29945,-0.49558 -0.42853,-1.04439 -0.4082,-1.65039 0.0594,-1.77149 3.05796,-16.28254 7.83984,-38.23438 4.78188,-21.95183 11.34714,-51.34458 18.54297,-82.8789 l 26.16602,-114.67188 79.45898,-1.37891 c 10.78144,-0.18708 20.44908,-0.30491 29.14258,-0.32421 8.91897,-0.0198 16.8092,0.0661 23.82422,0.28515 7.01501,0.21908 13.15548,0.57151 18.57226,1.08789 5.41678,0.51639 10.1101,1.19624 14.23438,2.06836 4.12428,0.87213 7.6789,1.93636 10.8164,3.22266 l 1.41407,0.0254 0.77343,0.90039 c 1.9071,0.90127 3.65386,1.89837 5.28125,3 1.62739,1.10163 3.13574,2.30811 4.56446,3.62695 1.42872,1.31885 2.77875,2.74983 4.08984,4.30274 1.31109,1.5529 2.58293,3.22743 3.85742,5.03125 1.95339,2.76465 3.67251,5.45932 5.16211,8.16211 1.4896,2.70278 2.7495,5.41361 3.78125,8.20703 1.03175,2.79342 1.83617,5.67048 2.41602,8.70703 0.57985,3.03655 0.93447,6.23187 1.06836,9.66406 0.13389,3.43219 0.0464,7.1017 -0.25977,11.08203 -0.30612,3.98033 -0.83011,8.27216 -1.57031,12.95313 -0.7402,4.68097 -1.69496,9.75104 -2.86328,15.28515 -1.16833,5.53412 -2.55011,11.5325 -4.14063,18.07227 -2.43144,9.99742 -4.82322,18.96377 -7.30469,27.00977 -2.48147,8.04599 -5.05262,15.17196 -7.8457,21.48437 -1.39654,3.15621 -2.8476,6.10939 -4.37109,8.87305 -1.52349,2.76365 -3.1196,5.33799 -4.80274,7.73633 -1.68313,2.39833 -3.45459,4.61944 -5.33007,6.67968 -1.87549,2.06025 -3.85456,3.95961 -5.95508,5.70899 -2.10053,1.74938 -4.32143,3.35065 -6.67969,4.8164 -2.35826,1.46575 -4.85325,2.79456 -7.50195,4.00391 -2.6487,1.20935 -5.452,2.29912 -8.42383,3.2793 -2.97184,0.98017 -6.11374,1.85262 -9.44141,2.63086 -3.32766,0.77823 -6.84044,1.46093 -10.55664,2.06445 -3.7162,0.60352 -7.63601,1.12794 -11.77344,1.58398 -8.27485,0.91209 -17.42413,1.55548 -27.58007,2.04102 -10.24778,0.48993 -17.30375,0.89962 -23.94922,1.33984 -4.20504,0.28405 -8.25483,0.5646 -11.33985,0.89649 4.37568,0.44004 9.13943,0.71484 14.46094,0.71484 h 47.29883 c 41.99976,0 77.70045,-28.60024 86.90039,-69.5 L 854.5,266 c 4.59997,-20.39988 -0.20087,-41.50048 -13.30078,-57.90039 -13.09994,-16.29991 -32.59973,-25.69922 -53.59961,-25.69922 h -19.5 -8.79883 -12.20117 c -8.19994,0 -15.39925,0.6 -21.69922,1.5 l 0.29883,-1.5 H 704.30078 656 Z m 112.37891,75.12305 c -4.01313,-0.0252 -8.424,0.0571 -13.05078,0.25976 -4.61283,0.2021 -7.26754,0.42146 -10.7168,0.61719 h 26.38867 6.19922 6.35742 c -0.43379,-0.062 -1.09375,-0.0923 -1.57226,-0.14844 -3.54263,-0.40881 -8.05437,-0.69361 -13.60547,-0.72851 z m 17.89453,1.42773 -13.375,59.14844 c -1.3,5.89997 -6.50003,10 -12.5,10 l -53.79883,0.0996 11.09961,-49.5 2.30078,-10.29883 c 0.44647,-2.02629 1.37818,-3.81771 2.61914,-5.32617 -0.3457,0.31166 -0.66746,0.64739 -0.97461,1.0039 -0.41733,0.48685 -0.79417,1.04523 -1.15429,1.62696 -0.34355,0.5458 -0.66071,1.1665 -0.97266,1.80469 -1.15308,2.38589 -2.14195,5.22952 -3.4082,9.19726 -1.53145,4.7987 -3.30461,11.26484 -4.92774,17.81641 -1.62313,6.55157 -3.09623,13.18861 -4.02734,18.33008 l -3.38477,18.69726 h 32.33789 c 4.44854,0 8.78729,-0.15207 12.82227,-0.42578 4.03498,-0.27371 7.76598,-0.6697 10.99805,-1.1582 3.23206,-0.48851 5.96607,-1.06853 8.00585,-1.71289 1.0199,-0.32219 1.86681,-0.66162 2.51563,-1.01172 0.64882,-0.3501 1.09905,-0.71138 1.32812,-1.08203 0.78518,-1.27044 2.21841,-5.48794 3.93165,-11.23438 1.71324,-5.74644 3.70558,-13.02108 5.61328,-20.4043 1.90769,-7.38321 3.73107,-14.87588 5.09961,-21.05664 1.36853,-6.18075 2.28314,-11.05039 2.3789,-13.18945 0.0142,-0.31664 -0.54607,-0.59007 -1.13476,-0.85937 -0.40577,-0.16062 -0.82412,-0.31904 -1.39258,-0.46485 z"
   style="fill:#ff221d"
   id="path248" /><path
   d="m 191.09961,119.30078 c -41.99976,0 -77.70045,28.60024 -86.90039,69.5 l -5.000001,22.29883 c -4.89997,21.69988 0.301255,44.10009 14.201171,61.5 8.80833,11.02627 20.35227,19.0277 33.29883,23.41992 v -0.61914 h 31.60156 v 4.5 h 99.09961 c 2,0 3.19922,1.09883 3.69922,1.79883 0.5,0.7 1.40039,2.1 0.90039,4 l -5.09961,22.70117 c -0.60165,2.73057 -2.06425,5.04782 -4.0293,6.7793 4.6e-4,-3e-4 0.002,2.9e-4 0.002,0 0.83842,-0.54256 1.62593,-1.11639 2.36328,-1.72071 0.79362,-0.68369 1.56926,-1.3784 2.21484,-2.15039 1.17005,-2.14685 2.27069,-4.90775 3.16406,-7.90234 0.89338,-2.99459 1.57948,-6.22291 1.91993,-9.30664 l 1.65039,-14.95703 -69.62305,-3.46875 c -9.75967,-0.48627 -19.30758,-1.11632 -28.24219,-1.8418 -8.93461,-0.72548 -17.2554,-1.54723 -24.55859,-2.41601 -7.30319,-0.86879 -13.58967,-1.78499 -18.45508,-2.70118 -4.86541,-0.91618 -8.31036,-1.83153 -9.93164,-2.69922 -2.30277,-1.2324 -4.47969,-2.64292 -6.53125,-4.21484 -2.05156,-1.57192 -3.97738,-3.30575 -5.77539,-5.18555 -1.79801,-1.87979 -3.46962,-3.90453 -5.01172,-6.06054 -1.5421,-2.15602 -2.95444,-4.44316 -4.23828,-6.84375 -1.28384,-2.40059 -2.4377,-4.91578 -3.46094,-7.5293 -1.02324,-2.61352 -1.91745,-5.32434 -2.67773,-8.11914 -6.08227,-22.35839 -3.71242,-50.01141 7.71094,-74.85742 1.42791,-3.10575 2.99892,-6.16771 4.71093,-9.16992 1.71202,-3.00221 3.566,-5.94548 5.56446,-8.8125 2.37938,-3.41351 4.81156,-6.48692 7.42382,-9.25196 2.61227,-2.76503 5.40481,-5.22195 8.50782,-7.40234 3.10301,-2.18039 6.51556,-4.08459 10.36718,-5.74414 3.85162,-1.65955 8.14191,-3.07481 13,-4.27735 4.8581,-1.20253 10.28383,-2.19261 16.40625,-3.00195 6.12243,-0.80934 12.94131,-1.438 20.58594,-1.91797 7.64463,-0.47996 16.11632,-0.81098 25.54102,-1.02539 9.42469,-0.2144 19.803,-0.31156 31.26562,-0.32422 18.22816,-0.0201 32.59787,0.0335 44.11914,0.25977 11.52128,0.22631 20.19417,0.62564 27.03125,1.29687 3.41854,0.33562 6.37716,0.7386 9.00391,1.22266 2.62674,0.48406 4.92198,1.04972 7.00976,1.70703 2.08779,0.65731 3.96982,1.40635 5.77149,2.26172 1.80166,0.85537 3.52263,1.81629 5.29101,2.89453 2.55188,1.55597 4.97272,3.28003 7.25,5.15235 2.27729,1.87231 4.41126,3.89384 6.39258,6.04101 1.98133,2.14717 3.80866,4.42023 5.47266,6.80078 1.664,2.38055 3.16494,4.86701 4.49023,7.43946 1.3253,2.57244 2.47618,5.23026 3.44141,7.95312 0.96523,2.72286 1.74434,5.51195 2.32812,8.34375 0.58379,2.8318 0.97137,5.70622 1.15235,8.60547 0.18097,2.89925 0.15531,5.82282 -0.0879,8.74805 l -1.5293,18.39648 -38.64062,1.45508 c -9.01398,0.3397 -15.93556,0.55889 -21.24805,0.54687 -5.31249,-0.012 -9.01546,-0.25617 -11.5918,-0.83789 -1.28817,-0.29086 -2.29495,-0.66646 -3.08008,-1.14062 -0.78512,-0.47416 -1.3492,-1.04576 -1.75195,-1.73047 -0.40275,-0.68471 -0.64411,-1.48179 -0.78516,-2.4043 -0.14104,-0.92251 -0.18164,-1.97064 -0.18164,-3.1582 0,-1.20464 -0.12514,-2.18454 -0.32031,-3.11914 -0.0581,-0.26276 -0.0884,-0.55187 -0.16797,-0.79688 L 302,216.59961 h 21.40039 47.69922 13.70117 l 3,-13.29883 0.0996,-0.30078 c 4.69997,-20.39988 -0.20126,-41.60009 -13.20117,-58 -13.09994,-16.29991 -32.59973,-25.69922 -53.59961,-25.69922 z m 56.00976,72.65234 c -8.84403,8e-4 -16.57486,0.068 -23.33398,0.24024 -6.75912,0.17222 -12.54751,0.44896 -17.50391,0.87305 -4.95639,0.42408 -9.08171,0.99558 -12.51757,1.75195 -3.43587,0.75637 -6.18138,1.69811 -8.37891,2.86719 -0.74221,0.88905 -1.34056,1.9114 -1.89844,3.09375 -0.55788,1.18235 -1.07529,2.5247 -1.65625,4.05273 -2.0204,5.31406 -3.05093,11.05941 -2.78515,14.66016 0.0886,1.20025 0.32085,2.16301 0.70898,2.79101 0.19406,0.31401 0.88782,0.62139 2.0293,0.91797 1.14148,0.29658 2.73163,0.58255 4.71875,0.85547 3.97423,0.54585 9.5371,1.03737 16.2832,1.45117 13.49221,0.8276 31.71392,1.3418 51.4082,1.3418 17.22452,0 30.34665,0.0287 40.5625,0.25781 10.21585,0.22915 17.52515,0.65945 23.1211,1.45899 2.79797,0.39976 5.16887,0.8917 7.25976,1.49804 2.0909,0.60634 3.90157,1.32607 5.58399,2.18164 1.68241,0.85557 3.23606,1.84669 4.80859,2.99414 1.57253,1.14746 3.16454,2.45161 4.92578,3.9336 3.00174,2.5258 5.41682,4.8214 7.38672,7.23047 1.9699,2.40906 3.4949,4.9318 4.71289,7.91211 1.218,2.9803 2.12897,6.41867 2.875,10.6582 0.74603,4.23953 1.32686,9.28006 1.88086,15.4668 v -30.23633 c -0.81579,-1.1778 -1.59385,-2.37511 -2.5,-3.50586 -11.59994,-14.59991 -29.00168,-22.89844 -47.60156,-22.89844 H 185.5 c -2,0 -3.19922,-1.10078 -3.69922,-1.80078 -0.5,-0.7 -1.40039,-2.1 -0.90039,-4 l 2.90039,-12.69922 c 1.3,-5.89997 6.50003,-10 12.5,-10 h 106.75195 c -1.02341,-0.37163 -2.28069,-0.6988 -3.69336,-0.99609 -1.07846,-0.23028 -2.24534,-0.44587 -3.57812,-0.63672 -1.9648,-0.27654 -4.25524,-0.51063 -6.83984,-0.70899 -1.05654,-0.0834 -2.07133,-0.1727 -3.24219,-0.24414 -8.87392,-0.527 -20.74552,-0.74512 -37.44727,-0.7539 -0.47646,0 -0.65825,-0.008 -1.14258,-0.008 z M 358.21484,298.5 c 0.10298,6.20994 -0.0813,12.19625 -0.55078,17.95312 -0.46947,5.75688 -1.22473,11.28466 -2.26367,16.57618 -1.03894,5.29151 -2.36135,10.34628 -3.9668,15.16015 -1.60544,4.81388 -3.49313,9.387 -5.66211,13.71094 -2.16897,4.32394 -4.62007,8.39898 -7.34961,12.2207 -2.72953,3.82173 -5.73827,7.39005 -9.02539,10.69727 -3.28711,3.30721 -6.85162,6.35435 -10.69336,9.13476 -3.84173,2.78042 -7.96013,5.29383 -12.35351,7.53516 -8.42468,4.29795 -15.7992,6.75662 -29.95117,8.14063 -7.07599,0.692 -15.84568,1.11485 -27.28907,1.36523 -11.44338,0.25038 -25.56027,0.32813 -43.32812,0.32813 -17.30268,0 -31.19322,-0.0838 -42.52148,-0.33204 -11.32827,-0.24824 -20.0948,-0.66029 -27.1504,-1.31445 -14.11118,-1.30832 -21.37834,-3.58681 -28.60937,-7.46484 -2.25842,-1.21121 -4.50145,-2.68231 -6.69922,-4.36328 -2.197765,-1.68098 -4.350045,-3.57134 -6.423827,-5.625 -2.073782,-2.05367 -4.07056,-4.27036 -5.957031,-6.59961 -1.886471,-2.32926 -3.662997,-4.77154 -5.298828,-7.2793 -1.635832,-2.50776 -3.13126,-5.08074 -4.453125,-7.66992 -1.321865,-2.58918 -2.469492,-5.19407 -3.414063,-7.76758 -0.944571,-2.57351 -1.685504,-5.11542 -2.189453,-7.57617 -0.503949,-2.46075 -0.771484,-4.8409 -0.771484,-7.0918 0,-2.95409 0.06657,-5.58714 0.25,-7.93164 0.183426,-2.3445 0.482736,-4.39954 0.947265,-6.20312 0.464529,-1.80359 1.094191,-3.35422 1.9375,-4.68555 0.84331,-1.33133 1.900937,-2.44336 3.220703,-3.3711 1.319767,-0.92773 2.902974,-1.67086 4.796875,-2.26367 1.893902,-0.5928 4.09835,-1.03674 6.664063,-1.36328 5.131427,-0.65308 11.704635,-0.84179 20.109375,-0.8418 7.65083,0 13.46782,0.03 17.89062,0.26172 4.42281,0.23169 7.45178,0.66534 9.52344,1.46875 1.03583,0.40171 1.83286,0.89551 2.44531,1.50391 0.61246,0.6084 1.0392,1.33186 1.3379,2.18945 0.59739,1.71519 0.67773,3.97051 0.67773,6.9375 v 5.72266 c 0,0.85983 0.0984,1.625 0.35156,2.30273 0.2529,0.67689 0.66133,1.26732 1.28125,1.77735 0.002,0.002 0.006,0.002 0.008,0.004 0.61986,0.50826 1.44965,0.938 2.54883,1.29493 0.39972,0.12979 1.03838,0.20334 1.51172,0.31445 0.83448,0.19587 1.58318,0.40997 2.66992,0.55078 7.7e-4,10e-5 0.001,-10e-5 0.002,0 l 23.37695,-1.10547 H 146.69922 V 317 h -9.5 -48.298829 -13.701172 l -3,13.40039 -0.09961,0.40039 c -4.59997,20.39988 0.20086,41.49853 13.300782,57.89844 13.099919,16.39991 32.600119,25.70117 53.499999,25.70117 H 269 c 41.89976,0 77.60045,-28.50102 86.90039,-69.30078 L 366.53125,298.5 Z m -179.91406,39.90039 v 6.18945 l 27.35938,-1.29297 c 14.56933,-0.68831 27.8141,-1.72491 38.95703,-2.89648 1.07893,-0.11392 2.24946,-0.22111 3.2832,-0.33789 4.72662,-0.53267 9.09599,-1.08708 12.74219,-1.66211 z"
   style="fill:#ff221d"
   id="path247" /><path
   d="m 357.30078,249.09961 v 31.3418 c 7.9e-4,0.009 0.001,0.0146 0.002,0.0234 0.14498,1.60848 0.32156,2.60564 0.46485,4.39063 0.37775,4.70602 0.37375,9.11796 0.44726,13.58984 3e-4,0.0182 -3e-4,0.0365 0,0.0547 h 29.10157 c 0.001,-0.005 0.002,-0.0125 0.004,-0.0176 0.50849,-1.73159 1.0512,-3.9313 1.58008,-5.91601 v -43.4668 z"
   style="fill:#ff221d"
   id="path246" /><path
   d="m 146.69922,295.40039 v 49.40039 h 27.14453 l 4.45703,-0.21094 v -49.18945 z"
   style="fill:#ff221d"
   id="path245" />
<path
   d="m 256.76367,122.27734 c -91.70128,0.10129 -114.06249,5.63717 -133.09765,32.94532 -31.975468,45.87244 -27.135484,111.0744 9.70898,130.79296 6.48514,3.47076 42.14869,7.71312 81.1875,9.65821 l 69.62305,3.46875 -1.65039,14.95703 c -0.68089,6.16749 -2.74389,12.91526 -5.08399,17.20898 1.73008,-2.06882 3.05508,-4.49222 4.16797,-7.33007 0.0766,-0.20759 0.17381,-0.38341 0.24805,-0.59571 0.44847,-1.20424 0.84418,-2.53204 1.22851,-3.90234 0.5559,-2.09682 1.10044,-4.18773 1.60157,-6.69336 0.78157,-3.90786 1.34132,-6.8701 1.48632,-9.11719 0.0725,-1.12354 0.0417,-2.06884 -0.11718,-2.86328 -0.15884,-0.79444 -0.44647,-1.4382 -0.88477,-1.96094 -0.4383,-0.52273 -1.02707,-0.924 -1.79297,-1.23242 -0.7659,-0.30842 -1.70798,-0.52429 -2.84961,-0.67578 -2.28325,-0.30299 -5.36646,-0.34949 -9.4414,-0.36914 -9.84365,-0.0475 -22.8547,-0.68186 -36.97852,-1.68359 -14.12382,-1.00174 -29.36018,-2.37102 -43.6582,-3.89063 -14.29802,-1.51961 -27.65721,-3.18798 -38.02344,-4.78906 -5.18312,-0.80054 -9.61853,-1.58514 -13.04883,-2.32422 -3.4303,-0.73909 -5.8553,-1.43356 -7.01953,-2.05664 -2.11568,-1.13228 -4.09618,-2.50175 -5.94336,-4.08399 -1.84718,-1.58223 -3.5616,-3.37763 -5.14062,-5.35937 -1.57903,-1.98174 -3.02277,-4.14969 -4.33399,-6.48047 -1.31121,-2.33078 -2.48945,-4.82376 -3.5332,-7.45312 -1.04375,-2.62937 -1.95385,-5.39594 -2.73047,-8.27344 -0.77662,-2.8775 -1.41984,-5.86623 -1.92969,-8.94141 -2.54923,-15.37588 -1.76626,-32.90783 2.32813,-49.4414 0.81888,-3.30672 1.76992,-6.57374 2.85351,-9.7754 1.08359,-3.20165 2.30048,-6.33667 3.64844,-9.38281 1.34796,-3.04614 2.82747,-6.00358 4.43945,-8.84375 1.61198,-2.84016 3.35677,-5.5647 5.23243,-8.14844 1.87565,-2.58373 3.88249,-5.02588 6.02148,-7.30273 1.46507,-1.5595 3.39435,-3.19066 5.62695,-4.80469 2.23261,-1.61402 4.76831,-3.21041 7.44532,-4.69922 2.677,-1.4888 5.49664,-2.87084 8.29492,-4.05468 2.79828,-1.18385 5.57545,-2.17 8.17187,-2.86914 3.19735,-0.86096 8.34512,-1.60928 14.93164,-2.2461 6.58653,-0.63681 14.61119,-1.16129 23.5625,-1.57617 17.90263,-0.82976 39.51116,-1.21868 60.72657,-1.17383 21.21539,0.0448 42.03962,0.52345 58.37304,1.42578 8.16671,0.45117 15.20966,1.00767 20.61914,1.66993 2.70474,0.33112 5.00088,0.68877 6.82422,1.07226 1.82334,0.38349 3.1744,0.79294 3.98828,1.22852 1.92416,1.02977 3.82794,2.34788 5.6875,3.9082 1.85956,1.56032 3.67513,3.36345 5.41992,5.35937 1.7448,1.99593 3.42015,4.18489 5,6.52149 3.15971,4.67321 5.9378,9.9341 8.13672,15.40039 1.09947,2.73314 2.05388,5.51763 2.83789,8.30664 0.78402,2.78901 1.39801,5.58209 1.81641,8.33203 0.4184,2.74995 0.64192,5.45633 0.64453,8.07227 l 0.0176,18.69531 h -35.05469 c -6.64045,0 -12.19524,-0.11267 -16.82617,-0.37109 -4.63093,-0.25843 -8.33825,-0.66348 -11.2832,-1.24414 -2.94495,-0.58067 -5.12843,-1.33797 -6.71094,-2.30469 -1.58251,-0.96672 -2.56382,-2.14199 -3.10742,-3.5586 -0.27711,-0.72213 -0.71093,-1.36904 -1.29688,-1.96484 -0.0378,-0.038 -0.0604,-0.0816 -0.0996,-0.11914 -0.002,-0.002 -0.006,-0.004 -0.008,-0.006 -0.57647,-0.55554 -1.35384,-1.04722 -2.28906,-1.5 -0.11285,-0.0546 -0.19785,-0.11675 -0.31641,-0.16992 1.91169,1.48658 2.20703,3.55426 2.20703,6.46289 0,9.50048 2.58266,10.08341 38.63868,8.72461 l 38.64062,-1.45508 1.5293,-18.39648 c 1.94565,-23.40187 -10.02439,-46.63618 -30.43946,-59.08399 -14.14708,-8.62598 -25.31369,-9.72308 -98.22656,-9.64258 z m -9.50781,69.67188 c -0.0611,0 -0.0855,0.004 -0.14649,0.004 0.48433,3e-5 0.66611,0.008 1.14258,0.008 -0.39819,-2.1e-4 -0.59272,-0.0117 -0.99609,-0.0117 z m -61.88086,5.73633 c -1.57303,0.83685 -2.86042,1.7932 -3.92969,2.875 -0.15801,0.16477 -0.30403,0.33873 -0.45117,0.50976 -0.88423,0.99199 -1.61155,2.07968 -2.16992,3.29688 -0.43057,0.99875 -0.80862,2.04413 -1.0586,3.20703 -0.12603,0.53322 -0.25214,1.06592 -0.34375,1.63672 -0.27041,1.87566 -0.42968,3.87498 -0.42968,6.17187 0,1.3941 0.0216,2.61823 0.15039,3.69531 0.12879,1.07709 0.36502,2.00786 0.79687,2.81055 0.43186,0.80269 1.05762,1.47792 1.9668,2.04883 0.90918,0.57091 2.10134,1.03624 3.66211,1.41797 3.12153,0.76346 7.72067,1.19265 14.49414,1.45508 6.77347,0.26243 15.7215,0.35864 27.54102,0.46093 13.46995,0.11658 25.51536,0.33034 36.29296,0.70899 10.77761,0.37865 20.2882,0.92276 28.6836,1.69726 8.3954,0.77451 15.67667,1.77985 22,3.08399 3.16166,0.65207 6.08336,1.37794 8.78515,2.1875 2.7018,0.80956 5.18415,1.70372 7.46485,2.6875 2.28069,0.98378 4.35945,2.05771 6.25781,3.23242 1.89836,1.17471 3.61513,2.44966 5.16992,3.83203 1.5548,1.38237 2.94727,2.87176 4.19727,4.47852 1.25,1.60675 2.35783,3.32987 3.34179,5.17773 0.98397,1.84786 1.84487,3.82205 2.60157,5.92774 0.7567,2.10568 1.41031,4.34437 1.97851,6.72461 1.13641,4.76046 1.93381,10.08592 2.54883,16.04492 0.67045,6.49603 0.94278,12.90964 0.83984,19.18945 -0.10293,6.27981 -0.58046,12.4263 -1.41406,18.39063 -0.8336,5.96432 -2.02336,11.74535 -3.54492,17.29492 -1.52156,5.54957 -3.37617,10.8668 -5.54297,15.90234 -2.1668,5.03555 -4.64473,9.79064 -7.41406,14.21289 -8.30798,13.26676 -19.23149,23.54948 -32.19336,29.50977 -2.41795,1.11185 -5.76919,2.15899 -9.89258,3.13086 -4.12339,0.97187 -9.01831,1.86886 -14.52734,2.68164 -5.50904,0.81277 -11.63214,1.5412 -18.20703,2.17578 -26.29957,2.5383 -59.84666,3.57333 -90.40821,2.49609 -7.64038,-0.26931 -15.09389,-0.66984 -22.20117,-1.21289 -9.28467,-0.70942 -16.41873,-1.30752 -22.15039,-2.08203 -2.86583,-0.38726 -5.38037,-0.81843 -7.63867,-1.33008 -2.2583,-0.51164 -4.25973,-1.10439 -6.09766,-1.8125 -1.83792,-0.7081 -3.51249,-1.53117 -5.11718,-2.50781 -1.6047,-0.97664 -3.1406,-2.10657 -4.69922,-3.42383 -3.11725,-2.63452 -6.328912,-6.02174 -10.384769,-10.45117 -3.321928,-3.6279 -6.047977,-6.87302 -8.269531,-9.93555 -2.221554,-3.06253 -3.939127,-5.94186 -5.240234,-8.83984 -1.301108,-2.89798 -2.185504,-5.81496 -2.746094,-8.94922 -0.56059,-3.13426 -0.796875,-6.48646 -0.796875,-10.25781 0,-4.7308 0.02816,-8.31056 0.386719,-11.06055 0.179281,-1.37499 0.442614,-2.54229 0.824218,-3.54297 0.381604,-1.00068 0.881967,-1.83405 1.541016,-2.54101 0.659049,-0.70696 1.476665,-1.28742 2.488281,-1.78125 1.011616,-0.49384 2.216945,-0.90042 3.65625,-1.26172 2.87861,-0.7226 6.68842,-1.26149 11.728516,-1.9375 6.188123,-0.83001 12.044623,-1.05254 17.347653,-0.74024 2.65152,0.15616 5.16422,0.44683 7.51172,0.86133 2.3475,0.4145 4.52926,0.95273 6.51758,1.60742 1.98832,0.6547 3.78344,1.42601 5.35742,2.30274 1.57399,0.87673 2.92677,1.85884 4.03125,2.93945 1.10449,1.08062 1.96119,2.25905 2.54102,3.52539 0.57982,1.26635 0.88281,2.62077 0.88281,4.05469 v -5.72266 c 0,-11.86799 -1.27157,-12.36133 -31.875,-12.36133 -33.619054,10e-6 -37.925781,3.0274 -37.925781,26.66016 0,18.00725 17.139594,44.28298 35.207031,53.97266 14.4621,7.75609 29.07031,9.11133 98.28125,9.11133 71.07161,0 83.71895,-1.23807 100.56836,-9.83399 38.32411,-19.55151 55.9934,-59.63259 51.41797,-116.63281 -2.33926,-29.142 -4.52725,-34.91534 -17.32227,-45.68164 -14.08998,-11.85594 -17.36342,-12.32422 -86.26172,-12.32422 -39.38869,0 -72.88693,-2.05438 -74.43945,-4.56641 -1.55252,-2.51202 -0.6177,-10.36573 2.07617,-17.45117 1.16192,-3.05606 2.07026,-5.36837 3.55469,-7.14648 z m 85.83789,138.57617 c -9.54535,2.76507 -35.20142,5.60123 -65.55273,7.03515 l -55.19336,2.60938 c 1.22159,0.1583 2.99891,0.21883 4.58984,0.31055 3.91099,0.22377 8.6037,0.31612 15.31055,0.16797 1.56791,-0.0326 3.63659,-0.11483 5.38476,-0.16602 8.03824,-0.2415 17.08629,-0.59294 29.46289,-1.17773 9.34623,-0.44161 17.48406,-0.87457 24.61914,-1.35743 4.22822,-0.27787 7.86367,-0.5942 11.41797,-0.91797 14.63051,-1.37147 23.86062,-3.24316 29.96094,-6.5039 z"
   style="fill:#ffff00;stroke-width:10.9686"
   id="path244" /><path
   d="m 407.41797,186.96484 -8.01953,35.51172 c -4.41072,19.53128 -8.01953,45.14521 -8.01953,56.91992 0,1.4513 -0.037,2.8804 -0.10547,4.27539 0.0653,-0.28327 0.12803,-0.62433 0.19336,-0.91015 1.27742,-5.58776 2.55976,-11.58772 3.77343,-17.83399 0.001,-0.007 0.003,-0.0144 0.004,-0.0215 1.27588,-6.57991 2.48286,-13.36279 3.53516,-20.02148 2.14136,-13.55004 4.43223,-26.42566 6.39843,-36.25391 0.98311,-4.91413 1.88522,-9.06616 2.64649,-12.16016 0.76126,-3.094 1.38201,-5.12979 1.80273,-5.81054 0.18662,-0.30196 0.60163,-0.57543 1.2168,-0.82227 0.61517,-0.24684 1.43027,-0.46627 2.41797,-0.66016 1.97539,-0.38776 4.64011,-0.67249 7.76953,-0.86132 6.25885,-0.37767 14.37824,-0.37525 22.56445,-0.0605 8.18622,0.3147 16.44016,0.94131 22.96875,1.81055 3.2643,0.43462 6.09574,0.9311 8.27344,1.47851 2.1777,0.54742 3.70077,1.14608 4.34375,1.78906 0.34193,0.34194 0.2399,2.48998 -0.23633,6.07618 -0.47622,3.58619 -1.32746,8.6102 -2.48242,14.70507 -2.30992,12.18975 -5.83707,28.66167 -10.02539,46.47266 -4.18831,17.81099 -7.99532,34.93838 -10.75586,48.18555 -2.76054,13.24716 -4.47461,22.61418 -4.47461,24.90234 0,0.64703 0.0955,1.19148 0.18945,1.74024 0.091,0.42232 0.20287,0.82525 0.34961,1.20117 2.80929,-14.86749 29.50985,-131.11572 32.4336,-140.92774 2.32313,-7.79642 -1.62439,-8.72461 -37.08203,-8.72461 z m 140.24609,0 -16.55273,73.53907 c -9.10453,40.44645 -19.02974,75.18655 -22.05469,77.20117 -1.12668,0.75036 -4.33032,1.378 -8.24609,1.92969 l 12.71875,-0.60547 15.75,-62.32227 c 8.663,-34.27647 17.08261,-68.79715 18.70898,-76.71289 l 2.67774,-13.0293 z m 20.26367,0 15.69141,1.25977 c 8.98546,0.72127 17.42841,1.64946 23.79102,2.56445 3.1813,0.4575 5.84145,0.91272 7.79101,1.33594 1.94956,0.42322 3.18769,0.81464 3.52149,1.14844 0.30627,0.30627 -0.10899,3.68471 -1.08008,9.37695 -0.9711,5.69224 -2.49892,13.69784 -4.41406,23.25977 -3.8303,19.12385 -9.2137,44.47163 -14.82032,69.97656 -5.60662,25.50493 -11.43593,51.16805 -16.15234,70.92383 -2.35821,9.87789 -4.43854,18.27912 -6.07422,24.44531 -1.63568,6.16618 -2.82641,10.09696 -3.40625,11.03516 -0.17184,0.27804 -0.87722,0.54984 -2.06055,0.8125 -1.18333,0.26266 -2.84458,0.51607 -4.93164,0.75781 -4.1741,0.48348 -10.04702,0.92052 -17.18945,1.28711 -7.14243,0.36659 -15.55407,0.66371 -24.80273,0.86914 -9.24867,0.20543 -19.33533,0.31836 -29.82813,0.31836 -17.45938,0 -31.02966,-0.0554 -41.75195,-0.28711 -10.7223,-0.23174 -18.59655,-0.63971 -24.66797,-1.34571 -3.03571,-0.35299 -5.62061,-0.77984 -7.88477,-1.29687 -2.26416,-0.51703 -4.20755,-1.12455 -5.96093,-1.83594 -1.75339,-0.71138 -3.31693,-1.52683 -4.82032,-2.46289 -1.50338,-0.93605 -2.94677,-1.99255 -4.46093,-3.18359 -3.35561,-2.63952 -6.42039,-5.4801 -9.18555,-8.49219 -2.76516,-3.01209 -5.23102,-6.1957 -7.39063,-9.51758 -2.1596,-3.32187 -4.01184,-6.78268 -5.55078,-10.35156 -1.53894,-3.56888 -2.7648,-7.24494 -3.66797,-10.99805 -0.90316,-3.75311 -1.48404,-7.58443 -1.73632,-11.45898 -0.25229,-3.87455 -0.17543,-7.79335 0.23828,-11.72656 0.41371,-3.93322 1.16495,-7.87951 2.25976,-11.8086 1.09482,-3.92909 2.53319,-7.84094 4.32422,-11.70312 0.74003,-1.5958 1.64684,-4.52108 2.54297,-7.37891 -0.0426,0.0189 -0.0842,0.054 -0.12695,0.0684 -9.13678,3.04558 -15.59207,43.55246 -9.75782,61.23047 5.30994,16.08927 26.07824,38.98093 39.94141,44.02539 4.1132,1.49669 41.45047,2.89875 82.9707,3.11523 74.30482,0.38742 75.53396,0.21727 78.22071,-10.82421 1.50128,-6.1698 11.97432,-52.72369 23.27343,-103.45313 11.29913,-50.72944 21.68389,-96.16221 23.07618,-100.96094 2.25912,-7.78643 -1.70264,-8.72461 -36.82618,-8.72461 z"
   style="fill:#ffff00;stroke-width:10.9686"
   id="path243" /><path
   d="m 752.17383,187.75391 c -8.69355,0.0193 -18.36107,0.13713 -29.14258,0.32421 l -79.45898,1.37891 -26.16602,114.67188 c -14.39174,63.06903 -26.26395,117.57026 -26.38281,121.11328 -0.16264,4.84804 9.29189,6.08219 38.21289,4.98633 36.37118,-1.37818 38.58567,-2.12504 41.33984,-13.92188 0.85683,-3.66997 1.61869,-6.25552 3.64844,-8.16016 -0.47068,0.36039 -0.88422,0.74861 -1.28906,1.14258 -0.52221,0.51739 -1.02659,1.04792 -1.45508,1.63477 -0.27238,0.36035 -0.521,0.75254 -0.76758,1.14258 -0.53227,0.87027 -1.04499,1.75612 -1.51562,2.78906 -0.58587,1.28583 -1.15991,2.4278 -1.7754,3.44336 -0.61548,1.01556 -1.27259,1.90505 -2.02539,2.68164 -0.7528,0.77658 -1.6018,1.44086 -2.59961,2.00976 -0.9978,0.56891 -2.14363,1.04302 -3.49414,1.43555 -2.70102,0.78506 -6.21661,1.24829 -10.97461,1.51563 -4.75799,0.26733 -10.75903,0.33789 -18.43554,0.33789 -6.89046,0 -12.46628,-0.0922 -16.95508,-0.33008 -4.4888,-0.23789 -7.88985,-0.62219 -10.42969,-1.20117 -1.26991,-0.2895 -2.3258,-0.62737 -3.19336,-1.02149 -0.86755,-0.39411 -1.54657,-0.84383 -2.06836,-1.35547 -0.52178,-0.51164 -0.88654,-1.0845 -1.11914,-1.72656 -0.2326,-0.64206 -0.33398,-1.35328 -0.33398,-2.13867 0,-1.72404 2.59759,-14.78609 6.5957,-33.76758 7.99623,-37.96297 21.59756,-99.60555 31.24024,-141.58203 4.82133,-20.98824 8.65238,-37.05933 10.29882,-42.79688 0.22508,-0.78434 0.48747,-1.50043 0.84571,-2.15234 0.35823,-0.6519 0.81166,-1.24051 1.41797,-1.76953 0.6063,-0.52902 1.36666,-0.99837 2.33593,-1.41406 0.96928,-0.41569 2.14855,-0.77597 3.59571,-1.08789 2.89431,-0.62384 6.85822,-1.05033 12.35351,-1.31641 5.49529,-0.26608 12.52158,-0.37264 21.53711,-0.35742 12.02071,0.0203 27.57985,0.25763 47.76563,0.61914 l 85.84179,1.53711 c -12.5501,-5.14524 -31.77115,-6.74323 -67.44726,-6.66406 z m 69.63476,7.58984 11.21289,13.04687 c 1.64807,1.91775 3.31678,4.1271 4.92188,6.47852 1.6051,2.35142 3.14711,4.84495 4.54101,7.33008 1.39391,2.48513 2.63985,4.96237 3.6543,7.28125 1.01445,2.31888 1.79692,4.47936 2.26367,6.33203 0.56429,2.23977 0.83253,5.26698 0.8418,8.9043 0.009,3.63732 -0.23957,7.8852 -0.71094,12.56836 -0.47137,4.68315 -1.16534,9.80046 -2.04297,15.17773 -0.87762,5.37727 -1.93893,11.01472 -3.14843,16.73438 -2.419,11.43931 -5.42832,23.2116 -8.72852,33.91015 -1.6501,5.34928 -3.37398,10.42991 -5.13281,15.06641 -1.75883,4.6365 -3.55253,8.82838 -5.3457,12.40039 -2.20312,4.38859 -4.31079,8.31949 -6.43946,11.85156 -2.12867,3.53208 -4.27785,6.66505 -6.5625,9.45703 -2.28465,2.79198 -4.7059,5.2438 -7.37695,7.41211 -2.67105,2.16831 -5.59298,4.05379 -8.88086,5.71485 -3.28788,1.66105 -6.94104,3.09695 -11.07617,4.36718 -4.13513,1.27023 -8.75205,2.37528 -13.96485,3.3711 -5.2128,0.99582 -11.02207,1.88286 -17.54296,2.7207 -6.5209,0.83783 -13.75309,1.6256 -21.8125,2.42187 -10.85792,1.07277 -18.75204,1.95009 -25.92188,2.82618 -1.8428,0.22714 -3.93665,0.46162 -5.57031,0.68554 -6.52719,0.88206 -11.48156,1.76506 -15.29297,2.75391 -1.25874,0.32764 -2.41082,0.66506 -3.44531,1.02148 -0.002,6.9e-4 -0.004,0.001 -0.006,0.002 7.09393,-1.91038 20.14069,-2.62311 45.38672,-3.83008 81.24804,-3.8843 98.11477,-17.93229 117.5664,-97.91211 12.7242,-52.31845 12.03342,-70.01545 -3.59375,-92.13281 -5.09801,-7.2153 -10.16454,-12.35583 -17.79297,-15.96094 z m -77.68945,61.41992 c -5.1775,0 -9.9161,0.1481 -14.16602,0.43555 -4.24991,0.28745 -8.01188,0.71389 -11.23437,1.27148 -3.22249,0.5576 -5.90479,1.2462 -8,2.05664 -1.0476,0.40522 -1.94825,0.84146 -2.69531,1.30664 -0.74706,0.46519 -1.34135,0.95944 -1.77539,1.48243 -0.74772,0.90094 -1.66431,2.6292 -2.67969,4.97851 -1.01538,2.34932 -2.13053,5.32029 -3.27539,8.70899 -2.28972,6.7774 -4.69923,15.22403 -6.67774,23.70507 l -7.19531,30.8418 h 3.65039 l 3.38477,-18.69726 c 1.86222,-10.28299 5.89216,-26.54903 8.95508,-36.14649 5.56638,-17.44198 5.58451,-17.45028 39.21875,-18.92383 4.62681,-0.2027 9.03763,-0.285 13.05078,-0.25976 12.03945,0.0757 20.49515,1.11554 20.42187,2.75195 -0.38305,8.55629 -13.88272,60.80301 -17.02344,65.88477 -1.8326,2.96521 -17.87566,5.39062 -35.66992,5.39062 h 0.72852 36.7168 l 5.26367,-18.69726 c 1.44752,-5.14147 3.10971,-11.91792 4.62304,-18.69532 1.51334,-6.7774 2.87783,-13.55579 3.72657,-18.69726 l 3.08593,-18.69727 z"
   style="fill:#ffff00;stroke-width:10.9686"
   id="path242" /><path
   d="m 991.64844,186.98242 c -54.52065,-0.0168 -61.95973,1.07479 -77.16016,11.31836 -9.25219,6.23505 -21.73456,18.62624 -27.73828,27.53516 -11.23839,16.67662 -31.69922,94.96929 -31.69922,121.29492 0,20.95516 12.74653,43.04677 31.40234,54.42187 13.25515,8.08215 25.20482,9.7345 70.47657,9.75 66.86941,0.0229 90.99961,-9.14259 109.49411,-41.59179 9.1214,-16.00344 14.3057,-28.68832 15.3985,-37.17578 h -3.2246 c -0.6203,3.28547 -1.9084,7.30919 -3.8868,12.17578 -0.018,0.0441 -0.046,0.1003 -0.064,0.14453 -1.9833,4.86319 -4.6249,10.53468 -7.9942,17.18359 -2.5053,4.94408 -4.8355,9.10987 -7.1777,12.6875 -2.3421,3.57764 -4.6957,6.56807 -7.25,9.16016 -2.5543,2.59209 -5.3094,4.78598 -8.4512,6.77344 -3.1417,1.98745 -6.6708,3.76753 -10.7754,5.53125 -2.9995,1.28889 -6.291,2.47838 -9.8437,3.56445 -3.5527,1.08607 -7.367,2.06959 -11.4121,2.94726 -4.0452,0.87768 -8.322,1.64879 -12.79884,2.3125 -4.47684,0.66372 -9.15418,1.21987 -14.00195,1.66407 -4.84778,0.4442 -9.86548,0.77698 -15.02344,0.99609 -5.15796,0.21912 -10.45588,0.32403 -15.86328,0.3125 -5.40741,-0.0115 -10.92343,-0.13897 -16.51953,-0.38672 -5.59611,-0.24774 -11.27204,-0.61595 -16.9961,-1.10547 -7.14672,-0.61118 -12.79232,-1.19313 -17.44336,-1.96484 -2.32552,-0.38586 -4.40345,-0.82003 -6.29492,-1.32813 -1.89147,-0.50809 -3.59569,-1.09031 -5.17969,-1.77539 -1.584,-0.68508 -3.0461,-1.47186 -4.44922,-2.38867 -1.40311,-0.9168 -2.74885,-1.96275 -4.09765,-3.16601 -2.69761,-2.40653 -5.41249,-5.44145 -8.65235,-9.32227 -2.23807,-2.68086 -4.21472,-5.48259 -5.93164,-8.43945 -1.71691,-2.95686 -3.17467,-6.06951 -4.37304,-9.36719 -1.19838,-3.29768 -2.13785,-6.78106 -2.82032,-10.48437 -0.68246,-3.70332 -1.10816,-7.62507 -1.27734,-11.79883 -0.16918,-4.17376 -0.0817,-8.59958 0.25977,-13.3086 0.34147,-4.70901 0.9376,-9.70263 1.78711,-15.01172 0.8495,-5.30908 1.95173,-10.93422 3.30664,-16.9082 1.3549,-5.97397 2.96263,-12.29632 4.82031,-19 3.29545,-11.89202 6.25275,-21.70925 9.16601,-30 1.45664,-4.14537 2.90122,-7.90921 4.37305,-11.35937 1.47183,-3.45017 2.9704,-6.58682 4.53125,-9.47852 1.56085,-2.8917 3.1845,-5.53979 4.9082,-8.00976 1.72371,-2.46998 3.54743,-4.76228 5.50782,-6.94727 1.96039,-2.18499 4.05722,-4.26208 6.32812,-6.29883 2.2709,-2.03675 4.71586,-4.03334 7.3711,-6.05859 2.06568,-1.57558 3.93515,-2.96523 5.73046,-4.19141 1.79532,-1.22618 3.51588,-2.28798 5.28516,-3.20898 1.76928,-0.92101 3.58663,-1.70127 5.57422,-2.36133 1.98759,-0.66006 4.14547,-1.20119 6.5957,-1.64453 2.45024,-0.44334 5.19435,-0.7897 8.35157,-1.06055 3.15721,-0.27085 6.72739,-0.46679 10.83593,-0.60937 8.21708,-0.28517 18.58192,-0.35708 32.07032,-0.39454 8.1539,-0.0226 15.56393,0.038 22.31833,0.20899 6.7544,0.171 12.854,0.45331 18.3828,0.86914 5.5289,0.41583 10.4876,0.9659 14.9649,1.67773 4.4773,0.71183 8.4725,1.58358 12.0722,2.64258 3.5998,1.05901 6.8032,2.30436 9.6993,3.76172 2.8961,1.45736 5.4851,3.12827 7.8515,5.03516 2.3665,1.90688 4.5107,4.05139 6.5215,6.45898 2.0108,2.40759 3.8878,5.07765 5.7168,8.03711 1.691,2.73609 3.1556,5.50907 4.3945,8.32227 1.239,2.81319 2.2525,5.66579 3.0391,8.5664 0.7866,2.90061 1.3459,5.84737 1.6797,8.84571 0.3337,2.99833 0.4417,6.04987 0.3223,9.15625 -0.1195,3.10637 -0.466,6.26942 -1.0391,9.49414 -0.5731,3.22472 -1.3733,6.5099 -2.4004,9.86328 -1.0271,3.35338 -2.2802,6.77328 -3.7617,10.26562 -1.4815,3.49235 -3.1907,7.05759 -5.127,10.69922 -1.8335,3.44846 -3.3359,6.57116 -4.6132,9.44727 -0.1288,0.29094 -0.2913,0.61983 -0.4141,0.90429 -1.1082,2.5563 -1.9009,4.75685 -2.5274,6.75586 -0.099,0.31801 -0.2274,0.66945 -0.3144,0.97266 h 0.1738 c 1.0745,-1.61799 2.4855,-3.53677 4.3711,-5.97266 10.8465,-14.01092 21.2168,-41.42147 21.2168,-56.08007 0,-17.13254 -16.1849,-44.527 -32.0078,-54.17579 -12.7855,-7.79656 -25.4565,-9.36731 -75.69336,-9.38281 z"
   style="fill:#ffff00;stroke-width:10.9686"
   id="path241" /><path
   d="m 1243.9355,187.73633 c -9.762,-0.0351 -21.6,0.0853 -35.8144,0.34375 l -75.7012,1.37695 -23.7988,104.69922 c -13.0894,57.58476 -23.8957,107.59958 -24.0137,111.14258 -0.1614,4.8464 9.2686,6.08182 38.0742,4.98633 l 38.2891,-1.45704 15.959,-70.56054 c 8.7783,-38.80879 17.4823,-73.02448 19.3418,-76.03321 1.9499,-3.15511 18.6606,-5.4707 39.4824,-5.4707 h 36.1016 l 5.9824,-28.9668 c 3.2908,-15.9323 5.9844,-31.69721 5.9844,-35.03125 0,-3.41471 -10.6003,-4.92394 -39.8868,-5.02929 z m -36.6562,4.21289 h 72.8418 l -3.3164,24.99023 c -0.6697,5.04873 -1.2459,9.45668 -1.8203,13.30664 -0.5745,3.84997 -1.1468,7.14169 -1.8106,9.95508 -0.6638,2.8134 -1.4197,5.14888 -2.3574,7.08789 -0.9377,1.93902 -2.057,3.48216 -3.4531,4.70899 -1.3962,1.22683 -3.0683,2.13762 -5.1074,2.81445 -2.0392,0.67683 -4.4457,1.11917 -7.3125,1.4082 -2.8668,0.28903 -6.1933,0.42486 -10.0723,0.48828 -3.879,0.0634 -8.311,0.0547 -13.3867,0.0547 h -36.3125 l -10.0723,38.64063 c -5.5391,21.25144 -12.7123,50.97888 -15.9394,66.06054 -2.587,12.08993 -4.308,20.93859 -6.0332,27.41211 -0.8627,3.23676 -1.7253,5.88021 -2.6993,8.03711 -0.9739,2.1569 -2.0582,3.8279 -3.3613,5.1211 -0.6516,0.6466 -1.3581,1.19871 -2.1328,1.66992 -0.7747,0.4712 -1.6179,0.86076 -2.543,1.18359 -1.8501,0.64566 -4.0276,1.02205 -6.6426,1.23633 -5.2299,0.42856 -12.2082,0.21094 -21.8046,0.21094 -7.1173,0 -12.8353,-0.0878 -17.4102,-0.32422 -4.5749,-0.23641 -8.0076,-0.62181 -10.5488,-1.21289 -1.2706,-0.29554 -2.3182,-0.64245 -3.1758,-1.04883 -0.8576,-0.40638 -1.5251,-0.87229 -2.0332,-1.4043 -0.5081,-0.532 -0.8559,-1.13032 -1.0781,-1.80273 -0.2223,-0.67241 -0.3184,-1.41849 -0.3184,-2.2461 0,-1.57259 1.4958,-9.62758 4.0274,-22.05664 2.5315,-12.42905 6.0994,-29.23209 10.246,-48.30273 8.2933,-38.14128 18.8997,-85.35112 28.1543,-124.76953 0.3229,-1.37515 0.6282,-2.58183 1.0547,-3.64063 0.4266,-1.05879 0.9753,-1.97018 1.7832,-2.7539 0.808,-0.78372 1.8747,-1.44032 3.3418,-1.99024 1.4671,-0.54991 3.3343,-0.99222 5.7383,-1.34961 2.404,-0.35738 5.3462,-0.62981 8.9649,-0.83593 3.6186,-0.20613 7.9142,-0.34722 13.0253,-0.44336 10.2222,-0.19229 23.7062,-0.20508 41.5645,-0.20508 z"
   style="fill:#fdeb05;stroke-width:10.9686"
   id="path240" /><path
   d="m 262.04102,126.91406 c -42.43102,-0.0897 -86.43127,1.55225 -99.22071,4.9961 -10.38575,2.79658 -23.67874,10.1897 -29.53906,16.42773 -34.224029,36.42981 -34.763198,115.36976 -0.91211,133.48633 9.3139,4.98465 99.35374,14.55429 138.72852,14.74414 16.29986,0.0786 16.7259,0.58725 13.59961,16.21875 -5.35318,26.7659 -10.88819,29.01283 -79.48243,32.25391 -56.92688,2.68977 -63.12109,2.16033 -63.12109,-5.37891 0,-11.47145 -19.43685,-17.87082 -44.189453,-14.55078 -20.160486,2.70407 -20.625,3.20173 -20.625,22.125 0,15.0855 3.764956,23.47075 17.052734,37.98242 16.223509,17.71781 18.949009,18.76973 56.087889,21.60742 56.85853,4.34444 135.89264,-0.37663 155.23633,-9.27148 34.56517,-15.89419 54.63315,-62.5315 49.26953,-114.5 -4.9202,-47.6722 -21.5621,-54.85058 -129.32226,-55.78321 -47.27829,-0.40916 -48.61133,-0.73584 -48.61133,-11.88867 0,-20.63141 8.40013,-23.43359 70.26367,-23.43359 47.22098,0 58.84345,1.42093 61.16797,7.47851 2.17441,5.66644 11.36581,7.47852 37.92773,7.47852 h 35.05469 l -0.0176,-18.69531 c -0.0209,-20.92763 -14.14963,-47.66214 -29.54297,-55.90039 -6.51106,-3.48463 -47.37368,-5.30683 -89.80468,-5.39649 z"
   style="fill:#fdeb05;stroke-width:10.9686"
   id="path239" /><path
   d="m 550.94531,185.60156 -2.95703,14.39258 c -1.62638,7.91577 -10.04594,42.43625 -18.70898,76.71289 l -15.75,62.32227 -31.16211,1.48437 c -26.36905,1.25609 -31.16016,0.20329 -31.16016,-6.83789 0,-4.57635 6.85381,-37.46573 15.23047,-73.08789 8.37667,-35.62216 14.11189,-65.88615 12.74414,-67.25391 -5.1439,-5.1439 -66.56873,-7.50519 -69.55469,-2.67382 -1.6829,2.72301 -6.56491,27.12439 -10.84765,54.22461 -4.28274,27.10019 -11.06523,56.3416 -15.07227,64.98242 -14.3283,30.89764 -6.13596,64.9404 20.70899,86.05664 12.11333,9.52835 19.70901,10.41211 89.54687,10.41211 41.97142,0 77.43774,-1.82054 78.8125,-4.04492 4.63874,-7.50565 48.39749,-206.56737 45.94727,-209.01758 -1.33521,-1.33522 -17.13252,-3.60628 -35.10352,-5.04883 z"
   style="fill:#fdeb05;stroke-width:10.9686"
   id="path238" /><path
   d="m 686.01367,192.26172 c -36.06231,-0.0609 -40.28531,1.82286 -42.08594,8.09765 -6.5858,22.95032 -48.13476,211.25028 -48.13476,218.14649 0,6.28313 6.53764,7.77344 34.09961,7.77344 30.70622,0 34.61774,-1.13713 39.30469,-11.42383 4.72712,-10.3749 10.3521,-11.93305 61.28125,-16.96485 64.47562,-6.37019 76.03126,-12.2075 93.65625,-47.3164 14.3455,-28.57618 28.78186,-96.8435 24.26757,-114.76172 -1.86703,-7.41072 -8.78858,-19.75085 -15.38086,-27.42188 l -11.98632,-13.94726 -87.25586,-1.5625 c -20.18588,-0.36151 -35.74486,-0.59885 -47.76563,-0.61914 z m 58.10547,64.50195 h 32.43359 l -3.08593,18.69727 c -1.69749,10.283 -5.45455,27.10959 -8.34961,37.39258 l -5.26367,18.69726 h -36.7168 -36.7168 l 7.19531,-30.8418 c 3.95703,-16.96217 9.64192,-33.78878 12.63282,-37.39257 3.47233,-4.18394 17.16097,-6.55274 37.87109,-6.55274 z"
   style="fill:#fdeb05;stroke-width:10.9686"
   id="path237" /><path
   d="m 986.82227,190.60937 c -53.95387,0.14983 -57.91782,0.86604 -74.44336,13.47071 -21.24202,16.20208 -29.00369,30.58401 -42.18555,78.15234 -14.86153,53.62965 -13.6762,82.87139 4.22851,104.31836 12.95949,15.52336 17.53018,17.50057 46.11719,19.94531 45.79272,3.91618 88.46234,0.007 112.45894,-10.30468 16.4185,-7.05489 23.633,-14.37596 33.6543,-34.15235 6.7826,-13.38477 10.7015,-22.9156 11.9454,-29.5039 h -33.0372 c -9.086,6.68204 -32.9159,11.45119 -60.88277,11.45117 -35.7968,-2.7e-4 -64.8149,-7.81357 -64.8125,-17.45117 0.002,-9.63684 29.01854,-17.44896 64.8125,-17.44922 15.05931,-10e-6 28.88247,1.3952 39.88677,3.71484 v -0.20703 h 48.9746 c 1.3093,-4.50779 3.99,-10.69262 7.9179,-18.08008 15.4903,-29.13317 16.4207,-53.32407 2.8926,-75.21289 -14.6326,-23.67584 -32.2957,-28.87255 -97.52733,-28.69141 z m 0.3496,59.14063 c 24.78083,7e-5 44.87003,7.81223 44.87113,17.44922 0,9.63775 -20.0883,17.4511 -44.87113,17.45117 -24.78277,-7e-5 -44.87275,-7.81342 -44.87109,-17.45117 0.001,-9.63699 20.09028,-17.44915 44.87109,-17.44922 z"
   style="fill:#fdeb05;stroke-width:10.9686"
   id="path236" /><path
   d="m 1207.2793,191.94922 c -71.4336,0 -72.8898,0.21751 -75.4727,11.21875 -18.5094,78.83721 -42.4277,188.83849 -42.4277,195.1289 0,6.62084 6.0952,8.03907 34.5645,8.03907 38.3861,0 34.869,3.48887 45.2168,-44.8711 3.2271,-15.08174 10.4003,-44.809 15.9394,-66.06054 l 10.0723,-38.64063 h 36.3125 c 40.6062,0 39.9624,0.5658 45.3203,-39.82422 l 3.3164,-24.99023 z"
   style="fill:#fdeb05;stroke-width:10.9686"
   id="path235" /><path
   d="m 987.17187,249.75 c -24.78086,7e-5 -44.86998,7.81222 -44.87109,17.44922 -0.002,9.63776 20.08827,17.4511 44.87109,17.45117 24.78283,-7e-5 44.87273,-7.81341 44.87113,-17.45117 -0,-9.637 -20.0903,-17.44915 -44.87113,-17.44922 z"
   style="fill:#ff221d;stroke-width:2.2"
   id="path234" /><path
   d="m 984.67773,309.08594 c -35.79407,2.6e-4 -64.81089,7.81235 -64.8125,17.44922 -0.002,9.63763 29.0156,17.4509 64.8125,17.45117 27.96697,2e-5 51.79677,-4.76911 60.88277,-11.45117 h -20.996 v -19.73438 c -11.0043,-2.31964 -24.82742,-3.71485 -39.88677,-3.71484 z"
   style="fill:#ff221d;stroke-width:2.2"
   id="path233" /><path
   d="m 1024.5645,312.59375 v 19.94141 h 59.8281 v -19.94141 z"
   style="fill:#ff221d;stroke-width:2.2"
   id="path232" /></g>
</svg>
