<?xml version="1.0" encoding="UTF-8" standalone="no"?>
<!-- Created with Inkscape (http://www.inkscape.org/) -->

<svg
   xmlns:dc="http://purl.org/dc/elements/1.1/"
   xmlns:cc="http://creativecommons.org/ns#"
   xmlns:rdf="http://www.w3.org/1999/02/22-rdf-syntax-ns#"
   xmlns:svg="http://www.w3.org/2000/svg"
   xmlns="http://www.w3.org/2000/svg"
   xmlns:sodipodi="http://sodipodi.sourceforge.net/DTD/sodipodi-0.dtd"
   xmlns:inkscape="http://www.inkscape.org/namespaces/inkscape"
   width="500"
   height="500.0394"
   id="svg4503"
   version="1.1"
   inkscape:version="0.48.1 "
   sodipodi:docname="New document 4">
  <defs
     id="defs4505">
    <clipPath
       clipPathUnits="userSpaceOnUse"
       id="clipPath3805">
      <path
         inkscape:connector-curvature="0"
         d="M 0,792 612,792 612,0 0,0 0,792 z"
         id="path3807" />
    </clipPath>
    <clipPath
       clipPathUnits="userSpaceOnUse"
       id="clipPath3117">
      <path
         inkscape:connector-curvature="0"
         d="M 0,792 612,792 612,0 0,0 0,792 z"
         id="path3119" />
    </clipPath>
  </defs>
  <sodipodi:namedview
     id="base"
     pagecolor="#ffffff"
     bordercolor="#666666"
     borderopacity="1.0"
     inkscape:pageopacity="0.0"
     inkscape:pageshadow="2"
     inkscape:zoom="0.7"
     inkscape:cx="848.06614"
     inkscape:cy="214.53641"
     inkscape:document-units="px"
     inkscape:current-layer="layer1"
     showgrid="false"
     fit-margin-top="0"
     fit-margin-left="0"
     fit-margin-right="0"
     fit-margin-bottom="0"
     inkscape:window-width="1920"
     inkscape:window-height="1028"
     inkscape:window-x="-8"
     inkscape:window-y="-8"
     inkscape:window-maximized="1" />
  <metadata
     id="metadata4508">
    <rdf:RDF>
      <cc:Work
         rdf:about="">
        <dc:format>image/svg+xml</dc:format>
        <dc:type
           rdf:resource="http://purl.org/dc/dcmitype/StillImage" />
        <dc:title></dc:title>
      </cc:Work>
    </rdf:RDF>
  </metadata>
  <g
     inkscape:label="Layer 1"
     inkscape:groupmode="layer"
     id="layer1"
     transform="translate(-75.566525,-238.1857)">
    <g
       transform="matrix(15.761062,0,0,15.761062,-5386.1466,-8583.2703)"
       id="g4881">
      <g
         transform="matrix(1.25,0,0,-1.25,378.2533,591.42559)"
         id="g3109">
        <path
           id="path3111"
           style="fill:#00a651;fill-opacity:1;fill-rule:nonzero;stroke:none"
           d="m 0,0 0.002,25.381 -25.378,0 L -25.377,0 0,0 z"
           inkscape:connector-curvature="0" />
      </g>
      <g
         transform="matrix(1.25,0,0,-1.25,348.82093,572.20434)"
         id="g3121">
        <path
           id="path3123"
           style="fill:#ffffff;fill-opacity:1;fill-rule:nonzero;stroke:none"
           d="m 0,0 3.188,0 0,-0.918 c 0,0 -0.505,0.043 -2.257,0.043 l 0,-1.335 c 0,0 0.715,0 2.101,0.07 l 0,-0.872 c 0,0 -0.349,0.016 -2.124,0.016 L 0.906,-4.57 c 0,0 1.109,-0.074 2.288,0.099 l 0,-0.855 -3.183,0 c 0,0 0.066,0.729 0.066,2.725 C 0.077,-0.608 0,0 0,0"
           inkscape:connector-curvature="0" />
      </g>
      <g
         transform="matrix(1.25,0,0,-1.25,356.18055,575.62471)"
         id="g3125">
        <path
           id="path3127"
           style="fill:#ffffff;fill-opacity:1;fill-rule:nonzero;stroke:none"
           d="m 0,0 -1.383,0 c 0,0.536 -0.004,1.18 -0.004,1.949 l 1.327,0 c 0,0 0.902,-0.027 0.902,-0.972 C 0.842,0.03 0.083,0 0,0 m -0.079,2.736 c -0.204,0 -1.487,-0.087 -2.187,0 0,0 0.021,-0.787 0.021,-2.662 C -2.247,-1.805 -2.29,-2.59 -2.29,-2.59 l 0.961,0 c 0,0 -0.032,0.297 -0.049,1.908 l 1.461,0 c 0,0 1.439,0.114 1.439,1.689 0,1.57 -1.398,1.729 -1.601,1.729"
           inkscape:connector-curvature="0" />
      </g>
      <g
         transform="matrix(1.25,0,0,-1.25,362.04355,578.33109)"
         id="g3129">
        <path
           id="path3131"
           style="fill:#ffffff;fill-opacity:1;fill-rule:nonzero;stroke:none"
           d="M 0,0 C 1.116,0 2.029,0.78 2.031,2.239 2.031,3.63 1.116,4.398 0.002,4.398 -1.119,4.398 -2.026,3.63 -2.026,2.239 -2.026,0.78 -1.12,0 0,0 m -2.932,2.239 c 0,1.556 1.312,2.818 2.934,2.818 1.621,0 2.936,-1.262 2.936,-2.818 C 2.936,0.679 1.622,-0.582 0,-0.582 c -1.621,0 -2.934,1.261 -2.932,2.821"
           inkscape:connector-curvature="0" />
      </g>
      <g
         transform="matrix(1.25,0,0,-1.25,370.84605,572.37646)"
         id="g3133">
        <path
           id="path3135"
           style="fill:#ffffff;fill-opacity:1;fill-rule:nonzero;stroke:none"
           d="m 0,0 c 0,0 -0.67,0.138 -0.98,0.138 -1.63,0 -2.871,-1.206 -2.871,-2.662 -10e-4,-1.131 0.622,-2.752 2.945,-2.752 0.938,0 0.989,0.22 0.989,0.22 l 0,0.948 c 0,0 -0.54,-0.5 -1.294,-0.5 -0.756,0 -1.722,0.57 -1.72,2.084 0,1.512 1.225,2.006 1.82,2.006 0.573,0 0.852,-0.328 0.852,-0.328 L 0,0 z"
           inkscape:connector-curvature="0" />
      </g>
      <g
         transform="matrix(1.25,0,0,-1.25,374.9183,576.02634)"
         id="g3137">
        <path
           id="path3139"
           style="fill:#ffffff;fill-opacity:1;fill-rule:nonzero;stroke:none"
           d="m 0,0 c -0.002,-1.744 -0.029,-2.269 -0.029,-2.269 l 0.842,0 c 0,0 -0.069,0.41 -0.067,2.665 0,2.251 0.038,2.546 0.038,2.546 l -0.799,0 c 0.07,-1.08 0,-2.094 0,-2.094 l -2.023,0 c 0,0 -0.07,1.014 0,2.094 l -0.798,0 c 0,0 0.038,-0.295 0.038,-2.546 0,-2.255 -0.077,-2.665 -0.077,-2.665 l 0.85,0 c 0,0 -0.03,0.525 -0.028,2.269 L 0,0 z"
           inkscape:connector-curvature="0" />
      </g>
    </g>
  </g>
</svg>
